G04 #@! TF.GenerationSoftware,KiCad,Pcbnew,5.1.6*
G04 #@! TF.CreationDate,2020-09-03T22:14:07-05:00*
G04 #@! TF.ProjectId,pcb,7063622e-6b69-4636-9164-5f7063625858,rev?*
G04 #@! TF.SameCoordinates,Original*
G04 #@! TF.FileFunction,Copper,L3,Inr*
G04 #@! TF.FilePolarity,Positive*
%FSLAX46Y46*%
G04 Gerber Fmt 4.6, Leading zero omitted, Abs format (unit mm)*
G04 Created by KiCad (PCBNEW 5.1.6) date 2020-09-03 22:14:07*
%MOMM*%
%LPD*%
G01*
G04 APERTURE LIST*
G04 #@! TA.AperFunction,ViaPad*
%ADD10O,1.350000X1.700000*%
G04 #@! TD*
G04 #@! TA.AperFunction,ViaPad*
%ADD11O,1.100000X1.500000*%
G04 #@! TD*
G04 #@! TA.AperFunction,ViaPad*
%ADD12O,1.700000X1.700000*%
G04 #@! TD*
G04 #@! TA.AperFunction,ViaPad*
%ADD13R,1.700000X1.700000*%
G04 #@! TD*
G04 #@! TA.AperFunction,ViaPad*
%ADD14O,1.000000X1.000000*%
G04 #@! TD*
G04 #@! TA.AperFunction,ViaPad*
%ADD15R,1.000000X1.000000*%
G04 #@! TD*
G04 #@! TA.AperFunction,ViaPad*
%ADD16C,5.400000*%
G04 #@! TD*
G04 #@! TA.AperFunction,ViaPad*
%ADD17O,1.600000X2.500000*%
G04 #@! TD*
G04 #@! TA.AperFunction,ViaPad*
%ADD18O,3.500000X7.000000*%
G04 #@! TD*
G04 #@! TA.AperFunction,ViaPad*
%ADD19C,0.685800*%
G04 #@! TD*
G04 #@! TA.AperFunction,Conductor*
%ADD20C,1.270000*%
G04 #@! TD*
G04 #@! TA.AperFunction,Conductor*
%ADD21C,0.254000*%
G04 #@! TD*
G04 APERTURE END LIST*
D10*
X57239000Y-62131000D03*
X62699000Y-62131000D03*
D11*
X57549000Y-65131000D03*
X62389000Y-65131000D03*
D12*
X70332600Y-110617000D03*
X70332600Y-108077000D03*
X70332600Y-105537000D03*
D13*
X70332600Y-102997000D03*
D12*
X70332600Y-86868000D03*
X70332600Y-84328000D03*
X70332600Y-81788000D03*
D13*
X70332600Y-79248000D03*
D12*
X52070000Y-65786000D03*
D13*
X52070000Y-63246000D03*
D12*
X43815000Y-110617000D03*
X41275000Y-110617000D03*
X43815000Y-108077000D03*
X41275000Y-108077000D03*
X43815000Y-105537000D03*
X41275000Y-105537000D03*
X43815000Y-102997000D03*
D13*
X41275000Y-102997000D03*
D12*
X66173200Y-92837000D03*
X66173200Y-95377000D03*
X63633200Y-92837000D03*
X63633200Y-95377000D03*
X61093200Y-92837000D03*
X61093200Y-95377000D03*
X58553200Y-92837000D03*
X58553200Y-95377000D03*
X56013200Y-92837000D03*
X56013200Y-95377000D03*
X53473200Y-92837000D03*
X53473200Y-95377000D03*
X50933200Y-92837000D03*
D13*
X50933200Y-95377000D03*
D12*
X43815000Y-95377000D03*
X41275000Y-95377000D03*
X43815000Y-92837000D03*
D13*
X41275000Y-92837000D03*
D12*
X43815000Y-79629000D03*
D13*
X41275000Y-79629000D03*
D12*
X43815000Y-85852000D03*
D13*
X41275000Y-85852000D03*
D14*
X50114200Y-84112100D03*
X48844200Y-84112100D03*
X50114200Y-82842100D03*
X48844200Y-82842100D03*
X50114200Y-81572100D03*
X48844200Y-81572100D03*
X50114200Y-80302100D03*
X48844200Y-80302100D03*
X50114200Y-79032100D03*
D15*
X48844200Y-79032100D03*
D16*
X15240000Y-115570000D03*
X70332600Y-115570000D03*
X70332600Y-63500000D03*
X15214600Y-63500000D03*
D17*
X23575000Y-73320000D03*
X26115000Y-73320000D03*
D18*
X31195000Y-68240000D03*
X21035000Y-68240000D03*
D19*
X58547000Y-107061000D03*
X56642000Y-108966000D03*
X60452000Y-108966000D03*
X60452000Y-105156000D03*
X56642000Y-105156000D03*
X58547000Y-82423000D03*
X60452000Y-80518000D03*
X60452000Y-84328000D03*
X56642000Y-84328000D03*
X56642000Y-80518000D03*
X57734200Y-67564000D03*
X57734200Y-68580000D03*
X57734200Y-69596000D03*
X46888400Y-69265800D03*
X39115900Y-62560300D03*
X44068900Y-62242800D03*
X49555400Y-101904800D03*
X50622200Y-103555800D03*
X60312200Y-113271400D03*
X66243200Y-107848400D03*
X66243200Y-109499400D03*
X32473900Y-95783400D03*
X32473900Y-94068900D03*
X55130700Y-99021900D03*
X53987700Y-99021900D03*
X50698400Y-106883200D03*
X49301400Y-108559600D03*
X60833000Y-87223600D03*
X63322200Y-80111600D03*
X56870600Y-67564000D03*
X56870600Y-68580000D03*
X56870600Y-69596000D03*
X63550900Y-86436100D03*
X62484100Y-77342900D03*
X53009800Y-78689200D03*
X53898700Y-78714500D03*
X36588700Y-98767900D03*
X36614100Y-102577900D03*
X36537900Y-106387900D03*
X36601400Y-84201000D03*
X36652200Y-85471000D03*
X36703000Y-88011000D03*
X36703000Y-90551000D03*
X36753800Y-91821000D03*
X47574200Y-82854800D03*
X48666300Y-87503100D03*
X60325000Y-72745600D03*
X60325000Y-73660000D03*
X52095400Y-87630000D03*
X52069900Y-85979100D03*
X53817400Y-83266400D03*
X41935400Y-68884800D03*
X32486600Y-81153000D03*
X32473900Y-79438500D03*
X49276000Y-110236000D03*
X49987100Y-113906400D03*
X27724100Y-106387900D03*
X27559000Y-82931000D03*
X27559000Y-84201000D03*
X31750000Y-92456000D03*
X56896000Y-77978000D03*
X46939200Y-66344800D03*
X41859200Y-66344800D03*
X56408246Y-114279754D03*
X44068900Y-70624800D03*
X44068900Y-71513800D03*
X40690900Y-62572800D03*
X66459100Y-100723700D03*
X62420600Y-101904700D03*
X61887200Y-113283900D03*
X53924200Y-100228400D03*
X53924200Y-101244400D03*
X61975900Y-88946431D03*
X53833000Y-79766400D03*
X43053000Y-71526400D03*
X43053000Y-70662800D03*
X64287400Y-80111600D03*
X36728400Y-94068900D03*
X36728400Y-95084900D03*
X52070100Y-84404100D03*
X36512500Y-79438500D03*
X36525200Y-80568800D03*
X30226000Y-79502000D03*
X30988000Y-78740000D03*
X31750000Y-77978000D03*
X50800000Y-88900000D03*
X49784000Y-88900000D03*
X48768000Y-88900000D03*
X47752000Y-88900000D03*
X51816000Y-99568000D03*
X50800000Y-99568000D03*
X49784000Y-99568000D03*
X48768000Y-99568000D03*
X53403500Y-110236000D03*
X49974600Y-112331400D03*
X53848000Y-110998000D03*
X56870600Y-75717400D03*
X56896000Y-76708000D03*
X22098000Y-98552000D03*
X22098000Y-104140000D03*
X50622200Y-105206800D03*
X53441700Y-108076900D03*
X39115900Y-71526400D03*
X39115900Y-70662800D03*
X38125400Y-71577200D03*
X38125400Y-70662800D03*
X64084200Y-111302800D03*
X64947800Y-111302800D03*
X58750200Y-101879400D03*
X59944000Y-98298000D03*
X57808200Y-77396000D03*
X58737500Y-73342500D03*
D20*
X41275000Y-79629000D02*
X41275000Y-85852000D01*
X41275000Y-85852000D02*
X41275000Y-92837000D01*
X41275000Y-73304400D02*
X43053000Y-71526400D01*
X41275000Y-79629000D02*
X41275000Y-73304400D01*
X44056300Y-71526400D02*
X44068900Y-71513800D01*
X43053000Y-71526400D02*
X44056300Y-71526400D01*
X44030900Y-70662800D02*
X44068900Y-70624800D01*
X43053000Y-70662800D02*
X44030900Y-70662800D01*
D21*
G36*
X53721000Y-73533000D02*
G01*
X36449000Y-73533000D01*
X36449000Y-70566485D01*
X37147500Y-70566485D01*
X37147500Y-70759115D01*
X37185080Y-70948043D01*
X37256307Y-71120000D01*
X37185080Y-71291957D01*
X37147500Y-71480885D01*
X37147500Y-71673515D01*
X37185080Y-71862443D01*
X37258796Y-72040410D01*
X37365815Y-72200575D01*
X37502025Y-72336785D01*
X37662190Y-72443804D01*
X37840157Y-72517520D01*
X38029085Y-72555100D01*
X38221715Y-72555100D01*
X38410643Y-72517520D01*
X38588610Y-72443804D01*
X38660065Y-72396059D01*
X38830657Y-72466720D01*
X39019585Y-72504300D01*
X39212215Y-72504300D01*
X39401143Y-72466720D01*
X39579110Y-72393004D01*
X39739275Y-72285985D01*
X39875485Y-72149775D01*
X39982504Y-71989610D01*
X40056220Y-71811643D01*
X40093800Y-71622715D01*
X40093800Y-71430085D01*
X40056220Y-71241157D01*
X39995514Y-71094600D01*
X40056220Y-70948043D01*
X40093800Y-70759115D01*
X40093800Y-70566485D01*
X40056220Y-70377557D01*
X39982504Y-70199590D01*
X39875485Y-70039425D01*
X39739275Y-69903215D01*
X39579110Y-69796196D01*
X39401143Y-69722480D01*
X39212215Y-69684900D01*
X39019585Y-69684900D01*
X38830657Y-69722480D01*
X38652690Y-69796196D01*
X38620650Y-69817604D01*
X38588610Y-69796196D01*
X38410643Y-69722480D01*
X38221715Y-69684900D01*
X38029085Y-69684900D01*
X37840157Y-69722480D01*
X37662190Y-69796196D01*
X37502025Y-69903215D01*
X37365815Y-70039425D01*
X37258796Y-70199590D01*
X37185080Y-70377557D01*
X37147500Y-70566485D01*
X36449000Y-70566485D01*
X36449000Y-68788485D01*
X40957500Y-68788485D01*
X40957500Y-68981115D01*
X40995080Y-69170043D01*
X41068796Y-69348010D01*
X41175815Y-69508175D01*
X41312025Y-69644385D01*
X41472190Y-69751404D01*
X41650157Y-69825120D01*
X41839085Y-69862700D01*
X42031715Y-69862700D01*
X42220643Y-69825120D01*
X42398610Y-69751404D01*
X42558775Y-69644385D01*
X42694985Y-69508175D01*
X42802004Y-69348010D01*
X42875720Y-69170043D01*
X42875830Y-69169485D01*
X45910500Y-69169485D01*
X45910500Y-69362115D01*
X45948080Y-69551043D01*
X46021796Y-69729010D01*
X46128815Y-69889175D01*
X46265025Y-70025385D01*
X46425190Y-70132404D01*
X46603157Y-70206120D01*
X46792085Y-70243700D01*
X46984715Y-70243700D01*
X47173643Y-70206120D01*
X47351610Y-70132404D01*
X47511775Y-70025385D01*
X47647985Y-69889175D01*
X47755004Y-69729010D01*
X47828720Y-69551043D01*
X47866300Y-69362115D01*
X47866300Y-69169485D01*
X47828720Y-68980557D01*
X47755004Y-68802590D01*
X47647985Y-68642425D01*
X47511775Y-68506215D01*
X47351610Y-68399196D01*
X47173643Y-68325480D01*
X46984715Y-68287900D01*
X46792085Y-68287900D01*
X46603157Y-68325480D01*
X46425190Y-68399196D01*
X46265025Y-68506215D01*
X46128815Y-68642425D01*
X46021796Y-68802590D01*
X45948080Y-68980557D01*
X45910500Y-69169485D01*
X42875830Y-69169485D01*
X42913300Y-68981115D01*
X42913300Y-68788485D01*
X42875720Y-68599557D01*
X42802004Y-68421590D01*
X42694985Y-68261425D01*
X42558775Y-68125215D01*
X42398610Y-68018196D01*
X42220643Y-67944480D01*
X42031715Y-67906900D01*
X41839085Y-67906900D01*
X41650157Y-67944480D01*
X41472190Y-68018196D01*
X41312025Y-68125215D01*
X41175815Y-68261425D01*
X41068796Y-68421590D01*
X40995080Y-68599557D01*
X40957500Y-68788485D01*
X36449000Y-68788485D01*
X36449000Y-66248485D01*
X40881300Y-66248485D01*
X40881300Y-66441115D01*
X40918880Y-66630043D01*
X40992596Y-66808010D01*
X41099615Y-66968175D01*
X41235825Y-67104385D01*
X41395990Y-67211404D01*
X41573957Y-67285120D01*
X41762885Y-67322700D01*
X41955515Y-67322700D01*
X42144443Y-67285120D01*
X42322410Y-67211404D01*
X42482575Y-67104385D01*
X42618785Y-66968175D01*
X42725804Y-66808010D01*
X42799520Y-66630043D01*
X42837100Y-66441115D01*
X42837100Y-66248485D01*
X45961300Y-66248485D01*
X45961300Y-66441115D01*
X45998880Y-66630043D01*
X46072596Y-66808010D01*
X46179615Y-66968175D01*
X46315825Y-67104385D01*
X46475990Y-67211404D01*
X46653957Y-67285120D01*
X46842885Y-67322700D01*
X47035515Y-67322700D01*
X47224443Y-67285120D01*
X47402410Y-67211404D01*
X47562575Y-67104385D01*
X47698785Y-66968175D01*
X47805804Y-66808010D01*
X47879520Y-66630043D01*
X47917100Y-66441115D01*
X47917100Y-66248485D01*
X47879520Y-66059557D01*
X47805804Y-65881590D01*
X47698785Y-65721425D01*
X47562575Y-65585215D01*
X47402410Y-65478196D01*
X47224443Y-65404480D01*
X47035515Y-65366900D01*
X46842885Y-65366900D01*
X46653957Y-65404480D01*
X46475990Y-65478196D01*
X46315825Y-65585215D01*
X46179615Y-65721425D01*
X46072596Y-65881590D01*
X45998880Y-66059557D01*
X45961300Y-66248485D01*
X42837100Y-66248485D01*
X42799520Y-66059557D01*
X42725804Y-65881590D01*
X42618785Y-65721425D01*
X42482575Y-65585215D01*
X42322410Y-65478196D01*
X42144443Y-65404480D01*
X41955515Y-65366900D01*
X41762885Y-65366900D01*
X41573957Y-65404480D01*
X41395990Y-65478196D01*
X41235825Y-65585215D01*
X41099615Y-65721425D01*
X40992596Y-65881590D01*
X40918880Y-66059557D01*
X40881300Y-66248485D01*
X36449000Y-66248485D01*
X36449000Y-62463985D01*
X38138000Y-62463985D01*
X38138000Y-62656615D01*
X38175580Y-62845543D01*
X38249296Y-63023510D01*
X38356315Y-63183675D01*
X38492525Y-63319885D01*
X38652690Y-63426904D01*
X38830657Y-63500620D01*
X39019585Y-63538200D01*
X39212215Y-63538200D01*
X39401143Y-63500620D01*
X39579110Y-63426904D01*
X39739275Y-63319885D01*
X39875485Y-63183675D01*
X39982504Y-63023510D01*
X40056220Y-62845543D01*
X40093800Y-62656615D01*
X40093800Y-62463985D01*
X40056220Y-62275057D01*
X40002964Y-62146485D01*
X43091000Y-62146485D01*
X43091000Y-62339115D01*
X43128580Y-62528043D01*
X43202296Y-62706010D01*
X43309315Y-62866175D01*
X43445525Y-63002385D01*
X43605690Y-63109404D01*
X43783657Y-63183120D01*
X43972585Y-63220700D01*
X44165215Y-63220700D01*
X44354143Y-63183120D01*
X44532110Y-63109404D01*
X44692275Y-63002385D01*
X44828485Y-62866175D01*
X44935504Y-62706010D01*
X45009220Y-62528043D01*
X45035484Y-62396000D01*
X50581928Y-62396000D01*
X50581928Y-64096000D01*
X50594188Y-64220482D01*
X50630498Y-64340180D01*
X50689463Y-64450494D01*
X50768815Y-64547185D01*
X50865506Y-64626537D01*
X50975820Y-64685502D01*
X51048380Y-64707513D01*
X50916525Y-64839368D01*
X50754010Y-65082589D01*
X50642068Y-65352842D01*
X50585000Y-65639740D01*
X50585000Y-65932260D01*
X50642068Y-66219158D01*
X50754010Y-66489411D01*
X50916525Y-66732632D01*
X51123368Y-66939475D01*
X51366589Y-67101990D01*
X51636842Y-67213932D01*
X51923740Y-67271000D01*
X52216260Y-67271000D01*
X52503158Y-67213932D01*
X52773411Y-67101990D01*
X53016632Y-66939475D01*
X53223475Y-66732632D01*
X53385990Y-66489411D01*
X53497932Y-66219158D01*
X53555000Y-65932260D01*
X53555000Y-65639740D01*
X53497932Y-65352842D01*
X53385990Y-65082589D01*
X53223475Y-64839368D01*
X53091620Y-64707513D01*
X53164180Y-64685502D01*
X53274494Y-64626537D01*
X53371185Y-64547185D01*
X53450537Y-64450494D01*
X53509502Y-64340180D01*
X53545812Y-64220482D01*
X53558072Y-64096000D01*
X53558072Y-62396000D01*
X53545812Y-62271518D01*
X53509502Y-62151820D01*
X53450537Y-62041506D01*
X53371185Y-61944815D01*
X53274494Y-61865463D01*
X53164180Y-61806498D01*
X53044482Y-61770188D01*
X52920000Y-61757928D01*
X51220000Y-61757928D01*
X51095518Y-61770188D01*
X50975820Y-61806498D01*
X50865506Y-61865463D01*
X50768815Y-61944815D01*
X50689463Y-62041506D01*
X50630498Y-62151820D01*
X50594188Y-62271518D01*
X50581928Y-62396000D01*
X45035484Y-62396000D01*
X45046800Y-62339115D01*
X45046800Y-62146485D01*
X45009220Y-61957557D01*
X44935504Y-61779590D01*
X44828485Y-61619425D01*
X44692275Y-61483215D01*
X44532110Y-61376196D01*
X44354143Y-61302480D01*
X44165215Y-61264900D01*
X43972585Y-61264900D01*
X43783657Y-61302480D01*
X43605690Y-61376196D01*
X43445525Y-61483215D01*
X43309315Y-61619425D01*
X43202296Y-61779590D01*
X43128580Y-61957557D01*
X43091000Y-62146485D01*
X40002964Y-62146485D01*
X39982504Y-62097090D01*
X39875485Y-61936925D01*
X39739275Y-61800715D01*
X39579110Y-61693696D01*
X39401143Y-61619980D01*
X39212215Y-61582400D01*
X39019585Y-61582400D01*
X38830657Y-61619980D01*
X38652690Y-61693696D01*
X38492525Y-61800715D01*
X38356315Y-61936925D01*
X38249296Y-62097090D01*
X38175580Y-62275057D01*
X38138000Y-62463985D01*
X36449000Y-62463985D01*
X36449000Y-60883000D01*
X53721000Y-60883000D01*
X53721000Y-73533000D01*
G37*
X53721000Y-73533000D02*
X36449000Y-73533000D01*
X36449000Y-70566485D01*
X37147500Y-70566485D01*
X37147500Y-70759115D01*
X37185080Y-70948043D01*
X37256307Y-71120000D01*
X37185080Y-71291957D01*
X37147500Y-71480885D01*
X37147500Y-71673515D01*
X37185080Y-71862443D01*
X37258796Y-72040410D01*
X37365815Y-72200575D01*
X37502025Y-72336785D01*
X37662190Y-72443804D01*
X37840157Y-72517520D01*
X38029085Y-72555100D01*
X38221715Y-72555100D01*
X38410643Y-72517520D01*
X38588610Y-72443804D01*
X38660065Y-72396059D01*
X38830657Y-72466720D01*
X39019585Y-72504300D01*
X39212215Y-72504300D01*
X39401143Y-72466720D01*
X39579110Y-72393004D01*
X39739275Y-72285985D01*
X39875485Y-72149775D01*
X39982504Y-71989610D01*
X40056220Y-71811643D01*
X40093800Y-71622715D01*
X40093800Y-71430085D01*
X40056220Y-71241157D01*
X39995514Y-71094600D01*
X40056220Y-70948043D01*
X40093800Y-70759115D01*
X40093800Y-70566485D01*
X40056220Y-70377557D01*
X39982504Y-70199590D01*
X39875485Y-70039425D01*
X39739275Y-69903215D01*
X39579110Y-69796196D01*
X39401143Y-69722480D01*
X39212215Y-69684900D01*
X39019585Y-69684900D01*
X38830657Y-69722480D01*
X38652690Y-69796196D01*
X38620650Y-69817604D01*
X38588610Y-69796196D01*
X38410643Y-69722480D01*
X38221715Y-69684900D01*
X38029085Y-69684900D01*
X37840157Y-69722480D01*
X37662190Y-69796196D01*
X37502025Y-69903215D01*
X37365815Y-70039425D01*
X37258796Y-70199590D01*
X37185080Y-70377557D01*
X37147500Y-70566485D01*
X36449000Y-70566485D01*
X36449000Y-68788485D01*
X40957500Y-68788485D01*
X40957500Y-68981115D01*
X40995080Y-69170043D01*
X41068796Y-69348010D01*
X41175815Y-69508175D01*
X41312025Y-69644385D01*
X41472190Y-69751404D01*
X41650157Y-69825120D01*
X41839085Y-69862700D01*
X42031715Y-69862700D01*
X42220643Y-69825120D01*
X42398610Y-69751404D01*
X42558775Y-69644385D01*
X42694985Y-69508175D01*
X42802004Y-69348010D01*
X42875720Y-69170043D01*
X42875830Y-69169485D01*
X45910500Y-69169485D01*
X45910500Y-69362115D01*
X45948080Y-69551043D01*
X46021796Y-69729010D01*
X46128815Y-69889175D01*
X46265025Y-70025385D01*
X46425190Y-70132404D01*
X46603157Y-70206120D01*
X46792085Y-70243700D01*
X46984715Y-70243700D01*
X47173643Y-70206120D01*
X47351610Y-70132404D01*
X47511775Y-70025385D01*
X47647985Y-69889175D01*
X47755004Y-69729010D01*
X47828720Y-69551043D01*
X47866300Y-69362115D01*
X47866300Y-69169485D01*
X47828720Y-68980557D01*
X47755004Y-68802590D01*
X47647985Y-68642425D01*
X47511775Y-68506215D01*
X47351610Y-68399196D01*
X47173643Y-68325480D01*
X46984715Y-68287900D01*
X46792085Y-68287900D01*
X46603157Y-68325480D01*
X46425190Y-68399196D01*
X46265025Y-68506215D01*
X46128815Y-68642425D01*
X46021796Y-68802590D01*
X45948080Y-68980557D01*
X45910500Y-69169485D01*
X42875830Y-69169485D01*
X42913300Y-68981115D01*
X42913300Y-68788485D01*
X42875720Y-68599557D01*
X42802004Y-68421590D01*
X42694985Y-68261425D01*
X42558775Y-68125215D01*
X42398610Y-68018196D01*
X42220643Y-67944480D01*
X42031715Y-67906900D01*
X41839085Y-67906900D01*
X41650157Y-67944480D01*
X41472190Y-68018196D01*
X41312025Y-68125215D01*
X41175815Y-68261425D01*
X41068796Y-68421590D01*
X40995080Y-68599557D01*
X40957500Y-68788485D01*
X36449000Y-68788485D01*
X36449000Y-66248485D01*
X40881300Y-66248485D01*
X40881300Y-66441115D01*
X40918880Y-66630043D01*
X40992596Y-66808010D01*
X41099615Y-66968175D01*
X41235825Y-67104385D01*
X41395990Y-67211404D01*
X41573957Y-67285120D01*
X41762885Y-67322700D01*
X41955515Y-67322700D01*
X42144443Y-67285120D01*
X42322410Y-67211404D01*
X42482575Y-67104385D01*
X42618785Y-66968175D01*
X42725804Y-66808010D01*
X42799520Y-66630043D01*
X42837100Y-66441115D01*
X42837100Y-66248485D01*
X45961300Y-66248485D01*
X45961300Y-66441115D01*
X45998880Y-66630043D01*
X46072596Y-66808010D01*
X46179615Y-66968175D01*
X46315825Y-67104385D01*
X46475990Y-67211404D01*
X46653957Y-67285120D01*
X46842885Y-67322700D01*
X47035515Y-67322700D01*
X47224443Y-67285120D01*
X47402410Y-67211404D01*
X47562575Y-67104385D01*
X47698785Y-66968175D01*
X47805804Y-66808010D01*
X47879520Y-66630043D01*
X47917100Y-66441115D01*
X47917100Y-66248485D01*
X47879520Y-66059557D01*
X47805804Y-65881590D01*
X47698785Y-65721425D01*
X47562575Y-65585215D01*
X47402410Y-65478196D01*
X47224443Y-65404480D01*
X47035515Y-65366900D01*
X46842885Y-65366900D01*
X46653957Y-65404480D01*
X46475990Y-65478196D01*
X46315825Y-65585215D01*
X46179615Y-65721425D01*
X46072596Y-65881590D01*
X45998880Y-66059557D01*
X45961300Y-66248485D01*
X42837100Y-66248485D01*
X42799520Y-66059557D01*
X42725804Y-65881590D01*
X42618785Y-65721425D01*
X42482575Y-65585215D01*
X42322410Y-65478196D01*
X42144443Y-65404480D01*
X41955515Y-65366900D01*
X41762885Y-65366900D01*
X41573957Y-65404480D01*
X41395990Y-65478196D01*
X41235825Y-65585215D01*
X41099615Y-65721425D01*
X40992596Y-65881590D01*
X40918880Y-66059557D01*
X40881300Y-66248485D01*
X36449000Y-66248485D01*
X36449000Y-62463985D01*
X38138000Y-62463985D01*
X38138000Y-62656615D01*
X38175580Y-62845543D01*
X38249296Y-63023510D01*
X38356315Y-63183675D01*
X38492525Y-63319885D01*
X38652690Y-63426904D01*
X38830657Y-63500620D01*
X39019585Y-63538200D01*
X39212215Y-63538200D01*
X39401143Y-63500620D01*
X39579110Y-63426904D01*
X39739275Y-63319885D01*
X39875485Y-63183675D01*
X39982504Y-63023510D01*
X40056220Y-62845543D01*
X40093800Y-62656615D01*
X40093800Y-62463985D01*
X40056220Y-62275057D01*
X40002964Y-62146485D01*
X43091000Y-62146485D01*
X43091000Y-62339115D01*
X43128580Y-62528043D01*
X43202296Y-62706010D01*
X43309315Y-62866175D01*
X43445525Y-63002385D01*
X43605690Y-63109404D01*
X43783657Y-63183120D01*
X43972585Y-63220700D01*
X44165215Y-63220700D01*
X44354143Y-63183120D01*
X44532110Y-63109404D01*
X44692275Y-63002385D01*
X44828485Y-62866175D01*
X44935504Y-62706010D01*
X45009220Y-62528043D01*
X45035484Y-62396000D01*
X50581928Y-62396000D01*
X50581928Y-64096000D01*
X50594188Y-64220482D01*
X50630498Y-64340180D01*
X50689463Y-64450494D01*
X50768815Y-64547185D01*
X50865506Y-64626537D01*
X50975820Y-64685502D01*
X51048380Y-64707513D01*
X50916525Y-64839368D01*
X50754010Y-65082589D01*
X50642068Y-65352842D01*
X50585000Y-65639740D01*
X50585000Y-65932260D01*
X50642068Y-66219158D01*
X50754010Y-66489411D01*
X50916525Y-66732632D01*
X51123368Y-66939475D01*
X51366589Y-67101990D01*
X51636842Y-67213932D01*
X51923740Y-67271000D01*
X52216260Y-67271000D01*
X52503158Y-67213932D01*
X52773411Y-67101990D01*
X53016632Y-66939475D01*
X53223475Y-66732632D01*
X53385990Y-66489411D01*
X53497932Y-66219158D01*
X53555000Y-65932260D01*
X53555000Y-65639740D01*
X53497932Y-65352842D01*
X53385990Y-65082589D01*
X53223475Y-64839368D01*
X53091620Y-64707513D01*
X53164180Y-64685502D01*
X53274494Y-64626537D01*
X53371185Y-64547185D01*
X53450537Y-64450494D01*
X53509502Y-64340180D01*
X53545812Y-64220482D01*
X53558072Y-64096000D01*
X53558072Y-62396000D01*
X53545812Y-62271518D01*
X53509502Y-62151820D01*
X53450537Y-62041506D01*
X53371185Y-61944815D01*
X53274494Y-61865463D01*
X53164180Y-61806498D01*
X53044482Y-61770188D01*
X52920000Y-61757928D01*
X51220000Y-61757928D01*
X51095518Y-61770188D01*
X50975820Y-61806498D01*
X50865506Y-61865463D01*
X50768815Y-61944815D01*
X50689463Y-62041506D01*
X50630498Y-62151820D01*
X50594188Y-62271518D01*
X50581928Y-62396000D01*
X45035484Y-62396000D01*
X45046800Y-62339115D01*
X45046800Y-62146485D01*
X45009220Y-61957557D01*
X44935504Y-61779590D01*
X44828485Y-61619425D01*
X44692275Y-61483215D01*
X44532110Y-61376196D01*
X44354143Y-61302480D01*
X44165215Y-61264900D01*
X43972585Y-61264900D01*
X43783657Y-61302480D01*
X43605690Y-61376196D01*
X43445525Y-61483215D01*
X43309315Y-61619425D01*
X43202296Y-61779590D01*
X43128580Y-61957557D01*
X43091000Y-62146485D01*
X40002964Y-62146485D01*
X39982504Y-62097090D01*
X39875485Y-61936925D01*
X39739275Y-61800715D01*
X39579110Y-61693696D01*
X39401143Y-61619980D01*
X39212215Y-61582400D01*
X39019585Y-61582400D01*
X38830657Y-61619980D01*
X38652690Y-61693696D01*
X38492525Y-61800715D01*
X38356315Y-61936925D01*
X38249296Y-62097090D01*
X38175580Y-62275057D01*
X38138000Y-62463985D01*
X36449000Y-62463985D01*
X36449000Y-60883000D01*
X53721000Y-60883000D01*
X53721000Y-73533000D01*
G36*
X38227000Y-109601000D02*
G01*
X27305000Y-109601000D01*
X27305000Y-107272775D01*
X27438857Y-107328220D01*
X27627785Y-107365800D01*
X27820415Y-107365800D01*
X28009343Y-107328220D01*
X28187310Y-107254504D01*
X28347475Y-107147485D01*
X28483685Y-107011275D01*
X28590704Y-106851110D01*
X28664420Y-106673143D01*
X28702000Y-106484215D01*
X28702000Y-106291585D01*
X35560000Y-106291585D01*
X35560000Y-106484215D01*
X35597580Y-106673143D01*
X35671296Y-106851110D01*
X35778315Y-107011275D01*
X35914525Y-107147485D01*
X36074690Y-107254504D01*
X36252657Y-107328220D01*
X36441585Y-107365800D01*
X36634215Y-107365800D01*
X36823143Y-107328220D01*
X37001110Y-107254504D01*
X37161275Y-107147485D01*
X37297485Y-107011275D01*
X37404504Y-106851110D01*
X37478220Y-106673143D01*
X37515800Y-106484215D01*
X37515800Y-106291585D01*
X37478220Y-106102657D01*
X37404504Y-105924690D01*
X37297485Y-105764525D01*
X37161275Y-105628315D01*
X37001110Y-105521296D01*
X36823143Y-105447580D01*
X36634215Y-105410000D01*
X36441585Y-105410000D01*
X36252657Y-105447580D01*
X36074690Y-105521296D01*
X35914525Y-105628315D01*
X35778315Y-105764525D01*
X35671296Y-105924690D01*
X35597580Y-106102657D01*
X35560000Y-106291585D01*
X28702000Y-106291585D01*
X28664420Y-106102657D01*
X28590704Y-105924690D01*
X28483685Y-105764525D01*
X28347475Y-105628315D01*
X28187310Y-105521296D01*
X28009343Y-105447580D01*
X27820415Y-105410000D01*
X27627785Y-105410000D01*
X27438857Y-105447580D01*
X27305000Y-105503025D01*
X27305000Y-102481585D01*
X35636200Y-102481585D01*
X35636200Y-102674215D01*
X35673780Y-102863143D01*
X35747496Y-103041110D01*
X35854515Y-103201275D01*
X35990725Y-103337485D01*
X36150890Y-103444504D01*
X36328857Y-103518220D01*
X36517785Y-103555800D01*
X36710415Y-103555800D01*
X36899343Y-103518220D01*
X37077310Y-103444504D01*
X37237475Y-103337485D01*
X37373685Y-103201275D01*
X37480704Y-103041110D01*
X37554420Y-102863143D01*
X37592000Y-102674215D01*
X37592000Y-102481585D01*
X37554420Y-102292657D01*
X37480704Y-102114690D01*
X37373685Y-101954525D01*
X37237475Y-101818315D01*
X37077310Y-101711296D01*
X36899343Y-101637580D01*
X36710415Y-101600000D01*
X36517785Y-101600000D01*
X36328857Y-101637580D01*
X36150890Y-101711296D01*
X35990725Y-101818315D01*
X35854515Y-101954525D01*
X35747496Y-102114690D01*
X35673780Y-102292657D01*
X35636200Y-102481585D01*
X27305000Y-102481585D01*
X27305000Y-98671585D01*
X35610800Y-98671585D01*
X35610800Y-98864215D01*
X35648380Y-99053143D01*
X35722096Y-99231110D01*
X35829115Y-99391275D01*
X35965325Y-99527485D01*
X36125490Y-99634504D01*
X36303457Y-99708220D01*
X36492385Y-99745800D01*
X36685015Y-99745800D01*
X36873943Y-99708220D01*
X37051910Y-99634504D01*
X37212075Y-99527485D01*
X37348285Y-99391275D01*
X37455304Y-99231110D01*
X37529020Y-99053143D01*
X37566600Y-98864215D01*
X37566600Y-98671585D01*
X37529020Y-98482657D01*
X37455304Y-98304690D01*
X37348285Y-98144525D01*
X37212075Y-98008315D01*
X37051910Y-97901296D01*
X36873943Y-97827580D01*
X36685015Y-97790000D01*
X36492385Y-97790000D01*
X36303457Y-97827580D01*
X36125490Y-97901296D01*
X35965325Y-98008315D01*
X35829115Y-98144525D01*
X35722096Y-98304690D01*
X35648380Y-98482657D01*
X35610800Y-98671585D01*
X27305000Y-98671585D01*
X27305000Y-92359685D01*
X30772100Y-92359685D01*
X30772100Y-92552315D01*
X30809680Y-92741243D01*
X30883396Y-92919210D01*
X30990415Y-93079375D01*
X31126625Y-93215585D01*
X31286790Y-93322604D01*
X31464757Y-93396320D01*
X31653685Y-93433900D01*
X31725940Y-93433900D01*
X31714315Y-93445525D01*
X31607296Y-93605690D01*
X31533580Y-93783657D01*
X31496000Y-93972585D01*
X31496000Y-94165215D01*
X31533580Y-94354143D01*
X31607296Y-94532110D01*
X31714315Y-94692275D01*
X31850525Y-94828485D01*
X31996691Y-94926150D01*
X31850525Y-95023815D01*
X31714315Y-95160025D01*
X31607296Y-95320190D01*
X31533580Y-95498157D01*
X31496000Y-95687085D01*
X31496000Y-95879715D01*
X31533580Y-96068643D01*
X31607296Y-96246610D01*
X31714315Y-96406775D01*
X31850525Y-96542985D01*
X32010690Y-96650004D01*
X32188657Y-96723720D01*
X32377585Y-96761300D01*
X32570215Y-96761300D01*
X32759143Y-96723720D01*
X32937110Y-96650004D01*
X33097275Y-96542985D01*
X33233485Y-96406775D01*
X33340504Y-96246610D01*
X33414220Y-96068643D01*
X33451800Y-95879715D01*
X33451800Y-95687085D01*
X33414220Y-95498157D01*
X33340504Y-95320190D01*
X33233485Y-95160025D01*
X33097275Y-95023815D01*
X32951109Y-94926150D01*
X33097275Y-94828485D01*
X33233485Y-94692275D01*
X33340504Y-94532110D01*
X33414220Y-94354143D01*
X33451800Y-94165215D01*
X33451800Y-93972585D01*
X33414220Y-93783657D01*
X33340504Y-93605690D01*
X33233485Y-93445525D01*
X33097275Y-93309315D01*
X32937110Y-93202296D01*
X32759143Y-93128580D01*
X32570215Y-93091000D01*
X32497960Y-93091000D01*
X32509585Y-93079375D01*
X32616604Y-92919210D01*
X32690320Y-92741243D01*
X32727900Y-92552315D01*
X32727900Y-92359685D01*
X32690320Y-92170757D01*
X32616604Y-91992790D01*
X32509585Y-91832625D01*
X32373375Y-91696415D01*
X32213210Y-91589396D01*
X32035243Y-91515680D01*
X31846315Y-91478100D01*
X31653685Y-91478100D01*
X31464757Y-91515680D01*
X31286790Y-91589396D01*
X31126625Y-91696415D01*
X30990415Y-91832625D01*
X30883396Y-91992790D01*
X30809680Y-92170757D01*
X30772100Y-92359685D01*
X27305000Y-92359685D01*
X27305000Y-90454685D01*
X35725100Y-90454685D01*
X35725100Y-90647315D01*
X35762680Y-90836243D01*
X35836396Y-91014210D01*
X35943415Y-91174375D01*
X35983180Y-91214140D01*
X35887196Y-91357790D01*
X35813480Y-91535757D01*
X35775900Y-91724685D01*
X35775900Y-91917315D01*
X35813480Y-92106243D01*
X35887196Y-92284210D01*
X35994215Y-92444375D01*
X36130425Y-92580585D01*
X36290590Y-92687604D01*
X36468557Y-92761320D01*
X36657485Y-92798900D01*
X36850115Y-92798900D01*
X37039043Y-92761320D01*
X37217010Y-92687604D01*
X37377175Y-92580585D01*
X37513385Y-92444375D01*
X37620404Y-92284210D01*
X37694120Y-92106243D01*
X37731700Y-91917315D01*
X37731700Y-91724685D01*
X37694120Y-91535757D01*
X37620404Y-91357790D01*
X37513385Y-91197625D01*
X37473620Y-91157860D01*
X37569604Y-91014210D01*
X37643320Y-90836243D01*
X37680900Y-90647315D01*
X37680900Y-90454685D01*
X37643320Y-90265757D01*
X37569604Y-90087790D01*
X37462585Y-89927625D01*
X37326375Y-89791415D01*
X37166210Y-89684396D01*
X36988243Y-89610680D01*
X36799315Y-89573100D01*
X36606685Y-89573100D01*
X36417757Y-89610680D01*
X36239790Y-89684396D01*
X36079625Y-89791415D01*
X35943415Y-89927625D01*
X35836396Y-90087790D01*
X35762680Y-90265757D01*
X35725100Y-90454685D01*
X27305000Y-90454685D01*
X27305000Y-87914685D01*
X35725100Y-87914685D01*
X35725100Y-88107315D01*
X35762680Y-88296243D01*
X35836396Y-88474210D01*
X35943415Y-88634375D01*
X36079625Y-88770585D01*
X36239790Y-88877604D01*
X36417757Y-88951320D01*
X36606685Y-88988900D01*
X36799315Y-88988900D01*
X36988243Y-88951320D01*
X37166210Y-88877604D01*
X37326375Y-88770585D01*
X37462585Y-88634375D01*
X37569604Y-88474210D01*
X37643320Y-88296243D01*
X37680900Y-88107315D01*
X37680900Y-87914685D01*
X37643320Y-87725757D01*
X37569604Y-87547790D01*
X37462585Y-87387625D01*
X37326375Y-87251415D01*
X37166210Y-87144396D01*
X36988243Y-87070680D01*
X36799315Y-87033100D01*
X36606685Y-87033100D01*
X36417757Y-87070680D01*
X36239790Y-87144396D01*
X36079625Y-87251415D01*
X35943415Y-87387625D01*
X35836396Y-87547790D01*
X35762680Y-87725757D01*
X35725100Y-87914685D01*
X27305000Y-87914685D01*
X27305000Y-85147535D01*
X27462685Y-85178900D01*
X27655315Y-85178900D01*
X27844243Y-85141320D01*
X28022210Y-85067604D01*
X28182375Y-84960585D01*
X28318585Y-84824375D01*
X28425604Y-84664210D01*
X28499320Y-84486243D01*
X28536900Y-84297315D01*
X28536900Y-84104685D01*
X35623500Y-84104685D01*
X35623500Y-84297315D01*
X35661080Y-84486243D01*
X35734796Y-84664210D01*
X35841815Y-84824375D01*
X35881580Y-84864140D01*
X35785596Y-85007790D01*
X35711880Y-85185757D01*
X35674300Y-85374685D01*
X35674300Y-85567315D01*
X35711880Y-85756243D01*
X35785596Y-85934210D01*
X35892615Y-86094375D01*
X36028825Y-86230585D01*
X36188990Y-86337604D01*
X36366957Y-86411320D01*
X36555885Y-86448900D01*
X36748515Y-86448900D01*
X36937443Y-86411320D01*
X37115410Y-86337604D01*
X37275575Y-86230585D01*
X37411785Y-86094375D01*
X37518804Y-85934210D01*
X37592520Y-85756243D01*
X37630100Y-85567315D01*
X37630100Y-85374685D01*
X37592520Y-85185757D01*
X37518804Y-85007790D01*
X37411785Y-84847625D01*
X37372020Y-84807860D01*
X37468004Y-84664210D01*
X37541720Y-84486243D01*
X37579300Y-84297315D01*
X37579300Y-84104685D01*
X37541720Y-83915757D01*
X37468004Y-83737790D01*
X37360985Y-83577625D01*
X37224775Y-83441415D01*
X37064610Y-83334396D01*
X36886643Y-83260680D01*
X36697715Y-83223100D01*
X36505085Y-83223100D01*
X36316157Y-83260680D01*
X36138190Y-83334396D01*
X35978025Y-83441415D01*
X35841815Y-83577625D01*
X35734796Y-83737790D01*
X35661080Y-83915757D01*
X35623500Y-84104685D01*
X28536900Y-84104685D01*
X28499320Y-83915757D01*
X28425604Y-83737790D01*
X28318585Y-83577625D01*
X28306960Y-83566000D01*
X28318585Y-83554375D01*
X28425604Y-83394210D01*
X28499320Y-83216243D01*
X28536900Y-83027315D01*
X28536900Y-82834685D01*
X28499320Y-82645757D01*
X28425604Y-82467790D01*
X28318585Y-82307625D01*
X28182375Y-82171415D01*
X28022210Y-82064396D01*
X27844243Y-81990680D01*
X27655315Y-81953100D01*
X27462685Y-81953100D01*
X27305000Y-81984465D01*
X27305000Y-79342185D01*
X31496000Y-79342185D01*
X31496000Y-79534815D01*
X31533580Y-79723743D01*
X31607296Y-79901710D01*
X31714315Y-80061875D01*
X31850525Y-80198085D01*
X32003041Y-80299993D01*
X31863225Y-80393415D01*
X31727015Y-80529625D01*
X31619996Y-80689790D01*
X31546280Y-80867757D01*
X31508700Y-81056685D01*
X31508700Y-81249315D01*
X31546280Y-81438243D01*
X31619996Y-81616210D01*
X31727015Y-81776375D01*
X31863225Y-81912585D01*
X32023390Y-82019604D01*
X32201357Y-82093320D01*
X32390285Y-82130900D01*
X32582915Y-82130900D01*
X32771843Y-82093320D01*
X32949810Y-82019604D01*
X33109975Y-81912585D01*
X33246185Y-81776375D01*
X33353204Y-81616210D01*
X33426920Y-81438243D01*
X33464500Y-81249315D01*
X33464500Y-81056685D01*
X33426920Y-80867757D01*
X33353204Y-80689790D01*
X33246185Y-80529625D01*
X33109975Y-80393415D01*
X32957459Y-80291507D01*
X33097275Y-80198085D01*
X33233485Y-80061875D01*
X33340504Y-79901710D01*
X33414220Y-79723743D01*
X33451800Y-79534815D01*
X33451800Y-79342185D01*
X33414220Y-79153257D01*
X33340504Y-78975290D01*
X33233485Y-78815125D01*
X33097275Y-78678915D01*
X32937110Y-78571896D01*
X32759143Y-78498180D01*
X32570215Y-78460600D01*
X32377585Y-78460600D01*
X32188657Y-78498180D01*
X32010690Y-78571896D01*
X31850525Y-78678915D01*
X31714315Y-78815125D01*
X31607296Y-78975290D01*
X31533580Y-79153257D01*
X31496000Y-79342185D01*
X27305000Y-79342185D01*
X27305000Y-77089000D01*
X38227000Y-77089000D01*
X38227000Y-109601000D01*
G37*
X38227000Y-109601000D02*
X27305000Y-109601000D01*
X27305000Y-107272775D01*
X27438857Y-107328220D01*
X27627785Y-107365800D01*
X27820415Y-107365800D01*
X28009343Y-107328220D01*
X28187310Y-107254504D01*
X28347475Y-107147485D01*
X28483685Y-107011275D01*
X28590704Y-106851110D01*
X28664420Y-106673143D01*
X28702000Y-106484215D01*
X28702000Y-106291585D01*
X35560000Y-106291585D01*
X35560000Y-106484215D01*
X35597580Y-106673143D01*
X35671296Y-106851110D01*
X35778315Y-107011275D01*
X35914525Y-107147485D01*
X36074690Y-107254504D01*
X36252657Y-107328220D01*
X36441585Y-107365800D01*
X36634215Y-107365800D01*
X36823143Y-107328220D01*
X37001110Y-107254504D01*
X37161275Y-107147485D01*
X37297485Y-107011275D01*
X37404504Y-106851110D01*
X37478220Y-106673143D01*
X37515800Y-106484215D01*
X37515800Y-106291585D01*
X37478220Y-106102657D01*
X37404504Y-105924690D01*
X37297485Y-105764525D01*
X37161275Y-105628315D01*
X37001110Y-105521296D01*
X36823143Y-105447580D01*
X36634215Y-105410000D01*
X36441585Y-105410000D01*
X36252657Y-105447580D01*
X36074690Y-105521296D01*
X35914525Y-105628315D01*
X35778315Y-105764525D01*
X35671296Y-105924690D01*
X35597580Y-106102657D01*
X35560000Y-106291585D01*
X28702000Y-106291585D01*
X28664420Y-106102657D01*
X28590704Y-105924690D01*
X28483685Y-105764525D01*
X28347475Y-105628315D01*
X28187310Y-105521296D01*
X28009343Y-105447580D01*
X27820415Y-105410000D01*
X27627785Y-105410000D01*
X27438857Y-105447580D01*
X27305000Y-105503025D01*
X27305000Y-102481585D01*
X35636200Y-102481585D01*
X35636200Y-102674215D01*
X35673780Y-102863143D01*
X35747496Y-103041110D01*
X35854515Y-103201275D01*
X35990725Y-103337485D01*
X36150890Y-103444504D01*
X36328857Y-103518220D01*
X36517785Y-103555800D01*
X36710415Y-103555800D01*
X36899343Y-103518220D01*
X37077310Y-103444504D01*
X37237475Y-103337485D01*
X37373685Y-103201275D01*
X37480704Y-103041110D01*
X37554420Y-102863143D01*
X37592000Y-102674215D01*
X37592000Y-102481585D01*
X37554420Y-102292657D01*
X37480704Y-102114690D01*
X37373685Y-101954525D01*
X37237475Y-101818315D01*
X37077310Y-101711296D01*
X36899343Y-101637580D01*
X36710415Y-101600000D01*
X36517785Y-101600000D01*
X36328857Y-101637580D01*
X36150890Y-101711296D01*
X35990725Y-101818315D01*
X35854515Y-101954525D01*
X35747496Y-102114690D01*
X35673780Y-102292657D01*
X35636200Y-102481585D01*
X27305000Y-102481585D01*
X27305000Y-98671585D01*
X35610800Y-98671585D01*
X35610800Y-98864215D01*
X35648380Y-99053143D01*
X35722096Y-99231110D01*
X35829115Y-99391275D01*
X35965325Y-99527485D01*
X36125490Y-99634504D01*
X36303457Y-99708220D01*
X36492385Y-99745800D01*
X36685015Y-99745800D01*
X36873943Y-99708220D01*
X37051910Y-99634504D01*
X37212075Y-99527485D01*
X37348285Y-99391275D01*
X37455304Y-99231110D01*
X37529020Y-99053143D01*
X37566600Y-98864215D01*
X37566600Y-98671585D01*
X37529020Y-98482657D01*
X37455304Y-98304690D01*
X37348285Y-98144525D01*
X37212075Y-98008315D01*
X37051910Y-97901296D01*
X36873943Y-97827580D01*
X36685015Y-97790000D01*
X36492385Y-97790000D01*
X36303457Y-97827580D01*
X36125490Y-97901296D01*
X35965325Y-98008315D01*
X35829115Y-98144525D01*
X35722096Y-98304690D01*
X35648380Y-98482657D01*
X35610800Y-98671585D01*
X27305000Y-98671585D01*
X27305000Y-92359685D01*
X30772100Y-92359685D01*
X30772100Y-92552315D01*
X30809680Y-92741243D01*
X30883396Y-92919210D01*
X30990415Y-93079375D01*
X31126625Y-93215585D01*
X31286790Y-93322604D01*
X31464757Y-93396320D01*
X31653685Y-93433900D01*
X31725940Y-93433900D01*
X31714315Y-93445525D01*
X31607296Y-93605690D01*
X31533580Y-93783657D01*
X31496000Y-93972585D01*
X31496000Y-94165215D01*
X31533580Y-94354143D01*
X31607296Y-94532110D01*
X31714315Y-94692275D01*
X31850525Y-94828485D01*
X31996691Y-94926150D01*
X31850525Y-95023815D01*
X31714315Y-95160025D01*
X31607296Y-95320190D01*
X31533580Y-95498157D01*
X31496000Y-95687085D01*
X31496000Y-95879715D01*
X31533580Y-96068643D01*
X31607296Y-96246610D01*
X31714315Y-96406775D01*
X31850525Y-96542985D01*
X32010690Y-96650004D01*
X32188657Y-96723720D01*
X32377585Y-96761300D01*
X32570215Y-96761300D01*
X32759143Y-96723720D01*
X32937110Y-96650004D01*
X33097275Y-96542985D01*
X33233485Y-96406775D01*
X33340504Y-96246610D01*
X33414220Y-96068643D01*
X33451800Y-95879715D01*
X33451800Y-95687085D01*
X33414220Y-95498157D01*
X33340504Y-95320190D01*
X33233485Y-95160025D01*
X33097275Y-95023815D01*
X32951109Y-94926150D01*
X33097275Y-94828485D01*
X33233485Y-94692275D01*
X33340504Y-94532110D01*
X33414220Y-94354143D01*
X33451800Y-94165215D01*
X33451800Y-93972585D01*
X33414220Y-93783657D01*
X33340504Y-93605690D01*
X33233485Y-93445525D01*
X33097275Y-93309315D01*
X32937110Y-93202296D01*
X32759143Y-93128580D01*
X32570215Y-93091000D01*
X32497960Y-93091000D01*
X32509585Y-93079375D01*
X32616604Y-92919210D01*
X32690320Y-92741243D01*
X32727900Y-92552315D01*
X32727900Y-92359685D01*
X32690320Y-92170757D01*
X32616604Y-91992790D01*
X32509585Y-91832625D01*
X32373375Y-91696415D01*
X32213210Y-91589396D01*
X32035243Y-91515680D01*
X31846315Y-91478100D01*
X31653685Y-91478100D01*
X31464757Y-91515680D01*
X31286790Y-91589396D01*
X31126625Y-91696415D01*
X30990415Y-91832625D01*
X30883396Y-91992790D01*
X30809680Y-92170757D01*
X30772100Y-92359685D01*
X27305000Y-92359685D01*
X27305000Y-90454685D01*
X35725100Y-90454685D01*
X35725100Y-90647315D01*
X35762680Y-90836243D01*
X35836396Y-91014210D01*
X35943415Y-91174375D01*
X35983180Y-91214140D01*
X35887196Y-91357790D01*
X35813480Y-91535757D01*
X35775900Y-91724685D01*
X35775900Y-91917315D01*
X35813480Y-92106243D01*
X35887196Y-92284210D01*
X35994215Y-92444375D01*
X36130425Y-92580585D01*
X36290590Y-92687604D01*
X36468557Y-92761320D01*
X36657485Y-92798900D01*
X36850115Y-92798900D01*
X37039043Y-92761320D01*
X37217010Y-92687604D01*
X37377175Y-92580585D01*
X37513385Y-92444375D01*
X37620404Y-92284210D01*
X37694120Y-92106243D01*
X37731700Y-91917315D01*
X37731700Y-91724685D01*
X37694120Y-91535757D01*
X37620404Y-91357790D01*
X37513385Y-91197625D01*
X37473620Y-91157860D01*
X37569604Y-91014210D01*
X37643320Y-90836243D01*
X37680900Y-90647315D01*
X37680900Y-90454685D01*
X37643320Y-90265757D01*
X37569604Y-90087790D01*
X37462585Y-89927625D01*
X37326375Y-89791415D01*
X37166210Y-89684396D01*
X36988243Y-89610680D01*
X36799315Y-89573100D01*
X36606685Y-89573100D01*
X36417757Y-89610680D01*
X36239790Y-89684396D01*
X36079625Y-89791415D01*
X35943415Y-89927625D01*
X35836396Y-90087790D01*
X35762680Y-90265757D01*
X35725100Y-90454685D01*
X27305000Y-90454685D01*
X27305000Y-87914685D01*
X35725100Y-87914685D01*
X35725100Y-88107315D01*
X35762680Y-88296243D01*
X35836396Y-88474210D01*
X35943415Y-88634375D01*
X36079625Y-88770585D01*
X36239790Y-88877604D01*
X36417757Y-88951320D01*
X36606685Y-88988900D01*
X36799315Y-88988900D01*
X36988243Y-88951320D01*
X37166210Y-88877604D01*
X37326375Y-88770585D01*
X37462585Y-88634375D01*
X37569604Y-88474210D01*
X37643320Y-88296243D01*
X37680900Y-88107315D01*
X37680900Y-87914685D01*
X37643320Y-87725757D01*
X37569604Y-87547790D01*
X37462585Y-87387625D01*
X37326375Y-87251415D01*
X37166210Y-87144396D01*
X36988243Y-87070680D01*
X36799315Y-87033100D01*
X36606685Y-87033100D01*
X36417757Y-87070680D01*
X36239790Y-87144396D01*
X36079625Y-87251415D01*
X35943415Y-87387625D01*
X35836396Y-87547790D01*
X35762680Y-87725757D01*
X35725100Y-87914685D01*
X27305000Y-87914685D01*
X27305000Y-85147535D01*
X27462685Y-85178900D01*
X27655315Y-85178900D01*
X27844243Y-85141320D01*
X28022210Y-85067604D01*
X28182375Y-84960585D01*
X28318585Y-84824375D01*
X28425604Y-84664210D01*
X28499320Y-84486243D01*
X28536900Y-84297315D01*
X28536900Y-84104685D01*
X35623500Y-84104685D01*
X35623500Y-84297315D01*
X35661080Y-84486243D01*
X35734796Y-84664210D01*
X35841815Y-84824375D01*
X35881580Y-84864140D01*
X35785596Y-85007790D01*
X35711880Y-85185757D01*
X35674300Y-85374685D01*
X35674300Y-85567315D01*
X35711880Y-85756243D01*
X35785596Y-85934210D01*
X35892615Y-86094375D01*
X36028825Y-86230585D01*
X36188990Y-86337604D01*
X36366957Y-86411320D01*
X36555885Y-86448900D01*
X36748515Y-86448900D01*
X36937443Y-86411320D01*
X37115410Y-86337604D01*
X37275575Y-86230585D01*
X37411785Y-86094375D01*
X37518804Y-85934210D01*
X37592520Y-85756243D01*
X37630100Y-85567315D01*
X37630100Y-85374685D01*
X37592520Y-85185757D01*
X37518804Y-85007790D01*
X37411785Y-84847625D01*
X37372020Y-84807860D01*
X37468004Y-84664210D01*
X37541720Y-84486243D01*
X37579300Y-84297315D01*
X37579300Y-84104685D01*
X37541720Y-83915757D01*
X37468004Y-83737790D01*
X37360985Y-83577625D01*
X37224775Y-83441415D01*
X37064610Y-83334396D01*
X36886643Y-83260680D01*
X36697715Y-83223100D01*
X36505085Y-83223100D01*
X36316157Y-83260680D01*
X36138190Y-83334396D01*
X35978025Y-83441415D01*
X35841815Y-83577625D01*
X35734796Y-83737790D01*
X35661080Y-83915757D01*
X35623500Y-84104685D01*
X28536900Y-84104685D01*
X28499320Y-83915757D01*
X28425604Y-83737790D01*
X28318585Y-83577625D01*
X28306960Y-83566000D01*
X28318585Y-83554375D01*
X28425604Y-83394210D01*
X28499320Y-83216243D01*
X28536900Y-83027315D01*
X28536900Y-82834685D01*
X28499320Y-82645757D01*
X28425604Y-82467790D01*
X28318585Y-82307625D01*
X28182375Y-82171415D01*
X28022210Y-82064396D01*
X27844243Y-81990680D01*
X27655315Y-81953100D01*
X27462685Y-81953100D01*
X27305000Y-81984465D01*
X27305000Y-79342185D01*
X31496000Y-79342185D01*
X31496000Y-79534815D01*
X31533580Y-79723743D01*
X31607296Y-79901710D01*
X31714315Y-80061875D01*
X31850525Y-80198085D01*
X32003041Y-80299993D01*
X31863225Y-80393415D01*
X31727015Y-80529625D01*
X31619996Y-80689790D01*
X31546280Y-80867757D01*
X31508700Y-81056685D01*
X31508700Y-81249315D01*
X31546280Y-81438243D01*
X31619996Y-81616210D01*
X31727015Y-81776375D01*
X31863225Y-81912585D01*
X32023390Y-82019604D01*
X32201357Y-82093320D01*
X32390285Y-82130900D01*
X32582915Y-82130900D01*
X32771843Y-82093320D01*
X32949810Y-82019604D01*
X33109975Y-81912585D01*
X33246185Y-81776375D01*
X33353204Y-81616210D01*
X33426920Y-81438243D01*
X33464500Y-81249315D01*
X33464500Y-81056685D01*
X33426920Y-80867757D01*
X33353204Y-80689790D01*
X33246185Y-80529625D01*
X33109975Y-80393415D01*
X32957459Y-80291507D01*
X33097275Y-80198085D01*
X33233485Y-80061875D01*
X33340504Y-79901710D01*
X33414220Y-79723743D01*
X33451800Y-79534815D01*
X33451800Y-79342185D01*
X33414220Y-79153257D01*
X33340504Y-78975290D01*
X33233485Y-78815125D01*
X33097275Y-78678915D01*
X32937110Y-78571896D01*
X32759143Y-78498180D01*
X32570215Y-78460600D01*
X32377585Y-78460600D01*
X32188657Y-78498180D01*
X32010690Y-78571896D01*
X31850525Y-78678915D01*
X31714315Y-78815125D01*
X31607296Y-78975290D01*
X31533580Y-79153257D01*
X31496000Y-79342185D01*
X27305000Y-79342185D01*
X27305000Y-77089000D01*
X38227000Y-77089000D01*
X38227000Y-109601000D01*
G36*
X67945000Y-90043000D02*
G01*
X46863000Y-90043000D01*
X46863000Y-87406785D01*
X47688400Y-87406785D01*
X47688400Y-87599415D01*
X47725980Y-87788343D01*
X47799696Y-87966310D01*
X47906715Y-88126475D01*
X48042925Y-88262685D01*
X48203090Y-88369704D01*
X48381057Y-88443420D01*
X48569985Y-88481000D01*
X48762615Y-88481000D01*
X48951543Y-88443420D01*
X49129510Y-88369704D01*
X49289675Y-88262685D01*
X49425885Y-88126475D01*
X49532904Y-87966310D01*
X49606620Y-87788343D01*
X49644200Y-87599415D01*
X49644200Y-87406785D01*
X49606620Y-87217857D01*
X49532904Y-87039890D01*
X49425885Y-86879725D01*
X49289675Y-86743515D01*
X49129510Y-86636496D01*
X48951543Y-86562780D01*
X48762615Y-86525200D01*
X48569985Y-86525200D01*
X48381057Y-86562780D01*
X48203090Y-86636496D01*
X48042925Y-86743515D01*
X47906715Y-86879725D01*
X47799696Y-87039890D01*
X47725980Y-87217857D01*
X47688400Y-87406785D01*
X46863000Y-87406785D01*
X46863000Y-85882785D01*
X51092000Y-85882785D01*
X51092000Y-86075415D01*
X51129580Y-86264343D01*
X51203296Y-86442310D01*
X51310315Y-86602475D01*
X51446525Y-86738685D01*
X51557849Y-86813069D01*
X51472025Y-86870415D01*
X51335815Y-87006625D01*
X51228796Y-87166790D01*
X51155080Y-87344757D01*
X51117500Y-87533685D01*
X51117500Y-87726315D01*
X51155080Y-87915243D01*
X51228796Y-88093210D01*
X51335815Y-88253375D01*
X51472025Y-88389585D01*
X51632190Y-88496604D01*
X51810157Y-88570320D01*
X51999085Y-88607900D01*
X52191715Y-88607900D01*
X52380643Y-88570320D01*
X52558610Y-88496604D01*
X52718775Y-88389585D01*
X52854985Y-88253375D01*
X52962004Y-88093210D01*
X53035720Y-87915243D01*
X53073300Y-87726315D01*
X53073300Y-87533685D01*
X53035720Y-87344757D01*
X52962004Y-87166790D01*
X52935608Y-87127285D01*
X59855100Y-87127285D01*
X59855100Y-87319915D01*
X59892680Y-87508843D01*
X59966396Y-87686810D01*
X60073415Y-87846975D01*
X60209625Y-87983185D01*
X60369790Y-88090204D01*
X60547757Y-88163920D01*
X60736685Y-88201500D01*
X60929315Y-88201500D01*
X61118243Y-88163920D01*
X61296210Y-88090204D01*
X61456375Y-87983185D01*
X61592585Y-87846975D01*
X61699604Y-87686810D01*
X61773320Y-87508843D01*
X61810900Y-87319915D01*
X61810900Y-87127285D01*
X61773320Y-86938357D01*
X61699604Y-86760390D01*
X61592585Y-86600225D01*
X61456375Y-86464015D01*
X61296210Y-86356996D01*
X61254659Y-86339785D01*
X62573000Y-86339785D01*
X62573000Y-86532415D01*
X62610580Y-86721343D01*
X62684296Y-86899310D01*
X62791315Y-87059475D01*
X62927525Y-87195685D01*
X63087690Y-87302704D01*
X63265657Y-87376420D01*
X63454585Y-87414000D01*
X63647215Y-87414000D01*
X63836143Y-87376420D01*
X64014110Y-87302704D01*
X64174275Y-87195685D01*
X64310485Y-87059475D01*
X64417504Y-86899310D01*
X64491220Y-86721343D01*
X64528800Y-86532415D01*
X64528800Y-86339785D01*
X64491220Y-86150857D01*
X64417504Y-85972890D01*
X64310485Y-85812725D01*
X64174275Y-85676515D01*
X64014110Y-85569496D01*
X63836143Y-85495780D01*
X63647215Y-85458200D01*
X63454585Y-85458200D01*
X63265657Y-85495780D01*
X63087690Y-85569496D01*
X62927525Y-85676515D01*
X62791315Y-85812725D01*
X62684296Y-85972890D01*
X62610580Y-86150857D01*
X62573000Y-86339785D01*
X61254659Y-86339785D01*
X61118243Y-86283280D01*
X60929315Y-86245700D01*
X60736685Y-86245700D01*
X60547757Y-86283280D01*
X60369790Y-86356996D01*
X60209625Y-86464015D01*
X60073415Y-86600225D01*
X59966396Y-86760390D01*
X59892680Y-86938357D01*
X59855100Y-87127285D01*
X52935608Y-87127285D01*
X52854985Y-87006625D01*
X52718775Y-86870415D01*
X52607451Y-86796031D01*
X52693275Y-86738685D01*
X52829485Y-86602475D01*
X52936504Y-86442310D01*
X53010220Y-86264343D01*
X53047800Y-86075415D01*
X53047800Y-85882785D01*
X53010220Y-85693857D01*
X52936504Y-85515890D01*
X52829485Y-85355725D01*
X52693275Y-85219515D01*
X52533110Y-85112496D01*
X52355143Y-85038780D01*
X52166215Y-85001200D01*
X51973585Y-85001200D01*
X51784657Y-85038780D01*
X51606690Y-85112496D01*
X51446525Y-85219515D01*
X51310315Y-85355725D01*
X51203296Y-85515890D01*
X51129580Y-85693857D01*
X51092000Y-85882785D01*
X46863000Y-85882785D01*
X46863000Y-83526560D01*
X46950825Y-83614385D01*
X47110990Y-83721404D01*
X47288957Y-83795120D01*
X47477885Y-83832700D01*
X47670515Y-83832700D01*
X47745507Y-83817783D01*
X47709200Y-84000312D01*
X47709200Y-84223888D01*
X47752817Y-84443167D01*
X47838376Y-84649724D01*
X47962588Y-84835620D01*
X48120680Y-84993712D01*
X48306576Y-85117924D01*
X48513133Y-85203483D01*
X48732412Y-85247100D01*
X48955988Y-85247100D01*
X49175267Y-85203483D01*
X49381824Y-85117924D01*
X49479200Y-85052859D01*
X49576576Y-85117924D01*
X49783133Y-85203483D01*
X50002412Y-85247100D01*
X50225988Y-85247100D01*
X50445267Y-85203483D01*
X50651824Y-85117924D01*
X50837720Y-84993712D01*
X50995812Y-84835620D01*
X51120024Y-84649724D01*
X51205583Y-84443167D01*
X51249200Y-84223888D01*
X51249200Y-84000312D01*
X51205583Y-83781033D01*
X51120024Y-83574476D01*
X51054959Y-83477100D01*
X51120024Y-83379724D01*
X51205583Y-83173167D01*
X51206196Y-83170085D01*
X52839500Y-83170085D01*
X52839500Y-83362715D01*
X52877080Y-83551643D01*
X52950796Y-83729610D01*
X53057815Y-83889775D01*
X53194025Y-84025985D01*
X53354190Y-84133004D01*
X53532157Y-84206720D01*
X53721085Y-84244300D01*
X53913715Y-84244300D01*
X53977135Y-84231685D01*
X55664100Y-84231685D01*
X55664100Y-84424315D01*
X55701680Y-84613243D01*
X55775396Y-84791210D01*
X55882415Y-84951375D01*
X56018625Y-85087585D01*
X56178790Y-85194604D01*
X56356757Y-85268320D01*
X56545685Y-85305900D01*
X56738315Y-85305900D01*
X56927243Y-85268320D01*
X57105210Y-85194604D01*
X57265375Y-85087585D01*
X57401585Y-84951375D01*
X57508604Y-84791210D01*
X57582320Y-84613243D01*
X57619900Y-84424315D01*
X57619900Y-84231685D01*
X59474100Y-84231685D01*
X59474100Y-84424315D01*
X59511680Y-84613243D01*
X59585396Y-84791210D01*
X59692415Y-84951375D01*
X59828625Y-85087585D01*
X59988790Y-85194604D01*
X60166757Y-85268320D01*
X60355685Y-85305900D01*
X60548315Y-85305900D01*
X60737243Y-85268320D01*
X60915210Y-85194604D01*
X61075375Y-85087585D01*
X61211585Y-84951375D01*
X61318604Y-84791210D01*
X61392320Y-84613243D01*
X61429900Y-84424315D01*
X61429900Y-84231685D01*
X61392320Y-84042757D01*
X61318604Y-83864790D01*
X61211585Y-83704625D01*
X61075375Y-83568415D01*
X60915210Y-83461396D01*
X60737243Y-83387680D01*
X60548315Y-83350100D01*
X60355685Y-83350100D01*
X60166757Y-83387680D01*
X59988790Y-83461396D01*
X59828625Y-83568415D01*
X59692415Y-83704625D01*
X59585396Y-83864790D01*
X59511680Y-84042757D01*
X59474100Y-84231685D01*
X57619900Y-84231685D01*
X57582320Y-84042757D01*
X57508604Y-83864790D01*
X57401585Y-83704625D01*
X57265375Y-83568415D01*
X57105210Y-83461396D01*
X56927243Y-83387680D01*
X56738315Y-83350100D01*
X56545685Y-83350100D01*
X56356757Y-83387680D01*
X56178790Y-83461396D01*
X56018625Y-83568415D01*
X55882415Y-83704625D01*
X55775396Y-83864790D01*
X55701680Y-84042757D01*
X55664100Y-84231685D01*
X53977135Y-84231685D01*
X54102643Y-84206720D01*
X54280610Y-84133004D01*
X54440775Y-84025985D01*
X54576985Y-83889775D01*
X54684004Y-83729610D01*
X54757720Y-83551643D01*
X54795300Y-83362715D01*
X54795300Y-83170085D01*
X54757720Y-82981157D01*
X54684004Y-82803190D01*
X54576985Y-82643025D01*
X54440775Y-82506815D01*
X54280610Y-82399796D01*
X54104104Y-82326685D01*
X57569100Y-82326685D01*
X57569100Y-82519315D01*
X57606680Y-82708243D01*
X57680396Y-82886210D01*
X57787415Y-83046375D01*
X57923625Y-83182585D01*
X58083790Y-83289604D01*
X58261757Y-83363320D01*
X58450685Y-83400900D01*
X58643315Y-83400900D01*
X58832243Y-83363320D01*
X59010210Y-83289604D01*
X59170375Y-83182585D01*
X59306585Y-83046375D01*
X59413604Y-82886210D01*
X59487320Y-82708243D01*
X59524900Y-82519315D01*
X59524900Y-82326685D01*
X59487320Y-82137757D01*
X59413604Y-81959790D01*
X59306585Y-81799625D01*
X59170375Y-81663415D01*
X59010210Y-81556396D01*
X58832243Y-81482680D01*
X58643315Y-81445100D01*
X58450685Y-81445100D01*
X58261757Y-81482680D01*
X58083790Y-81556396D01*
X57923625Y-81663415D01*
X57787415Y-81799625D01*
X57680396Y-81959790D01*
X57606680Y-82137757D01*
X57569100Y-82326685D01*
X54104104Y-82326685D01*
X54102643Y-82326080D01*
X53913715Y-82288500D01*
X53721085Y-82288500D01*
X53532157Y-82326080D01*
X53354190Y-82399796D01*
X53194025Y-82506815D01*
X53057815Y-82643025D01*
X52950796Y-82803190D01*
X52877080Y-82981157D01*
X52839500Y-83170085D01*
X51206196Y-83170085D01*
X51249200Y-82953888D01*
X51249200Y-82730312D01*
X51205583Y-82511033D01*
X51120024Y-82304476D01*
X51054959Y-82207100D01*
X51120024Y-82109724D01*
X51205583Y-81903167D01*
X51249200Y-81683888D01*
X51249200Y-81460312D01*
X51205583Y-81241033D01*
X51120024Y-81034476D01*
X51054959Y-80937100D01*
X51120024Y-80839724D01*
X51205583Y-80633167D01*
X51247649Y-80421685D01*
X55664100Y-80421685D01*
X55664100Y-80614315D01*
X55701680Y-80803243D01*
X55775396Y-80981210D01*
X55882415Y-81141375D01*
X56018625Y-81277585D01*
X56178790Y-81384604D01*
X56356757Y-81458320D01*
X56545685Y-81495900D01*
X56738315Y-81495900D01*
X56927243Y-81458320D01*
X57105210Y-81384604D01*
X57265375Y-81277585D01*
X57401585Y-81141375D01*
X57508604Y-80981210D01*
X57582320Y-80803243D01*
X57619900Y-80614315D01*
X57619900Y-80421685D01*
X59474100Y-80421685D01*
X59474100Y-80614315D01*
X59511680Y-80803243D01*
X59585396Y-80981210D01*
X59692415Y-81141375D01*
X59828625Y-81277585D01*
X59988790Y-81384604D01*
X60166757Y-81458320D01*
X60355685Y-81495900D01*
X60548315Y-81495900D01*
X60737243Y-81458320D01*
X60915210Y-81384604D01*
X61075375Y-81277585D01*
X61211585Y-81141375D01*
X61318604Y-80981210D01*
X61392320Y-80803243D01*
X61429900Y-80614315D01*
X61429900Y-80421685D01*
X61392320Y-80232757D01*
X61318604Y-80054790D01*
X61292208Y-80015285D01*
X62344300Y-80015285D01*
X62344300Y-80207915D01*
X62381880Y-80396843D01*
X62455596Y-80574810D01*
X62562615Y-80734975D01*
X62698825Y-80871185D01*
X62858990Y-80978204D01*
X63036957Y-81051920D01*
X63225885Y-81089500D01*
X63418515Y-81089500D01*
X63607443Y-81051920D01*
X63785410Y-80978204D01*
X63945575Y-80871185D01*
X64081785Y-80734975D01*
X64188804Y-80574810D01*
X64262520Y-80396843D01*
X64300100Y-80207915D01*
X64300100Y-80015285D01*
X64262520Y-79826357D01*
X64188804Y-79648390D01*
X64081785Y-79488225D01*
X63945575Y-79352015D01*
X63785410Y-79244996D01*
X63607443Y-79171280D01*
X63418515Y-79133700D01*
X63225885Y-79133700D01*
X63036957Y-79171280D01*
X62858990Y-79244996D01*
X62698825Y-79352015D01*
X62562615Y-79488225D01*
X62455596Y-79648390D01*
X62381880Y-79826357D01*
X62344300Y-80015285D01*
X61292208Y-80015285D01*
X61211585Y-79894625D01*
X61075375Y-79758415D01*
X60915210Y-79651396D01*
X60737243Y-79577680D01*
X60548315Y-79540100D01*
X60355685Y-79540100D01*
X60166757Y-79577680D01*
X59988790Y-79651396D01*
X59828625Y-79758415D01*
X59692415Y-79894625D01*
X59585396Y-80054790D01*
X59511680Y-80232757D01*
X59474100Y-80421685D01*
X57619900Y-80421685D01*
X57582320Y-80232757D01*
X57508604Y-80054790D01*
X57401585Y-79894625D01*
X57265375Y-79758415D01*
X57105210Y-79651396D01*
X56927243Y-79577680D01*
X56738315Y-79540100D01*
X56545685Y-79540100D01*
X56356757Y-79577680D01*
X56178790Y-79651396D01*
X56018625Y-79758415D01*
X55882415Y-79894625D01*
X55775396Y-80054790D01*
X55701680Y-80232757D01*
X55664100Y-80421685D01*
X51247649Y-80421685D01*
X51249200Y-80413888D01*
X51249200Y-80190312D01*
X51205583Y-79971033D01*
X51120024Y-79764476D01*
X51054959Y-79667100D01*
X51120024Y-79569724D01*
X51205583Y-79363167D01*
X51249200Y-79143888D01*
X51249200Y-78920312D01*
X51205583Y-78701033D01*
X51160787Y-78592885D01*
X52031900Y-78592885D01*
X52031900Y-78785515D01*
X52069480Y-78974443D01*
X52143196Y-79152410D01*
X52250215Y-79312575D01*
X52386425Y-79448785D01*
X52546590Y-79555804D01*
X52724557Y-79629520D01*
X52913485Y-79667100D01*
X53106115Y-79667100D01*
X53295043Y-79629520D01*
X53426474Y-79575080D01*
X53435490Y-79581104D01*
X53613457Y-79654820D01*
X53802385Y-79692400D01*
X53995015Y-79692400D01*
X54183943Y-79654820D01*
X54361910Y-79581104D01*
X54522075Y-79474085D01*
X54658285Y-79337875D01*
X54765304Y-79177710D01*
X54839020Y-78999743D01*
X54876600Y-78810815D01*
X54876600Y-78618185D01*
X54839020Y-78429257D01*
X54765304Y-78251290D01*
X54658285Y-78091125D01*
X54522075Y-77954915D01*
X54412479Y-77881685D01*
X55918100Y-77881685D01*
X55918100Y-78074315D01*
X55955680Y-78263243D01*
X56029396Y-78441210D01*
X56136415Y-78601375D01*
X56272625Y-78737585D01*
X56432790Y-78844604D01*
X56610757Y-78918320D01*
X56799685Y-78955900D01*
X56992315Y-78955900D01*
X57181243Y-78918320D01*
X57359210Y-78844604D01*
X57519375Y-78737585D01*
X57655585Y-78601375D01*
X57762604Y-78441210D01*
X57790485Y-78373900D01*
X57904515Y-78373900D01*
X58093443Y-78336320D01*
X58271410Y-78262604D01*
X58431575Y-78155585D01*
X58567785Y-78019375D01*
X58674804Y-77859210D01*
X58748520Y-77681243D01*
X58786100Y-77492315D01*
X58786100Y-77299685D01*
X58775538Y-77246585D01*
X61506200Y-77246585D01*
X61506200Y-77439215D01*
X61543780Y-77628143D01*
X61617496Y-77806110D01*
X61724515Y-77966275D01*
X61860725Y-78102485D01*
X62020890Y-78209504D01*
X62198857Y-78283220D01*
X62387785Y-78320800D01*
X62580415Y-78320800D01*
X62769343Y-78283220D01*
X62947310Y-78209504D01*
X63107475Y-78102485D01*
X63243685Y-77966275D01*
X63350704Y-77806110D01*
X63424420Y-77628143D01*
X63462000Y-77439215D01*
X63462000Y-77246585D01*
X63424420Y-77057657D01*
X63350704Y-76879690D01*
X63243685Y-76719525D01*
X63107475Y-76583315D01*
X62947310Y-76476296D01*
X62769343Y-76402580D01*
X62580415Y-76365000D01*
X62387785Y-76365000D01*
X62198857Y-76402580D01*
X62020890Y-76476296D01*
X61860725Y-76583315D01*
X61724515Y-76719525D01*
X61617496Y-76879690D01*
X61543780Y-77057657D01*
X61506200Y-77246585D01*
X58775538Y-77246585D01*
X58748520Y-77110757D01*
X58674804Y-76932790D01*
X58567785Y-76772625D01*
X58431575Y-76636415D01*
X58271410Y-76529396D01*
X58093443Y-76455680D01*
X57904515Y-76418100D01*
X57711885Y-76418100D01*
X57522957Y-76455680D01*
X57344990Y-76529396D01*
X57184825Y-76636415D01*
X57048615Y-76772625D01*
X56941596Y-76932790D01*
X56913715Y-77000100D01*
X56799685Y-77000100D01*
X56610757Y-77037680D01*
X56432790Y-77111396D01*
X56272625Y-77218415D01*
X56136415Y-77354625D01*
X56029396Y-77514790D01*
X55955680Y-77692757D01*
X55918100Y-77881685D01*
X54412479Y-77881685D01*
X54361910Y-77847896D01*
X54183943Y-77774180D01*
X53995015Y-77736600D01*
X53802385Y-77736600D01*
X53613457Y-77774180D01*
X53482026Y-77828620D01*
X53473010Y-77822596D01*
X53295043Y-77748880D01*
X53106115Y-77711300D01*
X52913485Y-77711300D01*
X52724557Y-77748880D01*
X52546590Y-77822596D01*
X52386425Y-77929615D01*
X52250215Y-78065825D01*
X52143196Y-78225990D01*
X52069480Y-78403957D01*
X52031900Y-78592885D01*
X51160787Y-78592885D01*
X51120024Y-78494476D01*
X50995812Y-78308580D01*
X50837720Y-78150488D01*
X50651824Y-78026276D01*
X50445267Y-77940717D01*
X50225988Y-77897100D01*
X50002412Y-77897100D01*
X49783133Y-77940717D01*
X49671426Y-77986988D01*
X49588380Y-77942598D01*
X49468682Y-77906288D01*
X49344200Y-77894028D01*
X49129950Y-77897100D01*
X48971200Y-78055850D01*
X48971200Y-78905100D01*
X48982226Y-78905100D01*
X48979200Y-78920312D01*
X48979200Y-79143888D01*
X48982226Y-79159100D01*
X48971200Y-79159100D01*
X48971200Y-79170126D01*
X48955988Y-79167100D01*
X48732412Y-79167100D01*
X48717200Y-79170126D01*
X48717200Y-79159100D01*
X47867950Y-79159100D01*
X47709200Y-79317850D01*
X47706128Y-79532100D01*
X47718388Y-79656582D01*
X47754698Y-79776280D01*
X47799088Y-79859326D01*
X47752817Y-79971033D01*
X47709200Y-80190312D01*
X47709200Y-80413888D01*
X47752817Y-80633167D01*
X47838376Y-80839724D01*
X47903441Y-80937100D01*
X47838376Y-81034476D01*
X47752817Y-81241033D01*
X47709200Y-81460312D01*
X47709200Y-81683888D01*
X47750767Y-81892863D01*
X47670515Y-81876900D01*
X47477885Y-81876900D01*
X47288957Y-81914480D01*
X47110990Y-81988196D01*
X46950825Y-82095215D01*
X46863000Y-82183040D01*
X46863000Y-78532100D01*
X47706128Y-78532100D01*
X47709200Y-78746350D01*
X47867950Y-78905100D01*
X48717200Y-78905100D01*
X48717200Y-78055850D01*
X48558450Y-77897100D01*
X48344200Y-77894028D01*
X48219718Y-77906288D01*
X48100020Y-77942598D01*
X47989706Y-78001563D01*
X47893015Y-78080915D01*
X47813663Y-78177606D01*
X47754698Y-78287920D01*
X47718388Y-78407618D01*
X47706128Y-78532100D01*
X46863000Y-78532100D01*
X46863000Y-75057000D01*
X67945000Y-75057000D01*
X67945000Y-90043000D01*
G37*
X67945000Y-90043000D02*
X46863000Y-90043000D01*
X46863000Y-87406785D01*
X47688400Y-87406785D01*
X47688400Y-87599415D01*
X47725980Y-87788343D01*
X47799696Y-87966310D01*
X47906715Y-88126475D01*
X48042925Y-88262685D01*
X48203090Y-88369704D01*
X48381057Y-88443420D01*
X48569985Y-88481000D01*
X48762615Y-88481000D01*
X48951543Y-88443420D01*
X49129510Y-88369704D01*
X49289675Y-88262685D01*
X49425885Y-88126475D01*
X49532904Y-87966310D01*
X49606620Y-87788343D01*
X49644200Y-87599415D01*
X49644200Y-87406785D01*
X49606620Y-87217857D01*
X49532904Y-87039890D01*
X49425885Y-86879725D01*
X49289675Y-86743515D01*
X49129510Y-86636496D01*
X48951543Y-86562780D01*
X48762615Y-86525200D01*
X48569985Y-86525200D01*
X48381057Y-86562780D01*
X48203090Y-86636496D01*
X48042925Y-86743515D01*
X47906715Y-86879725D01*
X47799696Y-87039890D01*
X47725980Y-87217857D01*
X47688400Y-87406785D01*
X46863000Y-87406785D01*
X46863000Y-85882785D01*
X51092000Y-85882785D01*
X51092000Y-86075415D01*
X51129580Y-86264343D01*
X51203296Y-86442310D01*
X51310315Y-86602475D01*
X51446525Y-86738685D01*
X51557849Y-86813069D01*
X51472025Y-86870415D01*
X51335815Y-87006625D01*
X51228796Y-87166790D01*
X51155080Y-87344757D01*
X51117500Y-87533685D01*
X51117500Y-87726315D01*
X51155080Y-87915243D01*
X51228796Y-88093210D01*
X51335815Y-88253375D01*
X51472025Y-88389585D01*
X51632190Y-88496604D01*
X51810157Y-88570320D01*
X51999085Y-88607900D01*
X52191715Y-88607900D01*
X52380643Y-88570320D01*
X52558610Y-88496604D01*
X52718775Y-88389585D01*
X52854985Y-88253375D01*
X52962004Y-88093210D01*
X53035720Y-87915243D01*
X53073300Y-87726315D01*
X53073300Y-87533685D01*
X53035720Y-87344757D01*
X52962004Y-87166790D01*
X52935608Y-87127285D01*
X59855100Y-87127285D01*
X59855100Y-87319915D01*
X59892680Y-87508843D01*
X59966396Y-87686810D01*
X60073415Y-87846975D01*
X60209625Y-87983185D01*
X60369790Y-88090204D01*
X60547757Y-88163920D01*
X60736685Y-88201500D01*
X60929315Y-88201500D01*
X61118243Y-88163920D01*
X61296210Y-88090204D01*
X61456375Y-87983185D01*
X61592585Y-87846975D01*
X61699604Y-87686810D01*
X61773320Y-87508843D01*
X61810900Y-87319915D01*
X61810900Y-87127285D01*
X61773320Y-86938357D01*
X61699604Y-86760390D01*
X61592585Y-86600225D01*
X61456375Y-86464015D01*
X61296210Y-86356996D01*
X61254659Y-86339785D01*
X62573000Y-86339785D01*
X62573000Y-86532415D01*
X62610580Y-86721343D01*
X62684296Y-86899310D01*
X62791315Y-87059475D01*
X62927525Y-87195685D01*
X63087690Y-87302704D01*
X63265657Y-87376420D01*
X63454585Y-87414000D01*
X63647215Y-87414000D01*
X63836143Y-87376420D01*
X64014110Y-87302704D01*
X64174275Y-87195685D01*
X64310485Y-87059475D01*
X64417504Y-86899310D01*
X64491220Y-86721343D01*
X64528800Y-86532415D01*
X64528800Y-86339785D01*
X64491220Y-86150857D01*
X64417504Y-85972890D01*
X64310485Y-85812725D01*
X64174275Y-85676515D01*
X64014110Y-85569496D01*
X63836143Y-85495780D01*
X63647215Y-85458200D01*
X63454585Y-85458200D01*
X63265657Y-85495780D01*
X63087690Y-85569496D01*
X62927525Y-85676515D01*
X62791315Y-85812725D01*
X62684296Y-85972890D01*
X62610580Y-86150857D01*
X62573000Y-86339785D01*
X61254659Y-86339785D01*
X61118243Y-86283280D01*
X60929315Y-86245700D01*
X60736685Y-86245700D01*
X60547757Y-86283280D01*
X60369790Y-86356996D01*
X60209625Y-86464015D01*
X60073415Y-86600225D01*
X59966396Y-86760390D01*
X59892680Y-86938357D01*
X59855100Y-87127285D01*
X52935608Y-87127285D01*
X52854985Y-87006625D01*
X52718775Y-86870415D01*
X52607451Y-86796031D01*
X52693275Y-86738685D01*
X52829485Y-86602475D01*
X52936504Y-86442310D01*
X53010220Y-86264343D01*
X53047800Y-86075415D01*
X53047800Y-85882785D01*
X53010220Y-85693857D01*
X52936504Y-85515890D01*
X52829485Y-85355725D01*
X52693275Y-85219515D01*
X52533110Y-85112496D01*
X52355143Y-85038780D01*
X52166215Y-85001200D01*
X51973585Y-85001200D01*
X51784657Y-85038780D01*
X51606690Y-85112496D01*
X51446525Y-85219515D01*
X51310315Y-85355725D01*
X51203296Y-85515890D01*
X51129580Y-85693857D01*
X51092000Y-85882785D01*
X46863000Y-85882785D01*
X46863000Y-83526560D01*
X46950825Y-83614385D01*
X47110990Y-83721404D01*
X47288957Y-83795120D01*
X47477885Y-83832700D01*
X47670515Y-83832700D01*
X47745507Y-83817783D01*
X47709200Y-84000312D01*
X47709200Y-84223888D01*
X47752817Y-84443167D01*
X47838376Y-84649724D01*
X47962588Y-84835620D01*
X48120680Y-84993712D01*
X48306576Y-85117924D01*
X48513133Y-85203483D01*
X48732412Y-85247100D01*
X48955988Y-85247100D01*
X49175267Y-85203483D01*
X49381824Y-85117924D01*
X49479200Y-85052859D01*
X49576576Y-85117924D01*
X49783133Y-85203483D01*
X50002412Y-85247100D01*
X50225988Y-85247100D01*
X50445267Y-85203483D01*
X50651824Y-85117924D01*
X50837720Y-84993712D01*
X50995812Y-84835620D01*
X51120024Y-84649724D01*
X51205583Y-84443167D01*
X51249200Y-84223888D01*
X51249200Y-84000312D01*
X51205583Y-83781033D01*
X51120024Y-83574476D01*
X51054959Y-83477100D01*
X51120024Y-83379724D01*
X51205583Y-83173167D01*
X51206196Y-83170085D01*
X52839500Y-83170085D01*
X52839500Y-83362715D01*
X52877080Y-83551643D01*
X52950796Y-83729610D01*
X53057815Y-83889775D01*
X53194025Y-84025985D01*
X53354190Y-84133004D01*
X53532157Y-84206720D01*
X53721085Y-84244300D01*
X53913715Y-84244300D01*
X53977135Y-84231685D01*
X55664100Y-84231685D01*
X55664100Y-84424315D01*
X55701680Y-84613243D01*
X55775396Y-84791210D01*
X55882415Y-84951375D01*
X56018625Y-85087585D01*
X56178790Y-85194604D01*
X56356757Y-85268320D01*
X56545685Y-85305900D01*
X56738315Y-85305900D01*
X56927243Y-85268320D01*
X57105210Y-85194604D01*
X57265375Y-85087585D01*
X57401585Y-84951375D01*
X57508604Y-84791210D01*
X57582320Y-84613243D01*
X57619900Y-84424315D01*
X57619900Y-84231685D01*
X59474100Y-84231685D01*
X59474100Y-84424315D01*
X59511680Y-84613243D01*
X59585396Y-84791210D01*
X59692415Y-84951375D01*
X59828625Y-85087585D01*
X59988790Y-85194604D01*
X60166757Y-85268320D01*
X60355685Y-85305900D01*
X60548315Y-85305900D01*
X60737243Y-85268320D01*
X60915210Y-85194604D01*
X61075375Y-85087585D01*
X61211585Y-84951375D01*
X61318604Y-84791210D01*
X61392320Y-84613243D01*
X61429900Y-84424315D01*
X61429900Y-84231685D01*
X61392320Y-84042757D01*
X61318604Y-83864790D01*
X61211585Y-83704625D01*
X61075375Y-83568415D01*
X60915210Y-83461396D01*
X60737243Y-83387680D01*
X60548315Y-83350100D01*
X60355685Y-83350100D01*
X60166757Y-83387680D01*
X59988790Y-83461396D01*
X59828625Y-83568415D01*
X59692415Y-83704625D01*
X59585396Y-83864790D01*
X59511680Y-84042757D01*
X59474100Y-84231685D01*
X57619900Y-84231685D01*
X57582320Y-84042757D01*
X57508604Y-83864790D01*
X57401585Y-83704625D01*
X57265375Y-83568415D01*
X57105210Y-83461396D01*
X56927243Y-83387680D01*
X56738315Y-83350100D01*
X56545685Y-83350100D01*
X56356757Y-83387680D01*
X56178790Y-83461396D01*
X56018625Y-83568415D01*
X55882415Y-83704625D01*
X55775396Y-83864790D01*
X55701680Y-84042757D01*
X55664100Y-84231685D01*
X53977135Y-84231685D01*
X54102643Y-84206720D01*
X54280610Y-84133004D01*
X54440775Y-84025985D01*
X54576985Y-83889775D01*
X54684004Y-83729610D01*
X54757720Y-83551643D01*
X54795300Y-83362715D01*
X54795300Y-83170085D01*
X54757720Y-82981157D01*
X54684004Y-82803190D01*
X54576985Y-82643025D01*
X54440775Y-82506815D01*
X54280610Y-82399796D01*
X54104104Y-82326685D01*
X57569100Y-82326685D01*
X57569100Y-82519315D01*
X57606680Y-82708243D01*
X57680396Y-82886210D01*
X57787415Y-83046375D01*
X57923625Y-83182585D01*
X58083790Y-83289604D01*
X58261757Y-83363320D01*
X58450685Y-83400900D01*
X58643315Y-83400900D01*
X58832243Y-83363320D01*
X59010210Y-83289604D01*
X59170375Y-83182585D01*
X59306585Y-83046375D01*
X59413604Y-82886210D01*
X59487320Y-82708243D01*
X59524900Y-82519315D01*
X59524900Y-82326685D01*
X59487320Y-82137757D01*
X59413604Y-81959790D01*
X59306585Y-81799625D01*
X59170375Y-81663415D01*
X59010210Y-81556396D01*
X58832243Y-81482680D01*
X58643315Y-81445100D01*
X58450685Y-81445100D01*
X58261757Y-81482680D01*
X58083790Y-81556396D01*
X57923625Y-81663415D01*
X57787415Y-81799625D01*
X57680396Y-81959790D01*
X57606680Y-82137757D01*
X57569100Y-82326685D01*
X54104104Y-82326685D01*
X54102643Y-82326080D01*
X53913715Y-82288500D01*
X53721085Y-82288500D01*
X53532157Y-82326080D01*
X53354190Y-82399796D01*
X53194025Y-82506815D01*
X53057815Y-82643025D01*
X52950796Y-82803190D01*
X52877080Y-82981157D01*
X52839500Y-83170085D01*
X51206196Y-83170085D01*
X51249200Y-82953888D01*
X51249200Y-82730312D01*
X51205583Y-82511033D01*
X51120024Y-82304476D01*
X51054959Y-82207100D01*
X51120024Y-82109724D01*
X51205583Y-81903167D01*
X51249200Y-81683888D01*
X51249200Y-81460312D01*
X51205583Y-81241033D01*
X51120024Y-81034476D01*
X51054959Y-80937100D01*
X51120024Y-80839724D01*
X51205583Y-80633167D01*
X51247649Y-80421685D01*
X55664100Y-80421685D01*
X55664100Y-80614315D01*
X55701680Y-80803243D01*
X55775396Y-80981210D01*
X55882415Y-81141375D01*
X56018625Y-81277585D01*
X56178790Y-81384604D01*
X56356757Y-81458320D01*
X56545685Y-81495900D01*
X56738315Y-81495900D01*
X56927243Y-81458320D01*
X57105210Y-81384604D01*
X57265375Y-81277585D01*
X57401585Y-81141375D01*
X57508604Y-80981210D01*
X57582320Y-80803243D01*
X57619900Y-80614315D01*
X57619900Y-80421685D01*
X59474100Y-80421685D01*
X59474100Y-80614315D01*
X59511680Y-80803243D01*
X59585396Y-80981210D01*
X59692415Y-81141375D01*
X59828625Y-81277585D01*
X59988790Y-81384604D01*
X60166757Y-81458320D01*
X60355685Y-81495900D01*
X60548315Y-81495900D01*
X60737243Y-81458320D01*
X60915210Y-81384604D01*
X61075375Y-81277585D01*
X61211585Y-81141375D01*
X61318604Y-80981210D01*
X61392320Y-80803243D01*
X61429900Y-80614315D01*
X61429900Y-80421685D01*
X61392320Y-80232757D01*
X61318604Y-80054790D01*
X61292208Y-80015285D01*
X62344300Y-80015285D01*
X62344300Y-80207915D01*
X62381880Y-80396843D01*
X62455596Y-80574810D01*
X62562615Y-80734975D01*
X62698825Y-80871185D01*
X62858990Y-80978204D01*
X63036957Y-81051920D01*
X63225885Y-81089500D01*
X63418515Y-81089500D01*
X63607443Y-81051920D01*
X63785410Y-80978204D01*
X63945575Y-80871185D01*
X64081785Y-80734975D01*
X64188804Y-80574810D01*
X64262520Y-80396843D01*
X64300100Y-80207915D01*
X64300100Y-80015285D01*
X64262520Y-79826357D01*
X64188804Y-79648390D01*
X64081785Y-79488225D01*
X63945575Y-79352015D01*
X63785410Y-79244996D01*
X63607443Y-79171280D01*
X63418515Y-79133700D01*
X63225885Y-79133700D01*
X63036957Y-79171280D01*
X62858990Y-79244996D01*
X62698825Y-79352015D01*
X62562615Y-79488225D01*
X62455596Y-79648390D01*
X62381880Y-79826357D01*
X62344300Y-80015285D01*
X61292208Y-80015285D01*
X61211585Y-79894625D01*
X61075375Y-79758415D01*
X60915210Y-79651396D01*
X60737243Y-79577680D01*
X60548315Y-79540100D01*
X60355685Y-79540100D01*
X60166757Y-79577680D01*
X59988790Y-79651396D01*
X59828625Y-79758415D01*
X59692415Y-79894625D01*
X59585396Y-80054790D01*
X59511680Y-80232757D01*
X59474100Y-80421685D01*
X57619900Y-80421685D01*
X57582320Y-80232757D01*
X57508604Y-80054790D01*
X57401585Y-79894625D01*
X57265375Y-79758415D01*
X57105210Y-79651396D01*
X56927243Y-79577680D01*
X56738315Y-79540100D01*
X56545685Y-79540100D01*
X56356757Y-79577680D01*
X56178790Y-79651396D01*
X56018625Y-79758415D01*
X55882415Y-79894625D01*
X55775396Y-80054790D01*
X55701680Y-80232757D01*
X55664100Y-80421685D01*
X51247649Y-80421685D01*
X51249200Y-80413888D01*
X51249200Y-80190312D01*
X51205583Y-79971033D01*
X51120024Y-79764476D01*
X51054959Y-79667100D01*
X51120024Y-79569724D01*
X51205583Y-79363167D01*
X51249200Y-79143888D01*
X51249200Y-78920312D01*
X51205583Y-78701033D01*
X51160787Y-78592885D01*
X52031900Y-78592885D01*
X52031900Y-78785515D01*
X52069480Y-78974443D01*
X52143196Y-79152410D01*
X52250215Y-79312575D01*
X52386425Y-79448785D01*
X52546590Y-79555804D01*
X52724557Y-79629520D01*
X52913485Y-79667100D01*
X53106115Y-79667100D01*
X53295043Y-79629520D01*
X53426474Y-79575080D01*
X53435490Y-79581104D01*
X53613457Y-79654820D01*
X53802385Y-79692400D01*
X53995015Y-79692400D01*
X54183943Y-79654820D01*
X54361910Y-79581104D01*
X54522075Y-79474085D01*
X54658285Y-79337875D01*
X54765304Y-79177710D01*
X54839020Y-78999743D01*
X54876600Y-78810815D01*
X54876600Y-78618185D01*
X54839020Y-78429257D01*
X54765304Y-78251290D01*
X54658285Y-78091125D01*
X54522075Y-77954915D01*
X54412479Y-77881685D01*
X55918100Y-77881685D01*
X55918100Y-78074315D01*
X55955680Y-78263243D01*
X56029396Y-78441210D01*
X56136415Y-78601375D01*
X56272625Y-78737585D01*
X56432790Y-78844604D01*
X56610757Y-78918320D01*
X56799685Y-78955900D01*
X56992315Y-78955900D01*
X57181243Y-78918320D01*
X57359210Y-78844604D01*
X57519375Y-78737585D01*
X57655585Y-78601375D01*
X57762604Y-78441210D01*
X57790485Y-78373900D01*
X57904515Y-78373900D01*
X58093443Y-78336320D01*
X58271410Y-78262604D01*
X58431575Y-78155585D01*
X58567785Y-78019375D01*
X58674804Y-77859210D01*
X58748520Y-77681243D01*
X58786100Y-77492315D01*
X58786100Y-77299685D01*
X58775538Y-77246585D01*
X61506200Y-77246585D01*
X61506200Y-77439215D01*
X61543780Y-77628143D01*
X61617496Y-77806110D01*
X61724515Y-77966275D01*
X61860725Y-78102485D01*
X62020890Y-78209504D01*
X62198857Y-78283220D01*
X62387785Y-78320800D01*
X62580415Y-78320800D01*
X62769343Y-78283220D01*
X62947310Y-78209504D01*
X63107475Y-78102485D01*
X63243685Y-77966275D01*
X63350704Y-77806110D01*
X63424420Y-77628143D01*
X63462000Y-77439215D01*
X63462000Y-77246585D01*
X63424420Y-77057657D01*
X63350704Y-76879690D01*
X63243685Y-76719525D01*
X63107475Y-76583315D01*
X62947310Y-76476296D01*
X62769343Y-76402580D01*
X62580415Y-76365000D01*
X62387785Y-76365000D01*
X62198857Y-76402580D01*
X62020890Y-76476296D01*
X61860725Y-76583315D01*
X61724515Y-76719525D01*
X61617496Y-76879690D01*
X61543780Y-77057657D01*
X61506200Y-77246585D01*
X58775538Y-77246585D01*
X58748520Y-77110757D01*
X58674804Y-76932790D01*
X58567785Y-76772625D01*
X58431575Y-76636415D01*
X58271410Y-76529396D01*
X58093443Y-76455680D01*
X57904515Y-76418100D01*
X57711885Y-76418100D01*
X57522957Y-76455680D01*
X57344990Y-76529396D01*
X57184825Y-76636415D01*
X57048615Y-76772625D01*
X56941596Y-76932790D01*
X56913715Y-77000100D01*
X56799685Y-77000100D01*
X56610757Y-77037680D01*
X56432790Y-77111396D01*
X56272625Y-77218415D01*
X56136415Y-77354625D01*
X56029396Y-77514790D01*
X55955680Y-77692757D01*
X55918100Y-77881685D01*
X54412479Y-77881685D01*
X54361910Y-77847896D01*
X54183943Y-77774180D01*
X53995015Y-77736600D01*
X53802385Y-77736600D01*
X53613457Y-77774180D01*
X53482026Y-77828620D01*
X53473010Y-77822596D01*
X53295043Y-77748880D01*
X53106115Y-77711300D01*
X52913485Y-77711300D01*
X52724557Y-77748880D01*
X52546590Y-77822596D01*
X52386425Y-77929615D01*
X52250215Y-78065825D01*
X52143196Y-78225990D01*
X52069480Y-78403957D01*
X52031900Y-78592885D01*
X51160787Y-78592885D01*
X51120024Y-78494476D01*
X50995812Y-78308580D01*
X50837720Y-78150488D01*
X50651824Y-78026276D01*
X50445267Y-77940717D01*
X50225988Y-77897100D01*
X50002412Y-77897100D01*
X49783133Y-77940717D01*
X49671426Y-77986988D01*
X49588380Y-77942598D01*
X49468682Y-77906288D01*
X49344200Y-77894028D01*
X49129950Y-77897100D01*
X48971200Y-78055850D01*
X48971200Y-78905100D01*
X48982226Y-78905100D01*
X48979200Y-78920312D01*
X48979200Y-79143888D01*
X48982226Y-79159100D01*
X48971200Y-79159100D01*
X48971200Y-79170126D01*
X48955988Y-79167100D01*
X48732412Y-79167100D01*
X48717200Y-79170126D01*
X48717200Y-79159100D01*
X47867950Y-79159100D01*
X47709200Y-79317850D01*
X47706128Y-79532100D01*
X47718388Y-79656582D01*
X47754698Y-79776280D01*
X47799088Y-79859326D01*
X47752817Y-79971033D01*
X47709200Y-80190312D01*
X47709200Y-80413888D01*
X47752817Y-80633167D01*
X47838376Y-80839724D01*
X47903441Y-80937100D01*
X47838376Y-81034476D01*
X47752817Y-81241033D01*
X47709200Y-81460312D01*
X47709200Y-81683888D01*
X47750767Y-81892863D01*
X47670515Y-81876900D01*
X47477885Y-81876900D01*
X47288957Y-81914480D01*
X47110990Y-81988196D01*
X46950825Y-82095215D01*
X46863000Y-82183040D01*
X46863000Y-78532100D01*
X47706128Y-78532100D01*
X47709200Y-78746350D01*
X47867950Y-78905100D01*
X48717200Y-78905100D01*
X48717200Y-78055850D01*
X48558450Y-77897100D01*
X48344200Y-77894028D01*
X48219718Y-77906288D01*
X48100020Y-77942598D01*
X47989706Y-78001563D01*
X47893015Y-78080915D01*
X47813663Y-78177606D01*
X47754698Y-78287920D01*
X47718388Y-78407618D01*
X47706128Y-78532100D01*
X46863000Y-78532100D01*
X46863000Y-75057000D01*
X67945000Y-75057000D01*
X67945000Y-90043000D01*
G36*
X59003680Y-98012757D02*
G01*
X58966100Y-98201685D01*
X58966100Y-98394315D01*
X59003680Y-98583243D01*
X59077396Y-98761210D01*
X59184415Y-98921375D01*
X59320625Y-99057585D01*
X59480790Y-99164604D01*
X59658757Y-99238320D01*
X59847685Y-99275900D01*
X60040315Y-99275900D01*
X60229243Y-99238320D01*
X60407210Y-99164604D01*
X60567375Y-99057585D01*
X60703585Y-98921375D01*
X60810604Y-98761210D01*
X60884320Y-98583243D01*
X60921900Y-98394315D01*
X60921900Y-98201685D01*
X60884320Y-98012757D01*
X60844656Y-97917000D01*
X67945000Y-97917000D01*
X67945000Y-113241197D01*
X67742136Y-113444061D01*
X67377161Y-113990285D01*
X67125762Y-114597216D01*
X67058573Y-114935000D01*
X57135960Y-114935000D01*
X57167831Y-114903129D01*
X57274850Y-114742964D01*
X57348566Y-114564997D01*
X57386146Y-114376069D01*
X57386146Y-114183439D01*
X57348566Y-113994511D01*
X57274850Y-113816544D01*
X57167831Y-113656379D01*
X57031621Y-113520169D01*
X56871456Y-113413150D01*
X56693489Y-113339434D01*
X56504561Y-113301854D01*
X56311931Y-113301854D01*
X56123003Y-113339434D01*
X55945036Y-113413150D01*
X55784871Y-113520169D01*
X55648661Y-113656379D01*
X55541642Y-113816544D01*
X55467926Y-113994511D01*
X55430346Y-114183439D01*
X55430346Y-114376069D01*
X55467926Y-114564997D01*
X55541642Y-114742964D01*
X55648661Y-114903129D01*
X55680532Y-114935000D01*
X46863000Y-114935000D01*
X46863000Y-113810085D01*
X49009200Y-113810085D01*
X49009200Y-114002715D01*
X49046780Y-114191643D01*
X49120496Y-114369610D01*
X49227515Y-114529775D01*
X49363725Y-114665985D01*
X49523890Y-114773004D01*
X49701857Y-114846720D01*
X49890785Y-114884300D01*
X50083415Y-114884300D01*
X50272343Y-114846720D01*
X50450310Y-114773004D01*
X50610475Y-114665985D01*
X50746685Y-114529775D01*
X50853704Y-114369610D01*
X50927420Y-114191643D01*
X50965000Y-114002715D01*
X50965000Y-113810085D01*
X50927420Y-113621157D01*
X50853704Y-113443190D01*
X50746685Y-113283025D01*
X50638745Y-113175085D01*
X59334300Y-113175085D01*
X59334300Y-113367715D01*
X59371880Y-113556643D01*
X59445596Y-113734610D01*
X59552615Y-113894775D01*
X59688825Y-114030985D01*
X59848990Y-114138004D01*
X60026957Y-114211720D01*
X60215885Y-114249300D01*
X60408515Y-114249300D01*
X60597443Y-114211720D01*
X60775410Y-114138004D01*
X60935575Y-114030985D01*
X61071785Y-113894775D01*
X61178804Y-113734610D01*
X61252520Y-113556643D01*
X61290100Y-113367715D01*
X61290100Y-113175085D01*
X61252520Y-112986157D01*
X61178804Y-112808190D01*
X61071785Y-112648025D01*
X60935575Y-112511815D01*
X60775410Y-112404796D01*
X60597443Y-112331080D01*
X60408515Y-112293500D01*
X60215885Y-112293500D01*
X60026957Y-112331080D01*
X59848990Y-112404796D01*
X59688825Y-112511815D01*
X59552615Y-112648025D01*
X59445596Y-112808190D01*
X59371880Y-112986157D01*
X59334300Y-113175085D01*
X50638745Y-113175085D01*
X50610475Y-113146815D01*
X50450310Y-113039796D01*
X50272343Y-112966080D01*
X50083415Y-112928500D01*
X49890785Y-112928500D01*
X49701857Y-112966080D01*
X49523890Y-113039796D01*
X49363725Y-113146815D01*
X49227515Y-113283025D01*
X49120496Y-113443190D01*
X49046780Y-113621157D01*
X49009200Y-113810085D01*
X46863000Y-113810085D01*
X46863000Y-110139685D01*
X48298100Y-110139685D01*
X48298100Y-110332315D01*
X48335680Y-110521243D01*
X48409396Y-110699210D01*
X48516415Y-110859375D01*
X48652625Y-110995585D01*
X48812790Y-111102604D01*
X48990757Y-111176320D01*
X49179685Y-111213900D01*
X49372315Y-111213900D01*
X49409592Y-111206485D01*
X63106300Y-111206485D01*
X63106300Y-111399115D01*
X63143880Y-111588043D01*
X63217596Y-111766010D01*
X63324615Y-111926175D01*
X63460825Y-112062385D01*
X63620990Y-112169404D01*
X63798957Y-112243120D01*
X63987885Y-112280700D01*
X64180515Y-112280700D01*
X64369443Y-112243120D01*
X64516000Y-112182414D01*
X64662557Y-112243120D01*
X64851485Y-112280700D01*
X65044115Y-112280700D01*
X65233043Y-112243120D01*
X65411010Y-112169404D01*
X65571175Y-112062385D01*
X65707385Y-111926175D01*
X65814404Y-111766010D01*
X65888120Y-111588043D01*
X65925700Y-111399115D01*
X65925700Y-111206485D01*
X65888120Y-111017557D01*
X65814404Y-110839590D01*
X65707385Y-110679425D01*
X65571175Y-110543215D01*
X65411010Y-110436196D01*
X65233043Y-110362480D01*
X65044115Y-110324900D01*
X64851485Y-110324900D01*
X64662557Y-110362480D01*
X64516000Y-110423186D01*
X64369443Y-110362480D01*
X64180515Y-110324900D01*
X63987885Y-110324900D01*
X63798957Y-110362480D01*
X63620990Y-110436196D01*
X63460825Y-110543215D01*
X63324615Y-110679425D01*
X63217596Y-110839590D01*
X63143880Y-111017557D01*
X63106300Y-111206485D01*
X49409592Y-111206485D01*
X49561243Y-111176320D01*
X49739210Y-111102604D01*
X49899375Y-110995585D01*
X50035585Y-110859375D01*
X50142604Y-110699210D01*
X50216320Y-110521243D01*
X50253900Y-110332315D01*
X50253900Y-110139685D01*
X50216320Y-109950757D01*
X50142604Y-109772790D01*
X50035585Y-109612625D01*
X49899375Y-109476415D01*
X49794420Y-109406286D01*
X49924775Y-109319185D01*
X50060985Y-109182975D01*
X50168004Y-109022810D01*
X50241720Y-108844843D01*
X50279300Y-108655915D01*
X50279300Y-108463285D01*
X50241720Y-108274357D01*
X50168004Y-108096390D01*
X50090626Y-107980585D01*
X52463800Y-107980585D01*
X52463800Y-108173215D01*
X52501380Y-108362143D01*
X52575096Y-108540110D01*
X52682115Y-108700275D01*
X52818325Y-108836485D01*
X52978490Y-108943504D01*
X53156457Y-109017220D01*
X53345385Y-109054800D01*
X53538015Y-109054800D01*
X53726943Y-109017220D01*
X53904910Y-108943504D01*
X54015387Y-108869685D01*
X55664100Y-108869685D01*
X55664100Y-109062315D01*
X55701680Y-109251243D01*
X55775396Y-109429210D01*
X55882415Y-109589375D01*
X56018625Y-109725585D01*
X56178790Y-109832604D01*
X56356757Y-109906320D01*
X56545685Y-109943900D01*
X56738315Y-109943900D01*
X56927243Y-109906320D01*
X57105210Y-109832604D01*
X57265375Y-109725585D01*
X57401585Y-109589375D01*
X57508604Y-109429210D01*
X57582320Y-109251243D01*
X57619900Y-109062315D01*
X57619900Y-108869685D01*
X59474100Y-108869685D01*
X59474100Y-109062315D01*
X59511680Y-109251243D01*
X59585396Y-109429210D01*
X59692415Y-109589375D01*
X59828625Y-109725585D01*
X59988790Y-109832604D01*
X60166757Y-109906320D01*
X60355685Y-109943900D01*
X60548315Y-109943900D01*
X60737243Y-109906320D01*
X60915210Y-109832604D01*
X61075375Y-109725585D01*
X61211585Y-109589375D01*
X61318604Y-109429210D01*
X61392320Y-109251243D01*
X61429900Y-109062315D01*
X61429900Y-108869685D01*
X61392320Y-108680757D01*
X61318604Y-108502790D01*
X61211585Y-108342625D01*
X61075375Y-108206415D01*
X60915210Y-108099396D01*
X60737243Y-108025680D01*
X60548315Y-107988100D01*
X60355685Y-107988100D01*
X60166757Y-108025680D01*
X59988790Y-108099396D01*
X59828625Y-108206415D01*
X59692415Y-108342625D01*
X59585396Y-108502790D01*
X59511680Y-108680757D01*
X59474100Y-108869685D01*
X57619900Y-108869685D01*
X57582320Y-108680757D01*
X57508604Y-108502790D01*
X57401585Y-108342625D01*
X57265375Y-108206415D01*
X57105210Y-108099396D01*
X56927243Y-108025680D01*
X56738315Y-107988100D01*
X56545685Y-107988100D01*
X56356757Y-108025680D01*
X56178790Y-108099396D01*
X56018625Y-108206415D01*
X55882415Y-108342625D01*
X55775396Y-108502790D01*
X55701680Y-108680757D01*
X55664100Y-108869685D01*
X54015387Y-108869685D01*
X54065075Y-108836485D01*
X54201285Y-108700275D01*
X54308304Y-108540110D01*
X54382020Y-108362143D01*
X54419600Y-108173215D01*
X54419600Y-107980585D01*
X54382020Y-107791657D01*
X54308304Y-107613690D01*
X54201285Y-107453525D01*
X54065075Y-107317315D01*
X53904910Y-107210296D01*
X53726943Y-107136580D01*
X53538015Y-107099000D01*
X53345385Y-107099000D01*
X53156457Y-107136580D01*
X52978490Y-107210296D01*
X52818325Y-107317315D01*
X52682115Y-107453525D01*
X52575096Y-107613690D01*
X52501380Y-107791657D01*
X52463800Y-107980585D01*
X50090626Y-107980585D01*
X50060985Y-107936225D01*
X49924775Y-107800015D01*
X49764610Y-107692996D01*
X49586643Y-107619280D01*
X49397715Y-107581700D01*
X49205085Y-107581700D01*
X49016157Y-107619280D01*
X48838190Y-107692996D01*
X48678025Y-107800015D01*
X48541815Y-107936225D01*
X48434796Y-108096390D01*
X48361080Y-108274357D01*
X48323500Y-108463285D01*
X48323500Y-108655915D01*
X48361080Y-108844843D01*
X48434796Y-109022810D01*
X48541815Y-109182975D01*
X48678025Y-109319185D01*
X48782980Y-109389314D01*
X48652625Y-109476415D01*
X48516415Y-109612625D01*
X48409396Y-109772790D01*
X48335680Y-109950757D01*
X48298100Y-110139685D01*
X46863000Y-110139685D01*
X46863000Y-103459485D01*
X49644300Y-103459485D01*
X49644300Y-103652115D01*
X49681880Y-103841043D01*
X49755596Y-104019010D01*
X49862615Y-104179175D01*
X49998825Y-104315385D01*
X50097474Y-104381300D01*
X49998825Y-104447215D01*
X49862615Y-104583425D01*
X49755596Y-104743590D01*
X49681880Y-104921557D01*
X49644300Y-105110485D01*
X49644300Y-105303115D01*
X49681880Y-105492043D01*
X49755596Y-105670010D01*
X49862615Y-105830175D01*
X49998825Y-105966385D01*
X50154580Y-106070458D01*
X50075025Y-106123615D01*
X49938815Y-106259825D01*
X49831796Y-106419990D01*
X49758080Y-106597957D01*
X49720500Y-106786885D01*
X49720500Y-106979515D01*
X49758080Y-107168443D01*
X49831796Y-107346410D01*
X49938815Y-107506575D01*
X50075025Y-107642785D01*
X50235190Y-107749804D01*
X50413157Y-107823520D01*
X50602085Y-107861100D01*
X50794715Y-107861100D01*
X50983643Y-107823520D01*
X51161610Y-107749804D01*
X51321775Y-107642785D01*
X51457985Y-107506575D01*
X51565004Y-107346410D01*
X51638720Y-107168443D01*
X51676300Y-106979515D01*
X51676300Y-106964685D01*
X57569100Y-106964685D01*
X57569100Y-107157315D01*
X57606680Y-107346243D01*
X57680396Y-107524210D01*
X57787415Y-107684375D01*
X57923625Y-107820585D01*
X58083790Y-107927604D01*
X58261757Y-108001320D01*
X58450685Y-108038900D01*
X58643315Y-108038900D01*
X58832243Y-108001320D01*
X59010210Y-107927604D01*
X59170375Y-107820585D01*
X59238875Y-107752085D01*
X65265300Y-107752085D01*
X65265300Y-107944715D01*
X65302880Y-108133643D01*
X65376596Y-108311610D01*
X65483615Y-108471775D01*
X65619825Y-108607985D01*
X65718474Y-108673900D01*
X65619825Y-108739815D01*
X65483615Y-108876025D01*
X65376596Y-109036190D01*
X65302880Y-109214157D01*
X65265300Y-109403085D01*
X65265300Y-109595715D01*
X65302880Y-109784643D01*
X65376596Y-109962610D01*
X65483615Y-110122775D01*
X65619825Y-110258985D01*
X65779990Y-110366004D01*
X65957957Y-110439720D01*
X66146885Y-110477300D01*
X66339515Y-110477300D01*
X66528443Y-110439720D01*
X66706410Y-110366004D01*
X66866575Y-110258985D01*
X67002785Y-110122775D01*
X67109804Y-109962610D01*
X67183520Y-109784643D01*
X67221100Y-109595715D01*
X67221100Y-109403085D01*
X67183520Y-109214157D01*
X67109804Y-109036190D01*
X67002785Y-108876025D01*
X66866575Y-108739815D01*
X66767926Y-108673900D01*
X66866575Y-108607985D01*
X67002785Y-108471775D01*
X67109804Y-108311610D01*
X67183520Y-108133643D01*
X67221100Y-107944715D01*
X67221100Y-107752085D01*
X67183520Y-107563157D01*
X67109804Y-107385190D01*
X67002785Y-107225025D01*
X66866575Y-107088815D01*
X66706410Y-106981796D01*
X66528443Y-106908080D01*
X66339515Y-106870500D01*
X66146885Y-106870500D01*
X65957957Y-106908080D01*
X65779990Y-106981796D01*
X65619825Y-107088815D01*
X65483615Y-107225025D01*
X65376596Y-107385190D01*
X65302880Y-107563157D01*
X65265300Y-107752085D01*
X59238875Y-107752085D01*
X59306585Y-107684375D01*
X59413604Y-107524210D01*
X59487320Y-107346243D01*
X59524900Y-107157315D01*
X59524900Y-106964685D01*
X59487320Y-106775757D01*
X59413604Y-106597790D01*
X59306585Y-106437625D01*
X59170375Y-106301415D01*
X59010210Y-106194396D01*
X58832243Y-106120680D01*
X58643315Y-106083100D01*
X58450685Y-106083100D01*
X58261757Y-106120680D01*
X58083790Y-106194396D01*
X57923625Y-106301415D01*
X57787415Y-106437625D01*
X57680396Y-106597790D01*
X57606680Y-106775757D01*
X57569100Y-106964685D01*
X51676300Y-106964685D01*
X51676300Y-106786885D01*
X51638720Y-106597957D01*
X51565004Y-106419990D01*
X51457985Y-106259825D01*
X51321775Y-106123615D01*
X51166020Y-106019542D01*
X51245575Y-105966385D01*
X51381785Y-105830175D01*
X51488804Y-105670010D01*
X51562520Y-105492043D01*
X51600100Y-105303115D01*
X51600100Y-105110485D01*
X51589996Y-105059685D01*
X55664100Y-105059685D01*
X55664100Y-105252315D01*
X55701680Y-105441243D01*
X55775396Y-105619210D01*
X55882415Y-105779375D01*
X56018625Y-105915585D01*
X56178790Y-106022604D01*
X56356757Y-106096320D01*
X56545685Y-106133900D01*
X56738315Y-106133900D01*
X56927243Y-106096320D01*
X57105210Y-106022604D01*
X57265375Y-105915585D01*
X57401585Y-105779375D01*
X57508604Y-105619210D01*
X57582320Y-105441243D01*
X57619900Y-105252315D01*
X57619900Y-105059685D01*
X59474100Y-105059685D01*
X59474100Y-105252315D01*
X59511680Y-105441243D01*
X59585396Y-105619210D01*
X59692415Y-105779375D01*
X59828625Y-105915585D01*
X59988790Y-106022604D01*
X60166757Y-106096320D01*
X60355685Y-106133900D01*
X60548315Y-106133900D01*
X60737243Y-106096320D01*
X60915210Y-106022604D01*
X61075375Y-105915585D01*
X61211585Y-105779375D01*
X61318604Y-105619210D01*
X61392320Y-105441243D01*
X61429900Y-105252315D01*
X61429900Y-105059685D01*
X61392320Y-104870757D01*
X61318604Y-104692790D01*
X61211585Y-104532625D01*
X61075375Y-104396415D01*
X60915210Y-104289396D01*
X60737243Y-104215680D01*
X60548315Y-104178100D01*
X60355685Y-104178100D01*
X60166757Y-104215680D01*
X59988790Y-104289396D01*
X59828625Y-104396415D01*
X59692415Y-104532625D01*
X59585396Y-104692790D01*
X59511680Y-104870757D01*
X59474100Y-105059685D01*
X57619900Y-105059685D01*
X57582320Y-104870757D01*
X57508604Y-104692790D01*
X57401585Y-104532625D01*
X57265375Y-104396415D01*
X57105210Y-104289396D01*
X56927243Y-104215680D01*
X56738315Y-104178100D01*
X56545685Y-104178100D01*
X56356757Y-104215680D01*
X56178790Y-104289396D01*
X56018625Y-104396415D01*
X55882415Y-104532625D01*
X55775396Y-104692790D01*
X55701680Y-104870757D01*
X55664100Y-105059685D01*
X51589996Y-105059685D01*
X51562520Y-104921557D01*
X51488804Y-104743590D01*
X51381785Y-104583425D01*
X51245575Y-104447215D01*
X51146926Y-104381300D01*
X51245575Y-104315385D01*
X51381785Y-104179175D01*
X51488804Y-104019010D01*
X51562520Y-103841043D01*
X51600100Y-103652115D01*
X51600100Y-103459485D01*
X51562520Y-103270557D01*
X51488804Y-103092590D01*
X51381785Y-102932425D01*
X51245575Y-102796215D01*
X51085410Y-102689196D01*
X50907443Y-102615480D01*
X50718515Y-102577900D01*
X50525885Y-102577900D01*
X50336957Y-102615480D01*
X50158990Y-102689196D01*
X49998825Y-102796215D01*
X49862615Y-102932425D01*
X49755596Y-103092590D01*
X49681880Y-103270557D01*
X49644300Y-103459485D01*
X46863000Y-103459485D01*
X46863000Y-101808485D01*
X48577500Y-101808485D01*
X48577500Y-102001115D01*
X48615080Y-102190043D01*
X48688796Y-102368010D01*
X48795815Y-102528175D01*
X48932025Y-102664385D01*
X49092190Y-102771404D01*
X49270157Y-102845120D01*
X49459085Y-102882700D01*
X49651715Y-102882700D01*
X49840643Y-102845120D01*
X50018610Y-102771404D01*
X50178775Y-102664385D01*
X50314985Y-102528175D01*
X50422004Y-102368010D01*
X50495720Y-102190043D01*
X50533300Y-102001115D01*
X50533300Y-101808485D01*
X50528248Y-101783085D01*
X57772300Y-101783085D01*
X57772300Y-101975715D01*
X57809880Y-102164643D01*
X57883596Y-102342610D01*
X57990615Y-102502775D01*
X58126825Y-102638985D01*
X58286990Y-102746004D01*
X58464957Y-102819720D01*
X58653885Y-102857300D01*
X58846515Y-102857300D01*
X59035443Y-102819720D01*
X59213410Y-102746004D01*
X59373575Y-102638985D01*
X59509785Y-102502775D01*
X59616804Y-102342610D01*
X59690520Y-102164643D01*
X59728100Y-101975715D01*
X59728100Y-101783085D01*
X59690520Y-101594157D01*
X59616804Y-101416190D01*
X59509785Y-101256025D01*
X59373575Y-101119815D01*
X59213410Y-101012796D01*
X59035443Y-100939080D01*
X58846515Y-100901500D01*
X58653885Y-100901500D01*
X58464957Y-100939080D01*
X58286990Y-101012796D01*
X58126825Y-101119815D01*
X57990615Y-101256025D01*
X57883596Y-101416190D01*
X57809880Y-101594157D01*
X57772300Y-101783085D01*
X50528248Y-101783085D01*
X50495720Y-101619557D01*
X50422004Y-101441590D01*
X50314985Y-101281425D01*
X50178775Y-101145215D01*
X50018610Y-101038196D01*
X49840643Y-100964480D01*
X49651715Y-100926900D01*
X49459085Y-100926900D01*
X49270157Y-100964480D01*
X49092190Y-101038196D01*
X48932025Y-101145215D01*
X48795815Y-101281425D01*
X48688796Y-101441590D01*
X48615080Y-101619557D01*
X48577500Y-101808485D01*
X46863000Y-101808485D01*
X46863000Y-98925585D01*
X53009800Y-98925585D01*
X53009800Y-99118215D01*
X53047380Y-99307143D01*
X53121096Y-99485110D01*
X53228115Y-99645275D01*
X53364325Y-99781485D01*
X53524490Y-99888504D01*
X53702457Y-99962220D01*
X53891385Y-99999800D01*
X54084015Y-99999800D01*
X54272943Y-99962220D01*
X54450910Y-99888504D01*
X54559200Y-99816147D01*
X54667490Y-99888504D01*
X54845457Y-99962220D01*
X55034385Y-99999800D01*
X55227015Y-99999800D01*
X55415943Y-99962220D01*
X55593910Y-99888504D01*
X55754075Y-99781485D01*
X55890285Y-99645275D01*
X55997304Y-99485110D01*
X56071020Y-99307143D01*
X56108600Y-99118215D01*
X56108600Y-98925585D01*
X56071020Y-98736657D01*
X55997304Y-98558690D01*
X55890285Y-98398525D01*
X55754075Y-98262315D01*
X55593910Y-98155296D01*
X55415943Y-98081580D01*
X55227015Y-98044000D01*
X55034385Y-98044000D01*
X54845457Y-98081580D01*
X54667490Y-98155296D01*
X54559200Y-98227653D01*
X54450910Y-98155296D01*
X54272943Y-98081580D01*
X54084015Y-98044000D01*
X53891385Y-98044000D01*
X53702457Y-98081580D01*
X53524490Y-98155296D01*
X53364325Y-98262315D01*
X53228115Y-98398525D01*
X53121096Y-98558690D01*
X53047380Y-98736657D01*
X53009800Y-98925585D01*
X46863000Y-98925585D01*
X46863000Y-97917000D01*
X59043344Y-97917000D01*
X59003680Y-98012757D01*
G37*
X59003680Y-98012757D02*
X58966100Y-98201685D01*
X58966100Y-98394315D01*
X59003680Y-98583243D01*
X59077396Y-98761210D01*
X59184415Y-98921375D01*
X59320625Y-99057585D01*
X59480790Y-99164604D01*
X59658757Y-99238320D01*
X59847685Y-99275900D01*
X60040315Y-99275900D01*
X60229243Y-99238320D01*
X60407210Y-99164604D01*
X60567375Y-99057585D01*
X60703585Y-98921375D01*
X60810604Y-98761210D01*
X60884320Y-98583243D01*
X60921900Y-98394315D01*
X60921900Y-98201685D01*
X60884320Y-98012757D01*
X60844656Y-97917000D01*
X67945000Y-97917000D01*
X67945000Y-113241197D01*
X67742136Y-113444061D01*
X67377161Y-113990285D01*
X67125762Y-114597216D01*
X67058573Y-114935000D01*
X57135960Y-114935000D01*
X57167831Y-114903129D01*
X57274850Y-114742964D01*
X57348566Y-114564997D01*
X57386146Y-114376069D01*
X57386146Y-114183439D01*
X57348566Y-113994511D01*
X57274850Y-113816544D01*
X57167831Y-113656379D01*
X57031621Y-113520169D01*
X56871456Y-113413150D01*
X56693489Y-113339434D01*
X56504561Y-113301854D01*
X56311931Y-113301854D01*
X56123003Y-113339434D01*
X55945036Y-113413150D01*
X55784871Y-113520169D01*
X55648661Y-113656379D01*
X55541642Y-113816544D01*
X55467926Y-113994511D01*
X55430346Y-114183439D01*
X55430346Y-114376069D01*
X55467926Y-114564997D01*
X55541642Y-114742964D01*
X55648661Y-114903129D01*
X55680532Y-114935000D01*
X46863000Y-114935000D01*
X46863000Y-113810085D01*
X49009200Y-113810085D01*
X49009200Y-114002715D01*
X49046780Y-114191643D01*
X49120496Y-114369610D01*
X49227515Y-114529775D01*
X49363725Y-114665985D01*
X49523890Y-114773004D01*
X49701857Y-114846720D01*
X49890785Y-114884300D01*
X50083415Y-114884300D01*
X50272343Y-114846720D01*
X50450310Y-114773004D01*
X50610475Y-114665985D01*
X50746685Y-114529775D01*
X50853704Y-114369610D01*
X50927420Y-114191643D01*
X50965000Y-114002715D01*
X50965000Y-113810085D01*
X50927420Y-113621157D01*
X50853704Y-113443190D01*
X50746685Y-113283025D01*
X50638745Y-113175085D01*
X59334300Y-113175085D01*
X59334300Y-113367715D01*
X59371880Y-113556643D01*
X59445596Y-113734610D01*
X59552615Y-113894775D01*
X59688825Y-114030985D01*
X59848990Y-114138004D01*
X60026957Y-114211720D01*
X60215885Y-114249300D01*
X60408515Y-114249300D01*
X60597443Y-114211720D01*
X60775410Y-114138004D01*
X60935575Y-114030985D01*
X61071785Y-113894775D01*
X61178804Y-113734610D01*
X61252520Y-113556643D01*
X61290100Y-113367715D01*
X61290100Y-113175085D01*
X61252520Y-112986157D01*
X61178804Y-112808190D01*
X61071785Y-112648025D01*
X60935575Y-112511815D01*
X60775410Y-112404796D01*
X60597443Y-112331080D01*
X60408515Y-112293500D01*
X60215885Y-112293500D01*
X60026957Y-112331080D01*
X59848990Y-112404796D01*
X59688825Y-112511815D01*
X59552615Y-112648025D01*
X59445596Y-112808190D01*
X59371880Y-112986157D01*
X59334300Y-113175085D01*
X50638745Y-113175085D01*
X50610475Y-113146815D01*
X50450310Y-113039796D01*
X50272343Y-112966080D01*
X50083415Y-112928500D01*
X49890785Y-112928500D01*
X49701857Y-112966080D01*
X49523890Y-113039796D01*
X49363725Y-113146815D01*
X49227515Y-113283025D01*
X49120496Y-113443190D01*
X49046780Y-113621157D01*
X49009200Y-113810085D01*
X46863000Y-113810085D01*
X46863000Y-110139685D01*
X48298100Y-110139685D01*
X48298100Y-110332315D01*
X48335680Y-110521243D01*
X48409396Y-110699210D01*
X48516415Y-110859375D01*
X48652625Y-110995585D01*
X48812790Y-111102604D01*
X48990757Y-111176320D01*
X49179685Y-111213900D01*
X49372315Y-111213900D01*
X49409592Y-111206485D01*
X63106300Y-111206485D01*
X63106300Y-111399115D01*
X63143880Y-111588043D01*
X63217596Y-111766010D01*
X63324615Y-111926175D01*
X63460825Y-112062385D01*
X63620990Y-112169404D01*
X63798957Y-112243120D01*
X63987885Y-112280700D01*
X64180515Y-112280700D01*
X64369443Y-112243120D01*
X64516000Y-112182414D01*
X64662557Y-112243120D01*
X64851485Y-112280700D01*
X65044115Y-112280700D01*
X65233043Y-112243120D01*
X65411010Y-112169404D01*
X65571175Y-112062385D01*
X65707385Y-111926175D01*
X65814404Y-111766010D01*
X65888120Y-111588043D01*
X65925700Y-111399115D01*
X65925700Y-111206485D01*
X65888120Y-111017557D01*
X65814404Y-110839590D01*
X65707385Y-110679425D01*
X65571175Y-110543215D01*
X65411010Y-110436196D01*
X65233043Y-110362480D01*
X65044115Y-110324900D01*
X64851485Y-110324900D01*
X64662557Y-110362480D01*
X64516000Y-110423186D01*
X64369443Y-110362480D01*
X64180515Y-110324900D01*
X63987885Y-110324900D01*
X63798957Y-110362480D01*
X63620990Y-110436196D01*
X63460825Y-110543215D01*
X63324615Y-110679425D01*
X63217596Y-110839590D01*
X63143880Y-111017557D01*
X63106300Y-111206485D01*
X49409592Y-111206485D01*
X49561243Y-111176320D01*
X49739210Y-111102604D01*
X49899375Y-110995585D01*
X50035585Y-110859375D01*
X50142604Y-110699210D01*
X50216320Y-110521243D01*
X50253900Y-110332315D01*
X50253900Y-110139685D01*
X50216320Y-109950757D01*
X50142604Y-109772790D01*
X50035585Y-109612625D01*
X49899375Y-109476415D01*
X49794420Y-109406286D01*
X49924775Y-109319185D01*
X50060985Y-109182975D01*
X50168004Y-109022810D01*
X50241720Y-108844843D01*
X50279300Y-108655915D01*
X50279300Y-108463285D01*
X50241720Y-108274357D01*
X50168004Y-108096390D01*
X50090626Y-107980585D01*
X52463800Y-107980585D01*
X52463800Y-108173215D01*
X52501380Y-108362143D01*
X52575096Y-108540110D01*
X52682115Y-108700275D01*
X52818325Y-108836485D01*
X52978490Y-108943504D01*
X53156457Y-109017220D01*
X53345385Y-109054800D01*
X53538015Y-109054800D01*
X53726943Y-109017220D01*
X53904910Y-108943504D01*
X54015387Y-108869685D01*
X55664100Y-108869685D01*
X55664100Y-109062315D01*
X55701680Y-109251243D01*
X55775396Y-109429210D01*
X55882415Y-109589375D01*
X56018625Y-109725585D01*
X56178790Y-109832604D01*
X56356757Y-109906320D01*
X56545685Y-109943900D01*
X56738315Y-109943900D01*
X56927243Y-109906320D01*
X57105210Y-109832604D01*
X57265375Y-109725585D01*
X57401585Y-109589375D01*
X57508604Y-109429210D01*
X57582320Y-109251243D01*
X57619900Y-109062315D01*
X57619900Y-108869685D01*
X59474100Y-108869685D01*
X59474100Y-109062315D01*
X59511680Y-109251243D01*
X59585396Y-109429210D01*
X59692415Y-109589375D01*
X59828625Y-109725585D01*
X59988790Y-109832604D01*
X60166757Y-109906320D01*
X60355685Y-109943900D01*
X60548315Y-109943900D01*
X60737243Y-109906320D01*
X60915210Y-109832604D01*
X61075375Y-109725585D01*
X61211585Y-109589375D01*
X61318604Y-109429210D01*
X61392320Y-109251243D01*
X61429900Y-109062315D01*
X61429900Y-108869685D01*
X61392320Y-108680757D01*
X61318604Y-108502790D01*
X61211585Y-108342625D01*
X61075375Y-108206415D01*
X60915210Y-108099396D01*
X60737243Y-108025680D01*
X60548315Y-107988100D01*
X60355685Y-107988100D01*
X60166757Y-108025680D01*
X59988790Y-108099396D01*
X59828625Y-108206415D01*
X59692415Y-108342625D01*
X59585396Y-108502790D01*
X59511680Y-108680757D01*
X59474100Y-108869685D01*
X57619900Y-108869685D01*
X57582320Y-108680757D01*
X57508604Y-108502790D01*
X57401585Y-108342625D01*
X57265375Y-108206415D01*
X57105210Y-108099396D01*
X56927243Y-108025680D01*
X56738315Y-107988100D01*
X56545685Y-107988100D01*
X56356757Y-108025680D01*
X56178790Y-108099396D01*
X56018625Y-108206415D01*
X55882415Y-108342625D01*
X55775396Y-108502790D01*
X55701680Y-108680757D01*
X55664100Y-108869685D01*
X54015387Y-108869685D01*
X54065075Y-108836485D01*
X54201285Y-108700275D01*
X54308304Y-108540110D01*
X54382020Y-108362143D01*
X54419600Y-108173215D01*
X54419600Y-107980585D01*
X54382020Y-107791657D01*
X54308304Y-107613690D01*
X54201285Y-107453525D01*
X54065075Y-107317315D01*
X53904910Y-107210296D01*
X53726943Y-107136580D01*
X53538015Y-107099000D01*
X53345385Y-107099000D01*
X53156457Y-107136580D01*
X52978490Y-107210296D01*
X52818325Y-107317315D01*
X52682115Y-107453525D01*
X52575096Y-107613690D01*
X52501380Y-107791657D01*
X52463800Y-107980585D01*
X50090626Y-107980585D01*
X50060985Y-107936225D01*
X49924775Y-107800015D01*
X49764610Y-107692996D01*
X49586643Y-107619280D01*
X49397715Y-107581700D01*
X49205085Y-107581700D01*
X49016157Y-107619280D01*
X48838190Y-107692996D01*
X48678025Y-107800015D01*
X48541815Y-107936225D01*
X48434796Y-108096390D01*
X48361080Y-108274357D01*
X48323500Y-108463285D01*
X48323500Y-108655915D01*
X48361080Y-108844843D01*
X48434796Y-109022810D01*
X48541815Y-109182975D01*
X48678025Y-109319185D01*
X48782980Y-109389314D01*
X48652625Y-109476415D01*
X48516415Y-109612625D01*
X48409396Y-109772790D01*
X48335680Y-109950757D01*
X48298100Y-110139685D01*
X46863000Y-110139685D01*
X46863000Y-103459485D01*
X49644300Y-103459485D01*
X49644300Y-103652115D01*
X49681880Y-103841043D01*
X49755596Y-104019010D01*
X49862615Y-104179175D01*
X49998825Y-104315385D01*
X50097474Y-104381300D01*
X49998825Y-104447215D01*
X49862615Y-104583425D01*
X49755596Y-104743590D01*
X49681880Y-104921557D01*
X49644300Y-105110485D01*
X49644300Y-105303115D01*
X49681880Y-105492043D01*
X49755596Y-105670010D01*
X49862615Y-105830175D01*
X49998825Y-105966385D01*
X50154580Y-106070458D01*
X50075025Y-106123615D01*
X49938815Y-106259825D01*
X49831796Y-106419990D01*
X49758080Y-106597957D01*
X49720500Y-106786885D01*
X49720500Y-106979515D01*
X49758080Y-107168443D01*
X49831796Y-107346410D01*
X49938815Y-107506575D01*
X50075025Y-107642785D01*
X50235190Y-107749804D01*
X50413157Y-107823520D01*
X50602085Y-107861100D01*
X50794715Y-107861100D01*
X50983643Y-107823520D01*
X51161610Y-107749804D01*
X51321775Y-107642785D01*
X51457985Y-107506575D01*
X51565004Y-107346410D01*
X51638720Y-107168443D01*
X51676300Y-106979515D01*
X51676300Y-106964685D01*
X57569100Y-106964685D01*
X57569100Y-107157315D01*
X57606680Y-107346243D01*
X57680396Y-107524210D01*
X57787415Y-107684375D01*
X57923625Y-107820585D01*
X58083790Y-107927604D01*
X58261757Y-108001320D01*
X58450685Y-108038900D01*
X58643315Y-108038900D01*
X58832243Y-108001320D01*
X59010210Y-107927604D01*
X59170375Y-107820585D01*
X59238875Y-107752085D01*
X65265300Y-107752085D01*
X65265300Y-107944715D01*
X65302880Y-108133643D01*
X65376596Y-108311610D01*
X65483615Y-108471775D01*
X65619825Y-108607985D01*
X65718474Y-108673900D01*
X65619825Y-108739815D01*
X65483615Y-108876025D01*
X65376596Y-109036190D01*
X65302880Y-109214157D01*
X65265300Y-109403085D01*
X65265300Y-109595715D01*
X65302880Y-109784643D01*
X65376596Y-109962610D01*
X65483615Y-110122775D01*
X65619825Y-110258985D01*
X65779990Y-110366004D01*
X65957957Y-110439720D01*
X66146885Y-110477300D01*
X66339515Y-110477300D01*
X66528443Y-110439720D01*
X66706410Y-110366004D01*
X66866575Y-110258985D01*
X67002785Y-110122775D01*
X67109804Y-109962610D01*
X67183520Y-109784643D01*
X67221100Y-109595715D01*
X67221100Y-109403085D01*
X67183520Y-109214157D01*
X67109804Y-109036190D01*
X67002785Y-108876025D01*
X66866575Y-108739815D01*
X66767926Y-108673900D01*
X66866575Y-108607985D01*
X67002785Y-108471775D01*
X67109804Y-108311610D01*
X67183520Y-108133643D01*
X67221100Y-107944715D01*
X67221100Y-107752085D01*
X67183520Y-107563157D01*
X67109804Y-107385190D01*
X67002785Y-107225025D01*
X66866575Y-107088815D01*
X66706410Y-106981796D01*
X66528443Y-106908080D01*
X66339515Y-106870500D01*
X66146885Y-106870500D01*
X65957957Y-106908080D01*
X65779990Y-106981796D01*
X65619825Y-107088815D01*
X65483615Y-107225025D01*
X65376596Y-107385190D01*
X65302880Y-107563157D01*
X65265300Y-107752085D01*
X59238875Y-107752085D01*
X59306585Y-107684375D01*
X59413604Y-107524210D01*
X59487320Y-107346243D01*
X59524900Y-107157315D01*
X59524900Y-106964685D01*
X59487320Y-106775757D01*
X59413604Y-106597790D01*
X59306585Y-106437625D01*
X59170375Y-106301415D01*
X59010210Y-106194396D01*
X58832243Y-106120680D01*
X58643315Y-106083100D01*
X58450685Y-106083100D01*
X58261757Y-106120680D01*
X58083790Y-106194396D01*
X57923625Y-106301415D01*
X57787415Y-106437625D01*
X57680396Y-106597790D01*
X57606680Y-106775757D01*
X57569100Y-106964685D01*
X51676300Y-106964685D01*
X51676300Y-106786885D01*
X51638720Y-106597957D01*
X51565004Y-106419990D01*
X51457985Y-106259825D01*
X51321775Y-106123615D01*
X51166020Y-106019542D01*
X51245575Y-105966385D01*
X51381785Y-105830175D01*
X51488804Y-105670010D01*
X51562520Y-105492043D01*
X51600100Y-105303115D01*
X51600100Y-105110485D01*
X51589996Y-105059685D01*
X55664100Y-105059685D01*
X55664100Y-105252315D01*
X55701680Y-105441243D01*
X55775396Y-105619210D01*
X55882415Y-105779375D01*
X56018625Y-105915585D01*
X56178790Y-106022604D01*
X56356757Y-106096320D01*
X56545685Y-106133900D01*
X56738315Y-106133900D01*
X56927243Y-106096320D01*
X57105210Y-106022604D01*
X57265375Y-105915585D01*
X57401585Y-105779375D01*
X57508604Y-105619210D01*
X57582320Y-105441243D01*
X57619900Y-105252315D01*
X57619900Y-105059685D01*
X59474100Y-105059685D01*
X59474100Y-105252315D01*
X59511680Y-105441243D01*
X59585396Y-105619210D01*
X59692415Y-105779375D01*
X59828625Y-105915585D01*
X59988790Y-106022604D01*
X60166757Y-106096320D01*
X60355685Y-106133900D01*
X60548315Y-106133900D01*
X60737243Y-106096320D01*
X60915210Y-106022604D01*
X61075375Y-105915585D01*
X61211585Y-105779375D01*
X61318604Y-105619210D01*
X61392320Y-105441243D01*
X61429900Y-105252315D01*
X61429900Y-105059685D01*
X61392320Y-104870757D01*
X61318604Y-104692790D01*
X61211585Y-104532625D01*
X61075375Y-104396415D01*
X60915210Y-104289396D01*
X60737243Y-104215680D01*
X60548315Y-104178100D01*
X60355685Y-104178100D01*
X60166757Y-104215680D01*
X59988790Y-104289396D01*
X59828625Y-104396415D01*
X59692415Y-104532625D01*
X59585396Y-104692790D01*
X59511680Y-104870757D01*
X59474100Y-105059685D01*
X57619900Y-105059685D01*
X57582320Y-104870757D01*
X57508604Y-104692790D01*
X57401585Y-104532625D01*
X57265375Y-104396415D01*
X57105210Y-104289396D01*
X56927243Y-104215680D01*
X56738315Y-104178100D01*
X56545685Y-104178100D01*
X56356757Y-104215680D01*
X56178790Y-104289396D01*
X56018625Y-104396415D01*
X55882415Y-104532625D01*
X55775396Y-104692790D01*
X55701680Y-104870757D01*
X55664100Y-105059685D01*
X51589996Y-105059685D01*
X51562520Y-104921557D01*
X51488804Y-104743590D01*
X51381785Y-104583425D01*
X51245575Y-104447215D01*
X51146926Y-104381300D01*
X51245575Y-104315385D01*
X51381785Y-104179175D01*
X51488804Y-104019010D01*
X51562520Y-103841043D01*
X51600100Y-103652115D01*
X51600100Y-103459485D01*
X51562520Y-103270557D01*
X51488804Y-103092590D01*
X51381785Y-102932425D01*
X51245575Y-102796215D01*
X51085410Y-102689196D01*
X50907443Y-102615480D01*
X50718515Y-102577900D01*
X50525885Y-102577900D01*
X50336957Y-102615480D01*
X50158990Y-102689196D01*
X49998825Y-102796215D01*
X49862615Y-102932425D01*
X49755596Y-103092590D01*
X49681880Y-103270557D01*
X49644300Y-103459485D01*
X46863000Y-103459485D01*
X46863000Y-101808485D01*
X48577500Y-101808485D01*
X48577500Y-102001115D01*
X48615080Y-102190043D01*
X48688796Y-102368010D01*
X48795815Y-102528175D01*
X48932025Y-102664385D01*
X49092190Y-102771404D01*
X49270157Y-102845120D01*
X49459085Y-102882700D01*
X49651715Y-102882700D01*
X49840643Y-102845120D01*
X50018610Y-102771404D01*
X50178775Y-102664385D01*
X50314985Y-102528175D01*
X50422004Y-102368010D01*
X50495720Y-102190043D01*
X50533300Y-102001115D01*
X50533300Y-101808485D01*
X50528248Y-101783085D01*
X57772300Y-101783085D01*
X57772300Y-101975715D01*
X57809880Y-102164643D01*
X57883596Y-102342610D01*
X57990615Y-102502775D01*
X58126825Y-102638985D01*
X58286990Y-102746004D01*
X58464957Y-102819720D01*
X58653885Y-102857300D01*
X58846515Y-102857300D01*
X59035443Y-102819720D01*
X59213410Y-102746004D01*
X59373575Y-102638985D01*
X59509785Y-102502775D01*
X59616804Y-102342610D01*
X59690520Y-102164643D01*
X59728100Y-101975715D01*
X59728100Y-101783085D01*
X59690520Y-101594157D01*
X59616804Y-101416190D01*
X59509785Y-101256025D01*
X59373575Y-101119815D01*
X59213410Y-101012796D01*
X59035443Y-100939080D01*
X58846515Y-100901500D01*
X58653885Y-100901500D01*
X58464957Y-100939080D01*
X58286990Y-101012796D01*
X58126825Y-101119815D01*
X57990615Y-101256025D01*
X57883596Y-101416190D01*
X57809880Y-101594157D01*
X57772300Y-101783085D01*
X50528248Y-101783085D01*
X50495720Y-101619557D01*
X50422004Y-101441590D01*
X50314985Y-101281425D01*
X50178775Y-101145215D01*
X50018610Y-101038196D01*
X49840643Y-100964480D01*
X49651715Y-100926900D01*
X49459085Y-100926900D01*
X49270157Y-100964480D01*
X49092190Y-101038196D01*
X48932025Y-101145215D01*
X48795815Y-101281425D01*
X48688796Y-101441590D01*
X48615080Y-101619557D01*
X48577500Y-101808485D01*
X46863000Y-101808485D01*
X46863000Y-98925585D01*
X53009800Y-98925585D01*
X53009800Y-99118215D01*
X53047380Y-99307143D01*
X53121096Y-99485110D01*
X53228115Y-99645275D01*
X53364325Y-99781485D01*
X53524490Y-99888504D01*
X53702457Y-99962220D01*
X53891385Y-99999800D01*
X54084015Y-99999800D01*
X54272943Y-99962220D01*
X54450910Y-99888504D01*
X54559200Y-99816147D01*
X54667490Y-99888504D01*
X54845457Y-99962220D01*
X55034385Y-99999800D01*
X55227015Y-99999800D01*
X55415943Y-99962220D01*
X55593910Y-99888504D01*
X55754075Y-99781485D01*
X55890285Y-99645275D01*
X55997304Y-99485110D01*
X56071020Y-99307143D01*
X56108600Y-99118215D01*
X56108600Y-98925585D01*
X56071020Y-98736657D01*
X55997304Y-98558690D01*
X55890285Y-98398525D01*
X55754075Y-98262315D01*
X55593910Y-98155296D01*
X55415943Y-98081580D01*
X55227015Y-98044000D01*
X55034385Y-98044000D01*
X54845457Y-98081580D01*
X54667490Y-98155296D01*
X54559200Y-98227653D01*
X54450910Y-98155296D01*
X54272943Y-98081580D01*
X54084015Y-98044000D01*
X53891385Y-98044000D01*
X53702457Y-98081580D01*
X53524490Y-98155296D01*
X53364325Y-98262315D01*
X53228115Y-98398525D01*
X53121096Y-98558690D01*
X53047380Y-98736657D01*
X53009800Y-98925585D01*
X46863000Y-98925585D01*
X46863000Y-97917000D01*
X59043344Y-97917000D01*
X59003680Y-98012757D01*
M02*
