G04 #@! TF.GenerationSoftware,KiCad,Pcbnew,5.1.7*
G04 #@! TF.CreationDate,2020-11-02T19:08:24-06:00*
G04 #@! TF.ProjectId,pcb,7063622e-6b69-4636-9164-5f7063625858,rev?*
G04 #@! TF.SameCoordinates,Original*
G04 #@! TF.FileFunction,Legend,Top*
G04 #@! TF.FilePolarity,Positive*
%FSLAX46Y46*%
G04 Gerber Fmt 4.6, Leading zero omitted, Abs format (unit mm)*
G04 Created by KiCad (PCBNEW 5.1.7) date 2020-11-02 19:08:24*
%MOMM*%
%LPD*%
G01*
G04 APERTURE LIST*
%ADD10C,0.500000*%
%ADD11C,0.100000*%
%ADD12C,0.120000*%
G04 APERTURE END LIST*
D10*
X69142857Y-82547619D02*
X69261904Y-82666666D01*
X69380952Y-83023809D01*
X69380952Y-83261904D01*
X69261904Y-83619047D01*
X69023809Y-83857142D01*
X68785714Y-83976190D01*
X68309523Y-84095238D01*
X67952380Y-84095238D01*
X67476190Y-83976190D01*
X67238095Y-83857142D01*
X67000000Y-83619047D01*
X66880952Y-83261904D01*
X66880952Y-83023809D01*
X67000000Y-82666666D01*
X67119047Y-82547619D01*
X66880952Y-81000000D02*
X66880952Y-80523809D01*
X67000000Y-80285714D01*
X67238095Y-80047619D01*
X67714285Y-79928571D01*
X68547619Y-79928571D01*
X69023809Y-80047619D01*
X69261904Y-80285714D01*
X69380952Y-80523809D01*
X69380952Y-81000000D01*
X69261904Y-81238095D01*
X69023809Y-81476190D01*
X68547619Y-81595238D01*
X67714285Y-81595238D01*
X67238095Y-81476190D01*
X67000000Y-81238095D01*
X66880952Y-81000000D01*
X68666666Y-78976190D02*
X68666666Y-77785714D01*
X69380952Y-79214285D02*
X66880952Y-78380952D01*
X69380952Y-77547619D01*
X66880952Y-76952380D02*
X69380952Y-75285714D01*
X66880952Y-75285714D02*
X69380952Y-76952380D01*
D11*
X28554761Y-105061904D02*
X28554761Y-105633333D01*
X28516666Y-105747619D01*
X28440476Y-105823809D01*
X28326190Y-105861904D01*
X28250000Y-105861904D01*
X29316666Y-105861904D02*
X28935714Y-105861904D01*
X28935714Y-105061904D01*
X30040476Y-105785714D02*
X30002380Y-105823809D01*
X29888095Y-105861904D01*
X29811904Y-105861904D01*
X29697619Y-105823809D01*
X29621428Y-105747619D01*
X29583333Y-105671428D01*
X29545238Y-105519047D01*
X29545238Y-105404761D01*
X29583333Y-105252380D01*
X29621428Y-105176190D01*
X29697619Y-105100000D01*
X29811904Y-105061904D01*
X29888095Y-105061904D01*
X30002380Y-105100000D01*
X30040476Y-105138095D01*
X30611904Y-105061904D02*
X30611904Y-105633333D01*
X30573809Y-105747619D01*
X30497619Y-105823809D01*
X30383333Y-105861904D01*
X30307142Y-105861904D01*
X31373809Y-105861904D02*
X30992857Y-105861904D01*
X30992857Y-105061904D01*
X32097619Y-105785714D02*
X32059523Y-105823809D01*
X31945238Y-105861904D01*
X31869047Y-105861904D01*
X31754761Y-105823809D01*
X31678571Y-105747619D01*
X31640476Y-105671428D01*
X31602380Y-105519047D01*
X31602380Y-105404761D01*
X31640476Y-105252380D01*
X31678571Y-105176190D01*
X31754761Y-105100000D01*
X31869047Y-105061904D01*
X31945238Y-105061904D01*
X32059523Y-105100000D01*
X32097619Y-105138095D01*
X32669047Y-105061904D02*
X32669047Y-105633333D01*
X32630952Y-105747619D01*
X32554761Y-105823809D01*
X32440476Y-105861904D01*
X32364285Y-105861904D01*
X33430952Y-105861904D02*
X33050000Y-105861904D01*
X33050000Y-105061904D01*
X34154761Y-105785714D02*
X34116666Y-105823809D01*
X34002380Y-105861904D01*
X33926190Y-105861904D01*
X33811904Y-105823809D01*
X33735714Y-105747619D01*
X33697619Y-105671428D01*
X33659523Y-105519047D01*
X33659523Y-105404761D01*
X33697619Y-105252380D01*
X33735714Y-105176190D01*
X33811904Y-105100000D01*
X33926190Y-105061904D01*
X34002380Y-105061904D01*
X34116666Y-105100000D01*
X34154761Y-105138095D01*
X34726190Y-105061904D02*
X34726190Y-105633333D01*
X34688095Y-105747619D01*
X34611904Y-105823809D01*
X34497619Y-105861904D01*
X34421428Y-105861904D01*
X35488095Y-105861904D02*
X35107142Y-105861904D01*
X35107142Y-105061904D01*
X36211904Y-105785714D02*
X36173809Y-105823809D01*
X36059523Y-105861904D01*
X35983333Y-105861904D01*
X35869047Y-105823809D01*
X35792857Y-105747619D01*
X35754761Y-105671428D01*
X35716666Y-105519047D01*
X35716666Y-105404761D01*
X35754761Y-105252380D01*
X35792857Y-105176190D01*
X35869047Y-105100000D01*
X35983333Y-105061904D01*
X36059523Y-105061904D01*
X36173809Y-105100000D01*
X36211904Y-105138095D01*
D12*
X62010000Y-70650000D02*
X62010000Y-68850000D01*
X58790000Y-68850000D02*
X58790000Y-71300000D01*
X56210500Y-105405000D02*
X56210500Y-104198500D01*
X55004000Y-105405000D02*
X56210500Y-105405000D01*
X52565000Y-101110000D02*
X52090000Y-101110000D01*
X52090000Y-101110000D02*
X52090000Y-100635000D01*
X58835000Y-93890000D02*
X59310000Y-93890000D01*
X59310000Y-93890000D02*
X59310000Y-94365000D01*
X52565000Y-93890000D02*
X52090000Y-93890000D01*
X52090000Y-93890000D02*
X52090000Y-94365000D01*
X58835000Y-101110000D02*
X59310000Y-101110000D01*
X54977500Y-73487258D02*
X54977500Y-73012742D01*
X56022500Y-73487258D02*
X56022500Y-73012742D01*
X41600000Y-106250000D02*
X41600000Y-107300000D01*
X41600000Y-107300000D02*
X42600000Y-107300000D01*
X42600000Y-107300000D02*
X42600000Y-108600000D01*
X42600000Y-108600000D02*
X23400000Y-108600000D01*
X23400000Y-108600000D02*
X23400000Y-107300000D01*
X23400000Y-107300000D02*
X24400000Y-107300000D01*
X24400000Y-107300000D02*
X24400000Y-106250000D01*
X26100000Y-103000000D02*
X26900000Y-103000000D01*
X26900000Y-103000000D02*
X26900000Y-101000000D01*
X39100000Y-103000000D02*
X39900000Y-103000000D01*
X68950000Y-68000000D02*
G75*
G03*
X68950000Y-68000000I-700000J0D01*
G01*
X46200000Y-71250000D02*
G75*
G03*
X46200000Y-71250000I-700000J0D01*
G01*
X47260000Y-88912779D02*
X47260000Y-88587221D01*
X46240000Y-88912779D02*
X46240000Y-88587221D01*
X49010000Y-88912779D02*
X49010000Y-88587221D01*
X47990000Y-88912779D02*
X47990000Y-88587221D01*
X48762742Y-85522500D02*
X49237258Y-85522500D01*
X48762742Y-84477500D02*
X49237258Y-84477500D01*
X52260000Y-104162779D02*
X52260000Y-103837221D01*
X51240000Y-104162779D02*
X51240000Y-103837221D01*
X61325000Y-66111000D02*
X61725000Y-66561000D01*
X61725000Y-66561000D02*
X60925000Y-66561000D01*
X60925000Y-66561000D02*
X61325000Y-66111000D01*
X56175000Y-60511000D02*
X56175000Y-63311000D01*
X56175000Y-63311000D02*
X55875000Y-63311000D01*
X55875000Y-63311000D02*
X55875000Y-64861000D01*
X63875000Y-60511000D02*
X63875000Y-63311000D01*
X64175000Y-63311000D02*
X63875000Y-63311000D01*
X64175000Y-63311000D02*
X64175000Y-64861000D01*
X47412779Y-102010000D02*
X47087221Y-102010000D01*
X47412779Y-100990000D02*
X47087221Y-100990000D01*
X49662779Y-96740000D02*
X49337221Y-96740000D01*
X49662779Y-97760000D02*
X49337221Y-97760000D01*
X49337221Y-96010000D02*
X49662779Y-96010000D01*
X49337221Y-94990000D02*
X49662779Y-94990000D01*
X63240000Y-94587221D02*
X63240000Y-94912779D01*
X64260000Y-94587221D02*
X64260000Y-94912779D01*
X51740000Y-86087221D02*
X51740000Y-86412779D01*
X52760000Y-86087221D02*
X52760000Y-86412779D01*
X60240000Y-94587221D02*
X60240000Y-94912779D01*
X61260000Y-94587221D02*
X61260000Y-94912779D01*
X30337221Y-78760000D02*
X30662779Y-78760000D01*
X30337221Y-77740000D02*
X30662779Y-77740000D01*
X30662779Y-89740000D02*
X30337221Y-89740000D01*
X30662779Y-90760000D02*
X30337221Y-90760000D01*
X34537221Y-97110000D02*
X34862779Y-97110000D01*
X34537221Y-96090000D02*
X34862779Y-96090000D01*
X34537221Y-95110000D02*
X34862779Y-95110000D01*
X34537221Y-94090000D02*
X34862779Y-94090000D01*
X34862779Y-90090000D02*
X34537221Y-90090000D01*
X34862779Y-91110000D02*
X34537221Y-91110000D01*
X34537221Y-93110000D02*
X34862779Y-93110000D01*
X34537221Y-92090000D02*
X34862779Y-92090000D01*
X53760000Y-91662779D02*
X53760000Y-91337221D01*
X52740000Y-91662779D02*
X52740000Y-91337221D01*
X48162779Y-99240000D02*
X47837221Y-99240000D01*
X48162779Y-100260000D02*
X47837221Y-100260000D01*
X52010000Y-91662779D02*
X52010000Y-91337221D01*
X50990000Y-91662779D02*
X50990000Y-91337221D01*
X61337221Y-103010000D02*
X61662779Y-103010000D01*
X61337221Y-101990000D02*
X61662779Y-101990000D01*
X61587221Y-99510000D02*
X61912779Y-99510000D01*
X61587221Y-98490000D02*
X61912779Y-98490000D01*
X62587221Y-101260000D02*
X62912779Y-101260000D01*
X62587221Y-100240000D02*
X62912779Y-100240000D01*
X49912779Y-78240000D02*
X49587221Y-78240000D01*
X49912779Y-79260000D02*
X49587221Y-79260000D01*
X48412779Y-91490000D02*
X48087221Y-91490000D01*
X48412779Y-92510000D02*
X48087221Y-92510000D01*
X48412779Y-93240000D02*
X48087221Y-93240000D01*
X48412779Y-94260000D02*
X48087221Y-94260000D01*
X52162779Y-73490000D02*
X51837221Y-73490000D01*
X52162779Y-74510000D02*
X51837221Y-74510000D01*
X61510000Y-74912779D02*
X61510000Y-74587221D01*
X60490000Y-74912779D02*
X60490000Y-74587221D01*
X60337221Y-85010000D02*
X60662779Y-85010000D01*
X60337221Y-83990000D02*
X60662779Y-83990000D01*
X49990000Y-81837221D02*
X49990000Y-82162779D01*
X51010000Y-81837221D02*
X51010000Y-82162779D01*
X52162779Y-71740000D02*
X51837221Y-71740000D01*
X52162779Y-72760000D02*
X51837221Y-72760000D01*
X43133621Y-69644800D02*
X43459179Y-69644800D01*
X43133621Y-68624800D02*
X43459179Y-68624800D01*
X43459179Y-63240000D02*
X43133621Y-63240000D01*
X43459179Y-64260000D02*
X43133621Y-64260000D01*
X48337221Y-70010000D02*
X48662779Y-70010000D01*
X48337221Y-68990000D02*
X48662779Y-68990000D01*
X48662779Y-62913800D02*
X48337221Y-62913800D01*
X48662779Y-63933800D02*
X48337221Y-63933800D01*
X49010000Y-75662779D02*
X49010000Y-75337221D01*
X47990000Y-75662779D02*
X47990000Y-75337221D01*
X47260000Y-75662779D02*
X47260000Y-75337221D01*
X46240000Y-75662779D02*
X46240000Y-75337221D01*
X52565000Y-75590000D02*
X52090000Y-75590000D01*
X59310000Y-82810000D02*
X59310000Y-82335000D01*
X58835000Y-82810000D02*
X59310000Y-82810000D01*
X52090000Y-82810000D02*
X52090000Y-82335000D01*
X52565000Y-82810000D02*
X52090000Y-82810000D01*
X59310000Y-75590000D02*
X59310000Y-76065000D01*
X58835000Y-75590000D02*
X59310000Y-75590000D01*
X42476400Y-67602400D02*
X44376400Y-67602400D01*
X43876400Y-65282400D02*
X42476400Y-65282400D01*
X48980000Y-64851900D02*
X47180000Y-64851900D01*
X47180000Y-68071900D02*
X49630000Y-68071900D01*
X53410000Y-64397936D02*
X53410000Y-65602064D01*
X51590000Y-64397936D02*
X51590000Y-65602064D01*
X54647936Y-68840000D02*
X55852064Y-68840000D01*
X54647936Y-70660000D02*
X55852064Y-70660000D01*
X42000000Y-89190000D02*
X38550000Y-89190000D01*
X42000000Y-89190000D02*
X43950000Y-89190000D01*
X42000000Y-99310000D02*
X40050000Y-99310000D01*
X42000000Y-99310000D02*
X43950000Y-99310000D01*
X42000000Y-75940000D02*
X38550000Y-75940000D01*
X42000000Y-75940000D02*
X43950000Y-75940000D01*
X42000000Y-86060000D02*
X40050000Y-86060000D01*
X42000000Y-86060000D02*
X43950000Y-86060000D01*
X31750000Y-60500000D02*
X32750000Y-61500000D01*
X31750000Y-60500000D02*
X30750000Y-61500000D01*
X24250000Y-75300000D02*
X24250000Y-60300000D01*
X39250000Y-75300000D02*
X24250000Y-75300000D01*
X39250000Y-60300000D02*
X39250000Y-75300000D01*
X24250000Y-60300000D02*
X39250000Y-60300000D01*
X33810000Y-87915000D02*
X33810000Y-80585000D01*
X27190000Y-80585000D02*
X33810000Y-80585000D01*
X27190000Y-87915000D02*
X33810000Y-87915000D01*
X27190000Y-80585000D02*
X27190000Y-87915000D01*
M02*
