G04 #@! TF.GenerationSoftware,KiCad,Pcbnew,5.1.6*
G04 #@! TF.CreationDate,2020-09-03T22:14:07-05:00*
G04 #@! TF.ProjectId,pcb,7063622e-6b69-4636-9164-5f7063625858,rev?*
G04 #@! TF.SameCoordinates,Original*
G04 #@! TF.FileFunction,Copper,L2,Inr*
G04 #@! TF.FilePolarity,Positive*
%FSLAX46Y46*%
G04 Gerber Fmt 4.6, Leading zero omitted, Abs format (unit mm)*
G04 Created by KiCad (PCBNEW 5.1.6) date 2020-09-03 22:14:07*
%MOMM*%
%LPD*%
G01*
G04 APERTURE LIST*
G04 #@! TA.AperFunction,ViaPad*
%ADD10O,1.350000X1.700000*%
G04 #@! TD*
G04 #@! TA.AperFunction,ViaPad*
%ADD11O,1.100000X1.500000*%
G04 #@! TD*
G04 #@! TA.AperFunction,ViaPad*
%ADD12O,1.700000X1.700000*%
G04 #@! TD*
G04 #@! TA.AperFunction,ViaPad*
%ADD13R,1.700000X1.700000*%
G04 #@! TD*
G04 #@! TA.AperFunction,ViaPad*
%ADD14O,1.000000X1.000000*%
G04 #@! TD*
G04 #@! TA.AperFunction,ViaPad*
%ADD15R,1.000000X1.000000*%
G04 #@! TD*
G04 #@! TA.AperFunction,ViaPad*
%ADD16C,5.400000*%
G04 #@! TD*
G04 #@! TA.AperFunction,ViaPad*
%ADD17O,1.600000X2.500000*%
G04 #@! TD*
G04 #@! TA.AperFunction,ViaPad*
%ADD18O,3.500000X7.000000*%
G04 #@! TD*
G04 #@! TA.AperFunction,ViaPad*
%ADD19C,0.685800*%
G04 #@! TD*
G04 #@! TA.AperFunction,Conductor*
%ADD20C,0.254000*%
G04 #@! TD*
G04 APERTURE END LIST*
D10*
X57239000Y-62131000D03*
X62699000Y-62131000D03*
D11*
X57549000Y-65131000D03*
X62389000Y-65131000D03*
D12*
X70332600Y-110617000D03*
X70332600Y-108077000D03*
X70332600Y-105537000D03*
D13*
X70332600Y-102997000D03*
D12*
X70332600Y-86868000D03*
X70332600Y-84328000D03*
X70332600Y-81788000D03*
D13*
X70332600Y-79248000D03*
D12*
X52070000Y-65786000D03*
D13*
X52070000Y-63246000D03*
D12*
X43815000Y-110617000D03*
X41275000Y-110617000D03*
X43815000Y-108077000D03*
X41275000Y-108077000D03*
X43815000Y-105537000D03*
X41275000Y-105537000D03*
X43815000Y-102997000D03*
D13*
X41275000Y-102997000D03*
D12*
X66173200Y-92837000D03*
X66173200Y-95377000D03*
X63633200Y-92837000D03*
X63633200Y-95377000D03*
X61093200Y-92837000D03*
X61093200Y-95377000D03*
X58553200Y-92837000D03*
X58553200Y-95377000D03*
X56013200Y-92837000D03*
X56013200Y-95377000D03*
X53473200Y-92837000D03*
X53473200Y-95377000D03*
X50933200Y-92837000D03*
D13*
X50933200Y-95377000D03*
D12*
X43815000Y-95377000D03*
X41275000Y-95377000D03*
X43815000Y-92837000D03*
D13*
X41275000Y-92837000D03*
D12*
X43815000Y-79629000D03*
D13*
X41275000Y-79629000D03*
D12*
X43815000Y-85852000D03*
D13*
X41275000Y-85852000D03*
D14*
X50114200Y-84112100D03*
X48844200Y-84112100D03*
X50114200Y-82842100D03*
X48844200Y-82842100D03*
X50114200Y-81572100D03*
X48844200Y-81572100D03*
X50114200Y-80302100D03*
X48844200Y-80302100D03*
X50114200Y-79032100D03*
D15*
X48844200Y-79032100D03*
D16*
X15240000Y-115570000D03*
X70332600Y-115570000D03*
X70332600Y-63500000D03*
X15214600Y-63500000D03*
D17*
X23575000Y-73320000D03*
X26115000Y-73320000D03*
D18*
X31195000Y-68240000D03*
X21035000Y-68240000D03*
D19*
X58547000Y-107061000D03*
X56642000Y-108966000D03*
X60452000Y-108966000D03*
X60452000Y-105156000D03*
X56642000Y-105156000D03*
X58547000Y-82423000D03*
X60452000Y-80518000D03*
X60452000Y-84328000D03*
X56642000Y-84328000D03*
X56642000Y-80518000D03*
X57734200Y-67564000D03*
X57734200Y-68580000D03*
X57734200Y-69596000D03*
X46888400Y-69265800D03*
X39115900Y-62560300D03*
X44068900Y-62242800D03*
X49555400Y-101904800D03*
X50622200Y-103555800D03*
X60312200Y-113271400D03*
X66243200Y-107848400D03*
X66243200Y-109499400D03*
X32473900Y-95783400D03*
X32473900Y-94068900D03*
X55130700Y-99021900D03*
X53987700Y-99021900D03*
X50698400Y-106883200D03*
X49301400Y-108559600D03*
X60833000Y-87223600D03*
X63322200Y-80111600D03*
X56870600Y-67564000D03*
X56870600Y-68580000D03*
X56870600Y-69596000D03*
X63550900Y-86436100D03*
X62484100Y-77342900D03*
X53009800Y-78689200D03*
X53898700Y-78714500D03*
X36588700Y-98767900D03*
X36614100Y-102577900D03*
X36537900Y-106387900D03*
X36601400Y-84201000D03*
X36652200Y-85471000D03*
X36703000Y-88011000D03*
X36703000Y-90551000D03*
X36753800Y-91821000D03*
X47574200Y-82854800D03*
X48666300Y-87503100D03*
X60325000Y-72745600D03*
X60325000Y-73660000D03*
X52095400Y-87630000D03*
X52069900Y-85979100D03*
X53817400Y-83266400D03*
X41935400Y-68884800D03*
X32486600Y-81153000D03*
X32473900Y-79438500D03*
X49276000Y-110236000D03*
X49987100Y-113906400D03*
X27724100Y-106387900D03*
X27559000Y-82931000D03*
X27559000Y-84201000D03*
X31750000Y-92456000D03*
X56896000Y-77978000D03*
X46939200Y-66344800D03*
X41859200Y-66344800D03*
X56408246Y-114279754D03*
X44068900Y-70624800D03*
X44068900Y-71513800D03*
X40690900Y-62572800D03*
X66459100Y-100723700D03*
X62420600Y-101904700D03*
X61887200Y-113283900D03*
X53924200Y-100228400D03*
X53924200Y-101244400D03*
X61975900Y-88946431D03*
X53833000Y-79766400D03*
X43053000Y-71526400D03*
X43053000Y-70662800D03*
X64287400Y-80111600D03*
X36728400Y-94068900D03*
X36728400Y-95084900D03*
X52070100Y-84404100D03*
X36512500Y-79438500D03*
X36525200Y-80568800D03*
X30226000Y-79502000D03*
X30988000Y-78740000D03*
X31750000Y-77978000D03*
X50800000Y-88900000D03*
X49784000Y-88900000D03*
X48768000Y-88900000D03*
X47752000Y-88900000D03*
X51816000Y-99568000D03*
X50800000Y-99568000D03*
X49784000Y-99568000D03*
X48768000Y-99568000D03*
X53403500Y-110236000D03*
X49974600Y-112331400D03*
X53848000Y-110998000D03*
X56870600Y-75717400D03*
X56896000Y-76708000D03*
X22098000Y-98552000D03*
X22098000Y-104140000D03*
X50622200Y-105206800D03*
X53441700Y-108076900D03*
X39115900Y-71526400D03*
X39115900Y-70662800D03*
X38125400Y-71577200D03*
X38125400Y-70662800D03*
X64084200Y-111302800D03*
X64947800Y-111302800D03*
X58750200Y-101879400D03*
X59944000Y-98298000D03*
X57808200Y-77396000D03*
X58737500Y-73342500D03*
D20*
G36*
X13048831Y-61154626D02*
G01*
X15214600Y-63320395D01*
X17380369Y-61154626D01*
X17194405Y-60883000D01*
X56481491Y-60883000D01*
X56308209Y-61025208D01*
X56144505Y-61224682D01*
X56022862Y-61452259D01*
X55947955Y-61699195D01*
X55929000Y-61891649D01*
X55929000Y-62370350D01*
X55947955Y-62562804D01*
X56022862Y-62809740D01*
X56144505Y-63037317D01*
X56308208Y-63236792D01*
X56507682Y-63400495D01*
X56735259Y-63522138D01*
X56982195Y-63597045D01*
X57239000Y-63622338D01*
X57495804Y-63597045D01*
X57742740Y-63522138D01*
X57970317Y-63400495D01*
X58169792Y-63236792D01*
X58333495Y-63037318D01*
X58455138Y-62809741D01*
X58530045Y-62562805D01*
X58549000Y-62370351D01*
X58549000Y-61891650D01*
X58530045Y-61699196D01*
X58455138Y-61452260D01*
X58333495Y-61224682D01*
X58169792Y-61025208D01*
X57996510Y-60883000D01*
X61941491Y-60883000D01*
X61768209Y-61025208D01*
X61604505Y-61224682D01*
X61482862Y-61452259D01*
X61407955Y-61699195D01*
X61389000Y-61891649D01*
X61389000Y-62370350D01*
X61407955Y-62562804D01*
X61482862Y-62809740D01*
X61604505Y-63037317D01*
X61768208Y-63236792D01*
X61967682Y-63400495D01*
X62195259Y-63522138D01*
X62442195Y-63597045D01*
X62699000Y-63622338D01*
X62955804Y-63597045D01*
X63202740Y-63522138D01*
X63252705Y-63495431D01*
X66981466Y-63495431D01*
X67044966Y-64149293D01*
X67234808Y-64778203D01*
X67543696Y-65357992D01*
X67548772Y-65365589D01*
X67987226Y-65665769D01*
X70152995Y-63500000D01*
X67987226Y-61334231D01*
X67548772Y-61634411D01*
X67238304Y-62213356D01*
X67046748Y-62841746D01*
X66981466Y-63495431D01*
X63252705Y-63495431D01*
X63430317Y-63400495D01*
X63629792Y-63236792D01*
X63793495Y-63037318D01*
X63915138Y-62809741D01*
X63990045Y-62562805D01*
X64009000Y-62370351D01*
X64009000Y-61891650D01*
X63990045Y-61699196D01*
X63915138Y-61452260D01*
X63793495Y-61224682D01*
X63629792Y-61025208D01*
X63456510Y-60883000D01*
X68352795Y-60883000D01*
X68166831Y-61154626D01*
X70332600Y-63320395D01*
X72498369Y-61154626D01*
X72312405Y-60883000D01*
X72975000Y-60883000D01*
X72975000Y-61537585D01*
X72677974Y-61334231D01*
X70512205Y-63500000D01*
X72677974Y-65665769D01*
X72975000Y-65462415D01*
X72975001Y-113607585D01*
X72677974Y-113404231D01*
X70512205Y-115570000D01*
X72677974Y-117735769D01*
X72975001Y-117532415D01*
X72975001Y-118187000D01*
X72312405Y-118187000D01*
X72498369Y-117915374D01*
X70332600Y-115749605D01*
X68166831Y-117915374D01*
X68352795Y-118187000D01*
X17219805Y-118187000D01*
X17405769Y-117915374D01*
X15240000Y-115749605D01*
X13074231Y-117915374D01*
X13260195Y-118187000D01*
X12623000Y-118187000D01*
X12623000Y-117549805D01*
X12894626Y-117735769D01*
X15060395Y-115570000D01*
X15419605Y-115570000D01*
X17585374Y-117735769D01*
X18023828Y-117435589D01*
X18334296Y-116856644D01*
X18525852Y-116228254D01*
X18591134Y-115574569D01*
X18590247Y-115565431D01*
X66981466Y-115565431D01*
X67044966Y-116219293D01*
X67234808Y-116848203D01*
X67543696Y-117427992D01*
X67548772Y-117435589D01*
X67987226Y-117735769D01*
X70152995Y-115570000D01*
X67987226Y-113404231D01*
X67548772Y-113704411D01*
X67238304Y-114283356D01*
X67046748Y-114911746D01*
X66981466Y-115565431D01*
X18590247Y-115565431D01*
X18527634Y-114920707D01*
X18337792Y-114291797D01*
X18028904Y-113712008D01*
X18023828Y-113704411D01*
X17585374Y-113404231D01*
X15419605Y-115570000D01*
X15060395Y-115570000D01*
X12894626Y-113404231D01*
X12623000Y-113590195D01*
X12623000Y-113224626D01*
X13074231Y-113224626D01*
X15240000Y-115390395D01*
X17405769Y-113224626D01*
X17105589Y-112786172D01*
X16526644Y-112475704D01*
X15898254Y-112284148D01*
X15406974Y-112235085D01*
X48996700Y-112235085D01*
X48996700Y-112427715D01*
X49034280Y-112616643D01*
X49107996Y-112794610D01*
X49215015Y-112954775D01*
X49351225Y-113090985D01*
X49511390Y-113198004D01*
X49689357Y-113271720D01*
X49878285Y-113309300D01*
X50070915Y-113309300D01*
X50259843Y-113271720D01*
X50437810Y-113198004D01*
X50453403Y-113187585D01*
X60909300Y-113187585D01*
X60909300Y-113380215D01*
X60946880Y-113569143D01*
X61020596Y-113747110D01*
X61127615Y-113907275D01*
X61263825Y-114043485D01*
X61423990Y-114150504D01*
X61601957Y-114224220D01*
X61790885Y-114261800D01*
X61983515Y-114261800D01*
X62172443Y-114224220D01*
X62350410Y-114150504D01*
X62510575Y-114043485D01*
X62646785Y-113907275D01*
X62753804Y-113747110D01*
X62827520Y-113569143D01*
X62865100Y-113380215D01*
X62865100Y-113224626D01*
X68166831Y-113224626D01*
X70332600Y-115390395D01*
X72498369Y-113224626D01*
X72198189Y-112786172D01*
X71619244Y-112475704D01*
X70990854Y-112284148D01*
X70337169Y-112218866D01*
X69683307Y-112282366D01*
X69054397Y-112472208D01*
X68474608Y-112781096D01*
X68467011Y-112786172D01*
X68166831Y-113224626D01*
X62865100Y-113224626D01*
X62865100Y-113187585D01*
X62827520Y-112998657D01*
X62753804Y-112820690D01*
X62646785Y-112660525D01*
X62510575Y-112524315D01*
X62350410Y-112417296D01*
X62172443Y-112343580D01*
X61983515Y-112306000D01*
X61790885Y-112306000D01*
X61601957Y-112343580D01*
X61423990Y-112417296D01*
X61263825Y-112524315D01*
X61127615Y-112660525D01*
X61020596Y-112820690D01*
X60946880Y-112998657D01*
X60909300Y-113187585D01*
X50453403Y-113187585D01*
X50597975Y-113090985D01*
X50734185Y-112954775D01*
X50841204Y-112794610D01*
X50914920Y-112616643D01*
X50952500Y-112427715D01*
X50952500Y-112235085D01*
X50914920Y-112046157D01*
X50841204Y-111868190D01*
X50734185Y-111708025D01*
X50597975Y-111571815D01*
X50437810Y-111464796D01*
X50259843Y-111391080D01*
X50070915Y-111353500D01*
X49878285Y-111353500D01*
X49689357Y-111391080D01*
X49511390Y-111464796D01*
X49351225Y-111571815D01*
X49215015Y-111708025D01*
X49107996Y-111868190D01*
X49034280Y-112046157D01*
X48996700Y-112235085D01*
X15406974Y-112235085D01*
X15244569Y-112218866D01*
X14590707Y-112282366D01*
X13961797Y-112472208D01*
X13382008Y-112781096D01*
X13374411Y-112786172D01*
X13074231Y-113224626D01*
X12623000Y-113224626D01*
X12623000Y-104043685D01*
X21120100Y-104043685D01*
X21120100Y-104236315D01*
X21157680Y-104425243D01*
X21231396Y-104603210D01*
X21338415Y-104763375D01*
X21474625Y-104899585D01*
X21634790Y-105006604D01*
X21812757Y-105080320D01*
X22001685Y-105117900D01*
X22194315Y-105117900D01*
X22383243Y-105080320D01*
X22561210Y-105006604D01*
X22721375Y-104899585D01*
X22857585Y-104763375D01*
X22964604Y-104603210D01*
X23038320Y-104425243D01*
X23075900Y-104236315D01*
X23075900Y-104043685D01*
X23038320Y-103854757D01*
X22964604Y-103676790D01*
X22857585Y-103516625D01*
X22721375Y-103380415D01*
X22561210Y-103273396D01*
X22383243Y-103199680D01*
X22194315Y-103162100D01*
X22001685Y-103162100D01*
X21812757Y-103199680D01*
X21634790Y-103273396D01*
X21474625Y-103380415D01*
X21338415Y-103516625D01*
X21231396Y-103676790D01*
X21157680Y-103854757D01*
X21120100Y-104043685D01*
X12623000Y-104043685D01*
X12623000Y-102147000D01*
X39786928Y-102147000D01*
X39786928Y-103847000D01*
X39799188Y-103971482D01*
X39835498Y-104091180D01*
X39894463Y-104201494D01*
X39973815Y-104298185D01*
X40070506Y-104377537D01*
X40180820Y-104436502D01*
X40253380Y-104458513D01*
X40121525Y-104590368D01*
X39959010Y-104833589D01*
X39847068Y-105103842D01*
X39790000Y-105390740D01*
X39790000Y-105683260D01*
X39847068Y-105970158D01*
X39959010Y-106240411D01*
X40121525Y-106483632D01*
X40328368Y-106690475D01*
X40502760Y-106807000D01*
X40328368Y-106923525D01*
X40121525Y-107130368D01*
X39959010Y-107373589D01*
X39847068Y-107643842D01*
X39790000Y-107930740D01*
X39790000Y-108223260D01*
X39847068Y-108510158D01*
X39959010Y-108780411D01*
X40121525Y-109023632D01*
X40328368Y-109230475D01*
X40502760Y-109347000D01*
X40328368Y-109463525D01*
X40121525Y-109670368D01*
X39959010Y-109913589D01*
X39847068Y-110183842D01*
X39790000Y-110470740D01*
X39790000Y-110763260D01*
X39847068Y-111050158D01*
X39959010Y-111320411D01*
X40121525Y-111563632D01*
X40328368Y-111770475D01*
X40571589Y-111932990D01*
X40841842Y-112044932D01*
X41128740Y-112102000D01*
X41421260Y-112102000D01*
X41708158Y-112044932D01*
X41978411Y-111932990D01*
X42221632Y-111770475D01*
X42428475Y-111563632D01*
X42545000Y-111389240D01*
X42661525Y-111563632D01*
X42868368Y-111770475D01*
X43111589Y-111932990D01*
X43381842Y-112044932D01*
X43668740Y-112102000D01*
X43961260Y-112102000D01*
X44248158Y-112044932D01*
X44518411Y-111932990D01*
X44761632Y-111770475D01*
X44968475Y-111563632D01*
X45130990Y-111320411D01*
X45242932Y-111050158D01*
X45300000Y-110763260D01*
X45300000Y-110470740D01*
X45242932Y-110183842D01*
X45224642Y-110139685D01*
X52425600Y-110139685D01*
X52425600Y-110332315D01*
X52463180Y-110521243D01*
X52536896Y-110699210D01*
X52643915Y-110859375D01*
X52780125Y-110995585D01*
X52870100Y-111055704D01*
X52870100Y-111094315D01*
X52907680Y-111283243D01*
X52981396Y-111461210D01*
X53088415Y-111621375D01*
X53224625Y-111757585D01*
X53384790Y-111864604D01*
X53562757Y-111938320D01*
X53751685Y-111975900D01*
X53944315Y-111975900D01*
X54133243Y-111938320D01*
X54311210Y-111864604D01*
X54471375Y-111757585D01*
X54607585Y-111621375D01*
X54714604Y-111461210D01*
X54788320Y-111283243D01*
X54803588Y-111206485D01*
X63106300Y-111206485D01*
X63106300Y-111399115D01*
X63143880Y-111588043D01*
X63217596Y-111766010D01*
X63324615Y-111926175D01*
X63460825Y-112062385D01*
X63620990Y-112169404D01*
X63798957Y-112243120D01*
X63987885Y-112280700D01*
X64180515Y-112280700D01*
X64369443Y-112243120D01*
X64516000Y-112182414D01*
X64662557Y-112243120D01*
X64851485Y-112280700D01*
X65044115Y-112280700D01*
X65233043Y-112243120D01*
X65411010Y-112169404D01*
X65571175Y-112062385D01*
X65707385Y-111926175D01*
X65814404Y-111766010D01*
X65888120Y-111588043D01*
X65925700Y-111399115D01*
X65925700Y-111206485D01*
X65888120Y-111017557D01*
X65870033Y-110973890D01*
X68891124Y-110973890D01*
X68935775Y-111121099D01*
X69060959Y-111383920D01*
X69235012Y-111617269D01*
X69451245Y-111812178D01*
X69701348Y-111961157D01*
X69975709Y-112058481D01*
X70205600Y-111937814D01*
X70205600Y-110744000D01*
X70459600Y-110744000D01*
X70459600Y-111937814D01*
X70689491Y-112058481D01*
X70963852Y-111961157D01*
X71213955Y-111812178D01*
X71430188Y-111617269D01*
X71604241Y-111383920D01*
X71729425Y-111121099D01*
X71774076Y-110973890D01*
X71652755Y-110744000D01*
X70459600Y-110744000D01*
X70205600Y-110744000D01*
X69012445Y-110744000D01*
X68891124Y-110973890D01*
X65870033Y-110973890D01*
X65814404Y-110839590D01*
X65707385Y-110679425D01*
X65571175Y-110543215D01*
X65411010Y-110436196D01*
X65233043Y-110362480D01*
X65044115Y-110324900D01*
X64851485Y-110324900D01*
X64662557Y-110362480D01*
X64516000Y-110423186D01*
X64369443Y-110362480D01*
X64180515Y-110324900D01*
X63987885Y-110324900D01*
X63798957Y-110362480D01*
X63620990Y-110436196D01*
X63460825Y-110543215D01*
X63324615Y-110679425D01*
X63217596Y-110839590D01*
X63143880Y-111017557D01*
X63106300Y-111206485D01*
X54803588Y-111206485D01*
X54825900Y-111094315D01*
X54825900Y-110901685D01*
X54788320Y-110712757D01*
X54714604Y-110534790D01*
X54607585Y-110374625D01*
X54471375Y-110238415D01*
X54381400Y-110178296D01*
X54381400Y-110139685D01*
X54343820Y-109950757D01*
X54270104Y-109772790D01*
X54163085Y-109612625D01*
X54026875Y-109476415D01*
X53866710Y-109369396D01*
X53688743Y-109295680D01*
X53499815Y-109258100D01*
X53307185Y-109258100D01*
X53118257Y-109295680D01*
X52940290Y-109369396D01*
X52780125Y-109476415D01*
X52643915Y-109612625D01*
X52536896Y-109772790D01*
X52463180Y-109950757D01*
X52425600Y-110139685D01*
X45224642Y-110139685D01*
X45130990Y-109913589D01*
X44968475Y-109670368D01*
X44761632Y-109463525D01*
X44587240Y-109347000D01*
X44761632Y-109230475D01*
X44968475Y-109023632D01*
X45130990Y-108780411D01*
X45242932Y-108510158D01*
X45300000Y-108223260D01*
X45300000Y-107980585D01*
X52463800Y-107980585D01*
X52463800Y-108173215D01*
X52501380Y-108362143D01*
X52575096Y-108540110D01*
X52682115Y-108700275D01*
X52818325Y-108836485D01*
X52978490Y-108943504D01*
X53156457Y-109017220D01*
X53345385Y-109054800D01*
X53538015Y-109054800D01*
X53726943Y-109017220D01*
X53904910Y-108943504D01*
X54065075Y-108836485D01*
X54201285Y-108700275D01*
X54308304Y-108540110D01*
X54352301Y-108433890D01*
X68891124Y-108433890D01*
X68935775Y-108581099D01*
X69060959Y-108843920D01*
X69235012Y-109077269D01*
X69451245Y-109272178D01*
X69576855Y-109347000D01*
X69451245Y-109421822D01*
X69235012Y-109616731D01*
X69060959Y-109850080D01*
X68935775Y-110112901D01*
X68891124Y-110260110D01*
X69012445Y-110490000D01*
X70205600Y-110490000D01*
X70205600Y-108204000D01*
X70459600Y-108204000D01*
X70459600Y-110490000D01*
X71652755Y-110490000D01*
X71774076Y-110260110D01*
X71729425Y-110112901D01*
X71604241Y-109850080D01*
X71430188Y-109616731D01*
X71213955Y-109421822D01*
X71088345Y-109347000D01*
X71213955Y-109272178D01*
X71430188Y-109077269D01*
X71604241Y-108843920D01*
X71729425Y-108581099D01*
X71774076Y-108433890D01*
X71652755Y-108204000D01*
X70459600Y-108204000D01*
X70205600Y-108204000D01*
X69012445Y-108204000D01*
X68891124Y-108433890D01*
X54352301Y-108433890D01*
X54382020Y-108362143D01*
X54419600Y-108173215D01*
X54419600Y-107980585D01*
X54382020Y-107791657D01*
X54308304Y-107613690D01*
X54201285Y-107453525D01*
X54065075Y-107317315D01*
X53904910Y-107210296D01*
X53726943Y-107136580D01*
X53538015Y-107099000D01*
X53345385Y-107099000D01*
X53156457Y-107136580D01*
X52978490Y-107210296D01*
X52818325Y-107317315D01*
X52682115Y-107453525D01*
X52575096Y-107613690D01*
X52501380Y-107791657D01*
X52463800Y-107980585D01*
X45300000Y-107980585D01*
X45300000Y-107930740D01*
X45242932Y-107643842D01*
X45130990Y-107373589D01*
X44968475Y-107130368D01*
X44761632Y-106923525D01*
X44587240Y-106807000D01*
X44761632Y-106690475D01*
X44968475Y-106483632D01*
X45130990Y-106240411D01*
X45242932Y-105970158D01*
X45300000Y-105683260D01*
X45300000Y-105390740D01*
X45244254Y-105110485D01*
X49644300Y-105110485D01*
X49644300Y-105303115D01*
X49681880Y-105492043D01*
X49755596Y-105670010D01*
X49862615Y-105830175D01*
X49998825Y-105966385D01*
X50158990Y-106073404D01*
X50336957Y-106147120D01*
X50525885Y-106184700D01*
X50718515Y-106184700D01*
X50907443Y-106147120D01*
X51085410Y-106073404D01*
X51245575Y-105966385D01*
X51318070Y-105893890D01*
X68891124Y-105893890D01*
X68935775Y-106041099D01*
X69060959Y-106303920D01*
X69235012Y-106537269D01*
X69451245Y-106732178D01*
X69576855Y-106807000D01*
X69451245Y-106881822D01*
X69235012Y-107076731D01*
X69060959Y-107310080D01*
X68935775Y-107572901D01*
X68891124Y-107720110D01*
X69012445Y-107950000D01*
X70205600Y-107950000D01*
X70205600Y-105664000D01*
X70459600Y-105664000D01*
X70459600Y-107950000D01*
X71652755Y-107950000D01*
X71774076Y-107720110D01*
X71729425Y-107572901D01*
X71604241Y-107310080D01*
X71430188Y-107076731D01*
X71213955Y-106881822D01*
X71088345Y-106807000D01*
X71213955Y-106732178D01*
X71430188Y-106537269D01*
X71604241Y-106303920D01*
X71729425Y-106041099D01*
X71774076Y-105893890D01*
X71652755Y-105664000D01*
X70459600Y-105664000D01*
X70205600Y-105664000D01*
X69012445Y-105664000D01*
X68891124Y-105893890D01*
X51318070Y-105893890D01*
X51381785Y-105830175D01*
X51488804Y-105670010D01*
X51562520Y-105492043D01*
X51600100Y-105303115D01*
X51600100Y-105110485D01*
X51562520Y-104921557D01*
X51488804Y-104743590D01*
X51381785Y-104583425D01*
X51245575Y-104447215D01*
X51085410Y-104340196D01*
X50907443Y-104266480D01*
X50718515Y-104228900D01*
X50525885Y-104228900D01*
X50336957Y-104266480D01*
X50158990Y-104340196D01*
X49998825Y-104447215D01*
X49862615Y-104583425D01*
X49755596Y-104743590D01*
X49681880Y-104921557D01*
X49644300Y-105110485D01*
X45244254Y-105110485D01*
X45242932Y-105103842D01*
X45130990Y-104833589D01*
X44968475Y-104590368D01*
X44761632Y-104383525D01*
X44587240Y-104267000D01*
X44761632Y-104150475D01*
X44968475Y-103943632D01*
X45033042Y-103847000D01*
X68844528Y-103847000D01*
X68856788Y-103971482D01*
X68893098Y-104091180D01*
X68952063Y-104201494D01*
X69031415Y-104298185D01*
X69128106Y-104377537D01*
X69238420Y-104436502D01*
X69319066Y-104460966D01*
X69235012Y-104536731D01*
X69060959Y-104770080D01*
X68935775Y-105032901D01*
X68891124Y-105180110D01*
X69012445Y-105410000D01*
X70205600Y-105410000D01*
X70205600Y-103124000D01*
X70459600Y-103124000D01*
X70459600Y-105410000D01*
X71652755Y-105410000D01*
X71774076Y-105180110D01*
X71729425Y-105032901D01*
X71604241Y-104770080D01*
X71430188Y-104536731D01*
X71346134Y-104460966D01*
X71426780Y-104436502D01*
X71537094Y-104377537D01*
X71633785Y-104298185D01*
X71713137Y-104201494D01*
X71772102Y-104091180D01*
X71808412Y-103971482D01*
X71820672Y-103847000D01*
X71817600Y-103282750D01*
X71658850Y-103124000D01*
X70459600Y-103124000D01*
X70205600Y-103124000D01*
X69006350Y-103124000D01*
X68847600Y-103282750D01*
X68844528Y-103847000D01*
X45033042Y-103847000D01*
X45130990Y-103700411D01*
X45242932Y-103430158D01*
X45300000Y-103143260D01*
X45300000Y-102850740D01*
X45242932Y-102563842D01*
X45130990Y-102293589D01*
X44968475Y-102050368D01*
X44761632Y-101843525D01*
X44518411Y-101681010D01*
X44248158Y-101569068D01*
X43961260Y-101512000D01*
X43668740Y-101512000D01*
X43381842Y-101569068D01*
X43111589Y-101681010D01*
X42868368Y-101843525D01*
X42736513Y-101975380D01*
X42714502Y-101902820D01*
X42655537Y-101792506D01*
X42576185Y-101695815D01*
X42479494Y-101616463D01*
X42369180Y-101557498D01*
X42249482Y-101521188D01*
X42125000Y-101508928D01*
X40425000Y-101508928D01*
X40300518Y-101521188D01*
X40180820Y-101557498D01*
X40070506Y-101616463D01*
X39973815Y-101695815D01*
X39894463Y-101792506D01*
X39835498Y-101902820D01*
X39799188Y-102022518D01*
X39786928Y-102147000D01*
X12623000Y-102147000D01*
X12623000Y-98455685D01*
X21120100Y-98455685D01*
X21120100Y-98648315D01*
X21157680Y-98837243D01*
X21231396Y-99015210D01*
X21338415Y-99175375D01*
X21474625Y-99311585D01*
X21634790Y-99418604D01*
X21812757Y-99492320D01*
X22001685Y-99529900D01*
X22194315Y-99529900D01*
X22383243Y-99492320D01*
X22433060Y-99471685D01*
X47790100Y-99471685D01*
X47790100Y-99664315D01*
X47827680Y-99853243D01*
X47901396Y-100031210D01*
X48008415Y-100191375D01*
X48144625Y-100327585D01*
X48304790Y-100434604D01*
X48482757Y-100508320D01*
X48671685Y-100545900D01*
X48864315Y-100545900D01*
X49053243Y-100508320D01*
X49231210Y-100434604D01*
X49276000Y-100404676D01*
X49320790Y-100434604D01*
X49498757Y-100508320D01*
X49687685Y-100545900D01*
X49880315Y-100545900D01*
X50069243Y-100508320D01*
X50247210Y-100434604D01*
X50292000Y-100404676D01*
X50336790Y-100434604D01*
X50514757Y-100508320D01*
X50703685Y-100545900D01*
X50896315Y-100545900D01*
X51085243Y-100508320D01*
X51263210Y-100434604D01*
X51308000Y-100404676D01*
X51352790Y-100434604D01*
X51530757Y-100508320D01*
X51719685Y-100545900D01*
X51912315Y-100545900D01*
X52101243Y-100508320D01*
X52279210Y-100434604D01*
X52439375Y-100327585D01*
X52575585Y-100191375D01*
X52615201Y-100132085D01*
X52946300Y-100132085D01*
X52946300Y-100324715D01*
X52983880Y-100513643D01*
X53057596Y-100691610D01*
X53087524Y-100736400D01*
X53057596Y-100781190D01*
X52983880Y-100959157D01*
X52946300Y-101148085D01*
X52946300Y-101340715D01*
X52983880Y-101529643D01*
X53057596Y-101707610D01*
X53164615Y-101867775D01*
X53300825Y-102003985D01*
X53460990Y-102111004D01*
X53638957Y-102184720D01*
X53827885Y-102222300D01*
X54020515Y-102222300D01*
X54209443Y-102184720D01*
X54387410Y-102111004D01*
X54547575Y-102003985D01*
X54683785Y-101867775D01*
X54740373Y-101783085D01*
X57772300Y-101783085D01*
X57772300Y-101975715D01*
X57809880Y-102164643D01*
X57883596Y-102342610D01*
X57990615Y-102502775D01*
X58126825Y-102638985D01*
X58286990Y-102746004D01*
X58464957Y-102819720D01*
X58653885Y-102857300D01*
X58846515Y-102857300D01*
X59035443Y-102819720D01*
X59213410Y-102746004D01*
X59373575Y-102638985D01*
X59509785Y-102502775D01*
X59616804Y-102342610D01*
X59690520Y-102164643D01*
X59728100Y-101975715D01*
X59728100Y-101808385D01*
X61442700Y-101808385D01*
X61442700Y-102001015D01*
X61480280Y-102189943D01*
X61553996Y-102367910D01*
X61661015Y-102528075D01*
X61797225Y-102664285D01*
X61957390Y-102771304D01*
X62135357Y-102845020D01*
X62324285Y-102882600D01*
X62516915Y-102882600D01*
X62705843Y-102845020D01*
X62883810Y-102771304D01*
X63043975Y-102664285D01*
X63180185Y-102528075D01*
X63287204Y-102367910D01*
X63360920Y-102189943D01*
X63369461Y-102147000D01*
X68844528Y-102147000D01*
X68847600Y-102711250D01*
X69006350Y-102870000D01*
X70205600Y-102870000D01*
X70205600Y-101670750D01*
X70459600Y-101670750D01*
X70459600Y-102870000D01*
X71658850Y-102870000D01*
X71817600Y-102711250D01*
X71820672Y-102147000D01*
X71808412Y-102022518D01*
X71772102Y-101902820D01*
X71713137Y-101792506D01*
X71633785Y-101695815D01*
X71537094Y-101616463D01*
X71426780Y-101557498D01*
X71307082Y-101521188D01*
X71182600Y-101508928D01*
X70618350Y-101512000D01*
X70459600Y-101670750D01*
X70205600Y-101670750D01*
X70046850Y-101512000D01*
X69482600Y-101508928D01*
X69358118Y-101521188D01*
X69238420Y-101557498D01*
X69128106Y-101616463D01*
X69031415Y-101695815D01*
X68952063Y-101792506D01*
X68893098Y-101902820D01*
X68856788Y-102022518D01*
X68844528Y-102147000D01*
X63369461Y-102147000D01*
X63398500Y-102001015D01*
X63398500Y-101808385D01*
X63360920Y-101619457D01*
X63287204Y-101441490D01*
X63180185Y-101281325D01*
X63043975Y-101145115D01*
X62883810Y-101038096D01*
X62705843Y-100964380D01*
X62516915Y-100926800D01*
X62324285Y-100926800D01*
X62135357Y-100964380D01*
X61957390Y-101038096D01*
X61797225Y-101145115D01*
X61661015Y-101281325D01*
X61553996Y-101441490D01*
X61480280Y-101619457D01*
X61442700Y-101808385D01*
X59728100Y-101808385D01*
X59728100Y-101783085D01*
X59690520Y-101594157D01*
X59616804Y-101416190D01*
X59509785Y-101256025D01*
X59373575Y-101119815D01*
X59213410Y-101012796D01*
X59035443Y-100939080D01*
X58846515Y-100901500D01*
X58653885Y-100901500D01*
X58464957Y-100939080D01*
X58286990Y-101012796D01*
X58126825Y-101119815D01*
X57990615Y-101256025D01*
X57883596Y-101416190D01*
X57809880Y-101594157D01*
X57772300Y-101783085D01*
X54740373Y-101783085D01*
X54790804Y-101707610D01*
X54864520Y-101529643D01*
X54902100Y-101340715D01*
X54902100Y-101148085D01*
X54864520Y-100959157D01*
X54790804Y-100781190D01*
X54760876Y-100736400D01*
X54790804Y-100691610D01*
X54817406Y-100627385D01*
X65481200Y-100627385D01*
X65481200Y-100820015D01*
X65518780Y-101008943D01*
X65592496Y-101186910D01*
X65699515Y-101347075D01*
X65835725Y-101483285D01*
X65995890Y-101590304D01*
X66173857Y-101664020D01*
X66362785Y-101701600D01*
X66555415Y-101701600D01*
X66744343Y-101664020D01*
X66922310Y-101590304D01*
X67082475Y-101483285D01*
X67218685Y-101347075D01*
X67325704Y-101186910D01*
X67399420Y-101008943D01*
X67437000Y-100820015D01*
X67437000Y-100627385D01*
X67399420Y-100438457D01*
X67325704Y-100260490D01*
X67218685Y-100100325D01*
X67082475Y-99964115D01*
X66922310Y-99857096D01*
X66744343Y-99783380D01*
X66555415Y-99745800D01*
X66362785Y-99745800D01*
X66173857Y-99783380D01*
X65995890Y-99857096D01*
X65835725Y-99964115D01*
X65699515Y-100100325D01*
X65592496Y-100260490D01*
X65518780Y-100438457D01*
X65481200Y-100627385D01*
X54817406Y-100627385D01*
X54864520Y-100513643D01*
X54902100Y-100324715D01*
X54902100Y-100132085D01*
X54864520Y-99943157D01*
X54790804Y-99765190D01*
X54683785Y-99605025D01*
X54547575Y-99468815D01*
X54387410Y-99361796D01*
X54209443Y-99288080D01*
X54020515Y-99250500D01*
X53827885Y-99250500D01*
X53638957Y-99288080D01*
X53460990Y-99361796D01*
X53300825Y-99468815D01*
X53164615Y-99605025D01*
X53057596Y-99765190D01*
X52983880Y-99943157D01*
X52946300Y-100132085D01*
X52615201Y-100132085D01*
X52682604Y-100031210D01*
X52756320Y-99853243D01*
X52793900Y-99664315D01*
X52793900Y-99471685D01*
X52756320Y-99282757D01*
X52682604Y-99104790D01*
X52575585Y-98944625D01*
X52439375Y-98808415D01*
X52279210Y-98701396D01*
X52101243Y-98627680D01*
X51912315Y-98590100D01*
X51719685Y-98590100D01*
X51530757Y-98627680D01*
X51352790Y-98701396D01*
X51308000Y-98731324D01*
X51263210Y-98701396D01*
X51085243Y-98627680D01*
X50896315Y-98590100D01*
X50703685Y-98590100D01*
X50514757Y-98627680D01*
X50336790Y-98701396D01*
X50292000Y-98731324D01*
X50247210Y-98701396D01*
X50069243Y-98627680D01*
X49880315Y-98590100D01*
X49687685Y-98590100D01*
X49498757Y-98627680D01*
X49320790Y-98701396D01*
X49276000Y-98731324D01*
X49231210Y-98701396D01*
X49053243Y-98627680D01*
X48864315Y-98590100D01*
X48671685Y-98590100D01*
X48482757Y-98627680D01*
X48304790Y-98701396D01*
X48144625Y-98808415D01*
X48008415Y-98944625D01*
X47901396Y-99104790D01*
X47827680Y-99282757D01*
X47790100Y-99471685D01*
X22433060Y-99471685D01*
X22561210Y-99418604D01*
X22721375Y-99311585D01*
X22857585Y-99175375D01*
X22964604Y-99015210D01*
X23038320Y-98837243D01*
X23075900Y-98648315D01*
X23075900Y-98455685D01*
X23038320Y-98266757D01*
X23011367Y-98201685D01*
X58966100Y-98201685D01*
X58966100Y-98394315D01*
X59003680Y-98583243D01*
X59077396Y-98761210D01*
X59184415Y-98921375D01*
X59320625Y-99057585D01*
X59480790Y-99164604D01*
X59658757Y-99238320D01*
X59847685Y-99275900D01*
X60040315Y-99275900D01*
X60229243Y-99238320D01*
X60407210Y-99164604D01*
X60567375Y-99057585D01*
X60703585Y-98921375D01*
X60810604Y-98761210D01*
X60884320Y-98583243D01*
X60921900Y-98394315D01*
X60921900Y-98201685D01*
X60884320Y-98012757D01*
X60810604Y-97834790D01*
X60703585Y-97674625D01*
X60567375Y-97538415D01*
X60407210Y-97431396D01*
X60229243Y-97357680D01*
X60040315Y-97320100D01*
X59847685Y-97320100D01*
X59658757Y-97357680D01*
X59480790Y-97431396D01*
X59320625Y-97538415D01*
X59184415Y-97674625D01*
X59077396Y-97834790D01*
X59003680Y-98012757D01*
X58966100Y-98201685D01*
X23011367Y-98201685D01*
X22964604Y-98088790D01*
X22857585Y-97928625D01*
X22721375Y-97792415D01*
X22561210Y-97685396D01*
X22383243Y-97611680D01*
X22194315Y-97574100D01*
X22001685Y-97574100D01*
X21812757Y-97611680D01*
X21634790Y-97685396D01*
X21474625Y-97792415D01*
X21338415Y-97928625D01*
X21231396Y-98088790D01*
X21157680Y-98266757D01*
X21120100Y-98455685D01*
X12623000Y-98455685D01*
X12623000Y-93972585D01*
X35750500Y-93972585D01*
X35750500Y-94165215D01*
X35788080Y-94354143D01*
X35861796Y-94532110D01*
X35891724Y-94576900D01*
X35861796Y-94621690D01*
X35788080Y-94799657D01*
X35750500Y-94988585D01*
X35750500Y-95181215D01*
X35788080Y-95370143D01*
X35861796Y-95548110D01*
X35968815Y-95708275D01*
X36105025Y-95844485D01*
X36265190Y-95951504D01*
X36443157Y-96025220D01*
X36632085Y-96062800D01*
X36824715Y-96062800D01*
X37013643Y-96025220D01*
X37191610Y-95951504D01*
X37351775Y-95844485D01*
X37487985Y-95708275D01*
X37595004Y-95548110D01*
X37668720Y-95370143D01*
X37706300Y-95181215D01*
X37706300Y-94988585D01*
X37668720Y-94799657D01*
X37595004Y-94621690D01*
X37565076Y-94576900D01*
X37595004Y-94532110D01*
X37668720Y-94354143D01*
X37706300Y-94165215D01*
X37706300Y-93972585D01*
X37668720Y-93783657D01*
X37595004Y-93605690D01*
X37487985Y-93445525D01*
X37351775Y-93309315D01*
X37191610Y-93202296D01*
X37013643Y-93128580D01*
X36824715Y-93091000D01*
X36632085Y-93091000D01*
X36443157Y-93128580D01*
X36265190Y-93202296D01*
X36105025Y-93309315D01*
X35968815Y-93445525D01*
X35861796Y-93605690D01*
X35788080Y-93783657D01*
X35750500Y-93972585D01*
X12623000Y-93972585D01*
X12623000Y-91987000D01*
X39786928Y-91987000D01*
X39786928Y-93687000D01*
X39799188Y-93811482D01*
X39835498Y-93931180D01*
X39894463Y-94041494D01*
X39973815Y-94138185D01*
X40070506Y-94217537D01*
X40180820Y-94276502D01*
X40253380Y-94298513D01*
X40121525Y-94430368D01*
X39959010Y-94673589D01*
X39847068Y-94943842D01*
X39790000Y-95230740D01*
X39790000Y-95523260D01*
X39847068Y-95810158D01*
X39959010Y-96080411D01*
X40121525Y-96323632D01*
X40328368Y-96530475D01*
X40571589Y-96692990D01*
X40841842Y-96804932D01*
X41128740Y-96862000D01*
X41421260Y-96862000D01*
X41708158Y-96804932D01*
X41978411Y-96692990D01*
X42221632Y-96530475D01*
X42428475Y-96323632D01*
X42545000Y-96149240D01*
X42661525Y-96323632D01*
X42868368Y-96530475D01*
X43111589Y-96692990D01*
X43381842Y-96804932D01*
X43668740Y-96862000D01*
X43961260Y-96862000D01*
X44248158Y-96804932D01*
X44518411Y-96692990D01*
X44761632Y-96530475D01*
X44968475Y-96323632D01*
X45130990Y-96080411D01*
X45242932Y-95810158D01*
X45300000Y-95523260D01*
X45300000Y-95230740D01*
X45242932Y-94943842D01*
X45130990Y-94673589D01*
X45033043Y-94527000D01*
X49445128Y-94527000D01*
X49445128Y-96227000D01*
X49457388Y-96351482D01*
X49493698Y-96471180D01*
X49552663Y-96581494D01*
X49632015Y-96678185D01*
X49728706Y-96757537D01*
X49839020Y-96816502D01*
X49958718Y-96852812D01*
X50083200Y-96865072D01*
X51783200Y-96865072D01*
X51907682Y-96852812D01*
X52027380Y-96816502D01*
X52137694Y-96757537D01*
X52234385Y-96678185D01*
X52313737Y-96581494D01*
X52372702Y-96471180D01*
X52394713Y-96398620D01*
X52526568Y-96530475D01*
X52769789Y-96692990D01*
X53040042Y-96804932D01*
X53326940Y-96862000D01*
X53619460Y-96862000D01*
X53906358Y-96804932D01*
X54176611Y-96692990D01*
X54419832Y-96530475D01*
X54626675Y-96323632D01*
X54743200Y-96149240D01*
X54859725Y-96323632D01*
X55066568Y-96530475D01*
X55309789Y-96692990D01*
X55580042Y-96804932D01*
X55866940Y-96862000D01*
X56159460Y-96862000D01*
X56446358Y-96804932D01*
X56716611Y-96692990D01*
X56959832Y-96530475D01*
X57166675Y-96323632D01*
X57283200Y-96149240D01*
X57399725Y-96323632D01*
X57606568Y-96530475D01*
X57849789Y-96692990D01*
X58120042Y-96804932D01*
X58406940Y-96862000D01*
X58699460Y-96862000D01*
X58986358Y-96804932D01*
X59256611Y-96692990D01*
X59499832Y-96530475D01*
X59706675Y-96323632D01*
X59823200Y-96149240D01*
X59939725Y-96323632D01*
X60146568Y-96530475D01*
X60389789Y-96692990D01*
X60660042Y-96804932D01*
X60946940Y-96862000D01*
X61239460Y-96862000D01*
X61526358Y-96804932D01*
X61796611Y-96692990D01*
X62039832Y-96530475D01*
X62246675Y-96323632D01*
X62363200Y-96149240D01*
X62479725Y-96323632D01*
X62686568Y-96530475D01*
X62929789Y-96692990D01*
X63200042Y-96804932D01*
X63486940Y-96862000D01*
X63779460Y-96862000D01*
X64066358Y-96804932D01*
X64336611Y-96692990D01*
X64579832Y-96530475D01*
X64786675Y-96323632D01*
X64903200Y-96149240D01*
X65019725Y-96323632D01*
X65226568Y-96530475D01*
X65469789Y-96692990D01*
X65740042Y-96804932D01*
X66026940Y-96862000D01*
X66319460Y-96862000D01*
X66606358Y-96804932D01*
X66876611Y-96692990D01*
X67119832Y-96530475D01*
X67326675Y-96323632D01*
X67489190Y-96080411D01*
X67601132Y-95810158D01*
X67658200Y-95523260D01*
X67658200Y-95230740D01*
X67601132Y-94943842D01*
X67489190Y-94673589D01*
X67326675Y-94430368D01*
X67119832Y-94223525D01*
X66945440Y-94107000D01*
X67119832Y-93990475D01*
X67326675Y-93783632D01*
X67489190Y-93540411D01*
X67601132Y-93270158D01*
X67658200Y-92983260D01*
X67658200Y-92690740D01*
X67601132Y-92403842D01*
X67489190Y-92133589D01*
X67326675Y-91890368D01*
X67119832Y-91683525D01*
X66876611Y-91521010D01*
X66606358Y-91409068D01*
X66319460Y-91352000D01*
X66026940Y-91352000D01*
X65740042Y-91409068D01*
X65469789Y-91521010D01*
X65226568Y-91683525D01*
X65019725Y-91890368D01*
X64903200Y-92064760D01*
X64786675Y-91890368D01*
X64579832Y-91683525D01*
X64336611Y-91521010D01*
X64066358Y-91409068D01*
X63779460Y-91352000D01*
X63486940Y-91352000D01*
X63200042Y-91409068D01*
X62929789Y-91521010D01*
X62686568Y-91683525D01*
X62479725Y-91890368D01*
X62363200Y-92064760D01*
X62246675Y-91890368D01*
X62039832Y-91683525D01*
X61796611Y-91521010D01*
X61526358Y-91409068D01*
X61239460Y-91352000D01*
X60946940Y-91352000D01*
X60660042Y-91409068D01*
X60389789Y-91521010D01*
X60146568Y-91683525D01*
X59939725Y-91890368D01*
X59823200Y-92064760D01*
X59706675Y-91890368D01*
X59499832Y-91683525D01*
X59256611Y-91521010D01*
X58986358Y-91409068D01*
X58699460Y-91352000D01*
X58406940Y-91352000D01*
X58120042Y-91409068D01*
X57849789Y-91521010D01*
X57606568Y-91683525D01*
X57399725Y-91890368D01*
X57283200Y-92064760D01*
X57166675Y-91890368D01*
X56959832Y-91683525D01*
X56716611Y-91521010D01*
X56446358Y-91409068D01*
X56159460Y-91352000D01*
X55866940Y-91352000D01*
X55580042Y-91409068D01*
X55309789Y-91521010D01*
X55066568Y-91683525D01*
X54859725Y-91890368D01*
X54743200Y-92064760D01*
X54626675Y-91890368D01*
X54419832Y-91683525D01*
X54176611Y-91521010D01*
X53906358Y-91409068D01*
X53619460Y-91352000D01*
X53326940Y-91352000D01*
X53040042Y-91409068D01*
X52769789Y-91521010D01*
X52526568Y-91683525D01*
X52319725Y-91890368D01*
X52203200Y-92064760D01*
X52086675Y-91890368D01*
X51879832Y-91683525D01*
X51636611Y-91521010D01*
X51366358Y-91409068D01*
X51079460Y-91352000D01*
X50786940Y-91352000D01*
X50500042Y-91409068D01*
X50229789Y-91521010D01*
X49986568Y-91683525D01*
X49779725Y-91890368D01*
X49617210Y-92133589D01*
X49505268Y-92403842D01*
X49448200Y-92690740D01*
X49448200Y-92983260D01*
X49505268Y-93270158D01*
X49617210Y-93540411D01*
X49779725Y-93783632D01*
X49911580Y-93915487D01*
X49839020Y-93937498D01*
X49728706Y-93996463D01*
X49632015Y-94075815D01*
X49552663Y-94172506D01*
X49493698Y-94282820D01*
X49457388Y-94402518D01*
X49445128Y-94527000D01*
X45033043Y-94527000D01*
X44968475Y-94430368D01*
X44761632Y-94223525D01*
X44587240Y-94107000D01*
X44761632Y-93990475D01*
X44968475Y-93783632D01*
X45130990Y-93540411D01*
X45242932Y-93270158D01*
X45300000Y-92983260D01*
X45300000Y-92690740D01*
X45242932Y-92403842D01*
X45130990Y-92133589D01*
X44968475Y-91890368D01*
X44761632Y-91683525D01*
X44518411Y-91521010D01*
X44248158Y-91409068D01*
X43961260Y-91352000D01*
X43668740Y-91352000D01*
X43381842Y-91409068D01*
X43111589Y-91521010D01*
X42868368Y-91683525D01*
X42736513Y-91815380D01*
X42714502Y-91742820D01*
X42655537Y-91632506D01*
X42576185Y-91535815D01*
X42479494Y-91456463D01*
X42369180Y-91397498D01*
X42249482Y-91361188D01*
X42125000Y-91348928D01*
X40425000Y-91348928D01*
X40300518Y-91361188D01*
X40180820Y-91397498D01*
X40070506Y-91456463D01*
X39973815Y-91535815D01*
X39894463Y-91632506D01*
X39835498Y-91742820D01*
X39799188Y-91862518D01*
X39786928Y-91987000D01*
X12623000Y-91987000D01*
X12623000Y-88803685D01*
X46774100Y-88803685D01*
X46774100Y-88996315D01*
X46811680Y-89185243D01*
X46885396Y-89363210D01*
X46992415Y-89523375D01*
X47128625Y-89659585D01*
X47288790Y-89766604D01*
X47466757Y-89840320D01*
X47655685Y-89877900D01*
X47848315Y-89877900D01*
X48037243Y-89840320D01*
X48215210Y-89766604D01*
X48260000Y-89736676D01*
X48304790Y-89766604D01*
X48482757Y-89840320D01*
X48671685Y-89877900D01*
X48864315Y-89877900D01*
X49053243Y-89840320D01*
X49231210Y-89766604D01*
X49276000Y-89736676D01*
X49320790Y-89766604D01*
X49498757Y-89840320D01*
X49687685Y-89877900D01*
X49880315Y-89877900D01*
X50069243Y-89840320D01*
X50247210Y-89766604D01*
X50292000Y-89736676D01*
X50336790Y-89766604D01*
X50514757Y-89840320D01*
X50703685Y-89877900D01*
X50896315Y-89877900D01*
X51085243Y-89840320D01*
X51263210Y-89766604D01*
X51423375Y-89659585D01*
X51559585Y-89523375D01*
X51666604Y-89363210D01*
X51740320Y-89185243D01*
X51777900Y-88996315D01*
X51777900Y-88850116D01*
X60998000Y-88850116D01*
X60998000Y-89042746D01*
X61035580Y-89231674D01*
X61109296Y-89409641D01*
X61216315Y-89569806D01*
X61352525Y-89706016D01*
X61512690Y-89813035D01*
X61690657Y-89886751D01*
X61879585Y-89924331D01*
X62072215Y-89924331D01*
X62261143Y-89886751D01*
X62439110Y-89813035D01*
X62599275Y-89706016D01*
X62735485Y-89569806D01*
X62842504Y-89409641D01*
X62916220Y-89231674D01*
X62953800Y-89042746D01*
X62953800Y-88850116D01*
X62916220Y-88661188D01*
X62842504Y-88483221D01*
X62735485Y-88323056D01*
X62599275Y-88186846D01*
X62439110Y-88079827D01*
X62261143Y-88006111D01*
X62072215Y-87968531D01*
X61879585Y-87968531D01*
X61690657Y-88006111D01*
X61512690Y-88079827D01*
X61352525Y-88186846D01*
X61216315Y-88323056D01*
X61109296Y-88483221D01*
X61035580Y-88661188D01*
X60998000Y-88850116D01*
X51777900Y-88850116D01*
X51777900Y-88803685D01*
X51740320Y-88614757D01*
X51666604Y-88436790D01*
X51559585Y-88276625D01*
X51423375Y-88140415D01*
X51263210Y-88033396D01*
X51085243Y-87959680D01*
X50896315Y-87922100D01*
X50703685Y-87922100D01*
X50514757Y-87959680D01*
X50336790Y-88033396D01*
X50292000Y-88063324D01*
X50247210Y-88033396D01*
X50069243Y-87959680D01*
X49880315Y-87922100D01*
X49687685Y-87922100D01*
X49498757Y-87959680D01*
X49320790Y-88033396D01*
X49276000Y-88063324D01*
X49231210Y-88033396D01*
X49053243Y-87959680D01*
X48864315Y-87922100D01*
X48671685Y-87922100D01*
X48482757Y-87959680D01*
X48304790Y-88033396D01*
X48260000Y-88063324D01*
X48215210Y-88033396D01*
X48037243Y-87959680D01*
X47848315Y-87922100D01*
X47655685Y-87922100D01*
X47466757Y-87959680D01*
X47288790Y-88033396D01*
X47128625Y-88140415D01*
X46992415Y-88276625D01*
X46885396Y-88436790D01*
X46811680Y-88614757D01*
X46774100Y-88803685D01*
X12623000Y-88803685D01*
X12623000Y-85002000D01*
X39786928Y-85002000D01*
X39786928Y-86702000D01*
X39799188Y-86826482D01*
X39835498Y-86946180D01*
X39894463Y-87056494D01*
X39973815Y-87153185D01*
X40070506Y-87232537D01*
X40180820Y-87291502D01*
X40300518Y-87327812D01*
X40425000Y-87340072D01*
X42125000Y-87340072D01*
X42249482Y-87327812D01*
X42369180Y-87291502D01*
X42479494Y-87232537D01*
X42576185Y-87153185D01*
X42655537Y-87056494D01*
X42714502Y-86946180D01*
X42736513Y-86873620D01*
X42868368Y-87005475D01*
X43111589Y-87167990D01*
X43381842Y-87279932D01*
X43668740Y-87337000D01*
X43961260Y-87337000D01*
X44248158Y-87279932D01*
X44518411Y-87167990D01*
X44761632Y-87005475D01*
X44968475Y-86798632D01*
X45130990Y-86555411D01*
X45242932Y-86285158D01*
X45300000Y-85998260D01*
X45300000Y-85705740D01*
X45242932Y-85418842D01*
X45130990Y-85148589D01*
X44968475Y-84905368D01*
X44761632Y-84698525D01*
X44518411Y-84536010D01*
X44248158Y-84424068D01*
X44197413Y-84413974D01*
X47750081Y-84413974D01*
X47766754Y-84468964D01*
X47857077Y-84672306D01*
X47985335Y-84854120D01*
X48146599Y-85007418D01*
X48334671Y-85126310D01*
X48542324Y-85206226D01*
X48717200Y-85081229D01*
X48717200Y-84239100D01*
X47876246Y-84239100D01*
X47750081Y-84413974D01*
X44197413Y-84413974D01*
X43961260Y-84367000D01*
X43668740Y-84367000D01*
X43381842Y-84424068D01*
X43111589Y-84536010D01*
X42868368Y-84698525D01*
X42736513Y-84830380D01*
X42714502Y-84757820D01*
X42655537Y-84647506D01*
X42576185Y-84550815D01*
X42479494Y-84471463D01*
X42369180Y-84412498D01*
X42249482Y-84376188D01*
X42125000Y-84363928D01*
X40425000Y-84363928D01*
X40300518Y-84376188D01*
X40180820Y-84412498D01*
X40070506Y-84471463D01*
X39973815Y-84550815D01*
X39894463Y-84647506D01*
X39835498Y-84757820D01*
X39799188Y-84877518D01*
X39786928Y-85002000D01*
X12623000Y-85002000D01*
X12623000Y-79405685D01*
X29248100Y-79405685D01*
X29248100Y-79598315D01*
X29285680Y-79787243D01*
X29359396Y-79965210D01*
X29466415Y-80125375D01*
X29602625Y-80261585D01*
X29762790Y-80368604D01*
X29940757Y-80442320D01*
X30129685Y-80479900D01*
X30322315Y-80479900D01*
X30511243Y-80442320D01*
X30689210Y-80368604D01*
X30849375Y-80261585D01*
X30985585Y-80125375D01*
X31092604Y-79965210D01*
X31166320Y-79787243D01*
X31184060Y-79698060D01*
X31273243Y-79680320D01*
X31451210Y-79606604D01*
X31611375Y-79499585D01*
X31747585Y-79363375D01*
X31761743Y-79342185D01*
X35534600Y-79342185D01*
X35534600Y-79534815D01*
X35572180Y-79723743D01*
X35645896Y-79901710D01*
X35720360Y-80013153D01*
X35658596Y-80105590D01*
X35584880Y-80283557D01*
X35547300Y-80472485D01*
X35547300Y-80665115D01*
X35584880Y-80854043D01*
X35658596Y-81032010D01*
X35765615Y-81192175D01*
X35901825Y-81328385D01*
X36061990Y-81435404D01*
X36239957Y-81509120D01*
X36428885Y-81546700D01*
X36621515Y-81546700D01*
X36810443Y-81509120D01*
X36988410Y-81435404D01*
X37148575Y-81328385D01*
X37284785Y-81192175D01*
X37391804Y-81032010D01*
X37465520Y-80854043D01*
X37503100Y-80665115D01*
X37503100Y-80472485D01*
X37465520Y-80283557D01*
X37391804Y-80105590D01*
X37317340Y-79994147D01*
X37379104Y-79901710D01*
X37452820Y-79723743D01*
X37490400Y-79534815D01*
X37490400Y-79342185D01*
X37452820Y-79153257D01*
X37379104Y-78975290D01*
X37272085Y-78815125D01*
X37235960Y-78779000D01*
X39786928Y-78779000D01*
X39786928Y-80479000D01*
X39799188Y-80603482D01*
X39835498Y-80723180D01*
X39894463Y-80833494D01*
X39973815Y-80930185D01*
X40070506Y-81009537D01*
X40180820Y-81068502D01*
X40300518Y-81104812D01*
X40425000Y-81117072D01*
X42125000Y-81117072D01*
X42249482Y-81104812D01*
X42369180Y-81068502D01*
X42479494Y-81009537D01*
X42576185Y-80930185D01*
X42655537Y-80833494D01*
X42714502Y-80723180D01*
X42736513Y-80650620D01*
X42868368Y-80782475D01*
X43111589Y-80944990D01*
X43381842Y-81056932D01*
X43668740Y-81114000D01*
X43961260Y-81114000D01*
X44248158Y-81056932D01*
X44518411Y-80944990D01*
X44761632Y-80782475D01*
X44940133Y-80603974D01*
X47750081Y-80603974D01*
X47766754Y-80658964D01*
X47857077Y-80862306D01*
X47909839Y-80937100D01*
X47857077Y-81011894D01*
X47766754Y-81215236D01*
X47750081Y-81270226D01*
X47876246Y-81445100D01*
X48717200Y-81445100D01*
X48717200Y-80429100D01*
X47876246Y-80429100D01*
X47750081Y-80603974D01*
X44940133Y-80603974D01*
X44968475Y-80575632D01*
X45130990Y-80332411D01*
X45242932Y-80062158D01*
X45300000Y-79775260D01*
X45300000Y-79482740D01*
X45242932Y-79195842D01*
X45130990Y-78925589D01*
X44968475Y-78682368D01*
X44818207Y-78532100D01*
X47706128Y-78532100D01*
X47706128Y-79532100D01*
X47718388Y-79656582D01*
X47754698Y-79776280D01*
X47802270Y-79865280D01*
X47766754Y-79945236D01*
X47750081Y-80000226D01*
X47876246Y-80175100D01*
X48717200Y-80175100D01*
X48717200Y-80170172D01*
X48971200Y-80170172D01*
X48971200Y-80175100D01*
X48982226Y-80175100D01*
X48979200Y-80190312D01*
X48979200Y-80413888D01*
X48982226Y-80429100D01*
X48971200Y-80429100D01*
X48971200Y-81445100D01*
X48982226Y-81445100D01*
X48979200Y-81460312D01*
X48979200Y-81683888D01*
X48982226Y-81699100D01*
X48971200Y-81699100D01*
X48971200Y-81710126D01*
X48955988Y-81707100D01*
X48732412Y-81707100D01*
X48717200Y-81710126D01*
X48717200Y-81699100D01*
X47876246Y-81699100D01*
X47750081Y-81873974D01*
X47766754Y-81928964D01*
X47857077Y-82132306D01*
X47906553Y-82202442D01*
X47838376Y-82304476D01*
X47752817Y-82511033D01*
X47709200Y-82730312D01*
X47709200Y-82953888D01*
X47752817Y-83173167D01*
X47838376Y-83379724D01*
X47906553Y-83481758D01*
X47857077Y-83551894D01*
X47766754Y-83755236D01*
X47750081Y-83810226D01*
X47876246Y-83985100D01*
X48717200Y-83985100D01*
X48717200Y-83974074D01*
X48732412Y-83977100D01*
X48955988Y-83977100D01*
X48971200Y-83974074D01*
X48971200Y-83985100D01*
X48982226Y-83985100D01*
X48979200Y-84000312D01*
X48979200Y-84223888D01*
X48982226Y-84239100D01*
X48971200Y-84239100D01*
X48971200Y-85081229D01*
X49146076Y-85206226D01*
X49353729Y-85126310D01*
X49474688Y-85049844D01*
X49576576Y-85117924D01*
X49783133Y-85203483D01*
X50002412Y-85247100D01*
X50225988Y-85247100D01*
X50445267Y-85203483D01*
X50651824Y-85117924D01*
X50837720Y-84993712D01*
X50995812Y-84835620D01*
X51120024Y-84649724D01*
X51121291Y-84646665D01*
X51129780Y-84689343D01*
X51203496Y-84867310D01*
X51310515Y-85027475D01*
X51446725Y-85163685D01*
X51606890Y-85270704D01*
X51784857Y-85344420D01*
X51973785Y-85382000D01*
X52166415Y-85382000D01*
X52355343Y-85344420D01*
X52533310Y-85270704D01*
X52693475Y-85163685D01*
X52829685Y-85027475D01*
X52936704Y-84867310D01*
X53010420Y-84689343D01*
X53048000Y-84500415D01*
X53048000Y-84307785D01*
X53010420Y-84118857D01*
X52936704Y-83940890D01*
X52829685Y-83780725D01*
X52693475Y-83644515D01*
X52533310Y-83537496D01*
X52355343Y-83463780D01*
X52166415Y-83426200D01*
X51973785Y-83426200D01*
X51784857Y-83463780D01*
X51606890Y-83537496D01*
X51446725Y-83644515D01*
X51310515Y-83780725D01*
X51229607Y-83901812D01*
X51205583Y-83781033D01*
X51120024Y-83574476D01*
X51054959Y-83477100D01*
X51120024Y-83379724D01*
X51205583Y-83173167D01*
X51249200Y-82953888D01*
X51249200Y-82730312D01*
X51205583Y-82511033D01*
X51120024Y-82304476D01*
X51054959Y-82207100D01*
X51120024Y-82109724D01*
X51205583Y-81903167D01*
X51249200Y-81683888D01*
X51249200Y-81460312D01*
X51205583Y-81241033D01*
X51120024Y-81034476D01*
X51054959Y-80937100D01*
X51120024Y-80839724D01*
X51205583Y-80633167D01*
X51249200Y-80413888D01*
X51249200Y-80190312D01*
X51205583Y-79971033D01*
X51120024Y-79764476D01*
X51056954Y-79670085D01*
X52855100Y-79670085D01*
X52855100Y-79862715D01*
X52892680Y-80051643D01*
X52966396Y-80229610D01*
X53073415Y-80389775D01*
X53209625Y-80525985D01*
X53369790Y-80633004D01*
X53547757Y-80706720D01*
X53736685Y-80744300D01*
X53929315Y-80744300D01*
X54118243Y-80706720D01*
X54296210Y-80633004D01*
X54456375Y-80525985D01*
X54592585Y-80389775D01*
X54699604Y-80229610D01*
X54773320Y-80051643D01*
X54780552Y-80015285D01*
X63309500Y-80015285D01*
X63309500Y-80207915D01*
X63347080Y-80396843D01*
X63420796Y-80574810D01*
X63527815Y-80734975D01*
X63664025Y-80871185D01*
X63824190Y-80978204D01*
X64002157Y-81051920D01*
X64191085Y-81089500D01*
X64383715Y-81089500D01*
X64572643Y-81051920D01*
X64750610Y-80978204D01*
X64910775Y-80871185D01*
X65046985Y-80734975D01*
X65154004Y-80574810D01*
X65227720Y-80396843D01*
X65265300Y-80207915D01*
X65265300Y-80015285D01*
X65227720Y-79826357D01*
X65154004Y-79648390D01*
X65046985Y-79488225D01*
X64910775Y-79352015D01*
X64750610Y-79244996D01*
X64572643Y-79171280D01*
X64383715Y-79133700D01*
X64191085Y-79133700D01*
X64002157Y-79171280D01*
X63824190Y-79244996D01*
X63664025Y-79352015D01*
X63527815Y-79488225D01*
X63420796Y-79648390D01*
X63347080Y-79826357D01*
X63309500Y-80015285D01*
X54780552Y-80015285D01*
X54810900Y-79862715D01*
X54810900Y-79670085D01*
X54773320Y-79481157D01*
X54699604Y-79303190D01*
X54592585Y-79143025D01*
X54456375Y-79006815D01*
X54296210Y-78899796D01*
X54118243Y-78826080D01*
X53929315Y-78788500D01*
X53736685Y-78788500D01*
X53547757Y-78826080D01*
X53369790Y-78899796D01*
X53209625Y-79006815D01*
X53073415Y-79143025D01*
X52966396Y-79303190D01*
X52892680Y-79481157D01*
X52855100Y-79670085D01*
X51056954Y-79670085D01*
X51054959Y-79667100D01*
X51120024Y-79569724D01*
X51205583Y-79363167D01*
X51249200Y-79143888D01*
X51249200Y-78920312D01*
X51205583Y-78701033D01*
X51120024Y-78494476D01*
X51055561Y-78398000D01*
X68844528Y-78398000D01*
X68844528Y-80098000D01*
X68856788Y-80222482D01*
X68893098Y-80342180D01*
X68952063Y-80452494D01*
X69031415Y-80549185D01*
X69128106Y-80628537D01*
X69238420Y-80687502D01*
X69310980Y-80709513D01*
X69179125Y-80841368D01*
X69016610Y-81084589D01*
X68904668Y-81354842D01*
X68847600Y-81641740D01*
X68847600Y-81934260D01*
X68904668Y-82221158D01*
X69016610Y-82491411D01*
X69179125Y-82734632D01*
X69385968Y-82941475D01*
X69560360Y-83058000D01*
X69385968Y-83174525D01*
X69179125Y-83381368D01*
X69016610Y-83624589D01*
X68904668Y-83894842D01*
X68847600Y-84181740D01*
X68847600Y-84474260D01*
X68904668Y-84761158D01*
X69016610Y-85031411D01*
X69179125Y-85274632D01*
X69385968Y-85481475D01*
X69560360Y-85598000D01*
X69385968Y-85714525D01*
X69179125Y-85921368D01*
X69016610Y-86164589D01*
X68904668Y-86434842D01*
X68847600Y-86721740D01*
X68847600Y-87014260D01*
X68904668Y-87301158D01*
X69016610Y-87571411D01*
X69179125Y-87814632D01*
X69385968Y-88021475D01*
X69629189Y-88183990D01*
X69899442Y-88295932D01*
X70186340Y-88353000D01*
X70478860Y-88353000D01*
X70765758Y-88295932D01*
X71036011Y-88183990D01*
X71279232Y-88021475D01*
X71486075Y-87814632D01*
X71648590Y-87571411D01*
X71760532Y-87301158D01*
X71817600Y-87014260D01*
X71817600Y-86721740D01*
X71760532Y-86434842D01*
X71648590Y-86164589D01*
X71486075Y-85921368D01*
X71279232Y-85714525D01*
X71104840Y-85598000D01*
X71279232Y-85481475D01*
X71486075Y-85274632D01*
X71648590Y-85031411D01*
X71760532Y-84761158D01*
X71817600Y-84474260D01*
X71817600Y-84181740D01*
X71760532Y-83894842D01*
X71648590Y-83624589D01*
X71486075Y-83381368D01*
X71279232Y-83174525D01*
X71104840Y-83058000D01*
X71279232Y-82941475D01*
X71486075Y-82734632D01*
X71648590Y-82491411D01*
X71760532Y-82221158D01*
X71817600Y-81934260D01*
X71817600Y-81641740D01*
X71760532Y-81354842D01*
X71648590Y-81084589D01*
X71486075Y-80841368D01*
X71354220Y-80709513D01*
X71426780Y-80687502D01*
X71537094Y-80628537D01*
X71633785Y-80549185D01*
X71713137Y-80452494D01*
X71772102Y-80342180D01*
X71808412Y-80222482D01*
X71820672Y-80098000D01*
X71820672Y-78398000D01*
X71808412Y-78273518D01*
X71772102Y-78153820D01*
X71713137Y-78043506D01*
X71633785Y-77946815D01*
X71537094Y-77867463D01*
X71426780Y-77808498D01*
X71307082Y-77772188D01*
X71182600Y-77759928D01*
X69482600Y-77759928D01*
X69358118Y-77772188D01*
X69238420Y-77808498D01*
X69128106Y-77867463D01*
X69031415Y-77946815D01*
X68952063Y-78043506D01*
X68893098Y-78153820D01*
X68856788Y-78273518D01*
X68844528Y-78398000D01*
X51055561Y-78398000D01*
X50995812Y-78308580D01*
X50837720Y-78150488D01*
X50651824Y-78026276D01*
X50445267Y-77940717D01*
X50225988Y-77897100D01*
X50002412Y-77897100D01*
X49783133Y-77940717D01*
X49671426Y-77986988D01*
X49588380Y-77942598D01*
X49468682Y-77906288D01*
X49344200Y-77894028D01*
X48344200Y-77894028D01*
X48219718Y-77906288D01*
X48100020Y-77942598D01*
X47989706Y-78001563D01*
X47893015Y-78080915D01*
X47813663Y-78177606D01*
X47754698Y-78287920D01*
X47718388Y-78407618D01*
X47706128Y-78532100D01*
X44818207Y-78532100D01*
X44761632Y-78475525D01*
X44518411Y-78313010D01*
X44248158Y-78201068D01*
X43961260Y-78144000D01*
X43668740Y-78144000D01*
X43381842Y-78201068D01*
X43111589Y-78313010D01*
X42868368Y-78475525D01*
X42736513Y-78607380D01*
X42714502Y-78534820D01*
X42655537Y-78424506D01*
X42576185Y-78327815D01*
X42479494Y-78248463D01*
X42369180Y-78189498D01*
X42249482Y-78153188D01*
X42125000Y-78140928D01*
X40425000Y-78140928D01*
X40300518Y-78153188D01*
X40180820Y-78189498D01*
X40070506Y-78248463D01*
X39973815Y-78327815D01*
X39894463Y-78424506D01*
X39835498Y-78534820D01*
X39799188Y-78654518D01*
X39786928Y-78779000D01*
X37235960Y-78779000D01*
X37135875Y-78678915D01*
X36975710Y-78571896D01*
X36797743Y-78498180D01*
X36608815Y-78460600D01*
X36416185Y-78460600D01*
X36227257Y-78498180D01*
X36049290Y-78571896D01*
X35889125Y-78678915D01*
X35752915Y-78815125D01*
X35645896Y-78975290D01*
X35572180Y-79153257D01*
X35534600Y-79342185D01*
X31761743Y-79342185D01*
X31854604Y-79203210D01*
X31928320Y-79025243D01*
X31946060Y-78936060D01*
X32035243Y-78918320D01*
X32213210Y-78844604D01*
X32373375Y-78737585D01*
X32509585Y-78601375D01*
X32616604Y-78441210D01*
X32690320Y-78263243D01*
X32727900Y-78074315D01*
X32727900Y-77881685D01*
X32690320Y-77692757D01*
X32616604Y-77514790D01*
X32509585Y-77354625D01*
X32373375Y-77218415D01*
X32213210Y-77111396D01*
X32035243Y-77037680D01*
X31846315Y-77000100D01*
X31653685Y-77000100D01*
X31464757Y-77037680D01*
X31286790Y-77111396D01*
X31126625Y-77218415D01*
X30990415Y-77354625D01*
X30883396Y-77514790D01*
X30809680Y-77692757D01*
X30791940Y-77781940D01*
X30702757Y-77799680D01*
X30524790Y-77873396D01*
X30364625Y-77980415D01*
X30228415Y-78116625D01*
X30121396Y-78276790D01*
X30047680Y-78454757D01*
X30029940Y-78543940D01*
X29940757Y-78561680D01*
X29762790Y-78635396D01*
X29602625Y-78742415D01*
X29466415Y-78878625D01*
X29359396Y-79038790D01*
X29285680Y-79216757D01*
X29248100Y-79405685D01*
X12623000Y-79405685D01*
X12623000Y-75621085D01*
X55892700Y-75621085D01*
X55892700Y-75813715D01*
X55930280Y-76002643D01*
X56003996Y-76180610D01*
X56038138Y-76231707D01*
X56029396Y-76244790D01*
X55955680Y-76422757D01*
X55918100Y-76611685D01*
X55918100Y-76804315D01*
X55955680Y-76993243D01*
X56029396Y-77171210D01*
X56136415Y-77331375D01*
X56272625Y-77467585D01*
X56432790Y-77574604D01*
X56610757Y-77648320D01*
X56799685Y-77685900D01*
X56869809Y-77685900D01*
X56941596Y-77859210D01*
X57048615Y-78019375D01*
X57184825Y-78155585D01*
X57344990Y-78262604D01*
X57522957Y-78336320D01*
X57711885Y-78373900D01*
X57904515Y-78373900D01*
X58093443Y-78336320D01*
X58271410Y-78262604D01*
X58431575Y-78155585D01*
X58567785Y-78019375D01*
X58674804Y-77859210D01*
X58748520Y-77681243D01*
X58786100Y-77492315D01*
X58786100Y-77299685D01*
X58748520Y-77110757D01*
X58674804Y-76932790D01*
X58567785Y-76772625D01*
X58431575Y-76636415D01*
X58271410Y-76529396D01*
X58093443Y-76455680D01*
X57904515Y-76418100D01*
X57834391Y-76418100D01*
X57762604Y-76244790D01*
X57728462Y-76193693D01*
X57737204Y-76180610D01*
X57810920Y-76002643D01*
X57848500Y-75813715D01*
X57848500Y-75621085D01*
X57810920Y-75432157D01*
X57737204Y-75254190D01*
X57630185Y-75094025D01*
X57493975Y-74957815D01*
X57333810Y-74850796D01*
X57155843Y-74777080D01*
X56966915Y-74739500D01*
X56774285Y-74739500D01*
X56585357Y-74777080D01*
X56407390Y-74850796D01*
X56247225Y-74957815D01*
X56111015Y-75094025D01*
X56003996Y-75254190D01*
X55930280Y-75432157D01*
X55892700Y-75621085D01*
X12623000Y-75621085D01*
X12623000Y-72799509D01*
X22140000Y-72799509D01*
X22140000Y-73840492D01*
X22160764Y-74051309D01*
X22242818Y-74321808D01*
X22376068Y-74571101D01*
X22555393Y-74789608D01*
X22773900Y-74968932D01*
X23023193Y-75102182D01*
X23293692Y-75184236D01*
X23575000Y-75211943D01*
X23856309Y-75184236D01*
X24126808Y-75102182D01*
X24376101Y-74968932D01*
X24594608Y-74789608D01*
X24773932Y-74571101D01*
X24845000Y-74438142D01*
X24916068Y-74571101D01*
X25095393Y-74789608D01*
X25313900Y-74968932D01*
X25563193Y-75102182D01*
X25833692Y-75184236D01*
X26115000Y-75211943D01*
X26396309Y-75184236D01*
X26666808Y-75102182D01*
X26916101Y-74968932D01*
X27134608Y-74789608D01*
X27313932Y-74571101D01*
X27447182Y-74321808D01*
X27529236Y-74051309D01*
X27550000Y-73840491D01*
X27550000Y-73246185D01*
X57759600Y-73246185D01*
X57759600Y-73438815D01*
X57797180Y-73627743D01*
X57870896Y-73805710D01*
X57977915Y-73965875D01*
X58114125Y-74102085D01*
X58274290Y-74209104D01*
X58452257Y-74282820D01*
X58641185Y-74320400D01*
X58833815Y-74320400D01*
X59022743Y-74282820D01*
X59200710Y-74209104D01*
X59360875Y-74102085D01*
X59497085Y-73965875D01*
X59604104Y-73805710D01*
X59677820Y-73627743D01*
X59715400Y-73438815D01*
X59715400Y-73246185D01*
X59677820Y-73057257D01*
X59604104Y-72879290D01*
X59497085Y-72719125D01*
X59360875Y-72582915D01*
X59200710Y-72475896D01*
X59022743Y-72402180D01*
X58833815Y-72364600D01*
X58641185Y-72364600D01*
X58452257Y-72402180D01*
X58274290Y-72475896D01*
X58114125Y-72582915D01*
X57977915Y-72719125D01*
X57870896Y-72879290D01*
X57797180Y-73057257D01*
X57759600Y-73246185D01*
X27550000Y-73246185D01*
X27550000Y-72799508D01*
X27529236Y-72588691D01*
X27447182Y-72318192D01*
X27313932Y-72068899D01*
X27134607Y-71850392D01*
X26916100Y-71671068D01*
X26666807Y-71537818D01*
X26396308Y-71455764D01*
X26115000Y-71428057D01*
X25833691Y-71455764D01*
X25563192Y-71537818D01*
X25313899Y-71671068D01*
X25095392Y-71850393D01*
X24916068Y-72068900D01*
X24845000Y-72201858D01*
X24773932Y-72068899D01*
X24594607Y-71850392D01*
X24376100Y-71671068D01*
X24126807Y-71537818D01*
X23856308Y-71455764D01*
X23575000Y-71428057D01*
X23293691Y-71455764D01*
X23023192Y-71537818D01*
X22773899Y-71671068D01*
X22555392Y-71850393D01*
X22376068Y-72068900D01*
X22242818Y-72318193D01*
X22160764Y-72588692D01*
X22140000Y-72799509D01*
X12623000Y-72799509D01*
X12623000Y-65845374D01*
X13048831Y-65845374D01*
X13349011Y-66283828D01*
X13927956Y-66594296D01*
X14556346Y-66785852D01*
X15210031Y-66851134D01*
X15863893Y-66787634D01*
X16492803Y-66597792D01*
X16915034Y-66372844D01*
X18650000Y-66372844D01*
X18650000Y-70107157D01*
X18684511Y-70457542D01*
X18820888Y-70907116D01*
X19042352Y-71321446D01*
X19340392Y-71684609D01*
X19703555Y-71982649D01*
X20117885Y-72204113D01*
X20567459Y-72340490D01*
X21035000Y-72386539D01*
X21502542Y-72340490D01*
X21952116Y-72204113D01*
X22366446Y-71982649D01*
X22729609Y-71684609D01*
X23027649Y-71321446D01*
X23249113Y-70907116D01*
X23385490Y-70457542D01*
X23420000Y-70107157D01*
X23420000Y-66372844D01*
X28810000Y-66372844D01*
X28810000Y-70107157D01*
X28844511Y-70457542D01*
X28980888Y-70907116D01*
X29202352Y-71321446D01*
X29500392Y-71684609D01*
X29863555Y-71982649D01*
X30277885Y-72204113D01*
X30727459Y-72340490D01*
X31195000Y-72386539D01*
X31662542Y-72340490D01*
X32112116Y-72204113D01*
X32526446Y-71982649D01*
X32889609Y-71684609D01*
X33187649Y-71321446D01*
X33409113Y-70907116D01*
X33512442Y-70566485D01*
X37147500Y-70566485D01*
X37147500Y-70759115D01*
X37185080Y-70948043D01*
X37256307Y-71120000D01*
X37185080Y-71291957D01*
X37147500Y-71480885D01*
X37147500Y-71673515D01*
X37185080Y-71862443D01*
X37258796Y-72040410D01*
X37365815Y-72200575D01*
X37502025Y-72336785D01*
X37662190Y-72443804D01*
X37840157Y-72517520D01*
X38029085Y-72555100D01*
X38221715Y-72555100D01*
X38410643Y-72517520D01*
X38588610Y-72443804D01*
X38660065Y-72396059D01*
X38830657Y-72466720D01*
X39019585Y-72504300D01*
X39212215Y-72504300D01*
X39401143Y-72466720D01*
X39579110Y-72393004D01*
X39739275Y-72285985D01*
X39875485Y-72149775D01*
X39982504Y-71989610D01*
X40056220Y-71811643D01*
X40093800Y-71622715D01*
X40093800Y-71430085D01*
X40056220Y-71241157D01*
X39995514Y-71094600D01*
X40056220Y-70948043D01*
X40093800Y-70759115D01*
X40093800Y-70566485D01*
X42075100Y-70566485D01*
X42075100Y-70759115D01*
X42112680Y-70948043D01*
X42173386Y-71094600D01*
X42112680Y-71241157D01*
X42075100Y-71430085D01*
X42075100Y-71622715D01*
X42112680Y-71811643D01*
X42186396Y-71989610D01*
X42293415Y-72149775D01*
X42429625Y-72285985D01*
X42589790Y-72393004D01*
X42767757Y-72466720D01*
X42956685Y-72504300D01*
X43149315Y-72504300D01*
X43338243Y-72466720D01*
X43516210Y-72393004D01*
X43570379Y-72356810D01*
X43605690Y-72380404D01*
X43783657Y-72454120D01*
X43972585Y-72491700D01*
X44165215Y-72491700D01*
X44354143Y-72454120D01*
X44532110Y-72380404D01*
X44692275Y-72273385D01*
X44828485Y-72137175D01*
X44935504Y-71977010D01*
X45009220Y-71799043D01*
X45046800Y-71610115D01*
X45046800Y-71417485D01*
X45009220Y-71228557D01*
X44943254Y-71069300D01*
X45009220Y-70910043D01*
X45046800Y-70721115D01*
X45046800Y-70528485D01*
X45009220Y-70339557D01*
X44935504Y-70161590D01*
X44828485Y-70001425D01*
X44692275Y-69865215D01*
X44532110Y-69758196D01*
X44354143Y-69684480D01*
X44165215Y-69646900D01*
X43972585Y-69646900D01*
X43783657Y-69684480D01*
X43605690Y-69758196D01*
X43532515Y-69807090D01*
X43516210Y-69796196D01*
X43338243Y-69722480D01*
X43149315Y-69684900D01*
X42956685Y-69684900D01*
X42767757Y-69722480D01*
X42589790Y-69796196D01*
X42429625Y-69903215D01*
X42293415Y-70039425D01*
X42186396Y-70199590D01*
X42112680Y-70377557D01*
X42075100Y-70566485D01*
X40093800Y-70566485D01*
X40056220Y-70377557D01*
X39982504Y-70199590D01*
X39875485Y-70039425D01*
X39739275Y-69903215D01*
X39579110Y-69796196D01*
X39401143Y-69722480D01*
X39212215Y-69684900D01*
X39019585Y-69684900D01*
X38830657Y-69722480D01*
X38652690Y-69796196D01*
X38620650Y-69817604D01*
X38588610Y-69796196D01*
X38410643Y-69722480D01*
X38221715Y-69684900D01*
X38029085Y-69684900D01*
X37840157Y-69722480D01*
X37662190Y-69796196D01*
X37502025Y-69903215D01*
X37365815Y-70039425D01*
X37258796Y-70199590D01*
X37185080Y-70377557D01*
X37147500Y-70566485D01*
X33512442Y-70566485D01*
X33545490Y-70457542D01*
X33580000Y-70107157D01*
X33580000Y-66372843D01*
X33545490Y-66022458D01*
X33409113Y-65572884D01*
X33187649Y-65158554D01*
X32889609Y-64795391D01*
X32526445Y-64497351D01*
X32112115Y-64275887D01*
X31662541Y-64139510D01*
X31195000Y-64093461D01*
X30727458Y-64139510D01*
X30277884Y-64275887D01*
X29863554Y-64497351D01*
X29500391Y-64795391D01*
X29202351Y-65158555D01*
X28980887Y-65572885D01*
X28844510Y-66022459D01*
X28810000Y-66372844D01*
X23420000Y-66372844D01*
X23420000Y-66372843D01*
X23385490Y-66022458D01*
X23249113Y-65572884D01*
X23027649Y-65158554D01*
X22729609Y-64795391D01*
X22366445Y-64497351D01*
X21952115Y-64275887D01*
X21502541Y-64139510D01*
X21035000Y-64093461D01*
X20567458Y-64139510D01*
X20117884Y-64275887D01*
X19703554Y-64497351D01*
X19340391Y-64795391D01*
X19042351Y-65158555D01*
X18820887Y-65572885D01*
X18684510Y-66022459D01*
X18650000Y-66372844D01*
X16915034Y-66372844D01*
X17072592Y-66288904D01*
X17080189Y-66283828D01*
X17380369Y-65845374D01*
X15214600Y-63679605D01*
X13048831Y-65845374D01*
X12623000Y-65845374D01*
X12623000Y-65497195D01*
X12869226Y-65665769D01*
X15034995Y-63500000D01*
X15394205Y-63500000D01*
X17559974Y-65665769D01*
X17998428Y-65365589D01*
X18308896Y-64786644D01*
X18500452Y-64158254D01*
X18565734Y-63504569D01*
X18502234Y-62850707D01*
X18389272Y-62476485D01*
X39713000Y-62476485D01*
X39713000Y-62669115D01*
X39750580Y-62858043D01*
X39824296Y-63036010D01*
X39931315Y-63196175D01*
X40067525Y-63332385D01*
X40227690Y-63439404D01*
X40405657Y-63513120D01*
X40594585Y-63550700D01*
X40787215Y-63550700D01*
X40976143Y-63513120D01*
X41154110Y-63439404D01*
X41314275Y-63332385D01*
X41450485Y-63196175D01*
X41557504Y-63036010D01*
X41631220Y-62858043D01*
X41668800Y-62669115D01*
X41668800Y-62476485D01*
X41652791Y-62396000D01*
X50581928Y-62396000D01*
X50581928Y-64096000D01*
X50594188Y-64220482D01*
X50630498Y-64340180D01*
X50689463Y-64450494D01*
X50768815Y-64547185D01*
X50865506Y-64626537D01*
X50975820Y-64685502D01*
X51048380Y-64707513D01*
X50916525Y-64839368D01*
X50754010Y-65082589D01*
X50642068Y-65352842D01*
X50585000Y-65639740D01*
X50585000Y-65932260D01*
X50642068Y-66219158D01*
X50754010Y-66489411D01*
X50916525Y-66732632D01*
X51123368Y-66939475D01*
X51366589Y-67101990D01*
X51636842Y-67213932D01*
X51923740Y-67271000D01*
X52216260Y-67271000D01*
X52503158Y-67213932D01*
X52773411Y-67101990D01*
X53016632Y-66939475D01*
X53223475Y-66732632D01*
X53385990Y-66489411D01*
X53497932Y-66219158D01*
X53555000Y-65932260D01*
X53555000Y-65639740D01*
X53497932Y-65352842D01*
X53385990Y-65082589D01*
X53245809Y-64872793D01*
X56364000Y-64872793D01*
X56364000Y-65389206D01*
X56381147Y-65563299D01*
X56448906Y-65786673D01*
X56558942Y-65992535D01*
X56707025Y-66172975D01*
X56887464Y-66321058D01*
X57093326Y-66431094D01*
X57316700Y-66498853D01*
X57549000Y-66521733D01*
X57781299Y-66498853D01*
X58004673Y-66431094D01*
X58210535Y-66321058D01*
X58390975Y-66172975D01*
X58539058Y-65992536D01*
X58649094Y-65786674D01*
X58716853Y-65563300D01*
X58734000Y-65389207D01*
X58734000Y-64872794D01*
X58734000Y-64872793D01*
X61204000Y-64872793D01*
X61204000Y-65389206D01*
X61221147Y-65563299D01*
X61288906Y-65786673D01*
X61398942Y-65992535D01*
X61547025Y-66172975D01*
X61727464Y-66321058D01*
X61933326Y-66431094D01*
X62156700Y-66498853D01*
X62389000Y-66521733D01*
X62621299Y-66498853D01*
X62844673Y-66431094D01*
X63050535Y-66321058D01*
X63230975Y-66172975D01*
X63379058Y-65992536D01*
X63457718Y-65845374D01*
X68166831Y-65845374D01*
X68467011Y-66283828D01*
X69045956Y-66594296D01*
X69674346Y-66785852D01*
X70328031Y-66851134D01*
X70981893Y-66787634D01*
X71610803Y-66597792D01*
X72190592Y-66288904D01*
X72198189Y-66283828D01*
X72498369Y-65845374D01*
X70332600Y-63679605D01*
X68166831Y-65845374D01*
X63457718Y-65845374D01*
X63489094Y-65786674D01*
X63556853Y-65563300D01*
X63574000Y-65389207D01*
X63574000Y-64872794D01*
X63556853Y-64698701D01*
X63489094Y-64475327D01*
X63379058Y-64269464D01*
X63230975Y-64089025D01*
X63050536Y-63940942D01*
X62844674Y-63830906D01*
X62621300Y-63763147D01*
X62389000Y-63740267D01*
X62156701Y-63763147D01*
X61933327Y-63830906D01*
X61727465Y-63940942D01*
X61547026Y-64089025D01*
X61398943Y-64269464D01*
X61288906Y-64475326D01*
X61221147Y-64698700D01*
X61204000Y-64872793D01*
X58734000Y-64872793D01*
X58716853Y-64698701D01*
X58649094Y-64475327D01*
X58539058Y-64269464D01*
X58390975Y-64089025D01*
X58210536Y-63940942D01*
X58004674Y-63830906D01*
X57781300Y-63763147D01*
X57549000Y-63740267D01*
X57316701Y-63763147D01*
X57093327Y-63830906D01*
X56887465Y-63940942D01*
X56707026Y-64089025D01*
X56558943Y-64269464D01*
X56448906Y-64475326D01*
X56381147Y-64698700D01*
X56364000Y-64872793D01*
X53245809Y-64872793D01*
X53223475Y-64839368D01*
X53091620Y-64707513D01*
X53164180Y-64685502D01*
X53274494Y-64626537D01*
X53371185Y-64547185D01*
X53450537Y-64450494D01*
X53509502Y-64340180D01*
X53545812Y-64220482D01*
X53558072Y-64096000D01*
X53558072Y-62396000D01*
X53545812Y-62271518D01*
X53509502Y-62151820D01*
X53450537Y-62041506D01*
X53371185Y-61944815D01*
X53274494Y-61865463D01*
X53164180Y-61806498D01*
X53044482Y-61770188D01*
X52920000Y-61757928D01*
X51220000Y-61757928D01*
X51095518Y-61770188D01*
X50975820Y-61806498D01*
X50865506Y-61865463D01*
X50768815Y-61944815D01*
X50689463Y-62041506D01*
X50630498Y-62151820D01*
X50594188Y-62271518D01*
X50581928Y-62396000D01*
X41652791Y-62396000D01*
X41631220Y-62287557D01*
X41557504Y-62109590D01*
X41450485Y-61949425D01*
X41314275Y-61813215D01*
X41154110Y-61706196D01*
X40976143Y-61632480D01*
X40787215Y-61594900D01*
X40594585Y-61594900D01*
X40405657Y-61632480D01*
X40227690Y-61706196D01*
X40067525Y-61813215D01*
X39931315Y-61949425D01*
X39824296Y-62109590D01*
X39750580Y-62287557D01*
X39713000Y-62476485D01*
X18389272Y-62476485D01*
X18312392Y-62221797D01*
X18003504Y-61642008D01*
X17998428Y-61634411D01*
X17559974Y-61334231D01*
X15394205Y-63500000D01*
X15034995Y-63500000D01*
X12869226Y-61334231D01*
X12623000Y-61502805D01*
X12623000Y-60883000D01*
X13234795Y-60883000D01*
X13048831Y-61154626D01*
G37*
X13048831Y-61154626D02*
X15214600Y-63320395D01*
X17380369Y-61154626D01*
X17194405Y-60883000D01*
X56481491Y-60883000D01*
X56308209Y-61025208D01*
X56144505Y-61224682D01*
X56022862Y-61452259D01*
X55947955Y-61699195D01*
X55929000Y-61891649D01*
X55929000Y-62370350D01*
X55947955Y-62562804D01*
X56022862Y-62809740D01*
X56144505Y-63037317D01*
X56308208Y-63236792D01*
X56507682Y-63400495D01*
X56735259Y-63522138D01*
X56982195Y-63597045D01*
X57239000Y-63622338D01*
X57495804Y-63597045D01*
X57742740Y-63522138D01*
X57970317Y-63400495D01*
X58169792Y-63236792D01*
X58333495Y-63037318D01*
X58455138Y-62809741D01*
X58530045Y-62562805D01*
X58549000Y-62370351D01*
X58549000Y-61891650D01*
X58530045Y-61699196D01*
X58455138Y-61452260D01*
X58333495Y-61224682D01*
X58169792Y-61025208D01*
X57996510Y-60883000D01*
X61941491Y-60883000D01*
X61768209Y-61025208D01*
X61604505Y-61224682D01*
X61482862Y-61452259D01*
X61407955Y-61699195D01*
X61389000Y-61891649D01*
X61389000Y-62370350D01*
X61407955Y-62562804D01*
X61482862Y-62809740D01*
X61604505Y-63037317D01*
X61768208Y-63236792D01*
X61967682Y-63400495D01*
X62195259Y-63522138D01*
X62442195Y-63597045D01*
X62699000Y-63622338D01*
X62955804Y-63597045D01*
X63202740Y-63522138D01*
X63252705Y-63495431D01*
X66981466Y-63495431D01*
X67044966Y-64149293D01*
X67234808Y-64778203D01*
X67543696Y-65357992D01*
X67548772Y-65365589D01*
X67987226Y-65665769D01*
X70152995Y-63500000D01*
X67987226Y-61334231D01*
X67548772Y-61634411D01*
X67238304Y-62213356D01*
X67046748Y-62841746D01*
X66981466Y-63495431D01*
X63252705Y-63495431D01*
X63430317Y-63400495D01*
X63629792Y-63236792D01*
X63793495Y-63037318D01*
X63915138Y-62809741D01*
X63990045Y-62562805D01*
X64009000Y-62370351D01*
X64009000Y-61891650D01*
X63990045Y-61699196D01*
X63915138Y-61452260D01*
X63793495Y-61224682D01*
X63629792Y-61025208D01*
X63456510Y-60883000D01*
X68352795Y-60883000D01*
X68166831Y-61154626D01*
X70332600Y-63320395D01*
X72498369Y-61154626D01*
X72312405Y-60883000D01*
X72975000Y-60883000D01*
X72975000Y-61537585D01*
X72677974Y-61334231D01*
X70512205Y-63500000D01*
X72677974Y-65665769D01*
X72975000Y-65462415D01*
X72975001Y-113607585D01*
X72677974Y-113404231D01*
X70512205Y-115570000D01*
X72677974Y-117735769D01*
X72975001Y-117532415D01*
X72975001Y-118187000D01*
X72312405Y-118187000D01*
X72498369Y-117915374D01*
X70332600Y-115749605D01*
X68166831Y-117915374D01*
X68352795Y-118187000D01*
X17219805Y-118187000D01*
X17405769Y-117915374D01*
X15240000Y-115749605D01*
X13074231Y-117915374D01*
X13260195Y-118187000D01*
X12623000Y-118187000D01*
X12623000Y-117549805D01*
X12894626Y-117735769D01*
X15060395Y-115570000D01*
X15419605Y-115570000D01*
X17585374Y-117735769D01*
X18023828Y-117435589D01*
X18334296Y-116856644D01*
X18525852Y-116228254D01*
X18591134Y-115574569D01*
X18590247Y-115565431D01*
X66981466Y-115565431D01*
X67044966Y-116219293D01*
X67234808Y-116848203D01*
X67543696Y-117427992D01*
X67548772Y-117435589D01*
X67987226Y-117735769D01*
X70152995Y-115570000D01*
X67987226Y-113404231D01*
X67548772Y-113704411D01*
X67238304Y-114283356D01*
X67046748Y-114911746D01*
X66981466Y-115565431D01*
X18590247Y-115565431D01*
X18527634Y-114920707D01*
X18337792Y-114291797D01*
X18028904Y-113712008D01*
X18023828Y-113704411D01*
X17585374Y-113404231D01*
X15419605Y-115570000D01*
X15060395Y-115570000D01*
X12894626Y-113404231D01*
X12623000Y-113590195D01*
X12623000Y-113224626D01*
X13074231Y-113224626D01*
X15240000Y-115390395D01*
X17405769Y-113224626D01*
X17105589Y-112786172D01*
X16526644Y-112475704D01*
X15898254Y-112284148D01*
X15406974Y-112235085D01*
X48996700Y-112235085D01*
X48996700Y-112427715D01*
X49034280Y-112616643D01*
X49107996Y-112794610D01*
X49215015Y-112954775D01*
X49351225Y-113090985D01*
X49511390Y-113198004D01*
X49689357Y-113271720D01*
X49878285Y-113309300D01*
X50070915Y-113309300D01*
X50259843Y-113271720D01*
X50437810Y-113198004D01*
X50453403Y-113187585D01*
X60909300Y-113187585D01*
X60909300Y-113380215D01*
X60946880Y-113569143D01*
X61020596Y-113747110D01*
X61127615Y-113907275D01*
X61263825Y-114043485D01*
X61423990Y-114150504D01*
X61601957Y-114224220D01*
X61790885Y-114261800D01*
X61983515Y-114261800D01*
X62172443Y-114224220D01*
X62350410Y-114150504D01*
X62510575Y-114043485D01*
X62646785Y-113907275D01*
X62753804Y-113747110D01*
X62827520Y-113569143D01*
X62865100Y-113380215D01*
X62865100Y-113224626D01*
X68166831Y-113224626D01*
X70332600Y-115390395D01*
X72498369Y-113224626D01*
X72198189Y-112786172D01*
X71619244Y-112475704D01*
X70990854Y-112284148D01*
X70337169Y-112218866D01*
X69683307Y-112282366D01*
X69054397Y-112472208D01*
X68474608Y-112781096D01*
X68467011Y-112786172D01*
X68166831Y-113224626D01*
X62865100Y-113224626D01*
X62865100Y-113187585D01*
X62827520Y-112998657D01*
X62753804Y-112820690D01*
X62646785Y-112660525D01*
X62510575Y-112524315D01*
X62350410Y-112417296D01*
X62172443Y-112343580D01*
X61983515Y-112306000D01*
X61790885Y-112306000D01*
X61601957Y-112343580D01*
X61423990Y-112417296D01*
X61263825Y-112524315D01*
X61127615Y-112660525D01*
X61020596Y-112820690D01*
X60946880Y-112998657D01*
X60909300Y-113187585D01*
X50453403Y-113187585D01*
X50597975Y-113090985D01*
X50734185Y-112954775D01*
X50841204Y-112794610D01*
X50914920Y-112616643D01*
X50952500Y-112427715D01*
X50952500Y-112235085D01*
X50914920Y-112046157D01*
X50841204Y-111868190D01*
X50734185Y-111708025D01*
X50597975Y-111571815D01*
X50437810Y-111464796D01*
X50259843Y-111391080D01*
X50070915Y-111353500D01*
X49878285Y-111353500D01*
X49689357Y-111391080D01*
X49511390Y-111464796D01*
X49351225Y-111571815D01*
X49215015Y-111708025D01*
X49107996Y-111868190D01*
X49034280Y-112046157D01*
X48996700Y-112235085D01*
X15406974Y-112235085D01*
X15244569Y-112218866D01*
X14590707Y-112282366D01*
X13961797Y-112472208D01*
X13382008Y-112781096D01*
X13374411Y-112786172D01*
X13074231Y-113224626D01*
X12623000Y-113224626D01*
X12623000Y-104043685D01*
X21120100Y-104043685D01*
X21120100Y-104236315D01*
X21157680Y-104425243D01*
X21231396Y-104603210D01*
X21338415Y-104763375D01*
X21474625Y-104899585D01*
X21634790Y-105006604D01*
X21812757Y-105080320D01*
X22001685Y-105117900D01*
X22194315Y-105117900D01*
X22383243Y-105080320D01*
X22561210Y-105006604D01*
X22721375Y-104899585D01*
X22857585Y-104763375D01*
X22964604Y-104603210D01*
X23038320Y-104425243D01*
X23075900Y-104236315D01*
X23075900Y-104043685D01*
X23038320Y-103854757D01*
X22964604Y-103676790D01*
X22857585Y-103516625D01*
X22721375Y-103380415D01*
X22561210Y-103273396D01*
X22383243Y-103199680D01*
X22194315Y-103162100D01*
X22001685Y-103162100D01*
X21812757Y-103199680D01*
X21634790Y-103273396D01*
X21474625Y-103380415D01*
X21338415Y-103516625D01*
X21231396Y-103676790D01*
X21157680Y-103854757D01*
X21120100Y-104043685D01*
X12623000Y-104043685D01*
X12623000Y-102147000D01*
X39786928Y-102147000D01*
X39786928Y-103847000D01*
X39799188Y-103971482D01*
X39835498Y-104091180D01*
X39894463Y-104201494D01*
X39973815Y-104298185D01*
X40070506Y-104377537D01*
X40180820Y-104436502D01*
X40253380Y-104458513D01*
X40121525Y-104590368D01*
X39959010Y-104833589D01*
X39847068Y-105103842D01*
X39790000Y-105390740D01*
X39790000Y-105683260D01*
X39847068Y-105970158D01*
X39959010Y-106240411D01*
X40121525Y-106483632D01*
X40328368Y-106690475D01*
X40502760Y-106807000D01*
X40328368Y-106923525D01*
X40121525Y-107130368D01*
X39959010Y-107373589D01*
X39847068Y-107643842D01*
X39790000Y-107930740D01*
X39790000Y-108223260D01*
X39847068Y-108510158D01*
X39959010Y-108780411D01*
X40121525Y-109023632D01*
X40328368Y-109230475D01*
X40502760Y-109347000D01*
X40328368Y-109463525D01*
X40121525Y-109670368D01*
X39959010Y-109913589D01*
X39847068Y-110183842D01*
X39790000Y-110470740D01*
X39790000Y-110763260D01*
X39847068Y-111050158D01*
X39959010Y-111320411D01*
X40121525Y-111563632D01*
X40328368Y-111770475D01*
X40571589Y-111932990D01*
X40841842Y-112044932D01*
X41128740Y-112102000D01*
X41421260Y-112102000D01*
X41708158Y-112044932D01*
X41978411Y-111932990D01*
X42221632Y-111770475D01*
X42428475Y-111563632D01*
X42545000Y-111389240D01*
X42661525Y-111563632D01*
X42868368Y-111770475D01*
X43111589Y-111932990D01*
X43381842Y-112044932D01*
X43668740Y-112102000D01*
X43961260Y-112102000D01*
X44248158Y-112044932D01*
X44518411Y-111932990D01*
X44761632Y-111770475D01*
X44968475Y-111563632D01*
X45130990Y-111320411D01*
X45242932Y-111050158D01*
X45300000Y-110763260D01*
X45300000Y-110470740D01*
X45242932Y-110183842D01*
X45224642Y-110139685D01*
X52425600Y-110139685D01*
X52425600Y-110332315D01*
X52463180Y-110521243D01*
X52536896Y-110699210D01*
X52643915Y-110859375D01*
X52780125Y-110995585D01*
X52870100Y-111055704D01*
X52870100Y-111094315D01*
X52907680Y-111283243D01*
X52981396Y-111461210D01*
X53088415Y-111621375D01*
X53224625Y-111757585D01*
X53384790Y-111864604D01*
X53562757Y-111938320D01*
X53751685Y-111975900D01*
X53944315Y-111975900D01*
X54133243Y-111938320D01*
X54311210Y-111864604D01*
X54471375Y-111757585D01*
X54607585Y-111621375D01*
X54714604Y-111461210D01*
X54788320Y-111283243D01*
X54803588Y-111206485D01*
X63106300Y-111206485D01*
X63106300Y-111399115D01*
X63143880Y-111588043D01*
X63217596Y-111766010D01*
X63324615Y-111926175D01*
X63460825Y-112062385D01*
X63620990Y-112169404D01*
X63798957Y-112243120D01*
X63987885Y-112280700D01*
X64180515Y-112280700D01*
X64369443Y-112243120D01*
X64516000Y-112182414D01*
X64662557Y-112243120D01*
X64851485Y-112280700D01*
X65044115Y-112280700D01*
X65233043Y-112243120D01*
X65411010Y-112169404D01*
X65571175Y-112062385D01*
X65707385Y-111926175D01*
X65814404Y-111766010D01*
X65888120Y-111588043D01*
X65925700Y-111399115D01*
X65925700Y-111206485D01*
X65888120Y-111017557D01*
X65870033Y-110973890D01*
X68891124Y-110973890D01*
X68935775Y-111121099D01*
X69060959Y-111383920D01*
X69235012Y-111617269D01*
X69451245Y-111812178D01*
X69701348Y-111961157D01*
X69975709Y-112058481D01*
X70205600Y-111937814D01*
X70205600Y-110744000D01*
X70459600Y-110744000D01*
X70459600Y-111937814D01*
X70689491Y-112058481D01*
X70963852Y-111961157D01*
X71213955Y-111812178D01*
X71430188Y-111617269D01*
X71604241Y-111383920D01*
X71729425Y-111121099D01*
X71774076Y-110973890D01*
X71652755Y-110744000D01*
X70459600Y-110744000D01*
X70205600Y-110744000D01*
X69012445Y-110744000D01*
X68891124Y-110973890D01*
X65870033Y-110973890D01*
X65814404Y-110839590D01*
X65707385Y-110679425D01*
X65571175Y-110543215D01*
X65411010Y-110436196D01*
X65233043Y-110362480D01*
X65044115Y-110324900D01*
X64851485Y-110324900D01*
X64662557Y-110362480D01*
X64516000Y-110423186D01*
X64369443Y-110362480D01*
X64180515Y-110324900D01*
X63987885Y-110324900D01*
X63798957Y-110362480D01*
X63620990Y-110436196D01*
X63460825Y-110543215D01*
X63324615Y-110679425D01*
X63217596Y-110839590D01*
X63143880Y-111017557D01*
X63106300Y-111206485D01*
X54803588Y-111206485D01*
X54825900Y-111094315D01*
X54825900Y-110901685D01*
X54788320Y-110712757D01*
X54714604Y-110534790D01*
X54607585Y-110374625D01*
X54471375Y-110238415D01*
X54381400Y-110178296D01*
X54381400Y-110139685D01*
X54343820Y-109950757D01*
X54270104Y-109772790D01*
X54163085Y-109612625D01*
X54026875Y-109476415D01*
X53866710Y-109369396D01*
X53688743Y-109295680D01*
X53499815Y-109258100D01*
X53307185Y-109258100D01*
X53118257Y-109295680D01*
X52940290Y-109369396D01*
X52780125Y-109476415D01*
X52643915Y-109612625D01*
X52536896Y-109772790D01*
X52463180Y-109950757D01*
X52425600Y-110139685D01*
X45224642Y-110139685D01*
X45130990Y-109913589D01*
X44968475Y-109670368D01*
X44761632Y-109463525D01*
X44587240Y-109347000D01*
X44761632Y-109230475D01*
X44968475Y-109023632D01*
X45130990Y-108780411D01*
X45242932Y-108510158D01*
X45300000Y-108223260D01*
X45300000Y-107980585D01*
X52463800Y-107980585D01*
X52463800Y-108173215D01*
X52501380Y-108362143D01*
X52575096Y-108540110D01*
X52682115Y-108700275D01*
X52818325Y-108836485D01*
X52978490Y-108943504D01*
X53156457Y-109017220D01*
X53345385Y-109054800D01*
X53538015Y-109054800D01*
X53726943Y-109017220D01*
X53904910Y-108943504D01*
X54065075Y-108836485D01*
X54201285Y-108700275D01*
X54308304Y-108540110D01*
X54352301Y-108433890D01*
X68891124Y-108433890D01*
X68935775Y-108581099D01*
X69060959Y-108843920D01*
X69235012Y-109077269D01*
X69451245Y-109272178D01*
X69576855Y-109347000D01*
X69451245Y-109421822D01*
X69235012Y-109616731D01*
X69060959Y-109850080D01*
X68935775Y-110112901D01*
X68891124Y-110260110D01*
X69012445Y-110490000D01*
X70205600Y-110490000D01*
X70205600Y-108204000D01*
X70459600Y-108204000D01*
X70459600Y-110490000D01*
X71652755Y-110490000D01*
X71774076Y-110260110D01*
X71729425Y-110112901D01*
X71604241Y-109850080D01*
X71430188Y-109616731D01*
X71213955Y-109421822D01*
X71088345Y-109347000D01*
X71213955Y-109272178D01*
X71430188Y-109077269D01*
X71604241Y-108843920D01*
X71729425Y-108581099D01*
X71774076Y-108433890D01*
X71652755Y-108204000D01*
X70459600Y-108204000D01*
X70205600Y-108204000D01*
X69012445Y-108204000D01*
X68891124Y-108433890D01*
X54352301Y-108433890D01*
X54382020Y-108362143D01*
X54419600Y-108173215D01*
X54419600Y-107980585D01*
X54382020Y-107791657D01*
X54308304Y-107613690D01*
X54201285Y-107453525D01*
X54065075Y-107317315D01*
X53904910Y-107210296D01*
X53726943Y-107136580D01*
X53538015Y-107099000D01*
X53345385Y-107099000D01*
X53156457Y-107136580D01*
X52978490Y-107210296D01*
X52818325Y-107317315D01*
X52682115Y-107453525D01*
X52575096Y-107613690D01*
X52501380Y-107791657D01*
X52463800Y-107980585D01*
X45300000Y-107980585D01*
X45300000Y-107930740D01*
X45242932Y-107643842D01*
X45130990Y-107373589D01*
X44968475Y-107130368D01*
X44761632Y-106923525D01*
X44587240Y-106807000D01*
X44761632Y-106690475D01*
X44968475Y-106483632D01*
X45130990Y-106240411D01*
X45242932Y-105970158D01*
X45300000Y-105683260D01*
X45300000Y-105390740D01*
X45244254Y-105110485D01*
X49644300Y-105110485D01*
X49644300Y-105303115D01*
X49681880Y-105492043D01*
X49755596Y-105670010D01*
X49862615Y-105830175D01*
X49998825Y-105966385D01*
X50158990Y-106073404D01*
X50336957Y-106147120D01*
X50525885Y-106184700D01*
X50718515Y-106184700D01*
X50907443Y-106147120D01*
X51085410Y-106073404D01*
X51245575Y-105966385D01*
X51318070Y-105893890D01*
X68891124Y-105893890D01*
X68935775Y-106041099D01*
X69060959Y-106303920D01*
X69235012Y-106537269D01*
X69451245Y-106732178D01*
X69576855Y-106807000D01*
X69451245Y-106881822D01*
X69235012Y-107076731D01*
X69060959Y-107310080D01*
X68935775Y-107572901D01*
X68891124Y-107720110D01*
X69012445Y-107950000D01*
X70205600Y-107950000D01*
X70205600Y-105664000D01*
X70459600Y-105664000D01*
X70459600Y-107950000D01*
X71652755Y-107950000D01*
X71774076Y-107720110D01*
X71729425Y-107572901D01*
X71604241Y-107310080D01*
X71430188Y-107076731D01*
X71213955Y-106881822D01*
X71088345Y-106807000D01*
X71213955Y-106732178D01*
X71430188Y-106537269D01*
X71604241Y-106303920D01*
X71729425Y-106041099D01*
X71774076Y-105893890D01*
X71652755Y-105664000D01*
X70459600Y-105664000D01*
X70205600Y-105664000D01*
X69012445Y-105664000D01*
X68891124Y-105893890D01*
X51318070Y-105893890D01*
X51381785Y-105830175D01*
X51488804Y-105670010D01*
X51562520Y-105492043D01*
X51600100Y-105303115D01*
X51600100Y-105110485D01*
X51562520Y-104921557D01*
X51488804Y-104743590D01*
X51381785Y-104583425D01*
X51245575Y-104447215D01*
X51085410Y-104340196D01*
X50907443Y-104266480D01*
X50718515Y-104228900D01*
X50525885Y-104228900D01*
X50336957Y-104266480D01*
X50158990Y-104340196D01*
X49998825Y-104447215D01*
X49862615Y-104583425D01*
X49755596Y-104743590D01*
X49681880Y-104921557D01*
X49644300Y-105110485D01*
X45244254Y-105110485D01*
X45242932Y-105103842D01*
X45130990Y-104833589D01*
X44968475Y-104590368D01*
X44761632Y-104383525D01*
X44587240Y-104267000D01*
X44761632Y-104150475D01*
X44968475Y-103943632D01*
X45033042Y-103847000D01*
X68844528Y-103847000D01*
X68856788Y-103971482D01*
X68893098Y-104091180D01*
X68952063Y-104201494D01*
X69031415Y-104298185D01*
X69128106Y-104377537D01*
X69238420Y-104436502D01*
X69319066Y-104460966D01*
X69235012Y-104536731D01*
X69060959Y-104770080D01*
X68935775Y-105032901D01*
X68891124Y-105180110D01*
X69012445Y-105410000D01*
X70205600Y-105410000D01*
X70205600Y-103124000D01*
X70459600Y-103124000D01*
X70459600Y-105410000D01*
X71652755Y-105410000D01*
X71774076Y-105180110D01*
X71729425Y-105032901D01*
X71604241Y-104770080D01*
X71430188Y-104536731D01*
X71346134Y-104460966D01*
X71426780Y-104436502D01*
X71537094Y-104377537D01*
X71633785Y-104298185D01*
X71713137Y-104201494D01*
X71772102Y-104091180D01*
X71808412Y-103971482D01*
X71820672Y-103847000D01*
X71817600Y-103282750D01*
X71658850Y-103124000D01*
X70459600Y-103124000D01*
X70205600Y-103124000D01*
X69006350Y-103124000D01*
X68847600Y-103282750D01*
X68844528Y-103847000D01*
X45033042Y-103847000D01*
X45130990Y-103700411D01*
X45242932Y-103430158D01*
X45300000Y-103143260D01*
X45300000Y-102850740D01*
X45242932Y-102563842D01*
X45130990Y-102293589D01*
X44968475Y-102050368D01*
X44761632Y-101843525D01*
X44518411Y-101681010D01*
X44248158Y-101569068D01*
X43961260Y-101512000D01*
X43668740Y-101512000D01*
X43381842Y-101569068D01*
X43111589Y-101681010D01*
X42868368Y-101843525D01*
X42736513Y-101975380D01*
X42714502Y-101902820D01*
X42655537Y-101792506D01*
X42576185Y-101695815D01*
X42479494Y-101616463D01*
X42369180Y-101557498D01*
X42249482Y-101521188D01*
X42125000Y-101508928D01*
X40425000Y-101508928D01*
X40300518Y-101521188D01*
X40180820Y-101557498D01*
X40070506Y-101616463D01*
X39973815Y-101695815D01*
X39894463Y-101792506D01*
X39835498Y-101902820D01*
X39799188Y-102022518D01*
X39786928Y-102147000D01*
X12623000Y-102147000D01*
X12623000Y-98455685D01*
X21120100Y-98455685D01*
X21120100Y-98648315D01*
X21157680Y-98837243D01*
X21231396Y-99015210D01*
X21338415Y-99175375D01*
X21474625Y-99311585D01*
X21634790Y-99418604D01*
X21812757Y-99492320D01*
X22001685Y-99529900D01*
X22194315Y-99529900D01*
X22383243Y-99492320D01*
X22433060Y-99471685D01*
X47790100Y-99471685D01*
X47790100Y-99664315D01*
X47827680Y-99853243D01*
X47901396Y-100031210D01*
X48008415Y-100191375D01*
X48144625Y-100327585D01*
X48304790Y-100434604D01*
X48482757Y-100508320D01*
X48671685Y-100545900D01*
X48864315Y-100545900D01*
X49053243Y-100508320D01*
X49231210Y-100434604D01*
X49276000Y-100404676D01*
X49320790Y-100434604D01*
X49498757Y-100508320D01*
X49687685Y-100545900D01*
X49880315Y-100545900D01*
X50069243Y-100508320D01*
X50247210Y-100434604D01*
X50292000Y-100404676D01*
X50336790Y-100434604D01*
X50514757Y-100508320D01*
X50703685Y-100545900D01*
X50896315Y-100545900D01*
X51085243Y-100508320D01*
X51263210Y-100434604D01*
X51308000Y-100404676D01*
X51352790Y-100434604D01*
X51530757Y-100508320D01*
X51719685Y-100545900D01*
X51912315Y-100545900D01*
X52101243Y-100508320D01*
X52279210Y-100434604D01*
X52439375Y-100327585D01*
X52575585Y-100191375D01*
X52615201Y-100132085D01*
X52946300Y-100132085D01*
X52946300Y-100324715D01*
X52983880Y-100513643D01*
X53057596Y-100691610D01*
X53087524Y-100736400D01*
X53057596Y-100781190D01*
X52983880Y-100959157D01*
X52946300Y-101148085D01*
X52946300Y-101340715D01*
X52983880Y-101529643D01*
X53057596Y-101707610D01*
X53164615Y-101867775D01*
X53300825Y-102003985D01*
X53460990Y-102111004D01*
X53638957Y-102184720D01*
X53827885Y-102222300D01*
X54020515Y-102222300D01*
X54209443Y-102184720D01*
X54387410Y-102111004D01*
X54547575Y-102003985D01*
X54683785Y-101867775D01*
X54740373Y-101783085D01*
X57772300Y-101783085D01*
X57772300Y-101975715D01*
X57809880Y-102164643D01*
X57883596Y-102342610D01*
X57990615Y-102502775D01*
X58126825Y-102638985D01*
X58286990Y-102746004D01*
X58464957Y-102819720D01*
X58653885Y-102857300D01*
X58846515Y-102857300D01*
X59035443Y-102819720D01*
X59213410Y-102746004D01*
X59373575Y-102638985D01*
X59509785Y-102502775D01*
X59616804Y-102342610D01*
X59690520Y-102164643D01*
X59728100Y-101975715D01*
X59728100Y-101808385D01*
X61442700Y-101808385D01*
X61442700Y-102001015D01*
X61480280Y-102189943D01*
X61553996Y-102367910D01*
X61661015Y-102528075D01*
X61797225Y-102664285D01*
X61957390Y-102771304D01*
X62135357Y-102845020D01*
X62324285Y-102882600D01*
X62516915Y-102882600D01*
X62705843Y-102845020D01*
X62883810Y-102771304D01*
X63043975Y-102664285D01*
X63180185Y-102528075D01*
X63287204Y-102367910D01*
X63360920Y-102189943D01*
X63369461Y-102147000D01*
X68844528Y-102147000D01*
X68847600Y-102711250D01*
X69006350Y-102870000D01*
X70205600Y-102870000D01*
X70205600Y-101670750D01*
X70459600Y-101670750D01*
X70459600Y-102870000D01*
X71658850Y-102870000D01*
X71817600Y-102711250D01*
X71820672Y-102147000D01*
X71808412Y-102022518D01*
X71772102Y-101902820D01*
X71713137Y-101792506D01*
X71633785Y-101695815D01*
X71537094Y-101616463D01*
X71426780Y-101557498D01*
X71307082Y-101521188D01*
X71182600Y-101508928D01*
X70618350Y-101512000D01*
X70459600Y-101670750D01*
X70205600Y-101670750D01*
X70046850Y-101512000D01*
X69482600Y-101508928D01*
X69358118Y-101521188D01*
X69238420Y-101557498D01*
X69128106Y-101616463D01*
X69031415Y-101695815D01*
X68952063Y-101792506D01*
X68893098Y-101902820D01*
X68856788Y-102022518D01*
X68844528Y-102147000D01*
X63369461Y-102147000D01*
X63398500Y-102001015D01*
X63398500Y-101808385D01*
X63360920Y-101619457D01*
X63287204Y-101441490D01*
X63180185Y-101281325D01*
X63043975Y-101145115D01*
X62883810Y-101038096D01*
X62705843Y-100964380D01*
X62516915Y-100926800D01*
X62324285Y-100926800D01*
X62135357Y-100964380D01*
X61957390Y-101038096D01*
X61797225Y-101145115D01*
X61661015Y-101281325D01*
X61553996Y-101441490D01*
X61480280Y-101619457D01*
X61442700Y-101808385D01*
X59728100Y-101808385D01*
X59728100Y-101783085D01*
X59690520Y-101594157D01*
X59616804Y-101416190D01*
X59509785Y-101256025D01*
X59373575Y-101119815D01*
X59213410Y-101012796D01*
X59035443Y-100939080D01*
X58846515Y-100901500D01*
X58653885Y-100901500D01*
X58464957Y-100939080D01*
X58286990Y-101012796D01*
X58126825Y-101119815D01*
X57990615Y-101256025D01*
X57883596Y-101416190D01*
X57809880Y-101594157D01*
X57772300Y-101783085D01*
X54740373Y-101783085D01*
X54790804Y-101707610D01*
X54864520Y-101529643D01*
X54902100Y-101340715D01*
X54902100Y-101148085D01*
X54864520Y-100959157D01*
X54790804Y-100781190D01*
X54760876Y-100736400D01*
X54790804Y-100691610D01*
X54817406Y-100627385D01*
X65481200Y-100627385D01*
X65481200Y-100820015D01*
X65518780Y-101008943D01*
X65592496Y-101186910D01*
X65699515Y-101347075D01*
X65835725Y-101483285D01*
X65995890Y-101590304D01*
X66173857Y-101664020D01*
X66362785Y-101701600D01*
X66555415Y-101701600D01*
X66744343Y-101664020D01*
X66922310Y-101590304D01*
X67082475Y-101483285D01*
X67218685Y-101347075D01*
X67325704Y-101186910D01*
X67399420Y-101008943D01*
X67437000Y-100820015D01*
X67437000Y-100627385D01*
X67399420Y-100438457D01*
X67325704Y-100260490D01*
X67218685Y-100100325D01*
X67082475Y-99964115D01*
X66922310Y-99857096D01*
X66744343Y-99783380D01*
X66555415Y-99745800D01*
X66362785Y-99745800D01*
X66173857Y-99783380D01*
X65995890Y-99857096D01*
X65835725Y-99964115D01*
X65699515Y-100100325D01*
X65592496Y-100260490D01*
X65518780Y-100438457D01*
X65481200Y-100627385D01*
X54817406Y-100627385D01*
X54864520Y-100513643D01*
X54902100Y-100324715D01*
X54902100Y-100132085D01*
X54864520Y-99943157D01*
X54790804Y-99765190D01*
X54683785Y-99605025D01*
X54547575Y-99468815D01*
X54387410Y-99361796D01*
X54209443Y-99288080D01*
X54020515Y-99250500D01*
X53827885Y-99250500D01*
X53638957Y-99288080D01*
X53460990Y-99361796D01*
X53300825Y-99468815D01*
X53164615Y-99605025D01*
X53057596Y-99765190D01*
X52983880Y-99943157D01*
X52946300Y-100132085D01*
X52615201Y-100132085D01*
X52682604Y-100031210D01*
X52756320Y-99853243D01*
X52793900Y-99664315D01*
X52793900Y-99471685D01*
X52756320Y-99282757D01*
X52682604Y-99104790D01*
X52575585Y-98944625D01*
X52439375Y-98808415D01*
X52279210Y-98701396D01*
X52101243Y-98627680D01*
X51912315Y-98590100D01*
X51719685Y-98590100D01*
X51530757Y-98627680D01*
X51352790Y-98701396D01*
X51308000Y-98731324D01*
X51263210Y-98701396D01*
X51085243Y-98627680D01*
X50896315Y-98590100D01*
X50703685Y-98590100D01*
X50514757Y-98627680D01*
X50336790Y-98701396D01*
X50292000Y-98731324D01*
X50247210Y-98701396D01*
X50069243Y-98627680D01*
X49880315Y-98590100D01*
X49687685Y-98590100D01*
X49498757Y-98627680D01*
X49320790Y-98701396D01*
X49276000Y-98731324D01*
X49231210Y-98701396D01*
X49053243Y-98627680D01*
X48864315Y-98590100D01*
X48671685Y-98590100D01*
X48482757Y-98627680D01*
X48304790Y-98701396D01*
X48144625Y-98808415D01*
X48008415Y-98944625D01*
X47901396Y-99104790D01*
X47827680Y-99282757D01*
X47790100Y-99471685D01*
X22433060Y-99471685D01*
X22561210Y-99418604D01*
X22721375Y-99311585D01*
X22857585Y-99175375D01*
X22964604Y-99015210D01*
X23038320Y-98837243D01*
X23075900Y-98648315D01*
X23075900Y-98455685D01*
X23038320Y-98266757D01*
X23011367Y-98201685D01*
X58966100Y-98201685D01*
X58966100Y-98394315D01*
X59003680Y-98583243D01*
X59077396Y-98761210D01*
X59184415Y-98921375D01*
X59320625Y-99057585D01*
X59480790Y-99164604D01*
X59658757Y-99238320D01*
X59847685Y-99275900D01*
X60040315Y-99275900D01*
X60229243Y-99238320D01*
X60407210Y-99164604D01*
X60567375Y-99057585D01*
X60703585Y-98921375D01*
X60810604Y-98761210D01*
X60884320Y-98583243D01*
X60921900Y-98394315D01*
X60921900Y-98201685D01*
X60884320Y-98012757D01*
X60810604Y-97834790D01*
X60703585Y-97674625D01*
X60567375Y-97538415D01*
X60407210Y-97431396D01*
X60229243Y-97357680D01*
X60040315Y-97320100D01*
X59847685Y-97320100D01*
X59658757Y-97357680D01*
X59480790Y-97431396D01*
X59320625Y-97538415D01*
X59184415Y-97674625D01*
X59077396Y-97834790D01*
X59003680Y-98012757D01*
X58966100Y-98201685D01*
X23011367Y-98201685D01*
X22964604Y-98088790D01*
X22857585Y-97928625D01*
X22721375Y-97792415D01*
X22561210Y-97685396D01*
X22383243Y-97611680D01*
X22194315Y-97574100D01*
X22001685Y-97574100D01*
X21812757Y-97611680D01*
X21634790Y-97685396D01*
X21474625Y-97792415D01*
X21338415Y-97928625D01*
X21231396Y-98088790D01*
X21157680Y-98266757D01*
X21120100Y-98455685D01*
X12623000Y-98455685D01*
X12623000Y-93972585D01*
X35750500Y-93972585D01*
X35750500Y-94165215D01*
X35788080Y-94354143D01*
X35861796Y-94532110D01*
X35891724Y-94576900D01*
X35861796Y-94621690D01*
X35788080Y-94799657D01*
X35750500Y-94988585D01*
X35750500Y-95181215D01*
X35788080Y-95370143D01*
X35861796Y-95548110D01*
X35968815Y-95708275D01*
X36105025Y-95844485D01*
X36265190Y-95951504D01*
X36443157Y-96025220D01*
X36632085Y-96062800D01*
X36824715Y-96062800D01*
X37013643Y-96025220D01*
X37191610Y-95951504D01*
X37351775Y-95844485D01*
X37487985Y-95708275D01*
X37595004Y-95548110D01*
X37668720Y-95370143D01*
X37706300Y-95181215D01*
X37706300Y-94988585D01*
X37668720Y-94799657D01*
X37595004Y-94621690D01*
X37565076Y-94576900D01*
X37595004Y-94532110D01*
X37668720Y-94354143D01*
X37706300Y-94165215D01*
X37706300Y-93972585D01*
X37668720Y-93783657D01*
X37595004Y-93605690D01*
X37487985Y-93445525D01*
X37351775Y-93309315D01*
X37191610Y-93202296D01*
X37013643Y-93128580D01*
X36824715Y-93091000D01*
X36632085Y-93091000D01*
X36443157Y-93128580D01*
X36265190Y-93202296D01*
X36105025Y-93309315D01*
X35968815Y-93445525D01*
X35861796Y-93605690D01*
X35788080Y-93783657D01*
X35750500Y-93972585D01*
X12623000Y-93972585D01*
X12623000Y-91987000D01*
X39786928Y-91987000D01*
X39786928Y-93687000D01*
X39799188Y-93811482D01*
X39835498Y-93931180D01*
X39894463Y-94041494D01*
X39973815Y-94138185D01*
X40070506Y-94217537D01*
X40180820Y-94276502D01*
X40253380Y-94298513D01*
X40121525Y-94430368D01*
X39959010Y-94673589D01*
X39847068Y-94943842D01*
X39790000Y-95230740D01*
X39790000Y-95523260D01*
X39847068Y-95810158D01*
X39959010Y-96080411D01*
X40121525Y-96323632D01*
X40328368Y-96530475D01*
X40571589Y-96692990D01*
X40841842Y-96804932D01*
X41128740Y-96862000D01*
X41421260Y-96862000D01*
X41708158Y-96804932D01*
X41978411Y-96692990D01*
X42221632Y-96530475D01*
X42428475Y-96323632D01*
X42545000Y-96149240D01*
X42661525Y-96323632D01*
X42868368Y-96530475D01*
X43111589Y-96692990D01*
X43381842Y-96804932D01*
X43668740Y-96862000D01*
X43961260Y-96862000D01*
X44248158Y-96804932D01*
X44518411Y-96692990D01*
X44761632Y-96530475D01*
X44968475Y-96323632D01*
X45130990Y-96080411D01*
X45242932Y-95810158D01*
X45300000Y-95523260D01*
X45300000Y-95230740D01*
X45242932Y-94943842D01*
X45130990Y-94673589D01*
X45033043Y-94527000D01*
X49445128Y-94527000D01*
X49445128Y-96227000D01*
X49457388Y-96351482D01*
X49493698Y-96471180D01*
X49552663Y-96581494D01*
X49632015Y-96678185D01*
X49728706Y-96757537D01*
X49839020Y-96816502D01*
X49958718Y-96852812D01*
X50083200Y-96865072D01*
X51783200Y-96865072D01*
X51907682Y-96852812D01*
X52027380Y-96816502D01*
X52137694Y-96757537D01*
X52234385Y-96678185D01*
X52313737Y-96581494D01*
X52372702Y-96471180D01*
X52394713Y-96398620D01*
X52526568Y-96530475D01*
X52769789Y-96692990D01*
X53040042Y-96804932D01*
X53326940Y-96862000D01*
X53619460Y-96862000D01*
X53906358Y-96804932D01*
X54176611Y-96692990D01*
X54419832Y-96530475D01*
X54626675Y-96323632D01*
X54743200Y-96149240D01*
X54859725Y-96323632D01*
X55066568Y-96530475D01*
X55309789Y-96692990D01*
X55580042Y-96804932D01*
X55866940Y-96862000D01*
X56159460Y-96862000D01*
X56446358Y-96804932D01*
X56716611Y-96692990D01*
X56959832Y-96530475D01*
X57166675Y-96323632D01*
X57283200Y-96149240D01*
X57399725Y-96323632D01*
X57606568Y-96530475D01*
X57849789Y-96692990D01*
X58120042Y-96804932D01*
X58406940Y-96862000D01*
X58699460Y-96862000D01*
X58986358Y-96804932D01*
X59256611Y-96692990D01*
X59499832Y-96530475D01*
X59706675Y-96323632D01*
X59823200Y-96149240D01*
X59939725Y-96323632D01*
X60146568Y-96530475D01*
X60389789Y-96692990D01*
X60660042Y-96804932D01*
X60946940Y-96862000D01*
X61239460Y-96862000D01*
X61526358Y-96804932D01*
X61796611Y-96692990D01*
X62039832Y-96530475D01*
X62246675Y-96323632D01*
X62363200Y-96149240D01*
X62479725Y-96323632D01*
X62686568Y-96530475D01*
X62929789Y-96692990D01*
X63200042Y-96804932D01*
X63486940Y-96862000D01*
X63779460Y-96862000D01*
X64066358Y-96804932D01*
X64336611Y-96692990D01*
X64579832Y-96530475D01*
X64786675Y-96323632D01*
X64903200Y-96149240D01*
X65019725Y-96323632D01*
X65226568Y-96530475D01*
X65469789Y-96692990D01*
X65740042Y-96804932D01*
X66026940Y-96862000D01*
X66319460Y-96862000D01*
X66606358Y-96804932D01*
X66876611Y-96692990D01*
X67119832Y-96530475D01*
X67326675Y-96323632D01*
X67489190Y-96080411D01*
X67601132Y-95810158D01*
X67658200Y-95523260D01*
X67658200Y-95230740D01*
X67601132Y-94943842D01*
X67489190Y-94673589D01*
X67326675Y-94430368D01*
X67119832Y-94223525D01*
X66945440Y-94107000D01*
X67119832Y-93990475D01*
X67326675Y-93783632D01*
X67489190Y-93540411D01*
X67601132Y-93270158D01*
X67658200Y-92983260D01*
X67658200Y-92690740D01*
X67601132Y-92403842D01*
X67489190Y-92133589D01*
X67326675Y-91890368D01*
X67119832Y-91683525D01*
X66876611Y-91521010D01*
X66606358Y-91409068D01*
X66319460Y-91352000D01*
X66026940Y-91352000D01*
X65740042Y-91409068D01*
X65469789Y-91521010D01*
X65226568Y-91683525D01*
X65019725Y-91890368D01*
X64903200Y-92064760D01*
X64786675Y-91890368D01*
X64579832Y-91683525D01*
X64336611Y-91521010D01*
X64066358Y-91409068D01*
X63779460Y-91352000D01*
X63486940Y-91352000D01*
X63200042Y-91409068D01*
X62929789Y-91521010D01*
X62686568Y-91683525D01*
X62479725Y-91890368D01*
X62363200Y-92064760D01*
X62246675Y-91890368D01*
X62039832Y-91683525D01*
X61796611Y-91521010D01*
X61526358Y-91409068D01*
X61239460Y-91352000D01*
X60946940Y-91352000D01*
X60660042Y-91409068D01*
X60389789Y-91521010D01*
X60146568Y-91683525D01*
X59939725Y-91890368D01*
X59823200Y-92064760D01*
X59706675Y-91890368D01*
X59499832Y-91683525D01*
X59256611Y-91521010D01*
X58986358Y-91409068D01*
X58699460Y-91352000D01*
X58406940Y-91352000D01*
X58120042Y-91409068D01*
X57849789Y-91521010D01*
X57606568Y-91683525D01*
X57399725Y-91890368D01*
X57283200Y-92064760D01*
X57166675Y-91890368D01*
X56959832Y-91683525D01*
X56716611Y-91521010D01*
X56446358Y-91409068D01*
X56159460Y-91352000D01*
X55866940Y-91352000D01*
X55580042Y-91409068D01*
X55309789Y-91521010D01*
X55066568Y-91683525D01*
X54859725Y-91890368D01*
X54743200Y-92064760D01*
X54626675Y-91890368D01*
X54419832Y-91683525D01*
X54176611Y-91521010D01*
X53906358Y-91409068D01*
X53619460Y-91352000D01*
X53326940Y-91352000D01*
X53040042Y-91409068D01*
X52769789Y-91521010D01*
X52526568Y-91683525D01*
X52319725Y-91890368D01*
X52203200Y-92064760D01*
X52086675Y-91890368D01*
X51879832Y-91683525D01*
X51636611Y-91521010D01*
X51366358Y-91409068D01*
X51079460Y-91352000D01*
X50786940Y-91352000D01*
X50500042Y-91409068D01*
X50229789Y-91521010D01*
X49986568Y-91683525D01*
X49779725Y-91890368D01*
X49617210Y-92133589D01*
X49505268Y-92403842D01*
X49448200Y-92690740D01*
X49448200Y-92983260D01*
X49505268Y-93270158D01*
X49617210Y-93540411D01*
X49779725Y-93783632D01*
X49911580Y-93915487D01*
X49839020Y-93937498D01*
X49728706Y-93996463D01*
X49632015Y-94075815D01*
X49552663Y-94172506D01*
X49493698Y-94282820D01*
X49457388Y-94402518D01*
X49445128Y-94527000D01*
X45033043Y-94527000D01*
X44968475Y-94430368D01*
X44761632Y-94223525D01*
X44587240Y-94107000D01*
X44761632Y-93990475D01*
X44968475Y-93783632D01*
X45130990Y-93540411D01*
X45242932Y-93270158D01*
X45300000Y-92983260D01*
X45300000Y-92690740D01*
X45242932Y-92403842D01*
X45130990Y-92133589D01*
X44968475Y-91890368D01*
X44761632Y-91683525D01*
X44518411Y-91521010D01*
X44248158Y-91409068D01*
X43961260Y-91352000D01*
X43668740Y-91352000D01*
X43381842Y-91409068D01*
X43111589Y-91521010D01*
X42868368Y-91683525D01*
X42736513Y-91815380D01*
X42714502Y-91742820D01*
X42655537Y-91632506D01*
X42576185Y-91535815D01*
X42479494Y-91456463D01*
X42369180Y-91397498D01*
X42249482Y-91361188D01*
X42125000Y-91348928D01*
X40425000Y-91348928D01*
X40300518Y-91361188D01*
X40180820Y-91397498D01*
X40070506Y-91456463D01*
X39973815Y-91535815D01*
X39894463Y-91632506D01*
X39835498Y-91742820D01*
X39799188Y-91862518D01*
X39786928Y-91987000D01*
X12623000Y-91987000D01*
X12623000Y-88803685D01*
X46774100Y-88803685D01*
X46774100Y-88996315D01*
X46811680Y-89185243D01*
X46885396Y-89363210D01*
X46992415Y-89523375D01*
X47128625Y-89659585D01*
X47288790Y-89766604D01*
X47466757Y-89840320D01*
X47655685Y-89877900D01*
X47848315Y-89877900D01*
X48037243Y-89840320D01*
X48215210Y-89766604D01*
X48260000Y-89736676D01*
X48304790Y-89766604D01*
X48482757Y-89840320D01*
X48671685Y-89877900D01*
X48864315Y-89877900D01*
X49053243Y-89840320D01*
X49231210Y-89766604D01*
X49276000Y-89736676D01*
X49320790Y-89766604D01*
X49498757Y-89840320D01*
X49687685Y-89877900D01*
X49880315Y-89877900D01*
X50069243Y-89840320D01*
X50247210Y-89766604D01*
X50292000Y-89736676D01*
X50336790Y-89766604D01*
X50514757Y-89840320D01*
X50703685Y-89877900D01*
X50896315Y-89877900D01*
X51085243Y-89840320D01*
X51263210Y-89766604D01*
X51423375Y-89659585D01*
X51559585Y-89523375D01*
X51666604Y-89363210D01*
X51740320Y-89185243D01*
X51777900Y-88996315D01*
X51777900Y-88850116D01*
X60998000Y-88850116D01*
X60998000Y-89042746D01*
X61035580Y-89231674D01*
X61109296Y-89409641D01*
X61216315Y-89569806D01*
X61352525Y-89706016D01*
X61512690Y-89813035D01*
X61690657Y-89886751D01*
X61879585Y-89924331D01*
X62072215Y-89924331D01*
X62261143Y-89886751D01*
X62439110Y-89813035D01*
X62599275Y-89706016D01*
X62735485Y-89569806D01*
X62842504Y-89409641D01*
X62916220Y-89231674D01*
X62953800Y-89042746D01*
X62953800Y-88850116D01*
X62916220Y-88661188D01*
X62842504Y-88483221D01*
X62735485Y-88323056D01*
X62599275Y-88186846D01*
X62439110Y-88079827D01*
X62261143Y-88006111D01*
X62072215Y-87968531D01*
X61879585Y-87968531D01*
X61690657Y-88006111D01*
X61512690Y-88079827D01*
X61352525Y-88186846D01*
X61216315Y-88323056D01*
X61109296Y-88483221D01*
X61035580Y-88661188D01*
X60998000Y-88850116D01*
X51777900Y-88850116D01*
X51777900Y-88803685D01*
X51740320Y-88614757D01*
X51666604Y-88436790D01*
X51559585Y-88276625D01*
X51423375Y-88140415D01*
X51263210Y-88033396D01*
X51085243Y-87959680D01*
X50896315Y-87922100D01*
X50703685Y-87922100D01*
X50514757Y-87959680D01*
X50336790Y-88033396D01*
X50292000Y-88063324D01*
X50247210Y-88033396D01*
X50069243Y-87959680D01*
X49880315Y-87922100D01*
X49687685Y-87922100D01*
X49498757Y-87959680D01*
X49320790Y-88033396D01*
X49276000Y-88063324D01*
X49231210Y-88033396D01*
X49053243Y-87959680D01*
X48864315Y-87922100D01*
X48671685Y-87922100D01*
X48482757Y-87959680D01*
X48304790Y-88033396D01*
X48260000Y-88063324D01*
X48215210Y-88033396D01*
X48037243Y-87959680D01*
X47848315Y-87922100D01*
X47655685Y-87922100D01*
X47466757Y-87959680D01*
X47288790Y-88033396D01*
X47128625Y-88140415D01*
X46992415Y-88276625D01*
X46885396Y-88436790D01*
X46811680Y-88614757D01*
X46774100Y-88803685D01*
X12623000Y-88803685D01*
X12623000Y-85002000D01*
X39786928Y-85002000D01*
X39786928Y-86702000D01*
X39799188Y-86826482D01*
X39835498Y-86946180D01*
X39894463Y-87056494D01*
X39973815Y-87153185D01*
X40070506Y-87232537D01*
X40180820Y-87291502D01*
X40300518Y-87327812D01*
X40425000Y-87340072D01*
X42125000Y-87340072D01*
X42249482Y-87327812D01*
X42369180Y-87291502D01*
X42479494Y-87232537D01*
X42576185Y-87153185D01*
X42655537Y-87056494D01*
X42714502Y-86946180D01*
X42736513Y-86873620D01*
X42868368Y-87005475D01*
X43111589Y-87167990D01*
X43381842Y-87279932D01*
X43668740Y-87337000D01*
X43961260Y-87337000D01*
X44248158Y-87279932D01*
X44518411Y-87167990D01*
X44761632Y-87005475D01*
X44968475Y-86798632D01*
X45130990Y-86555411D01*
X45242932Y-86285158D01*
X45300000Y-85998260D01*
X45300000Y-85705740D01*
X45242932Y-85418842D01*
X45130990Y-85148589D01*
X44968475Y-84905368D01*
X44761632Y-84698525D01*
X44518411Y-84536010D01*
X44248158Y-84424068D01*
X44197413Y-84413974D01*
X47750081Y-84413974D01*
X47766754Y-84468964D01*
X47857077Y-84672306D01*
X47985335Y-84854120D01*
X48146599Y-85007418D01*
X48334671Y-85126310D01*
X48542324Y-85206226D01*
X48717200Y-85081229D01*
X48717200Y-84239100D01*
X47876246Y-84239100D01*
X47750081Y-84413974D01*
X44197413Y-84413974D01*
X43961260Y-84367000D01*
X43668740Y-84367000D01*
X43381842Y-84424068D01*
X43111589Y-84536010D01*
X42868368Y-84698525D01*
X42736513Y-84830380D01*
X42714502Y-84757820D01*
X42655537Y-84647506D01*
X42576185Y-84550815D01*
X42479494Y-84471463D01*
X42369180Y-84412498D01*
X42249482Y-84376188D01*
X42125000Y-84363928D01*
X40425000Y-84363928D01*
X40300518Y-84376188D01*
X40180820Y-84412498D01*
X40070506Y-84471463D01*
X39973815Y-84550815D01*
X39894463Y-84647506D01*
X39835498Y-84757820D01*
X39799188Y-84877518D01*
X39786928Y-85002000D01*
X12623000Y-85002000D01*
X12623000Y-79405685D01*
X29248100Y-79405685D01*
X29248100Y-79598315D01*
X29285680Y-79787243D01*
X29359396Y-79965210D01*
X29466415Y-80125375D01*
X29602625Y-80261585D01*
X29762790Y-80368604D01*
X29940757Y-80442320D01*
X30129685Y-80479900D01*
X30322315Y-80479900D01*
X30511243Y-80442320D01*
X30689210Y-80368604D01*
X30849375Y-80261585D01*
X30985585Y-80125375D01*
X31092604Y-79965210D01*
X31166320Y-79787243D01*
X31184060Y-79698060D01*
X31273243Y-79680320D01*
X31451210Y-79606604D01*
X31611375Y-79499585D01*
X31747585Y-79363375D01*
X31761743Y-79342185D01*
X35534600Y-79342185D01*
X35534600Y-79534815D01*
X35572180Y-79723743D01*
X35645896Y-79901710D01*
X35720360Y-80013153D01*
X35658596Y-80105590D01*
X35584880Y-80283557D01*
X35547300Y-80472485D01*
X35547300Y-80665115D01*
X35584880Y-80854043D01*
X35658596Y-81032010D01*
X35765615Y-81192175D01*
X35901825Y-81328385D01*
X36061990Y-81435404D01*
X36239957Y-81509120D01*
X36428885Y-81546700D01*
X36621515Y-81546700D01*
X36810443Y-81509120D01*
X36988410Y-81435404D01*
X37148575Y-81328385D01*
X37284785Y-81192175D01*
X37391804Y-81032010D01*
X37465520Y-80854043D01*
X37503100Y-80665115D01*
X37503100Y-80472485D01*
X37465520Y-80283557D01*
X37391804Y-80105590D01*
X37317340Y-79994147D01*
X37379104Y-79901710D01*
X37452820Y-79723743D01*
X37490400Y-79534815D01*
X37490400Y-79342185D01*
X37452820Y-79153257D01*
X37379104Y-78975290D01*
X37272085Y-78815125D01*
X37235960Y-78779000D01*
X39786928Y-78779000D01*
X39786928Y-80479000D01*
X39799188Y-80603482D01*
X39835498Y-80723180D01*
X39894463Y-80833494D01*
X39973815Y-80930185D01*
X40070506Y-81009537D01*
X40180820Y-81068502D01*
X40300518Y-81104812D01*
X40425000Y-81117072D01*
X42125000Y-81117072D01*
X42249482Y-81104812D01*
X42369180Y-81068502D01*
X42479494Y-81009537D01*
X42576185Y-80930185D01*
X42655537Y-80833494D01*
X42714502Y-80723180D01*
X42736513Y-80650620D01*
X42868368Y-80782475D01*
X43111589Y-80944990D01*
X43381842Y-81056932D01*
X43668740Y-81114000D01*
X43961260Y-81114000D01*
X44248158Y-81056932D01*
X44518411Y-80944990D01*
X44761632Y-80782475D01*
X44940133Y-80603974D01*
X47750081Y-80603974D01*
X47766754Y-80658964D01*
X47857077Y-80862306D01*
X47909839Y-80937100D01*
X47857077Y-81011894D01*
X47766754Y-81215236D01*
X47750081Y-81270226D01*
X47876246Y-81445100D01*
X48717200Y-81445100D01*
X48717200Y-80429100D01*
X47876246Y-80429100D01*
X47750081Y-80603974D01*
X44940133Y-80603974D01*
X44968475Y-80575632D01*
X45130990Y-80332411D01*
X45242932Y-80062158D01*
X45300000Y-79775260D01*
X45300000Y-79482740D01*
X45242932Y-79195842D01*
X45130990Y-78925589D01*
X44968475Y-78682368D01*
X44818207Y-78532100D01*
X47706128Y-78532100D01*
X47706128Y-79532100D01*
X47718388Y-79656582D01*
X47754698Y-79776280D01*
X47802270Y-79865280D01*
X47766754Y-79945236D01*
X47750081Y-80000226D01*
X47876246Y-80175100D01*
X48717200Y-80175100D01*
X48717200Y-80170172D01*
X48971200Y-80170172D01*
X48971200Y-80175100D01*
X48982226Y-80175100D01*
X48979200Y-80190312D01*
X48979200Y-80413888D01*
X48982226Y-80429100D01*
X48971200Y-80429100D01*
X48971200Y-81445100D01*
X48982226Y-81445100D01*
X48979200Y-81460312D01*
X48979200Y-81683888D01*
X48982226Y-81699100D01*
X48971200Y-81699100D01*
X48971200Y-81710126D01*
X48955988Y-81707100D01*
X48732412Y-81707100D01*
X48717200Y-81710126D01*
X48717200Y-81699100D01*
X47876246Y-81699100D01*
X47750081Y-81873974D01*
X47766754Y-81928964D01*
X47857077Y-82132306D01*
X47906553Y-82202442D01*
X47838376Y-82304476D01*
X47752817Y-82511033D01*
X47709200Y-82730312D01*
X47709200Y-82953888D01*
X47752817Y-83173167D01*
X47838376Y-83379724D01*
X47906553Y-83481758D01*
X47857077Y-83551894D01*
X47766754Y-83755236D01*
X47750081Y-83810226D01*
X47876246Y-83985100D01*
X48717200Y-83985100D01*
X48717200Y-83974074D01*
X48732412Y-83977100D01*
X48955988Y-83977100D01*
X48971200Y-83974074D01*
X48971200Y-83985100D01*
X48982226Y-83985100D01*
X48979200Y-84000312D01*
X48979200Y-84223888D01*
X48982226Y-84239100D01*
X48971200Y-84239100D01*
X48971200Y-85081229D01*
X49146076Y-85206226D01*
X49353729Y-85126310D01*
X49474688Y-85049844D01*
X49576576Y-85117924D01*
X49783133Y-85203483D01*
X50002412Y-85247100D01*
X50225988Y-85247100D01*
X50445267Y-85203483D01*
X50651824Y-85117924D01*
X50837720Y-84993712D01*
X50995812Y-84835620D01*
X51120024Y-84649724D01*
X51121291Y-84646665D01*
X51129780Y-84689343D01*
X51203496Y-84867310D01*
X51310515Y-85027475D01*
X51446725Y-85163685D01*
X51606890Y-85270704D01*
X51784857Y-85344420D01*
X51973785Y-85382000D01*
X52166415Y-85382000D01*
X52355343Y-85344420D01*
X52533310Y-85270704D01*
X52693475Y-85163685D01*
X52829685Y-85027475D01*
X52936704Y-84867310D01*
X53010420Y-84689343D01*
X53048000Y-84500415D01*
X53048000Y-84307785D01*
X53010420Y-84118857D01*
X52936704Y-83940890D01*
X52829685Y-83780725D01*
X52693475Y-83644515D01*
X52533310Y-83537496D01*
X52355343Y-83463780D01*
X52166415Y-83426200D01*
X51973785Y-83426200D01*
X51784857Y-83463780D01*
X51606890Y-83537496D01*
X51446725Y-83644515D01*
X51310515Y-83780725D01*
X51229607Y-83901812D01*
X51205583Y-83781033D01*
X51120024Y-83574476D01*
X51054959Y-83477100D01*
X51120024Y-83379724D01*
X51205583Y-83173167D01*
X51249200Y-82953888D01*
X51249200Y-82730312D01*
X51205583Y-82511033D01*
X51120024Y-82304476D01*
X51054959Y-82207100D01*
X51120024Y-82109724D01*
X51205583Y-81903167D01*
X51249200Y-81683888D01*
X51249200Y-81460312D01*
X51205583Y-81241033D01*
X51120024Y-81034476D01*
X51054959Y-80937100D01*
X51120024Y-80839724D01*
X51205583Y-80633167D01*
X51249200Y-80413888D01*
X51249200Y-80190312D01*
X51205583Y-79971033D01*
X51120024Y-79764476D01*
X51056954Y-79670085D01*
X52855100Y-79670085D01*
X52855100Y-79862715D01*
X52892680Y-80051643D01*
X52966396Y-80229610D01*
X53073415Y-80389775D01*
X53209625Y-80525985D01*
X53369790Y-80633004D01*
X53547757Y-80706720D01*
X53736685Y-80744300D01*
X53929315Y-80744300D01*
X54118243Y-80706720D01*
X54296210Y-80633004D01*
X54456375Y-80525985D01*
X54592585Y-80389775D01*
X54699604Y-80229610D01*
X54773320Y-80051643D01*
X54780552Y-80015285D01*
X63309500Y-80015285D01*
X63309500Y-80207915D01*
X63347080Y-80396843D01*
X63420796Y-80574810D01*
X63527815Y-80734975D01*
X63664025Y-80871185D01*
X63824190Y-80978204D01*
X64002157Y-81051920D01*
X64191085Y-81089500D01*
X64383715Y-81089500D01*
X64572643Y-81051920D01*
X64750610Y-80978204D01*
X64910775Y-80871185D01*
X65046985Y-80734975D01*
X65154004Y-80574810D01*
X65227720Y-80396843D01*
X65265300Y-80207915D01*
X65265300Y-80015285D01*
X65227720Y-79826357D01*
X65154004Y-79648390D01*
X65046985Y-79488225D01*
X64910775Y-79352015D01*
X64750610Y-79244996D01*
X64572643Y-79171280D01*
X64383715Y-79133700D01*
X64191085Y-79133700D01*
X64002157Y-79171280D01*
X63824190Y-79244996D01*
X63664025Y-79352015D01*
X63527815Y-79488225D01*
X63420796Y-79648390D01*
X63347080Y-79826357D01*
X63309500Y-80015285D01*
X54780552Y-80015285D01*
X54810900Y-79862715D01*
X54810900Y-79670085D01*
X54773320Y-79481157D01*
X54699604Y-79303190D01*
X54592585Y-79143025D01*
X54456375Y-79006815D01*
X54296210Y-78899796D01*
X54118243Y-78826080D01*
X53929315Y-78788500D01*
X53736685Y-78788500D01*
X53547757Y-78826080D01*
X53369790Y-78899796D01*
X53209625Y-79006815D01*
X53073415Y-79143025D01*
X52966396Y-79303190D01*
X52892680Y-79481157D01*
X52855100Y-79670085D01*
X51056954Y-79670085D01*
X51054959Y-79667100D01*
X51120024Y-79569724D01*
X51205583Y-79363167D01*
X51249200Y-79143888D01*
X51249200Y-78920312D01*
X51205583Y-78701033D01*
X51120024Y-78494476D01*
X51055561Y-78398000D01*
X68844528Y-78398000D01*
X68844528Y-80098000D01*
X68856788Y-80222482D01*
X68893098Y-80342180D01*
X68952063Y-80452494D01*
X69031415Y-80549185D01*
X69128106Y-80628537D01*
X69238420Y-80687502D01*
X69310980Y-80709513D01*
X69179125Y-80841368D01*
X69016610Y-81084589D01*
X68904668Y-81354842D01*
X68847600Y-81641740D01*
X68847600Y-81934260D01*
X68904668Y-82221158D01*
X69016610Y-82491411D01*
X69179125Y-82734632D01*
X69385968Y-82941475D01*
X69560360Y-83058000D01*
X69385968Y-83174525D01*
X69179125Y-83381368D01*
X69016610Y-83624589D01*
X68904668Y-83894842D01*
X68847600Y-84181740D01*
X68847600Y-84474260D01*
X68904668Y-84761158D01*
X69016610Y-85031411D01*
X69179125Y-85274632D01*
X69385968Y-85481475D01*
X69560360Y-85598000D01*
X69385968Y-85714525D01*
X69179125Y-85921368D01*
X69016610Y-86164589D01*
X68904668Y-86434842D01*
X68847600Y-86721740D01*
X68847600Y-87014260D01*
X68904668Y-87301158D01*
X69016610Y-87571411D01*
X69179125Y-87814632D01*
X69385968Y-88021475D01*
X69629189Y-88183990D01*
X69899442Y-88295932D01*
X70186340Y-88353000D01*
X70478860Y-88353000D01*
X70765758Y-88295932D01*
X71036011Y-88183990D01*
X71279232Y-88021475D01*
X71486075Y-87814632D01*
X71648590Y-87571411D01*
X71760532Y-87301158D01*
X71817600Y-87014260D01*
X71817600Y-86721740D01*
X71760532Y-86434842D01*
X71648590Y-86164589D01*
X71486075Y-85921368D01*
X71279232Y-85714525D01*
X71104840Y-85598000D01*
X71279232Y-85481475D01*
X71486075Y-85274632D01*
X71648590Y-85031411D01*
X71760532Y-84761158D01*
X71817600Y-84474260D01*
X71817600Y-84181740D01*
X71760532Y-83894842D01*
X71648590Y-83624589D01*
X71486075Y-83381368D01*
X71279232Y-83174525D01*
X71104840Y-83058000D01*
X71279232Y-82941475D01*
X71486075Y-82734632D01*
X71648590Y-82491411D01*
X71760532Y-82221158D01*
X71817600Y-81934260D01*
X71817600Y-81641740D01*
X71760532Y-81354842D01*
X71648590Y-81084589D01*
X71486075Y-80841368D01*
X71354220Y-80709513D01*
X71426780Y-80687502D01*
X71537094Y-80628537D01*
X71633785Y-80549185D01*
X71713137Y-80452494D01*
X71772102Y-80342180D01*
X71808412Y-80222482D01*
X71820672Y-80098000D01*
X71820672Y-78398000D01*
X71808412Y-78273518D01*
X71772102Y-78153820D01*
X71713137Y-78043506D01*
X71633785Y-77946815D01*
X71537094Y-77867463D01*
X71426780Y-77808498D01*
X71307082Y-77772188D01*
X71182600Y-77759928D01*
X69482600Y-77759928D01*
X69358118Y-77772188D01*
X69238420Y-77808498D01*
X69128106Y-77867463D01*
X69031415Y-77946815D01*
X68952063Y-78043506D01*
X68893098Y-78153820D01*
X68856788Y-78273518D01*
X68844528Y-78398000D01*
X51055561Y-78398000D01*
X50995812Y-78308580D01*
X50837720Y-78150488D01*
X50651824Y-78026276D01*
X50445267Y-77940717D01*
X50225988Y-77897100D01*
X50002412Y-77897100D01*
X49783133Y-77940717D01*
X49671426Y-77986988D01*
X49588380Y-77942598D01*
X49468682Y-77906288D01*
X49344200Y-77894028D01*
X48344200Y-77894028D01*
X48219718Y-77906288D01*
X48100020Y-77942598D01*
X47989706Y-78001563D01*
X47893015Y-78080915D01*
X47813663Y-78177606D01*
X47754698Y-78287920D01*
X47718388Y-78407618D01*
X47706128Y-78532100D01*
X44818207Y-78532100D01*
X44761632Y-78475525D01*
X44518411Y-78313010D01*
X44248158Y-78201068D01*
X43961260Y-78144000D01*
X43668740Y-78144000D01*
X43381842Y-78201068D01*
X43111589Y-78313010D01*
X42868368Y-78475525D01*
X42736513Y-78607380D01*
X42714502Y-78534820D01*
X42655537Y-78424506D01*
X42576185Y-78327815D01*
X42479494Y-78248463D01*
X42369180Y-78189498D01*
X42249482Y-78153188D01*
X42125000Y-78140928D01*
X40425000Y-78140928D01*
X40300518Y-78153188D01*
X40180820Y-78189498D01*
X40070506Y-78248463D01*
X39973815Y-78327815D01*
X39894463Y-78424506D01*
X39835498Y-78534820D01*
X39799188Y-78654518D01*
X39786928Y-78779000D01*
X37235960Y-78779000D01*
X37135875Y-78678915D01*
X36975710Y-78571896D01*
X36797743Y-78498180D01*
X36608815Y-78460600D01*
X36416185Y-78460600D01*
X36227257Y-78498180D01*
X36049290Y-78571896D01*
X35889125Y-78678915D01*
X35752915Y-78815125D01*
X35645896Y-78975290D01*
X35572180Y-79153257D01*
X35534600Y-79342185D01*
X31761743Y-79342185D01*
X31854604Y-79203210D01*
X31928320Y-79025243D01*
X31946060Y-78936060D01*
X32035243Y-78918320D01*
X32213210Y-78844604D01*
X32373375Y-78737585D01*
X32509585Y-78601375D01*
X32616604Y-78441210D01*
X32690320Y-78263243D01*
X32727900Y-78074315D01*
X32727900Y-77881685D01*
X32690320Y-77692757D01*
X32616604Y-77514790D01*
X32509585Y-77354625D01*
X32373375Y-77218415D01*
X32213210Y-77111396D01*
X32035243Y-77037680D01*
X31846315Y-77000100D01*
X31653685Y-77000100D01*
X31464757Y-77037680D01*
X31286790Y-77111396D01*
X31126625Y-77218415D01*
X30990415Y-77354625D01*
X30883396Y-77514790D01*
X30809680Y-77692757D01*
X30791940Y-77781940D01*
X30702757Y-77799680D01*
X30524790Y-77873396D01*
X30364625Y-77980415D01*
X30228415Y-78116625D01*
X30121396Y-78276790D01*
X30047680Y-78454757D01*
X30029940Y-78543940D01*
X29940757Y-78561680D01*
X29762790Y-78635396D01*
X29602625Y-78742415D01*
X29466415Y-78878625D01*
X29359396Y-79038790D01*
X29285680Y-79216757D01*
X29248100Y-79405685D01*
X12623000Y-79405685D01*
X12623000Y-75621085D01*
X55892700Y-75621085D01*
X55892700Y-75813715D01*
X55930280Y-76002643D01*
X56003996Y-76180610D01*
X56038138Y-76231707D01*
X56029396Y-76244790D01*
X55955680Y-76422757D01*
X55918100Y-76611685D01*
X55918100Y-76804315D01*
X55955680Y-76993243D01*
X56029396Y-77171210D01*
X56136415Y-77331375D01*
X56272625Y-77467585D01*
X56432790Y-77574604D01*
X56610757Y-77648320D01*
X56799685Y-77685900D01*
X56869809Y-77685900D01*
X56941596Y-77859210D01*
X57048615Y-78019375D01*
X57184825Y-78155585D01*
X57344990Y-78262604D01*
X57522957Y-78336320D01*
X57711885Y-78373900D01*
X57904515Y-78373900D01*
X58093443Y-78336320D01*
X58271410Y-78262604D01*
X58431575Y-78155585D01*
X58567785Y-78019375D01*
X58674804Y-77859210D01*
X58748520Y-77681243D01*
X58786100Y-77492315D01*
X58786100Y-77299685D01*
X58748520Y-77110757D01*
X58674804Y-76932790D01*
X58567785Y-76772625D01*
X58431575Y-76636415D01*
X58271410Y-76529396D01*
X58093443Y-76455680D01*
X57904515Y-76418100D01*
X57834391Y-76418100D01*
X57762604Y-76244790D01*
X57728462Y-76193693D01*
X57737204Y-76180610D01*
X57810920Y-76002643D01*
X57848500Y-75813715D01*
X57848500Y-75621085D01*
X57810920Y-75432157D01*
X57737204Y-75254190D01*
X57630185Y-75094025D01*
X57493975Y-74957815D01*
X57333810Y-74850796D01*
X57155843Y-74777080D01*
X56966915Y-74739500D01*
X56774285Y-74739500D01*
X56585357Y-74777080D01*
X56407390Y-74850796D01*
X56247225Y-74957815D01*
X56111015Y-75094025D01*
X56003996Y-75254190D01*
X55930280Y-75432157D01*
X55892700Y-75621085D01*
X12623000Y-75621085D01*
X12623000Y-72799509D01*
X22140000Y-72799509D01*
X22140000Y-73840492D01*
X22160764Y-74051309D01*
X22242818Y-74321808D01*
X22376068Y-74571101D01*
X22555393Y-74789608D01*
X22773900Y-74968932D01*
X23023193Y-75102182D01*
X23293692Y-75184236D01*
X23575000Y-75211943D01*
X23856309Y-75184236D01*
X24126808Y-75102182D01*
X24376101Y-74968932D01*
X24594608Y-74789608D01*
X24773932Y-74571101D01*
X24845000Y-74438142D01*
X24916068Y-74571101D01*
X25095393Y-74789608D01*
X25313900Y-74968932D01*
X25563193Y-75102182D01*
X25833692Y-75184236D01*
X26115000Y-75211943D01*
X26396309Y-75184236D01*
X26666808Y-75102182D01*
X26916101Y-74968932D01*
X27134608Y-74789608D01*
X27313932Y-74571101D01*
X27447182Y-74321808D01*
X27529236Y-74051309D01*
X27550000Y-73840491D01*
X27550000Y-73246185D01*
X57759600Y-73246185D01*
X57759600Y-73438815D01*
X57797180Y-73627743D01*
X57870896Y-73805710D01*
X57977915Y-73965875D01*
X58114125Y-74102085D01*
X58274290Y-74209104D01*
X58452257Y-74282820D01*
X58641185Y-74320400D01*
X58833815Y-74320400D01*
X59022743Y-74282820D01*
X59200710Y-74209104D01*
X59360875Y-74102085D01*
X59497085Y-73965875D01*
X59604104Y-73805710D01*
X59677820Y-73627743D01*
X59715400Y-73438815D01*
X59715400Y-73246185D01*
X59677820Y-73057257D01*
X59604104Y-72879290D01*
X59497085Y-72719125D01*
X59360875Y-72582915D01*
X59200710Y-72475896D01*
X59022743Y-72402180D01*
X58833815Y-72364600D01*
X58641185Y-72364600D01*
X58452257Y-72402180D01*
X58274290Y-72475896D01*
X58114125Y-72582915D01*
X57977915Y-72719125D01*
X57870896Y-72879290D01*
X57797180Y-73057257D01*
X57759600Y-73246185D01*
X27550000Y-73246185D01*
X27550000Y-72799508D01*
X27529236Y-72588691D01*
X27447182Y-72318192D01*
X27313932Y-72068899D01*
X27134607Y-71850392D01*
X26916100Y-71671068D01*
X26666807Y-71537818D01*
X26396308Y-71455764D01*
X26115000Y-71428057D01*
X25833691Y-71455764D01*
X25563192Y-71537818D01*
X25313899Y-71671068D01*
X25095392Y-71850393D01*
X24916068Y-72068900D01*
X24845000Y-72201858D01*
X24773932Y-72068899D01*
X24594607Y-71850392D01*
X24376100Y-71671068D01*
X24126807Y-71537818D01*
X23856308Y-71455764D01*
X23575000Y-71428057D01*
X23293691Y-71455764D01*
X23023192Y-71537818D01*
X22773899Y-71671068D01*
X22555392Y-71850393D01*
X22376068Y-72068900D01*
X22242818Y-72318193D01*
X22160764Y-72588692D01*
X22140000Y-72799509D01*
X12623000Y-72799509D01*
X12623000Y-65845374D01*
X13048831Y-65845374D01*
X13349011Y-66283828D01*
X13927956Y-66594296D01*
X14556346Y-66785852D01*
X15210031Y-66851134D01*
X15863893Y-66787634D01*
X16492803Y-66597792D01*
X16915034Y-66372844D01*
X18650000Y-66372844D01*
X18650000Y-70107157D01*
X18684511Y-70457542D01*
X18820888Y-70907116D01*
X19042352Y-71321446D01*
X19340392Y-71684609D01*
X19703555Y-71982649D01*
X20117885Y-72204113D01*
X20567459Y-72340490D01*
X21035000Y-72386539D01*
X21502542Y-72340490D01*
X21952116Y-72204113D01*
X22366446Y-71982649D01*
X22729609Y-71684609D01*
X23027649Y-71321446D01*
X23249113Y-70907116D01*
X23385490Y-70457542D01*
X23420000Y-70107157D01*
X23420000Y-66372844D01*
X28810000Y-66372844D01*
X28810000Y-70107157D01*
X28844511Y-70457542D01*
X28980888Y-70907116D01*
X29202352Y-71321446D01*
X29500392Y-71684609D01*
X29863555Y-71982649D01*
X30277885Y-72204113D01*
X30727459Y-72340490D01*
X31195000Y-72386539D01*
X31662542Y-72340490D01*
X32112116Y-72204113D01*
X32526446Y-71982649D01*
X32889609Y-71684609D01*
X33187649Y-71321446D01*
X33409113Y-70907116D01*
X33512442Y-70566485D01*
X37147500Y-70566485D01*
X37147500Y-70759115D01*
X37185080Y-70948043D01*
X37256307Y-71120000D01*
X37185080Y-71291957D01*
X37147500Y-71480885D01*
X37147500Y-71673515D01*
X37185080Y-71862443D01*
X37258796Y-72040410D01*
X37365815Y-72200575D01*
X37502025Y-72336785D01*
X37662190Y-72443804D01*
X37840157Y-72517520D01*
X38029085Y-72555100D01*
X38221715Y-72555100D01*
X38410643Y-72517520D01*
X38588610Y-72443804D01*
X38660065Y-72396059D01*
X38830657Y-72466720D01*
X39019585Y-72504300D01*
X39212215Y-72504300D01*
X39401143Y-72466720D01*
X39579110Y-72393004D01*
X39739275Y-72285985D01*
X39875485Y-72149775D01*
X39982504Y-71989610D01*
X40056220Y-71811643D01*
X40093800Y-71622715D01*
X40093800Y-71430085D01*
X40056220Y-71241157D01*
X39995514Y-71094600D01*
X40056220Y-70948043D01*
X40093800Y-70759115D01*
X40093800Y-70566485D01*
X42075100Y-70566485D01*
X42075100Y-70759115D01*
X42112680Y-70948043D01*
X42173386Y-71094600D01*
X42112680Y-71241157D01*
X42075100Y-71430085D01*
X42075100Y-71622715D01*
X42112680Y-71811643D01*
X42186396Y-71989610D01*
X42293415Y-72149775D01*
X42429625Y-72285985D01*
X42589790Y-72393004D01*
X42767757Y-72466720D01*
X42956685Y-72504300D01*
X43149315Y-72504300D01*
X43338243Y-72466720D01*
X43516210Y-72393004D01*
X43570379Y-72356810D01*
X43605690Y-72380404D01*
X43783657Y-72454120D01*
X43972585Y-72491700D01*
X44165215Y-72491700D01*
X44354143Y-72454120D01*
X44532110Y-72380404D01*
X44692275Y-72273385D01*
X44828485Y-72137175D01*
X44935504Y-71977010D01*
X45009220Y-71799043D01*
X45046800Y-71610115D01*
X45046800Y-71417485D01*
X45009220Y-71228557D01*
X44943254Y-71069300D01*
X45009220Y-70910043D01*
X45046800Y-70721115D01*
X45046800Y-70528485D01*
X45009220Y-70339557D01*
X44935504Y-70161590D01*
X44828485Y-70001425D01*
X44692275Y-69865215D01*
X44532110Y-69758196D01*
X44354143Y-69684480D01*
X44165215Y-69646900D01*
X43972585Y-69646900D01*
X43783657Y-69684480D01*
X43605690Y-69758196D01*
X43532515Y-69807090D01*
X43516210Y-69796196D01*
X43338243Y-69722480D01*
X43149315Y-69684900D01*
X42956685Y-69684900D01*
X42767757Y-69722480D01*
X42589790Y-69796196D01*
X42429625Y-69903215D01*
X42293415Y-70039425D01*
X42186396Y-70199590D01*
X42112680Y-70377557D01*
X42075100Y-70566485D01*
X40093800Y-70566485D01*
X40056220Y-70377557D01*
X39982504Y-70199590D01*
X39875485Y-70039425D01*
X39739275Y-69903215D01*
X39579110Y-69796196D01*
X39401143Y-69722480D01*
X39212215Y-69684900D01*
X39019585Y-69684900D01*
X38830657Y-69722480D01*
X38652690Y-69796196D01*
X38620650Y-69817604D01*
X38588610Y-69796196D01*
X38410643Y-69722480D01*
X38221715Y-69684900D01*
X38029085Y-69684900D01*
X37840157Y-69722480D01*
X37662190Y-69796196D01*
X37502025Y-69903215D01*
X37365815Y-70039425D01*
X37258796Y-70199590D01*
X37185080Y-70377557D01*
X37147500Y-70566485D01*
X33512442Y-70566485D01*
X33545490Y-70457542D01*
X33580000Y-70107157D01*
X33580000Y-66372843D01*
X33545490Y-66022458D01*
X33409113Y-65572884D01*
X33187649Y-65158554D01*
X32889609Y-64795391D01*
X32526445Y-64497351D01*
X32112115Y-64275887D01*
X31662541Y-64139510D01*
X31195000Y-64093461D01*
X30727458Y-64139510D01*
X30277884Y-64275887D01*
X29863554Y-64497351D01*
X29500391Y-64795391D01*
X29202351Y-65158555D01*
X28980887Y-65572885D01*
X28844510Y-66022459D01*
X28810000Y-66372844D01*
X23420000Y-66372844D01*
X23420000Y-66372843D01*
X23385490Y-66022458D01*
X23249113Y-65572884D01*
X23027649Y-65158554D01*
X22729609Y-64795391D01*
X22366445Y-64497351D01*
X21952115Y-64275887D01*
X21502541Y-64139510D01*
X21035000Y-64093461D01*
X20567458Y-64139510D01*
X20117884Y-64275887D01*
X19703554Y-64497351D01*
X19340391Y-64795391D01*
X19042351Y-65158555D01*
X18820887Y-65572885D01*
X18684510Y-66022459D01*
X18650000Y-66372844D01*
X16915034Y-66372844D01*
X17072592Y-66288904D01*
X17080189Y-66283828D01*
X17380369Y-65845374D01*
X15214600Y-63679605D01*
X13048831Y-65845374D01*
X12623000Y-65845374D01*
X12623000Y-65497195D01*
X12869226Y-65665769D01*
X15034995Y-63500000D01*
X15394205Y-63500000D01*
X17559974Y-65665769D01*
X17998428Y-65365589D01*
X18308896Y-64786644D01*
X18500452Y-64158254D01*
X18565734Y-63504569D01*
X18502234Y-62850707D01*
X18389272Y-62476485D01*
X39713000Y-62476485D01*
X39713000Y-62669115D01*
X39750580Y-62858043D01*
X39824296Y-63036010D01*
X39931315Y-63196175D01*
X40067525Y-63332385D01*
X40227690Y-63439404D01*
X40405657Y-63513120D01*
X40594585Y-63550700D01*
X40787215Y-63550700D01*
X40976143Y-63513120D01*
X41154110Y-63439404D01*
X41314275Y-63332385D01*
X41450485Y-63196175D01*
X41557504Y-63036010D01*
X41631220Y-62858043D01*
X41668800Y-62669115D01*
X41668800Y-62476485D01*
X41652791Y-62396000D01*
X50581928Y-62396000D01*
X50581928Y-64096000D01*
X50594188Y-64220482D01*
X50630498Y-64340180D01*
X50689463Y-64450494D01*
X50768815Y-64547185D01*
X50865506Y-64626537D01*
X50975820Y-64685502D01*
X51048380Y-64707513D01*
X50916525Y-64839368D01*
X50754010Y-65082589D01*
X50642068Y-65352842D01*
X50585000Y-65639740D01*
X50585000Y-65932260D01*
X50642068Y-66219158D01*
X50754010Y-66489411D01*
X50916525Y-66732632D01*
X51123368Y-66939475D01*
X51366589Y-67101990D01*
X51636842Y-67213932D01*
X51923740Y-67271000D01*
X52216260Y-67271000D01*
X52503158Y-67213932D01*
X52773411Y-67101990D01*
X53016632Y-66939475D01*
X53223475Y-66732632D01*
X53385990Y-66489411D01*
X53497932Y-66219158D01*
X53555000Y-65932260D01*
X53555000Y-65639740D01*
X53497932Y-65352842D01*
X53385990Y-65082589D01*
X53245809Y-64872793D01*
X56364000Y-64872793D01*
X56364000Y-65389206D01*
X56381147Y-65563299D01*
X56448906Y-65786673D01*
X56558942Y-65992535D01*
X56707025Y-66172975D01*
X56887464Y-66321058D01*
X57093326Y-66431094D01*
X57316700Y-66498853D01*
X57549000Y-66521733D01*
X57781299Y-66498853D01*
X58004673Y-66431094D01*
X58210535Y-66321058D01*
X58390975Y-66172975D01*
X58539058Y-65992536D01*
X58649094Y-65786674D01*
X58716853Y-65563300D01*
X58734000Y-65389207D01*
X58734000Y-64872794D01*
X58734000Y-64872793D01*
X61204000Y-64872793D01*
X61204000Y-65389206D01*
X61221147Y-65563299D01*
X61288906Y-65786673D01*
X61398942Y-65992535D01*
X61547025Y-66172975D01*
X61727464Y-66321058D01*
X61933326Y-66431094D01*
X62156700Y-66498853D01*
X62389000Y-66521733D01*
X62621299Y-66498853D01*
X62844673Y-66431094D01*
X63050535Y-66321058D01*
X63230975Y-66172975D01*
X63379058Y-65992536D01*
X63457718Y-65845374D01*
X68166831Y-65845374D01*
X68467011Y-66283828D01*
X69045956Y-66594296D01*
X69674346Y-66785852D01*
X70328031Y-66851134D01*
X70981893Y-66787634D01*
X71610803Y-66597792D01*
X72190592Y-66288904D01*
X72198189Y-66283828D01*
X72498369Y-65845374D01*
X70332600Y-63679605D01*
X68166831Y-65845374D01*
X63457718Y-65845374D01*
X63489094Y-65786674D01*
X63556853Y-65563300D01*
X63574000Y-65389207D01*
X63574000Y-64872794D01*
X63556853Y-64698701D01*
X63489094Y-64475327D01*
X63379058Y-64269464D01*
X63230975Y-64089025D01*
X63050536Y-63940942D01*
X62844674Y-63830906D01*
X62621300Y-63763147D01*
X62389000Y-63740267D01*
X62156701Y-63763147D01*
X61933327Y-63830906D01*
X61727465Y-63940942D01*
X61547026Y-64089025D01*
X61398943Y-64269464D01*
X61288906Y-64475326D01*
X61221147Y-64698700D01*
X61204000Y-64872793D01*
X58734000Y-64872793D01*
X58716853Y-64698701D01*
X58649094Y-64475327D01*
X58539058Y-64269464D01*
X58390975Y-64089025D01*
X58210536Y-63940942D01*
X58004674Y-63830906D01*
X57781300Y-63763147D01*
X57549000Y-63740267D01*
X57316701Y-63763147D01*
X57093327Y-63830906D01*
X56887465Y-63940942D01*
X56707026Y-64089025D01*
X56558943Y-64269464D01*
X56448906Y-64475326D01*
X56381147Y-64698700D01*
X56364000Y-64872793D01*
X53245809Y-64872793D01*
X53223475Y-64839368D01*
X53091620Y-64707513D01*
X53164180Y-64685502D01*
X53274494Y-64626537D01*
X53371185Y-64547185D01*
X53450537Y-64450494D01*
X53509502Y-64340180D01*
X53545812Y-64220482D01*
X53558072Y-64096000D01*
X53558072Y-62396000D01*
X53545812Y-62271518D01*
X53509502Y-62151820D01*
X53450537Y-62041506D01*
X53371185Y-61944815D01*
X53274494Y-61865463D01*
X53164180Y-61806498D01*
X53044482Y-61770188D01*
X52920000Y-61757928D01*
X51220000Y-61757928D01*
X51095518Y-61770188D01*
X50975820Y-61806498D01*
X50865506Y-61865463D01*
X50768815Y-61944815D01*
X50689463Y-62041506D01*
X50630498Y-62151820D01*
X50594188Y-62271518D01*
X50581928Y-62396000D01*
X41652791Y-62396000D01*
X41631220Y-62287557D01*
X41557504Y-62109590D01*
X41450485Y-61949425D01*
X41314275Y-61813215D01*
X41154110Y-61706196D01*
X40976143Y-61632480D01*
X40787215Y-61594900D01*
X40594585Y-61594900D01*
X40405657Y-61632480D01*
X40227690Y-61706196D01*
X40067525Y-61813215D01*
X39931315Y-61949425D01*
X39824296Y-62109590D01*
X39750580Y-62287557D01*
X39713000Y-62476485D01*
X18389272Y-62476485D01*
X18312392Y-62221797D01*
X18003504Y-61642008D01*
X17998428Y-61634411D01*
X17559974Y-61334231D01*
X15394205Y-63500000D01*
X15034995Y-63500000D01*
X12869226Y-61334231D01*
X12623000Y-61502805D01*
X12623000Y-60883000D01*
X13234795Y-60883000D01*
X13048831Y-61154626D01*
M02*
