G04 #@! TF.GenerationSoftware,KiCad,Pcbnew,5.1.6*
G04 #@! TF.CreationDate,2020-09-03T22:14:07-05:00*
G04 #@! TF.ProjectId,pcb,7063622e-6b69-4636-9164-5f7063625858,rev?*
G04 #@! TF.SameCoordinates,Original*
G04 #@! TF.FileFunction,Paste,Top*
G04 #@! TF.FilePolarity,Positive*
%FSLAX46Y46*%
G04 Gerber Fmt 4.6, Leading zero omitted, Abs format (unit mm)*
G04 Created by KiCad (PCBNEW 5.1.6) date 2020-09-03 22:14:07*
%MOMM*%
%LPD*%
G01*
G04 APERTURE LIST*
%ADD10R,0.900000X1.000000*%
%ADD11R,1.430000X2.500000*%
%ADD12R,0.400000X1.650000*%
%ADD13R,2.000000X1.500000*%
%ADD14R,1.825000X0.700000*%
%ADD15R,1.350000X2.000000*%
%ADD16R,0.650000X1.060000*%
%ADD17R,0.650000X0.400000*%
%ADD18R,1.060000X0.650000*%
%ADD19R,1.524000X1.016000*%
G04 APERTURE END LIST*
G36*
G01*
X51089850Y-113468900D02*
X51602350Y-113468900D01*
G75*
G02*
X51821100Y-113687650I0J-218750D01*
G01*
X51821100Y-114125150D01*
G75*
G02*
X51602350Y-114343900I-218750J0D01*
G01*
X51089850Y-114343900D01*
G75*
G02*
X50871100Y-114125150I0J218750D01*
G01*
X50871100Y-113687650D01*
G75*
G02*
X51089850Y-113468900I218750J0D01*
G01*
G37*
G36*
G01*
X51089850Y-111893900D02*
X51602350Y-111893900D01*
G75*
G02*
X51821100Y-112112650I0J-218750D01*
G01*
X51821100Y-112550150D01*
G75*
G02*
X51602350Y-112768900I-218750J0D01*
G01*
X51089850Y-112768900D01*
G75*
G02*
X50871100Y-112550150I0J218750D01*
G01*
X50871100Y-112112650D01*
G75*
G02*
X51089850Y-111893900I218750J0D01*
G01*
G37*
D10*
X55117614Y-114279754D03*
X55117614Y-112379754D03*
X53017614Y-112379754D03*
X53017614Y-114279754D03*
D11*
X59009000Y-61861000D03*
X60929000Y-61861000D03*
D12*
X58669000Y-65011000D03*
X59319000Y-65011000D03*
X59969000Y-65011000D03*
X60619000Y-65011000D03*
X61269000Y-65011000D03*
D13*
X57069000Y-65131000D03*
X62819000Y-65111000D03*
D14*
X56969000Y-63811000D03*
X62919000Y-63811000D03*
D15*
X62699000Y-63061000D03*
X57219000Y-63061000D03*
G36*
G01*
X51034200Y-109979750D02*
X51034200Y-110492250D01*
G75*
G02*
X50815450Y-110711000I-218750J0D01*
G01*
X50377950Y-110711000D01*
G75*
G02*
X50159200Y-110492250I0J218750D01*
G01*
X50159200Y-109979750D01*
G75*
G02*
X50377950Y-109761000I218750J0D01*
G01*
X50815450Y-109761000D01*
G75*
G02*
X51034200Y-109979750I0J-218750D01*
G01*
G37*
G36*
G01*
X52609200Y-109979750D02*
X52609200Y-110492250D01*
G75*
G02*
X52390450Y-110711000I-218750J0D01*
G01*
X51952950Y-110711000D01*
G75*
G02*
X51734200Y-110492250I0J218750D01*
G01*
X51734200Y-109979750D01*
G75*
G02*
X51952950Y-109761000I218750J0D01*
G01*
X52390450Y-109761000D01*
G75*
G02*
X52609200Y-109979750I0J-218750D01*
G01*
G37*
G36*
G01*
X52304200Y-106626950D02*
X52304200Y-107139450D01*
G75*
G02*
X52085450Y-107358200I-218750J0D01*
G01*
X51647950Y-107358200D01*
G75*
G02*
X51429200Y-107139450I0J218750D01*
G01*
X51429200Y-106626950D01*
G75*
G02*
X51647950Y-106408200I218750J0D01*
G01*
X52085450Y-106408200D01*
G75*
G02*
X52304200Y-106626950I0J-218750D01*
G01*
G37*
G36*
G01*
X53879200Y-106626950D02*
X53879200Y-107139450D01*
G75*
G02*
X53660450Y-107358200I-218750J0D01*
G01*
X53222950Y-107358200D01*
G75*
G02*
X53004200Y-107139450I0J218750D01*
G01*
X53004200Y-106626950D01*
G75*
G02*
X53222950Y-106408200I218750J0D01*
G01*
X53660450Y-106408200D01*
G75*
G02*
X53879200Y-106626950I0J-218750D01*
G01*
G37*
G36*
G01*
X49803800Y-77116650D02*
X49803800Y-76604150D01*
G75*
G02*
X50022550Y-76385400I218750J0D01*
G01*
X50460050Y-76385400D01*
G75*
G02*
X50678800Y-76604150I0J-218750D01*
G01*
X50678800Y-77116650D01*
G75*
G02*
X50460050Y-77335400I-218750J0D01*
G01*
X50022550Y-77335400D01*
G75*
G02*
X49803800Y-77116650I0J218750D01*
G01*
G37*
G36*
G01*
X48228800Y-77116650D02*
X48228800Y-76604150D01*
G75*
G02*
X48447550Y-76385400I218750J0D01*
G01*
X48885050Y-76385400D01*
G75*
G02*
X49103800Y-76604150I0J-218750D01*
G01*
X49103800Y-77116650D01*
G75*
G02*
X48885050Y-77335400I-218750J0D01*
G01*
X48447550Y-77335400D01*
G75*
G02*
X48228800Y-77116650I0J218750D01*
G01*
G37*
G36*
G01*
X53004200Y-105463050D02*
X53004200Y-104950550D01*
G75*
G02*
X53222950Y-104731800I218750J0D01*
G01*
X53660450Y-104731800D01*
G75*
G02*
X53879200Y-104950550I0J-218750D01*
G01*
X53879200Y-105463050D01*
G75*
G02*
X53660450Y-105681800I-218750J0D01*
G01*
X53222950Y-105681800D01*
G75*
G02*
X53004200Y-105463050I0J218750D01*
G01*
G37*
G36*
G01*
X51429200Y-105463050D02*
X51429200Y-104950550D01*
G75*
G02*
X51647950Y-104731800I218750J0D01*
G01*
X52085450Y-104731800D01*
G75*
G02*
X52304200Y-104950550I0J-218750D01*
G01*
X52304200Y-105463050D01*
G75*
G02*
X52085450Y-105681800I-218750J0D01*
G01*
X51647950Y-105681800D01*
G75*
G02*
X51429200Y-105463050I0J218750D01*
G01*
G37*
G36*
G01*
X66202850Y-103042200D02*
X66715350Y-103042200D01*
G75*
G02*
X66934100Y-103260950I0J-218750D01*
G01*
X66934100Y-103698450D01*
G75*
G02*
X66715350Y-103917200I-218750J0D01*
G01*
X66202850Y-103917200D01*
G75*
G02*
X65984100Y-103698450I0J218750D01*
G01*
X65984100Y-103260950D01*
G75*
G02*
X66202850Y-103042200I218750J0D01*
G01*
G37*
G36*
G01*
X66202850Y-101467200D02*
X66715350Y-101467200D01*
G75*
G02*
X66934100Y-101685950I0J-218750D01*
G01*
X66934100Y-102123450D01*
G75*
G02*
X66715350Y-102342200I-218750J0D01*
G01*
X66202850Y-102342200D01*
G75*
G02*
X65984100Y-102123450I0J218750D01*
G01*
X65984100Y-101685950D01*
G75*
G02*
X66202850Y-101467200I218750J0D01*
G01*
G37*
G36*
G01*
X54082200Y-87373750D02*
X54082200Y-87886250D01*
G75*
G02*
X53863450Y-88105000I-218750J0D01*
G01*
X53425950Y-88105000D01*
G75*
G02*
X53207200Y-87886250I0J218750D01*
G01*
X53207200Y-87373750D01*
G75*
G02*
X53425950Y-87155000I218750J0D01*
G01*
X53863450Y-87155000D01*
G75*
G02*
X54082200Y-87373750I0J-218750D01*
G01*
G37*
G36*
G01*
X55657200Y-87373750D02*
X55657200Y-87886250D01*
G75*
G02*
X55438450Y-88105000I-218750J0D01*
G01*
X55000950Y-88105000D01*
G75*
G02*
X54782200Y-87886250I0J218750D01*
G01*
X54782200Y-87373750D01*
G75*
G02*
X55000950Y-87155000I218750J0D01*
G01*
X55438450Y-87155000D01*
G75*
G02*
X55657200Y-87373750I0J-218750D01*
G01*
G37*
G36*
G01*
X63345350Y-103042200D02*
X63857850Y-103042200D01*
G75*
G02*
X64076600Y-103260950I0J-218750D01*
G01*
X64076600Y-103698450D01*
G75*
G02*
X63857850Y-103917200I-218750J0D01*
G01*
X63345350Y-103917200D01*
G75*
G02*
X63126600Y-103698450I0J218750D01*
G01*
X63126600Y-103260950D01*
G75*
G02*
X63345350Y-103042200I218750J0D01*
G01*
G37*
G36*
G01*
X63345350Y-101467200D02*
X63857850Y-101467200D01*
G75*
G02*
X64076600Y-101685950I0J-218750D01*
G01*
X64076600Y-102123450D01*
G75*
G02*
X63857850Y-102342200I-218750J0D01*
G01*
X63345350Y-102342200D01*
G75*
G02*
X63126600Y-102123450I0J218750D01*
G01*
X63126600Y-101685950D01*
G75*
G02*
X63345350Y-101467200I218750J0D01*
G01*
G37*
G36*
G01*
X21004000Y-84711250D02*
X21004000Y-84198750D01*
G75*
G02*
X21222750Y-83980000I218750J0D01*
G01*
X21660250Y-83980000D01*
G75*
G02*
X21879000Y-84198750I0J-218750D01*
G01*
X21879000Y-84711250D01*
G75*
G02*
X21660250Y-84930000I-218750J0D01*
G01*
X21222750Y-84930000D01*
G75*
G02*
X21004000Y-84711250I0J218750D01*
G01*
G37*
G36*
G01*
X19429000Y-84711250D02*
X19429000Y-84198750D01*
G75*
G02*
X19647750Y-83980000I218750J0D01*
G01*
X20085250Y-83980000D01*
G75*
G02*
X20304000Y-84198750I0J-218750D01*
G01*
X20304000Y-84711250D01*
G75*
G02*
X20085250Y-84930000I-218750J0D01*
G01*
X19647750Y-84930000D01*
G75*
G02*
X19429000Y-84711250I0J218750D01*
G01*
G37*
G36*
G01*
X20304000Y-96390750D02*
X20304000Y-96903250D01*
G75*
G02*
X20085250Y-97122000I-218750J0D01*
G01*
X19647750Y-97122000D01*
G75*
G02*
X19429000Y-96903250I0J218750D01*
G01*
X19429000Y-96390750D01*
G75*
G02*
X19647750Y-96172000I218750J0D01*
G01*
X20085250Y-96172000D01*
G75*
G02*
X20304000Y-96390750I0J-218750D01*
G01*
G37*
G36*
G01*
X21879000Y-96390750D02*
X21879000Y-96903250D01*
G75*
G02*
X21660250Y-97122000I-218750J0D01*
G01*
X21222750Y-97122000D01*
G75*
G02*
X21004000Y-96903250I0J218750D01*
G01*
X21004000Y-96390750D01*
G75*
G02*
X21222750Y-96172000I218750J0D01*
G01*
X21660250Y-96172000D01*
G75*
G02*
X21879000Y-96390750I0J-218750D01*
G01*
G37*
G36*
G01*
X25242000Y-104396250D02*
X25242000Y-103883750D01*
G75*
G02*
X25460750Y-103665000I218750J0D01*
G01*
X25898250Y-103665000D01*
G75*
G02*
X26117000Y-103883750I0J-218750D01*
G01*
X26117000Y-104396250D01*
G75*
G02*
X25898250Y-104615000I-218750J0D01*
G01*
X25460750Y-104615000D01*
G75*
G02*
X25242000Y-104396250I0J218750D01*
G01*
G37*
G36*
G01*
X23667000Y-104396250D02*
X23667000Y-103883750D01*
G75*
G02*
X23885750Y-103665000I218750J0D01*
G01*
X24323250Y-103665000D01*
G75*
G02*
X24542000Y-103883750I0J-218750D01*
G01*
X24542000Y-104396250D01*
G75*
G02*
X24323250Y-104615000I-218750J0D01*
G01*
X23885750Y-104615000D01*
G75*
G02*
X23667000Y-104396250I0J218750D01*
G01*
G37*
G36*
G01*
X25242000Y-102491250D02*
X25242000Y-101978750D01*
G75*
G02*
X25460750Y-101760000I218750J0D01*
G01*
X25898250Y-101760000D01*
G75*
G02*
X26117000Y-101978750I0J-218750D01*
G01*
X26117000Y-102491250D01*
G75*
G02*
X25898250Y-102710000I-218750J0D01*
G01*
X25460750Y-102710000D01*
G75*
G02*
X25242000Y-102491250I0J218750D01*
G01*
G37*
G36*
G01*
X23667000Y-102491250D02*
X23667000Y-101978750D01*
G75*
G02*
X23885750Y-101760000I218750J0D01*
G01*
X24323250Y-101760000D01*
G75*
G02*
X24542000Y-101978750I0J-218750D01*
G01*
X24542000Y-102491250D01*
G75*
G02*
X24323250Y-102710000I-218750J0D01*
G01*
X23885750Y-102710000D01*
G75*
G02*
X23667000Y-102491250I0J218750D01*
G01*
G37*
G36*
G01*
X24542000Y-98295750D02*
X24542000Y-98808250D01*
G75*
G02*
X24323250Y-99027000I-218750J0D01*
G01*
X23885750Y-99027000D01*
G75*
G02*
X23667000Y-98808250I0J218750D01*
G01*
X23667000Y-98295750D01*
G75*
G02*
X23885750Y-98077000I218750J0D01*
G01*
X24323250Y-98077000D01*
G75*
G02*
X24542000Y-98295750I0J-218750D01*
G01*
G37*
G36*
G01*
X26117000Y-98295750D02*
X26117000Y-98808250D01*
G75*
G02*
X25898250Y-99027000I-218750J0D01*
G01*
X25460750Y-99027000D01*
G75*
G02*
X25242000Y-98808250I0J218750D01*
G01*
X25242000Y-98295750D01*
G75*
G02*
X25460750Y-98077000I218750J0D01*
G01*
X25898250Y-98077000D01*
G75*
G02*
X26117000Y-98295750I0J-218750D01*
G01*
G37*
G36*
G01*
X25242000Y-100586250D02*
X25242000Y-100073750D01*
G75*
G02*
X25460750Y-99855000I218750J0D01*
G01*
X25898250Y-99855000D01*
G75*
G02*
X26117000Y-100073750I0J-218750D01*
G01*
X26117000Y-100586250D01*
G75*
G02*
X25898250Y-100805000I-218750J0D01*
G01*
X25460750Y-100805000D01*
G75*
G02*
X25242000Y-100586250I0J218750D01*
G01*
G37*
G36*
G01*
X23667000Y-100586250D02*
X23667000Y-100073750D01*
G75*
G02*
X23885750Y-99855000I218750J0D01*
G01*
X24323250Y-99855000D01*
G75*
G02*
X24542000Y-100073750I0J-218750D01*
G01*
X24542000Y-100586250D01*
G75*
G02*
X24323250Y-100805000I-218750J0D01*
G01*
X23885750Y-100805000D01*
G75*
G02*
X23667000Y-100586250I0J218750D01*
G01*
G37*
G36*
G01*
X57037950Y-100767400D02*
X56525450Y-100767400D01*
G75*
G02*
X56306700Y-100548650I0J218750D01*
G01*
X56306700Y-100111150D01*
G75*
G02*
X56525450Y-99892400I218750J0D01*
G01*
X57037950Y-99892400D01*
G75*
G02*
X57256700Y-100111150I0J-218750D01*
G01*
X57256700Y-100548650D01*
G75*
G02*
X57037950Y-100767400I-218750J0D01*
G01*
G37*
G36*
G01*
X57037950Y-102342400D02*
X56525450Y-102342400D01*
G75*
G02*
X56306700Y-102123650I0J218750D01*
G01*
X56306700Y-101686150D01*
G75*
G02*
X56525450Y-101467400I218750J0D01*
G01*
X57037950Y-101467400D01*
G75*
G02*
X57256700Y-101686150I0J-218750D01*
G01*
X57256700Y-102123650D01*
G75*
G02*
X57037950Y-102342400I-218750J0D01*
G01*
G37*
G36*
G01*
X51034200Y-108303350D02*
X51034200Y-108815850D01*
G75*
G02*
X50815450Y-109034600I-218750J0D01*
G01*
X50377950Y-109034600D01*
G75*
G02*
X50159200Y-108815850I0J218750D01*
G01*
X50159200Y-108303350D01*
G75*
G02*
X50377950Y-108084600I218750J0D01*
G01*
X50815450Y-108084600D01*
G75*
G02*
X51034200Y-108303350I0J-218750D01*
G01*
G37*
G36*
G01*
X52609200Y-108303350D02*
X52609200Y-108815850D01*
G75*
G02*
X52390450Y-109034600I-218750J0D01*
G01*
X51952950Y-109034600D01*
G75*
G02*
X51734200Y-108815850I0J218750D01*
G01*
X51734200Y-108303350D01*
G75*
G02*
X51952950Y-108084600I218750J0D01*
G01*
X52390450Y-108084600D01*
G75*
G02*
X52609200Y-108303350I0J-218750D01*
G01*
G37*
G36*
G01*
X55386950Y-100767400D02*
X54874450Y-100767400D01*
G75*
G02*
X54655700Y-100548650I0J218750D01*
G01*
X54655700Y-100111150D01*
G75*
G02*
X54874450Y-99892400I218750J0D01*
G01*
X55386950Y-99892400D01*
G75*
G02*
X55605700Y-100111150I0J-218750D01*
G01*
X55605700Y-100548650D01*
G75*
G02*
X55386950Y-100767400I-218750J0D01*
G01*
G37*
G36*
G01*
X55386950Y-102342400D02*
X54874450Y-102342400D01*
G75*
G02*
X54655700Y-102123650I0J218750D01*
G01*
X54655700Y-101686150D01*
G75*
G02*
X54874450Y-101467400I218750J0D01*
G01*
X55386950Y-101467400D01*
G75*
G02*
X55605700Y-101686150I0J-218750D01*
G01*
X55605700Y-102123650D01*
G75*
G02*
X55386950Y-102342400I-218750J0D01*
G01*
G37*
G36*
G01*
X60749700Y-111846650D02*
X60749700Y-112359150D01*
G75*
G02*
X60530950Y-112577900I-218750J0D01*
G01*
X60093450Y-112577900D01*
G75*
G02*
X59874700Y-112359150I0J218750D01*
G01*
X59874700Y-111846650D01*
G75*
G02*
X60093450Y-111627900I218750J0D01*
G01*
X60530950Y-111627900D01*
G75*
G02*
X60749700Y-111846650I0J-218750D01*
G01*
G37*
G36*
G01*
X62324700Y-111846650D02*
X62324700Y-112359150D01*
G75*
G02*
X62105950Y-112577900I-218750J0D01*
G01*
X61668450Y-112577900D01*
G75*
G02*
X61449700Y-112359150I0J218750D01*
G01*
X61449700Y-111846650D01*
G75*
G02*
X61668450Y-111627900I218750J0D01*
G01*
X62105950Y-111627900D01*
G75*
G02*
X62324700Y-111846650I0J-218750D01*
G01*
G37*
G36*
G01*
X64688200Y-108104650D02*
X64688200Y-107592150D01*
G75*
G02*
X64906950Y-107373400I218750J0D01*
G01*
X65344450Y-107373400D01*
G75*
G02*
X65563200Y-107592150I0J-218750D01*
G01*
X65563200Y-108104650D01*
G75*
G02*
X65344450Y-108323400I-218750J0D01*
G01*
X64906950Y-108323400D01*
G75*
G02*
X64688200Y-108104650I0J218750D01*
G01*
G37*
G36*
G01*
X63113200Y-108104650D02*
X63113200Y-107592150D01*
G75*
G02*
X63331950Y-107373400I218750J0D01*
G01*
X63769450Y-107373400D01*
G75*
G02*
X63988200Y-107592150I0J-218750D01*
G01*
X63988200Y-108104650D01*
G75*
G02*
X63769450Y-108323400I-218750J0D01*
G01*
X63331950Y-108323400D01*
G75*
G02*
X63113200Y-108104650I0J218750D01*
G01*
G37*
G36*
G01*
X64688200Y-109755650D02*
X64688200Y-109243150D01*
G75*
G02*
X64906950Y-109024400I218750J0D01*
G01*
X65344450Y-109024400D01*
G75*
G02*
X65563200Y-109243150I0J-218750D01*
G01*
X65563200Y-109755650D01*
G75*
G02*
X65344450Y-109974400I-218750J0D01*
G01*
X64906950Y-109974400D01*
G75*
G02*
X64688200Y-109755650I0J218750D01*
G01*
G37*
G36*
G01*
X63113200Y-109755650D02*
X63113200Y-109243150D01*
G75*
G02*
X63331950Y-109024400I218750J0D01*
G01*
X63769450Y-109024400D01*
G75*
G02*
X63988200Y-109243150I0J-218750D01*
G01*
X63988200Y-109755650D01*
G75*
G02*
X63769450Y-109974400I-218750J0D01*
G01*
X63331950Y-109974400D01*
G75*
G02*
X63113200Y-109755650I0J218750D01*
G01*
G37*
G36*
G01*
X49103800Y-86052950D02*
X49103800Y-86565450D01*
G75*
G02*
X48885050Y-86784200I-218750J0D01*
G01*
X48447550Y-86784200D01*
G75*
G02*
X48228800Y-86565450I0J218750D01*
G01*
X48228800Y-86052950D01*
G75*
G02*
X48447550Y-85834200I218750J0D01*
G01*
X48885050Y-85834200D01*
G75*
G02*
X49103800Y-86052950I0J-218750D01*
G01*
G37*
G36*
G01*
X50678800Y-86052950D02*
X50678800Y-86565450D01*
G75*
G02*
X50460050Y-86784200I-218750J0D01*
G01*
X50022550Y-86784200D01*
G75*
G02*
X49803800Y-86565450I0J218750D01*
G01*
X49803800Y-86052950D01*
G75*
G02*
X50022550Y-85834200I218750J0D01*
G01*
X50460050Y-85834200D01*
G75*
G02*
X50678800Y-86052950I0J-218750D01*
G01*
G37*
G36*
G01*
X51237400Y-101648550D02*
X51237400Y-102161050D01*
G75*
G02*
X51018650Y-102379800I-218750J0D01*
G01*
X50581150Y-102379800D01*
G75*
G02*
X50362400Y-102161050I0J218750D01*
G01*
X50362400Y-101648550D01*
G75*
G02*
X50581150Y-101429800I218750J0D01*
G01*
X51018650Y-101429800D01*
G75*
G02*
X51237400Y-101648550I0J-218750D01*
G01*
G37*
G36*
G01*
X52812400Y-101648550D02*
X52812400Y-102161050D01*
G75*
G02*
X52593650Y-102379800I-218750J0D01*
G01*
X52156150Y-102379800D01*
G75*
G02*
X51937400Y-102161050I0J218750D01*
G01*
X51937400Y-101648550D01*
G75*
G02*
X52156150Y-101429800I218750J0D01*
G01*
X52593650Y-101429800D01*
G75*
G02*
X52812400Y-101648550I0J-218750D01*
G01*
G37*
G36*
G01*
X52304200Y-103299550D02*
X52304200Y-103812050D01*
G75*
G02*
X52085450Y-104030800I-218750J0D01*
G01*
X51647950Y-104030800D01*
G75*
G02*
X51429200Y-103812050I0J218750D01*
G01*
X51429200Y-103299550D01*
G75*
G02*
X51647950Y-103080800I218750J0D01*
G01*
X52085450Y-103080800D01*
G75*
G02*
X52304200Y-103299550I0J-218750D01*
G01*
G37*
G36*
G01*
X53879200Y-103299550D02*
X53879200Y-103812050D01*
G75*
G02*
X53660450Y-104030800I-218750J0D01*
G01*
X53222950Y-104030800D01*
G75*
G02*
X53004200Y-103812050I0J218750D01*
G01*
X53004200Y-103299550D01*
G75*
G02*
X53222950Y-103080800I218750J0D01*
G01*
X53660450Y-103080800D01*
G75*
G02*
X53879200Y-103299550I0J-218750D01*
G01*
G37*
G36*
G01*
X54336200Y-77112150D02*
X54336200Y-77624650D01*
G75*
G02*
X54117450Y-77843400I-218750J0D01*
G01*
X53679950Y-77843400D01*
G75*
G02*
X53461200Y-77624650I0J218750D01*
G01*
X53461200Y-77112150D01*
G75*
G02*
X53679950Y-76893400I218750J0D01*
G01*
X54117450Y-76893400D01*
G75*
G02*
X54336200Y-77112150I0J-218750D01*
G01*
G37*
G36*
G01*
X55911200Y-77112150D02*
X55911200Y-77624650D01*
G75*
G02*
X55692450Y-77843400I-218750J0D01*
G01*
X55254950Y-77843400D01*
G75*
G02*
X55036200Y-77624650I0J218750D01*
G01*
X55036200Y-77112150D01*
G75*
G02*
X55254950Y-76893400I218750J0D01*
G01*
X55692450Y-76893400D01*
G75*
G02*
X55911200Y-77112150I0J-218750D01*
G01*
G37*
G36*
G01*
X63959450Y-77780400D02*
X63446950Y-77780400D01*
G75*
G02*
X63228200Y-77561650I0J218750D01*
G01*
X63228200Y-77124150D01*
G75*
G02*
X63446950Y-76905400I218750J0D01*
G01*
X63959450Y-76905400D01*
G75*
G02*
X64178200Y-77124150I0J-218750D01*
G01*
X64178200Y-77561650D01*
G75*
G02*
X63959450Y-77780400I-218750J0D01*
G01*
G37*
G36*
G01*
X63959450Y-79355400D02*
X63446950Y-79355400D01*
G75*
G02*
X63228200Y-79136650I0J218750D01*
G01*
X63228200Y-78699150D01*
G75*
G02*
X63446950Y-78480400I218750J0D01*
G01*
X63959450Y-78480400D01*
G75*
G02*
X64178200Y-78699150I0J-218750D01*
G01*
X64178200Y-79136650D01*
G75*
G02*
X63959450Y-79355400I-218750J0D01*
G01*
G37*
G36*
G01*
X63113400Y-87911650D02*
X63113400Y-87399150D01*
G75*
G02*
X63332150Y-87180400I218750J0D01*
G01*
X63769650Y-87180400D01*
G75*
G02*
X63988400Y-87399150I0J-218750D01*
G01*
X63988400Y-87911650D01*
G75*
G02*
X63769650Y-88130400I-218750J0D01*
G01*
X63332150Y-88130400D01*
G75*
G02*
X63113400Y-87911650I0J218750D01*
G01*
G37*
G36*
G01*
X61538400Y-87911650D02*
X61538400Y-87399150D01*
G75*
G02*
X61757150Y-87180400I218750J0D01*
G01*
X62194650Y-87180400D01*
G75*
G02*
X62413400Y-87399150I0J-218750D01*
G01*
X62413400Y-87911650D01*
G75*
G02*
X62194650Y-88130400I-218750J0D01*
G01*
X61757150Y-88130400D01*
G75*
G02*
X61538400Y-87911650I0J218750D01*
G01*
G37*
G36*
G01*
X53159950Y-85541600D02*
X53672450Y-85541600D01*
G75*
G02*
X53891200Y-85760350I0J-218750D01*
G01*
X53891200Y-86197850D01*
G75*
G02*
X53672450Y-86416600I-218750J0D01*
G01*
X53159950Y-86416600D01*
G75*
G02*
X52941200Y-86197850I0J218750D01*
G01*
X52941200Y-85760350D01*
G75*
G02*
X53159950Y-85541600I218750J0D01*
G01*
G37*
G36*
G01*
X53159950Y-83966600D02*
X53672450Y-83966600D01*
G75*
G02*
X53891200Y-84185350I0J-218750D01*
G01*
X53891200Y-84622850D01*
G75*
G02*
X53672450Y-84841600I-218750J0D01*
G01*
X53159950Y-84841600D01*
G75*
G02*
X52941200Y-84622850I0J218750D01*
G01*
X52941200Y-84185350D01*
G75*
G02*
X53159950Y-83966600I218750J0D01*
G01*
G37*
G36*
G01*
X54336200Y-75461150D02*
X54336200Y-75973650D01*
G75*
G02*
X54117450Y-76192400I-218750J0D01*
G01*
X53679950Y-76192400D01*
G75*
G02*
X53461200Y-75973650I0J218750D01*
G01*
X53461200Y-75461150D01*
G75*
G02*
X53679950Y-75242400I218750J0D01*
G01*
X54117450Y-75242400D01*
G75*
G02*
X54336200Y-75461150I0J-218750D01*
G01*
G37*
G36*
G01*
X55911200Y-75461150D02*
X55911200Y-75973650D01*
G75*
G02*
X55692450Y-76192400I-218750J0D01*
G01*
X55254950Y-76192400D01*
G75*
G02*
X55036200Y-75973650I0J218750D01*
G01*
X55036200Y-75461150D01*
G75*
G02*
X55254950Y-75242400I218750J0D01*
G01*
X55692450Y-75242400D01*
G75*
G02*
X55911200Y-75461150I0J-218750D01*
G01*
G37*
G36*
G01*
X40253400Y-69141050D02*
X40253400Y-68628550D01*
G75*
G02*
X40472150Y-68409800I218750J0D01*
G01*
X40909650Y-68409800D01*
G75*
G02*
X41128400Y-68628550I0J-218750D01*
G01*
X41128400Y-69141050D01*
G75*
G02*
X40909650Y-69359800I-218750J0D01*
G01*
X40472150Y-69359800D01*
G75*
G02*
X40253400Y-69141050I0J218750D01*
G01*
G37*
G36*
G01*
X38678400Y-69141050D02*
X38678400Y-68628550D01*
G75*
G02*
X38897150Y-68409800I218750J0D01*
G01*
X39334650Y-68409800D01*
G75*
G02*
X39553400Y-68628550I0J-218750D01*
G01*
X39553400Y-69141050D01*
G75*
G02*
X39334650Y-69359800I-218750J0D01*
G01*
X38897150Y-69359800D01*
G75*
G02*
X38678400Y-69141050I0J218750D01*
G01*
G37*
G36*
G01*
X39553400Y-63548550D02*
X39553400Y-64061050D01*
G75*
G02*
X39334650Y-64279800I-218750J0D01*
G01*
X38897150Y-64279800D01*
G75*
G02*
X38678400Y-64061050I0J218750D01*
G01*
X38678400Y-63548550D01*
G75*
G02*
X38897150Y-63329800I218750J0D01*
G01*
X39334650Y-63329800D01*
G75*
G02*
X39553400Y-63548550I0J-218750D01*
G01*
G37*
G36*
G01*
X41128400Y-63548550D02*
X41128400Y-64061050D01*
G75*
G02*
X40909650Y-64279800I-218750J0D01*
G01*
X40472150Y-64279800D01*
G75*
G02*
X40253400Y-64061050I0J218750D01*
G01*
X40253400Y-63548550D01*
G75*
G02*
X40472150Y-63329800I218750J0D01*
G01*
X40909650Y-63329800D01*
G75*
G02*
X41128400Y-63548550I0J-218750D01*
G01*
G37*
G36*
G01*
X45206400Y-69522050D02*
X45206400Y-69009550D01*
G75*
G02*
X45425150Y-68790800I218750J0D01*
G01*
X45862650Y-68790800D01*
G75*
G02*
X46081400Y-69009550I0J-218750D01*
G01*
X46081400Y-69522050D01*
G75*
G02*
X45862650Y-69740800I-218750J0D01*
G01*
X45425150Y-69740800D01*
G75*
G02*
X45206400Y-69522050I0J218750D01*
G01*
G37*
G36*
G01*
X43631400Y-69522050D02*
X43631400Y-69009550D01*
G75*
G02*
X43850150Y-68790800I218750J0D01*
G01*
X44287650Y-68790800D01*
G75*
G02*
X44506400Y-69009550I0J-218750D01*
G01*
X44506400Y-69522050D01*
G75*
G02*
X44287650Y-69740800I-218750J0D01*
G01*
X43850150Y-69740800D01*
G75*
G02*
X43631400Y-69522050I0J218750D01*
G01*
G37*
G36*
G01*
X44506400Y-63167550D02*
X44506400Y-63680050D01*
G75*
G02*
X44287650Y-63898800I-218750J0D01*
G01*
X43850150Y-63898800D01*
G75*
G02*
X43631400Y-63680050I0J218750D01*
G01*
X43631400Y-63167550D01*
G75*
G02*
X43850150Y-62948800I218750J0D01*
G01*
X44287650Y-62948800D01*
G75*
G02*
X44506400Y-63167550I0J-218750D01*
G01*
G37*
G36*
G01*
X46081400Y-63167550D02*
X46081400Y-63680050D01*
G75*
G02*
X45862650Y-63898800I-218750J0D01*
G01*
X45425150Y-63898800D01*
G75*
G02*
X45206400Y-63680050I0J218750D01*
G01*
X45206400Y-63167550D01*
G75*
G02*
X45425150Y-62948800I218750J0D01*
G01*
X45862650Y-62948800D01*
G75*
G02*
X46081400Y-63167550I0J-218750D01*
G01*
G37*
G36*
G01*
X34028900Y-93812650D02*
X34028900Y-94325150D01*
G75*
G02*
X33810150Y-94543900I-218750J0D01*
G01*
X33372650Y-94543900D01*
G75*
G02*
X33153900Y-94325150I0J218750D01*
G01*
X33153900Y-93812650D01*
G75*
G02*
X33372650Y-93593900I218750J0D01*
G01*
X33810150Y-93593900D01*
G75*
G02*
X34028900Y-93812650I0J-218750D01*
G01*
G37*
G36*
G01*
X35603900Y-93812650D02*
X35603900Y-94325150D01*
G75*
G02*
X35385150Y-94543900I-218750J0D01*
G01*
X34947650Y-94543900D01*
G75*
G02*
X34728900Y-94325150I0J218750D01*
G01*
X34728900Y-93812650D01*
G75*
G02*
X34947650Y-93593900I218750J0D01*
G01*
X35385150Y-93593900D01*
G75*
G02*
X35603900Y-93812650I0J-218750D01*
G01*
G37*
G36*
G01*
X34028900Y-79182250D02*
X34028900Y-79694750D01*
G75*
G02*
X33810150Y-79913500I-218750J0D01*
G01*
X33372650Y-79913500D01*
G75*
G02*
X33153900Y-79694750I0J218750D01*
G01*
X33153900Y-79182250D01*
G75*
G02*
X33372650Y-78963500I218750J0D01*
G01*
X33810150Y-78963500D01*
G75*
G02*
X34028900Y-79182250I0J-218750D01*
G01*
G37*
G36*
G01*
X35603900Y-79182250D02*
X35603900Y-79694750D01*
G75*
G02*
X35385150Y-79913500I-218750J0D01*
G01*
X34947650Y-79913500D01*
G75*
G02*
X34728900Y-79694750I0J218750D01*
G01*
X34728900Y-79182250D01*
G75*
G02*
X34947650Y-78963500I218750J0D01*
G01*
X35385150Y-78963500D01*
G75*
G02*
X35603900Y-79182250I0J-218750D01*
G01*
G37*
G36*
G01*
X34028900Y-95527150D02*
X34028900Y-96039650D01*
G75*
G02*
X33810150Y-96258400I-218750J0D01*
G01*
X33372650Y-96258400D01*
G75*
G02*
X33153900Y-96039650I0J218750D01*
G01*
X33153900Y-95527150D01*
G75*
G02*
X33372650Y-95308400I218750J0D01*
G01*
X33810150Y-95308400D01*
G75*
G02*
X34028900Y-95527150I0J-218750D01*
G01*
G37*
G36*
G01*
X35603900Y-95527150D02*
X35603900Y-96039650D01*
G75*
G02*
X35385150Y-96258400I-218750J0D01*
G01*
X34947650Y-96258400D01*
G75*
G02*
X34728900Y-96039650I0J218750D01*
G01*
X34728900Y-95527150D01*
G75*
G02*
X34947650Y-95308400I218750J0D01*
G01*
X35385150Y-95308400D01*
G75*
G02*
X35603900Y-95527150I0J-218750D01*
G01*
G37*
G36*
G01*
X34028900Y-80896750D02*
X34028900Y-81409250D01*
G75*
G02*
X33810150Y-81628000I-218750J0D01*
G01*
X33372650Y-81628000D01*
G75*
G02*
X33153900Y-81409250I0J218750D01*
G01*
X33153900Y-80896750D01*
G75*
G02*
X33372650Y-80678000I218750J0D01*
G01*
X33810150Y-80678000D01*
G75*
G02*
X34028900Y-80896750I0J-218750D01*
G01*
G37*
G36*
G01*
X35603900Y-80896750D02*
X35603900Y-81409250D01*
G75*
G02*
X35385150Y-81628000I-218750J0D01*
G01*
X34947650Y-81628000D01*
G75*
G02*
X34728900Y-81409250I0J218750D01*
G01*
X34728900Y-80896750D01*
G75*
G02*
X34947650Y-80678000I218750J0D01*
G01*
X35385150Y-80678000D01*
G75*
G02*
X35603900Y-80896750I0J-218750D01*
G01*
G37*
G36*
G01*
X60093200Y-84931400D02*
X60093200Y-84301400D01*
G75*
G02*
X60343200Y-84051400I250000J0D01*
G01*
X60973200Y-84051400D01*
G75*
G02*
X61223200Y-84301400I0J-250000D01*
G01*
X61223200Y-84931400D01*
G75*
G02*
X60973200Y-85181400I-250000J0D01*
G01*
X60343200Y-85181400D01*
G75*
G02*
X60093200Y-84931400I0J250000D01*
G01*
G37*
G36*
G01*
X60093200Y-83531400D02*
X60093200Y-82901400D01*
G75*
G02*
X60343200Y-82651400I250000J0D01*
G01*
X60973200Y-82651400D01*
G75*
G02*
X61223200Y-82901400I0J-250000D01*
G01*
X61223200Y-83531400D01*
G75*
G02*
X60973200Y-83781400I-250000J0D01*
G01*
X60343200Y-83781400D01*
G75*
G02*
X60093200Y-83531400I0J250000D01*
G01*
G37*
G36*
G01*
X60093200Y-82131400D02*
X60093200Y-81501400D01*
G75*
G02*
X60343200Y-81251400I250000J0D01*
G01*
X60973200Y-81251400D01*
G75*
G02*
X61223200Y-81501400I0J-250000D01*
G01*
X61223200Y-82131400D01*
G75*
G02*
X60973200Y-82381400I-250000J0D01*
G01*
X60343200Y-82381400D01*
G75*
G02*
X60093200Y-82131400I0J250000D01*
G01*
G37*
G36*
G01*
X60093200Y-80731400D02*
X60093200Y-80101400D01*
G75*
G02*
X60343200Y-79851400I250000J0D01*
G01*
X60973200Y-79851400D01*
G75*
G02*
X61223200Y-80101400I0J-250000D01*
G01*
X61223200Y-80731400D01*
G75*
G02*
X60973200Y-80981400I-250000J0D01*
G01*
X60343200Y-80981400D01*
G75*
G02*
X60093200Y-80731400I0J250000D01*
G01*
G37*
G36*
G01*
X58693200Y-84931400D02*
X58693200Y-84301400D01*
G75*
G02*
X58943200Y-84051400I250000J0D01*
G01*
X59573200Y-84051400D01*
G75*
G02*
X59823200Y-84301400I0J-250000D01*
G01*
X59823200Y-84931400D01*
G75*
G02*
X59573200Y-85181400I-250000J0D01*
G01*
X58943200Y-85181400D01*
G75*
G02*
X58693200Y-84931400I0J250000D01*
G01*
G37*
G36*
G01*
X58693200Y-83531400D02*
X58693200Y-82901400D01*
G75*
G02*
X58943200Y-82651400I250000J0D01*
G01*
X59573200Y-82651400D01*
G75*
G02*
X59823200Y-82901400I0J-250000D01*
G01*
X59823200Y-83531400D01*
G75*
G02*
X59573200Y-83781400I-250000J0D01*
G01*
X58943200Y-83781400D01*
G75*
G02*
X58693200Y-83531400I0J250000D01*
G01*
G37*
G36*
G01*
X58693200Y-82131400D02*
X58693200Y-81501400D01*
G75*
G02*
X58943200Y-81251400I250000J0D01*
G01*
X59573200Y-81251400D01*
G75*
G02*
X59823200Y-81501400I0J-250000D01*
G01*
X59823200Y-82131400D01*
G75*
G02*
X59573200Y-82381400I-250000J0D01*
G01*
X58943200Y-82381400D01*
G75*
G02*
X58693200Y-82131400I0J250000D01*
G01*
G37*
G36*
G01*
X58693200Y-80731400D02*
X58693200Y-80101400D01*
G75*
G02*
X58943200Y-79851400I250000J0D01*
G01*
X59573200Y-79851400D01*
G75*
G02*
X59823200Y-80101400I0J-250000D01*
G01*
X59823200Y-80731400D01*
G75*
G02*
X59573200Y-80981400I-250000J0D01*
G01*
X58943200Y-80981400D01*
G75*
G02*
X58693200Y-80731400I0J250000D01*
G01*
G37*
G36*
G01*
X57293200Y-84931400D02*
X57293200Y-84301400D01*
G75*
G02*
X57543200Y-84051400I250000J0D01*
G01*
X58173200Y-84051400D01*
G75*
G02*
X58423200Y-84301400I0J-250000D01*
G01*
X58423200Y-84931400D01*
G75*
G02*
X58173200Y-85181400I-250000J0D01*
G01*
X57543200Y-85181400D01*
G75*
G02*
X57293200Y-84931400I0J250000D01*
G01*
G37*
G36*
G01*
X57293200Y-83531400D02*
X57293200Y-82901400D01*
G75*
G02*
X57543200Y-82651400I250000J0D01*
G01*
X58173200Y-82651400D01*
G75*
G02*
X58423200Y-82901400I0J-250000D01*
G01*
X58423200Y-83531400D01*
G75*
G02*
X58173200Y-83781400I-250000J0D01*
G01*
X57543200Y-83781400D01*
G75*
G02*
X57293200Y-83531400I0J250000D01*
G01*
G37*
G36*
G01*
X57293200Y-82131400D02*
X57293200Y-81501400D01*
G75*
G02*
X57543200Y-81251400I250000J0D01*
G01*
X58173200Y-81251400D01*
G75*
G02*
X58423200Y-81501400I0J-250000D01*
G01*
X58423200Y-82131400D01*
G75*
G02*
X58173200Y-82381400I-250000J0D01*
G01*
X57543200Y-82381400D01*
G75*
G02*
X57293200Y-82131400I0J250000D01*
G01*
G37*
G36*
G01*
X57293200Y-80731400D02*
X57293200Y-80101400D01*
G75*
G02*
X57543200Y-79851400I250000J0D01*
G01*
X58173200Y-79851400D01*
G75*
G02*
X58423200Y-80101400I0J-250000D01*
G01*
X58423200Y-80731400D01*
G75*
G02*
X58173200Y-80981400I-250000J0D01*
G01*
X57543200Y-80981400D01*
G75*
G02*
X57293200Y-80731400I0J250000D01*
G01*
G37*
G36*
G01*
X55893200Y-84931400D02*
X55893200Y-84301400D01*
G75*
G02*
X56143200Y-84051400I250000J0D01*
G01*
X56773200Y-84051400D01*
G75*
G02*
X57023200Y-84301400I0J-250000D01*
G01*
X57023200Y-84931400D01*
G75*
G02*
X56773200Y-85181400I-250000J0D01*
G01*
X56143200Y-85181400D01*
G75*
G02*
X55893200Y-84931400I0J250000D01*
G01*
G37*
G36*
G01*
X55893200Y-83531400D02*
X55893200Y-82901400D01*
G75*
G02*
X56143200Y-82651400I250000J0D01*
G01*
X56773200Y-82651400D01*
G75*
G02*
X57023200Y-82901400I0J-250000D01*
G01*
X57023200Y-83531400D01*
G75*
G02*
X56773200Y-83781400I-250000J0D01*
G01*
X56143200Y-83781400D01*
G75*
G02*
X55893200Y-83531400I0J250000D01*
G01*
G37*
G36*
G01*
X55893200Y-82131400D02*
X55893200Y-81501400D01*
G75*
G02*
X56143200Y-81251400I250000J0D01*
G01*
X56773200Y-81251400D01*
G75*
G02*
X57023200Y-81501400I0J-250000D01*
G01*
X57023200Y-82131400D01*
G75*
G02*
X56773200Y-82381400I-250000J0D01*
G01*
X56143200Y-82381400D01*
G75*
G02*
X55893200Y-82131400I0J250000D01*
G01*
G37*
G36*
G01*
X55893200Y-80731400D02*
X55893200Y-80101400D01*
G75*
G02*
X56143200Y-79851400I250000J0D01*
G01*
X56773200Y-79851400D01*
G75*
G02*
X57023200Y-80101400I0J-250000D01*
G01*
X57023200Y-80731400D01*
G75*
G02*
X56773200Y-80981400I-250000J0D01*
G01*
X56143200Y-80981400D01*
G75*
G02*
X55893200Y-80731400I0J250000D01*
G01*
G37*
G36*
G01*
X55683200Y-79453900D02*
X55683200Y-78703900D01*
G75*
G02*
X55745700Y-78641400I62500J0D01*
G01*
X55870700Y-78641400D01*
G75*
G02*
X55933200Y-78703900I0J-62500D01*
G01*
X55933200Y-79453900D01*
G75*
G02*
X55870700Y-79516400I-62500J0D01*
G01*
X55745700Y-79516400D01*
G75*
G02*
X55683200Y-79453900I0J62500D01*
G01*
G37*
G36*
G01*
X56183200Y-79453900D02*
X56183200Y-78703900D01*
G75*
G02*
X56245700Y-78641400I62500J0D01*
G01*
X56370700Y-78641400D01*
G75*
G02*
X56433200Y-78703900I0J-62500D01*
G01*
X56433200Y-79453900D01*
G75*
G02*
X56370700Y-79516400I-62500J0D01*
G01*
X56245700Y-79516400D01*
G75*
G02*
X56183200Y-79453900I0J62500D01*
G01*
G37*
G36*
G01*
X56683200Y-79453900D02*
X56683200Y-78703900D01*
G75*
G02*
X56745700Y-78641400I62500J0D01*
G01*
X56870700Y-78641400D01*
G75*
G02*
X56933200Y-78703900I0J-62500D01*
G01*
X56933200Y-79453900D01*
G75*
G02*
X56870700Y-79516400I-62500J0D01*
G01*
X56745700Y-79516400D01*
G75*
G02*
X56683200Y-79453900I0J62500D01*
G01*
G37*
G36*
G01*
X57183200Y-79453900D02*
X57183200Y-78703900D01*
G75*
G02*
X57245700Y-78641400I62500J0D01*
G01*
X57370700Y-78641400D01*
G75*
G02*
X57433200Y-78703900I0J-62500D01*
G01*
X57433200Y-79453900D01*
G75*
G02*
X57370700Y-79516400I-62500J0D01*
G01*
X57245700Y-79516400D01*
G75*
G02*
X57183200Y-79453900I0J62500D01*
G01*
G37*
G36*
G01*
X57683200Y-79453900D02*
X57683200Y-78703900D01*
G75*
G02*
X57745700Y-78641400I62500J0D01*
G01*
X57870700Y-78641400D01*
G75*
G02*
X57933200Y-78703900I0J-62500D01*
G01*
X57933200Y-79453900D01*
G75*
G02*
X57870700Y-79516400I-62500J0D01*
G01*
X57745700Y-79516400D01*
G75*
G02*
X57683200Y-79453900I0J62500D01*
G01*
G37*
G36*
G01*
X58183200Y-79453900D02*
X58183200Y-78703900D01*
G75*
G02*
X58245700Y-78641400I62500J0D01*
G01*
X58370700Y-78641400D01*
G75*
G02*
X58433200Y-78703900I0J-62500D01*
G01*
X58433200Y-79453900D01*
G75*
G02*
X58370700Y-79516400I-62500J0D01*
G01*
X58245700Y-79516400D01*
G75*
G02*
X58183200Y-79453900I0J62500D01*
G01*
G37*
G36*
G01*
X58683200Y-79453900D02*
X58683200Y-78703900D01*
G75*
G02*
X58745700Y-78641400I62500J0D01*
G01*
X58870700Y-78641400D01*
G75*
G02*
X58933200Y-78703900I0J-62500D01*
G01*
X58933200Y-79453900D01*
G75*
G02*
X58870700Y-79516400I-62500J0D01*
G01*
X58745700Y-79516400D01*
G75*
G02*
X58683200Y-79453900I0J62500D01*
G01*
G37*
G36*
G01*
X59183200Y-79453900D02*
X59183200Y-78703900D01*
G75*
G02*
X59245700Y-78641400I62500J0D01*
G01*
X59370700Y-78641400D01*
G75*
G02*
X59433200Y-78703900I0J-62500D01*
G01*
X59433200Y-79453900D01*
G75*
G02*
X59370700Y-79516400I-62500J0D01*
G01*
X59245700Y-79516400D01*
G75*
G02*
X59183200Y-79453900I0J62500D01*
G01*
G37*
G36*
G01*
X59683200Y-79453900D02*
X59683200Y-78703900D01*
G75*
G02*
X59745700Y-78641400I62500J0D01*
G01*
X59870700Y-78641400D01*
G75*
G02*
X59933200Y-78703900I0J-62500D01*
G01*
X59933200Y-79453900D01*
G75*
G02*
X59870700Y-79516400I-62500J0D01*
G01*
X59745700Y-79516400D01*
G75*
G02*
X59683200Y-79453900I0J62500D01*
G01*
G37*
G36*
G01*
X60183200Y-79453900D02*
X60183200Y-78703900D01*
G75*
G02*
X60245700Y-78641400I62500J0D01*
G01*
X60370700Y-78641400D01*
G75*
G02*
X60433200Y-78703900I0J-62500D01*
G01*
X60433200Y-79453900D01*
G75*
G02*
X60370700Y-79516400I-62500J0D01*
G01*
X60245700Y-79516400D01*
G75*
G02*
X60183200Y-79453900I0J62500D01*
G01*
G37*
G36*
G01*
X60683200Y-79453900D02*
X60683200Y-78703900D01*
G75*
G02*
X60745700Y-78641400I62500J0D01*
G01*
X60870700Y-78641400D01*
G75*
G02*
X60933200Y-78703900I0J-62500D01*
G01*
X60933200Y-79453900D01*
G75*
G02*
X60870700Y-79516400I-62500J0D01*
G01*
X60745700Y-79516400D01*
G75*
G02*
X60683200Y-79453900I0J62500D01*
G01*
G37*
G36*
G01*
X61183200Y-79453900D02*
X61183200Y-78703900D01*
G75*
G02*
X61245700Y-78641400I62500J0D01*
G01*
X61370700Y-78641400D01*
G75*
G02*
X61433200Y-78703900I0J-62500D01*
G01*
X61433200Y-79453900D01*
G75*
G02*
X61370700Y-79516400I-62500J0D01*
G01*
X61245700Y-79516400D01*
G75*
G02*
X61183200Y-79453900I0J62500D01*
G01*
G37*
G36*
G01*
X61558200Y-79828900D02*
X61558200Y-79703900D01*
G75*
G02*
X61620700Y-79641400I62500J0D01*
G01*
X62370700Y-79641400D01*
G75*
G02*
X62433200Y-79703900I0J-62500D01*
G01*
X62433200Y-79828900D01*
G75*
G02*
X62370700Y-79891400I-62500J0D01*
G01*
X61620700Y-79891400D01*
G75*
G02*
X61558200Y-79828900I0J62500D01*
G01*
G37*
G36*
G01*
X61558200Y-80328900D02*
X61558200Y-80203900D01*
G75*
G02*
X61620700Y-80141400I62500J0D01*
G01*
X62370700Y-80141400D01*
G75*
G02*
X62433200Y-80203900I0J-62500D01*
G01*
X62433200Y-80328900D01*
G75*
G02*
X62370700Y-80391400I-62500J0D01*
G01*
X61620700Y-80391400D01*
G75*
G02*
X61558200Y-80328900I0J62500D01*
G01*
G37*
G36*
G01*
X61558200Y-80828900D02*
X61558200Y-80703900D01*
G75*
G02*
X61620700Y-80641400I62500J0D01*
G01*
X62370700Y-80641400D01*
G75*
G02*
X62433200Y-80703900I0J-62500D01*
G01*
X62433200Y-80828900D01*
G75*
G02*
X62370700Y-80891400I-62500J0D01*
G01*
X61620700Y-80891400D01*
G75*
G02*
X61558200Y-80828900I0J62500D01*
G01*
G37*
G36*
G01*
X61558200Y-81328900D02*
X61558200Y-81203900D01*
G75*
G02*
X61620700Y-81141400I62500J0D01*
G01*
X62370700Y-81141400D01*
G75*
G02*
X62433200Y-81203900I0J-62500D01*
G01*
X62433200Y-81328900D01*
G75*
G02*
X62370700Y-81391400I-62500J0D01*
G01*
X61620700Y-81391400D01*
G75*
G02*
X61558200Y-81328900I0J62500D01*
G01*
G37*
G36*
G01*
X61558200Y-81828900D02*
X61558200Y-81703900D01*
G75*
G02*
X61620700Y-81641400I62500J0D01*
G01*
X62370700Y-81641400D01*
G75*
G02*
X62433200Y-81703900I0J-62500D01*
G01*
X62433200Y-81828900D01*
G75*
G02*
X62370700Y-81891400I-62500J0D01*
G01*
X61620700Y-81891400D01*
G75*
G02*
X61558200Y-81828900I0J62500D01*
G01*
G37*
G36*
G01*
X61558200Y-82328900D02*
X61558200Y-82203900D01*
G75*
G02*
X61620700Y-82141400I62500J0D01*
G01*
X62370700Y-82141400D01*
G75*
G02*
X62433200Y-82203900I0J-62500D01*
G01*
X62433200Y-82328900D01*
G75*
G02*
X62370700Y-82391400I-62500J0D01*
G01*
X61620700Y-82391400D01*
G75*
G02*
X61558200Y-82328900I0J62500D01*
G01*
G37*
G36*
G01*
X61558200Y-82828900D02*
X61558200Y-82703900D01*
G75*
G02*
X61620700Y-82641400I62500J0D01*
G01*
X62370700Y-82641400D01*
G75*
G02*
X62433200Y-82703900I0J-62500D01*
G01*
X62433200Y-82828900D01*
G75*
G02*
X62370700Y-82891400I-62500J0D01*
G01*
X61620700Y-82891400D01*
G75*
G02*
X61558200Y-82828900I0J62500D01*
G01*
G37*
G36*
G01*
X61558200Y-83328900D02*
X61558200Y-83203900D01*
G75*
G02*
X61620700Y-83141400I62500J0D01*
G01*
X62370700Y-83141400D01*
G75*
G02*
X62433200Y-83203900I0J-62500D01*
G01*
X62433200Y-83328900D01*
G75*
G02*
X62370700Y-83391400I-62500J0D01*
G01*
X61620700Y-83391400D01*
G75*
G02*
X61558200Y-83328900I0J62500D01*
G01*
G37*
G36*
G01*
X61558200Y-83828900D02*
X61558200Y-83703900D01*
G75*
G02*
X61620700Y-83641400I62500J0D01*
G01*
X62370700Y-83641400D01*
G75*
G02*
X62433200Y-83703900I0J-62500D01*
G01*
X62433200Y-83828900D01*
G75*
G02*
X62370700Y-83891400I-62500J0D01*
G01*
X61620700Y-83891400D01*
G75*
G02*
X61558200Y-83828900I0J62500D01*
G01*
G37*
G36*
G01*
X61558200Y-84328900D02*
X61558200Y-84203900D01*
G75*
G02*
X61620700Y-84141400I62500J0D01*
G01*
X62370700Y-84141400D01*
G75*
G02*
X62433200Y-84203900I0J-62500D01*
G01*
X62433200Y-84328900D01*
G75*
G02*
X62370700Y-84391400I-62500J0D01*
G01*
X61620700Y-84391400D01*
G75*
G02*
X61558200Y-84328900I0J62500D01*
G01*
G37*
G36*
G01*
X61558200Y-84828900D02*
X61558200Y-84703900D01*
G75*
G02*
X61620700Y-84641400I62500J0D01*
G01*
X62370700Y-84641400D01*
G75*
G02*
X62433200Y-84703900I0J-62500D01*
G01*
X62433200Y-84828900D01*
G75*
G02*
X62370700Y-84891400I-62500J0D01*
G01*
X61620700Y-84891400D01*
G75*
G02*
X61558200Y-84828900I0J62500D01*
G01*
G37*
G36*
G01*
X61558200Y-85328900D02*
X61558200Y-85203900D01*
G75*
G02*
X61620700Y-85141400I62500J0D01*
G01*
X62370700Y-85141400D01*
G75*
G02*
X62433200Y-85203900I0J-62500D01*
G01*
X62433200Y-85328900D01*
G75*
G02*
X62370700Y-85391400I-62500J0D01*
G01*
X61620700Y-85391400D01*
G75*
G02*
X61558200Y-85328900I0J62500D01*
G01*
G37*
G36*
G01*
X61183200Y-86328900D02*
X61183200Y-85578900D01*
G75*
G02*
X61245700Y-85516400I62500J0D01*
G01*
X61370700Y-85516400D01*
G75*
G02*
X61433200Y-85578900I0J-62500D01*
G01*
X61433200Y-86328900D01*
G75*
G02*
X61370700Y-86391400I-62500J0D01*
G01*
X61245700Y-86391400D01*
G75*
G02*
X61183200Y-86328900I0J62500D01*
G01*
G37*
G36*
G01*
X60683200Y-86328900D02*
X60683200Y-85578900D01*
G75*
G02*
X60745700Y-85516400I62500J0D01*
G01*
X60870700Y-85516400D01*
G75*
G02*
X60933200Y-85578900I0J-62500D01*
G01*
X60933200Y-86328900D01*
G75*
G02*
X60870700Y-86391400I-62500J0D01*
G01*
X60745700Y-86391400D01*
G75*
G02*
X60683200Y-86328900I0J62500D01*
G01*
G37*
G36*
G01*
X60183200Y-86328900D02*
X60183200Y-85578900D01*
G75*
G02*
X60245700Y-85516400I62500J0D01*
G01*
X60370700Y-85516400D01*
G75*
G02*
X60433200Y-85578900I0J-62500D01*
G01*
X60433200Y-86328900D01*
G75*
G02*
X60370700Y-86391400I-62500J0D01*
G01*
X60245700Y-86391400D01*
G75*
G02*
X60183200Y-86328900I0J62500D01*
G01*
G37*
G36*
G01*
X59683200Y-86328900D02*
X59683200Y-85578900D01*
G75*
G02*
X59745700Y-85516400I62500J0D01*
G01*
X59870700Y-85516400D01*
G75*
G02*
X59933200Y-85578900I0J-62500D01*
G01*
X59933200Y-86328900D01*
G75*
G02*
X59870700Y-86391400I-62500J0D01*
G01*
X59745700Y-86391400D01*
G75*
G02*
X59683200Y-86328900I0J62500D01*
G01*
G37*
G36*
G01*
X59183200Y-86328900D02*
X59183200Y-85578900D01*
G75*
G02*
X59245700Y-85516400I62500J0D01*
G01*
X59370700Y-85516400D01*
G75*
G02*
X59433200Y-85578900I0J-62500D01*
G01*
X59433200Y-86328900D01*
G75*
G02*
X59370700Y-86391400I-62500J0D01*
G01*
X59245700Y-86391400D01*
G75*
G02*
X59183200Y-86328900I0J62500D01*
G01*
G37*
G36*
G01*
X58683200Y-86328900D02*
X58683200Y-85578900D01*
G75*
G02*
X58745700Y-85516400I62500J0D01*
G01*
X58870700Y-85516400D01*
G75*
G02*
X58933200Y-85578900I0J-62500D01*
G01*
X58933200Y-86328900D01*
G75*
G02*
X58870700Y-86391400I-62500J0D01*
G01*
X58745700Y-86391400D01*
G75*
G02*
X58683200Y-86328900I0J62500D01*
G01*
G37*
G36*
G01*
X58183200Y-86328900D02*
X58183200Y-85578900D01*
G75*
G02*
X58245700Y-85516400I62500J0D01*
G01*
X58370700Y-85516400D01*
G75*
G02*
X58433200Y-85578900I0J-62500D01*
G01*
X58433200Y-86328900D01*
G75*
G02*
X58370700Y-86391400I-62500J0D01*
G01*
X58245700Y-86391400D01*
G75*
G02*
X58183200Y-86328900I0J62500D01*
G01*
G37*
G36*
G01*
X57683200Y-86328900D02*
X57683200Y-85578900D01*
G75*
G02*
X57745700Y-85516400I62500J0D01*
G01*
X57870700Y-85516400D01*
G75*
G02*
X57933200Y-85578900I0J-62500D01*
G01*
X57933200Y-86328900D01*
G75*
G02*
X57870700Y-86391400I-62500J0D01*
G01*
X57745700Y-86391400D01*
G75*
G02*
X57683200Y-86328900I0J62500D01*
G01*
G37*
G36*
G01*
X57183200Y-86328900D02*
X57183200Y-85578900D01*
G75*
G02*
X57245700Y-85516400I62500J0D01*
G01*
X57370700Y-85516400D01*
G75*
G02*
X57433200Y-85578900I0J-62500D01*
G01*
X57433200Y-86328900D01*
G75*
G02*
X57370700Y-86391400I-62500J0D01*
G01*
X57245700Y-86391400D01*
G75*
G02*
X57183200Y-86328900I0J62500D01*
G01*
G37*
G36*
G01*
X56683200Y-86328900D02*
X56683200Y-85578900D01*
G75*
G02*
X56745700Y-85516400I62500J0D01*
G01*
X56870700Y-85516400D01*
G75*
G02*
X56933200Y-85578900I0J-62500D01*
G01*
X56933200Y-86328900D01*
G75*
G02*
X56870700Y-86391400I-62500J0D01*
G01*
X56745700Y-86391400D01*
G75*
G02*
X56683200Y-86328900I0J62500D01*
G01*
G37*
G36*
G01*
X56183200Y-86328900D02*
X56183200Y-85578900D01*
G75*
G02*
X56245700Y-85516400I62500J0D01*
G01*
X56370700Y-85516400D01*
G75*
G02*
X56433200Y-85578900I0J-62500D01*
G01*
X56433200Y-86328900D01*
G75*
G02*
X56370700Y-86391400I-62500J0D01*
G01*
X56245700Y-86391400D01*
G75*
G02*
X56183200Y-86328900I0J62500D01*
G01*
G37*
G36*
G01*
X55683200Y-86328900D02*
X55683200Y-85578900D01*
G75*
G02*
X55745700Y-85516400I62500J0D01*
G01*
X55870700Y-85516400D01*
G75*
G02*
X55933200Y-85578900I0J-62500D01*
G01*
X55933200Y-86328900D01*
G75*
G02*
X55870700Y-86391400I-62500J0D01*
G01*
X55745700Y-86391400D01*
G75*
G02*
X55683200Y-86328900I0J62500D01*
G01*
G37*
G36*
G01*
X54683200Y-85328900D02*
X54683200Y-85203900D01*
G75*
G02*
X54745700Y-85141400I62500J0D01*
G01*
X55495700Y-85141400D01*
G75*
G02*
X55558200Y-85203900I0J-62500D01*
G01*
X55558200Y-85328900D01*
G75*
G02*
X55495700Y-85391400I-62500J0D01*
G01*
X54745700Y-85391400D01*
G75*
G02*
X54683200Y-85328900I0J62500D01*
G01*
G37*
G36*
G01*
X54683200Y-84828900D02*
X54683200Y-84703900D01*
G75*
G02*
X54745700Y-84641400I62500J0D01*
G01*
X55495700Y-84641400D01*
G75*
G02*
X55558200Y-84703900I0J-62500D01*
G01*
X55558200Y-84828900D01*
G75*
G02*
X55495700Y-84891400I-62500J0D01*
G01*
X54745700Y-84891400D01*
G75*
G02*
X54683200Y-84828900I0J62500D01*
G01*
G37*
G36*
G01*
X54683200Y-84328900D02*
X54683200Y-84203900D01*
G75*
G02*
X54745700Y-84141400I62500J0D01*
G01*
X55495700Y-84141400D01*
G75*
G02*
X55558200Y-84203900I0J-62500D01*
G01*
X55558200Y-84328900D01*
G75*
G02*
X55495700Y-84391400I-62500J0D01*
G01*
X54745700Y-84391400D01*
G75*
G02*
X54683200Y-84328900I0J62500D01*
G01*
G37*
G36*
G01*
X54683200Y-83828900D02*
X54683200Y-83703900D01*
G75*
G02*
X54745700Y-83641400I62500J0D01*
G01*
X55495700Y-83641400D01*
G75*
G02*
X55558200Y-83703900I0J-62500D01*
G01*
X55558200Y-83828900D01*
G75*
G02*
X55495700Y-83891400I-62500J0D01*
G01*
X54745700Y-83891400D01*
G75*
G02*
X54683200Y-83828900I0J62500D01*
G01*
G37*
G36*
G01*
X54683200Y-83328900D02*
X54683200Y-83203900D01*
G75*
G02*
X54745700Y-83141400I62500J0D01*
G01*
X55495700Y-83141400D01*
G75*
G02*
X55558200Y-83203900I0J-62500D01*
G01*
X55558200Y-83328900D01*
G75*
G02*
X55495700Y-83391400I-62500J0D01*
G01*
X54745700Y-83391400D01*
G75*
G02*
X54683200Y-83328900I0J62500D01*
G01*
G37*
G36*
G01*
X54683200Y-82828900D02*
X54683200Y-82703900D01*
G75*
G02*
X54745700Y-82641400I62500J0D01*
G01*
X55495700Y-82641400D01*
G75*
G02*
X55558200Y-82703900I0J-62500D01*
G01*
X55558200Y-82828900D01*
G75*
G02*
X55495700Y-82891400I-62500J0D01*
G01*
X54745700Y-82891400D01*
G75*
G02*
X54683200Y-82828900I0J62500D01*
G01*
G37*
G36*
G01*
X54683200Y-82328900D02*
X54683200Y-82203900D01*
G75*
G02*
X54745700Y-82141400I62500J0D01*
G01*
X55495700Y-82141400D01*
G75*
G02*
X55558200Y-82203900I0J-62500D01*
G01*
X55558200Y-82328900D01*
G75*
G02*
X55495700Y-82391400I-62500J0D01*
G01*
X54745700Y-82391400D01*
G75*
G02*
X54683200Y-82328900I0J62500D01*
G01*
G37*
G36*
G01*
X54683200Y-81828900D02*
X54683200Y-81703900D01*
G75*
G02*
X54745700Y-81641400I62500J0D01*
G01*
X55495700Y-81641400D01*
G75*
G02*
X55558200Y-81703900I0J-62500D01*
G01*
X55558200Y-81828900D01*
G75*
G02*
X55495700Y-81891400I-62500J0D01*
G01*
X54745700Y-81891400D01*
G75*
G02*
X54683200Y-81828900I0J62500D01*
G01*
G37*
G36*
G01*
X54683200Y-81328900D02*
X54683200Y-81203900D01*
G75*
G02*
X54745700Y-81141400I62500J0D01*
G01*
X55495700Y-81141400D01*
G75*
G02*
X55558200Y-81203900I0J-62500D01*
G01*
X55558200Y-81328900D01*
G75*
G02*
X55495700Y-81391400I-62500J0D01*
G01*
X54745700Y-81391400D01*
G75*
G02*
X54683200Y-81328900I0J62500D01*
G01*
G37*
G36*
G01*
X54683200Y-80828900D02*
X54683200Y-80703900D01*
G75*
G02*
X54745700Y-80641400I62500J0D01*
G01*
X55495700Y-80641400D01*
G75*
G02*
X55558200Y-80703900I0J-62500D01*
G01*
X55558200Y-80828900D01*
G75*
G02*
X55495700Y-80891400I-62500J0D01*
G01*
X54745700Y-80891400D01*
G75*
G02*
X54683200Y-80828900I0J62500D01*
G01*
G37*
G36*
G01*
X54683200Y-80328900D02*
X54683200Y-80203900D01*
G75*
G02*
X54745700Y-80141400I62500J0D01*
G01*
X55495700Y-80141400D01*
G75*
G02*
X55558200Y-80203900I0J-62500D01*
G01*
X55558200Y-80328900D01*
G75*
G02*
X55495700Y-80391400I-62500J0D01*
G01*
X54745700Y-80391400D01*
G75*
G02*
X54683200Y-80328900I0J62500D01*
G01*
G37*
G36*
G01*
X54683200Y-79828900D02*
X54683200Y-79703900D01*
G75*
G02*
X54745700Y-79641400I62500J0D01*
G01*
X55495700Y-79641400D01*
G75*
G02*
X55558200Y-79703900I0J-62500D01*
G01*
X55558200Y-79828900D01*
G75*
G02*
X55495700Y-79891400I-62500J0D01*
G01*
X54745700Y-79891400D01*
G75*
G02*
X54683200Y-79828900I0J62500D01*
G01*
G37*
D16*
X60325000Y-69258000D03*
X59375000Y-69258000D03*
X61275000Y-69258000D03*
X61275000Y-71458000D03*
X60325000Y-71458000D03*
X59375000Y-71458000D03*
D17*
X38826400Y-66994800D03*
X38826400Y-65694800D03*
X40726400Y-66344800D03*
X40726400Y-65694800D03*
X40726400Y-66994800D03*
D18*
X43375400Y-67294800D03*
X43375400Y-65394800D03*
X45575400Y-65394800D03*
X45575400Y-66344800D03*
X45575400Y-67294800D03*
G36*
G01*
X48168400Y-65722800D02*
X49418400Y-65722800D01*
G75*
G02*
X49668400Y-65972800I0J-250000D01*
G01*
X49668400Y-66722800D01*
G75*
G02*
X49418400Y-66972800I-250000J0D01*
G01*
X48168400Y-66972800D01*
G75*
G02*
X47918400Y-66722800I0J250000D01*
G01*
X47918400Y-65972800D01*
G75*
G02*
X48168400Y-65722800I250000J0D01*
G01*
G37*
G36*
G01*
X48168400Y-62922800D02*
X49418400Y-62922800D01*
G75*
G02*
X49668400Y-63172800I0J-250000D01*
G01*
X49668400Y-63922800D01*
G75*
G02*
X49418400Y-64172800I-250000J0D01*
G01*
X48168400Y-64172800D01*
G75*
G02*
X47918400Y-63922800I0J250000D01*
G01*
X47918400Y-63172800D01*
G75*
G02*
X48168400Y-62922800I250000J0D01*
G01*
G37*
G36*
G01*
X51981400Y-69636800D02*
X51981400Y-68386800D01*
G75*
G02*
X52231400Y-68136800I250000J0D01*
G01*
X52981400Y-68136800D01*
G75*
G02*
X53231400Y-68386800I0J-250000D01*
G01*
X53231400Y-69636800D01*
G75*
G02*
X52981400Y-69886800I-250000J0D01*
G01*
X52231400Y-69886800D01*
G75*
G02*
X51981400Y-69636800I0J250000D01*
G01*
G37*
G36*
G01*
X49181400Y-69636800D02*
X49181400Y-68386800D01*
G75*
G02*
X49431400Y-68136800I250000J0D01*
G01*
X50181400Y-68136800D01*
G75*
G02*
X50431400Y-68386800I0J-250000D01*
G01*
X50431400Y-69636800D01*
G75*
G02*
X50181400Y-69886800I-250000J0D01*
G01*
X49431400Y-69886800D01*
G75*
G02*
X49181400Y-69636800I0J250000D01*
G01*
G37*
G36*
G01*
X56961200Y-104544400D02*
X56961200Y-105174400D01*
G75*
G02*
X56711200Y-105424400I-250000J0D01*
G01*
X56081200Y-105424400D01*
G75*
G02*
X55831200Y-105174400I0J250000D01*
G01*
X55831200Y-104544400D01*
G75*
G02*
X56081200Y-104294400I250000J0D01*
G01*
X56711200Y-104294400D01*
G75*
G02*
X56961200Y-104544400I0J-250000D01*
G01*
G37*
G36*
G01*
X56961200Y-105944400D02*
X56961200Y-106574400D01*
G75*
G02*
X56711200Y-106824400I-250000J0D01*
G01*
X56081200Y-106824400D01*
G75*
G02*
X55831200Y-106574400I0J250000D01*
G01*
X55831200Y-105944400D01*
G75*
G02*
X56081200Y-105694400I250000J0D01*
G01*
X56711200Y-105694400D01*
G75*
G02*
X56961200Y-105944400I0J-250000D01*
G01*
G37*
G36*
G01*
X56961200Y-107344400D02*
X56961200Y-107974400D01*
G75*
G02*
X56711200Y-108224400I-250000J0D01*
G01*
X56081200Y-108224400D01*
G75*
G02*
X55831200Y-107974400I0J250000D01*
G01*
X55831200Y-107344400D01*
G75*
G02*
X56081200Y-107094400I250000J0D01*
G01*
X56711200Y-107094400D01*
G75*
G02*
X56961200Y-107344400I0J-250000D01*
G01*
G37*
G36*
G01*
X56961200Y-108744400D02*
X56961200Y-109374400D01*
G75*
G02*
X56711200Y-109624400I-250000J0D01*
G01*
X56081200Y-109624400D01*
G75*
G02*
X55831200Y-109374400I0J250000D01*
G01*
X55831200Y-108744400D01*
G75*
G02*
X56081200Y-108494400I250000J0D01*
G01*
X56711200Y-108494400D01*
G75*
G02*
X56961200Y-108744400I0J-250000D01*
G01*
G37*
G36*
G01*
X58361200Y-104544400D02*
X58361200Y-105174400D01*
G75*
G02*
X58111200Y-105424400I-250000J0D01*
G01*
X57481200Y-105424400D01*
G75*
G02*
X57231200Y-105174400I0J250000D01*
G01*
X57231200Y-104544400D01*
G75*
G02*
X57481200Y-104294400I250000J0D01*
G01*
X58111200Y-104294400D01*
G75*
G02*
X58361200Y-104544400I0J-250000D01*
G01*
G37*
G36*
G01*
X58361200Y-105944400D02*
X58361200Y-106574400D01*
G75*
G02*
X58111200Y-106824400I-250000J0D01*
G01*
X57481200Y-106824400D01*
G75*
G02*
X57231200Y-106574400I0J250000D01*
G01*
X57231200Y-105944400D01*
G75*
G02*
X57481200Y-105694400I250000J0D01*
G01*
X58111200Y-105694400D01*
G75*
G02*
X58361200Y-105944400I0J-250000D01*
G01*
G37*
G36*
G01*
X58361200Y-107344400D02*
X58361200Y-107974400D01*
G75*
G02*
X58111200Y-108224400I-250000J0D01*
G01*
X57481200Y-108224400D01*
G75*
G02*
X57231200Y-107974400I0J250000D01*
G01*
X57231200Y-107344400D01*
G75*
G02*
X57481200Y-107094400I250000J0D01*
G01*
X58111200Y-107094400D01*
G75*
G02*
X58361200Y-107344400I0J-250000D01*
G01*
G37*
G36*
G01*
X58361200Y-108744400D02*
X58361200Y-109374400D01*
G75*
G02*
X58111200Y-109624400I-250000J0D01*
G01*
X57481200Y-109624400D01*
G75*
G02*
X57231200Y-109374400I0J250000D01*
G01*
X57231200Y-108744400D01*
G75*
G02*
X57481200Y-108494400I250000J0D01*
G01*
X58111200Y-108494400D01*
G75*
G02*
X58361200Y-108744400I0J-250000D01*
G01*
G37*
G36*
G01*
X59761200Y-104544400D02*
X59761200Y-105174400D01*
G75*
G02*
X59511200Y-105424400I-250000J0D01*
G01*
X58881200Y-105424400D01*
G75*
G02*
X58631200Y-105174400I0J250000D01*
G01*
X58631200Y-104544400D01*
G75*
G02*
X58881200Y-104294400I250000J0D01*
G01*
X59511200Y-104294400D01*
G75*
G02*
X59761200Y-104544400I0J-250000D01*
G01*
G37*
G36*
G01*
X59761200Y-105944400D02*
X59761200Y-106574400D01*
G75*
G02*
X59511200Y-106824400I-250000J0D01*
G01*
X58881200Y-106824400D01*
G75*
G02*
X58631200Y-106574400I0J250000D01*
G01*
X58631200Y-105944400D01*
G75*
G02*
X58881200Y-105694400I250000J0D01*
G01*
X59511200Y-105694400D01*
G75*
G02*
X59761200Y-105944400I0J-250000D01*
G01*
G37*
G36*
G01*
X59761200Y-107344400D02*
X59761200Y-107974400D01*
G75*
G02*
X59511200Y-108224400I-250000J0D01*
G01*
X58881200Y-108224400D01*
G75*
G02*
X58631200Y-107974400I0J250000D01*
G01*
X58631200Y-107344400D01*
G75*
G02*
X58881200Y-107094400I250000J0D01*
G01*
X59511200Y-107094400D01*
G75*
G02*
X59761200Y-107344400I0J-250000D01*
G01*
G37*
G36*
G01*
X59761200Y-108744400D02*
X59761200Y-109374400D01*
G75*
G02*
X59511200Y-109624400I-250000J0D01*
G01*
X58881200Y-109624400D01*
G75*
G02*
X58631200Y-109374400I0J250000D01*
G01*
X58631200Y-108744400D01*
G75*
G02*
X58881200Y-108494400I250000J0D01*
G01*
X59511200Y-108494400D01*
G75*
G02*
X59761200Y-108744400I0J-250000D01*
G01*
G37*
G36*
G01*
X61161200Y-104544400D02*
X61161200Y-105174400D01*
G75*
G02*
X60911200Y-105424400I-250000J0D01*
G01*
X60281200Y-105424400D01*
G75*
G02*
X60031200Y-105174400I0J250000D01*
G01*
X60031200Y-104544400D01*
G75*
G02*
X60281200Y-104294400I250000J0D01*
G01*
X60911200Y-104294400D01*
G75*
G02*
X61161200Y-104544400I0J-250000D01*
G01*
G37*
G36*
G01*
X61161200Y-105944400D02*
X61161200Y-106574400D01*
G75*
G02*
X60911200Y-106824400I-250000J0D01*
G01*
X60281200Y-106824400D01*
G75*
G02*
X60031200Y-106574400I0J250000D01*
G01*
X60031200Y-105944400D01*
G75*
G02*
X60281200Y-105694400I250000J0D01*
G01*
X60911200Y-105694400D01*
G75*
G02*
X61161200Y-105944400I0J-250000D01*
G01*
G37*
G36*
G01*
X61161200Y-107344400D02*
X61161200Y-107974400D01*
G75*
G02*
X60911200Y-108224400I-250000J0D01*
G01*
X60281200Y-108224400D01*
G75*
G02*
X60031200Y-107974400I0J250000D01*
G01*
X60031200Y-107344400D01*
G75*
G02*
X60281200Y-107094400I250000J0D01*
G01*
X60911200Y-107094400D01*
G75*
G02*
X61161200Y-107344400I0J-250000D01*
G01*
G37*
G36*
G01*
X61161200Y-108744400D02*
X61161200Y-109374400D01*
G75*
G02*
X60911200Y-109624400I-250000J0D01*
G01*
X60281200Y-109624400D01*
G75*
G02*
X60031200Y-109374400I0J250000D01*
G01*
X60031200Y-108744400D01*
G75*
G02*
X60281200Y-108494400I250000J0D01*
G01*
X60911200Y-108494400D01*
G75*
G02*
X61161200Y-108744400I0J-250000D01*
G01*
G37*
G36*
G01*
X61371200Y-110021900D02*
X61371200Y-110771900D01*
G75*
G02*
X61308700Y-110834400I-62500J0D01*
G01*
X61183700Y-110834400D01*
G75*
G02*
X61121200Y-110771900I0J62500D01*
G01*
X61121200Y-110021900D01*
G75*
G02*
X61183700Y-109959400I62500J0D01*
G01*
X61308700Y-109959400D01*
G75*
G02*
X61371200Y-110021900I0J-62500D01*
G01*
G37*
G36*
G01*
X60871200Y-110021900D02*
X60871200Y-110771900D01*
G75*
G02*
X60808700Y-110834400I-62500J0D01*
G01*
X60683700Y-110834400D01*
G75*
G02*
X60621200Y-110771900I0J62500D01*
G01*
X60621200Y-110021900D01*
G75*
G02*
X60683700Y-109959400I62500J0D01*
G01*
X60808700Y-109959400D01*
G75*
G02*
X60871200Y-110021900I0J-62500D01*
G01*
G37*
G36*
G01*
X60371200Y-110021900D02*
X60371200Y-110771900D01*
G75*
G02*
X60308700Y-110834400I-62500J0D01*
G01*
X60183700Y-110834400D01*
G75*
G02*
X60121200Y-110771900I0J62500D01*
G01*
X60121200Y-110021900D01*
G75*
G02*
X60183700Y-109959400I62500J0D01*
G01*
X60308700Y-109959400D01*
G75*
G02*
X60371200Y-110021900I0J-62500D01*
G01*
G37*
G36*
G01*
X59871200Y-110021900D02*
X59871200Y-110771900D01*
G75*
G02*
X59808700Y-110834400I-62500J0D01*
G01*
X59683700Y-110834400D01*
G75*
G02*
X59621200Y-110771900I0J62500D01*
G01*
X59621200Y-110021900D01*
G75*
G02*
X59683700Y-109959400I62500J0D01*
G01*
X59808700Y-109959400D01*
G75*
G02*
X59871200Y-110021900I0J-62500D01*
G01*
G37*
G36*
G01*
X59371200Y-110021900D02*
X59371200Y-110771900D01*
G75*
G02*
X59308700Y-110834400I-62500J0D01*
G01*
X59183700Y-110834400D01*
G75*
G02*
X59121200Y-110771900I0J62500D01*
G01*
X59121200Y-110021900D01*
G75*
G02*
X59183700Y-109959400I62500J0D01*
G01*
X59308700Y-109959400D01*
G75*
G02*
X59371200Y-110021900I0J-62500D01*
G01*
G37*
G36*
G01*
X58871200Y-110021900D02*
X58871200Y-110771900D01*
G75*
G02*
X58808700Y-110834400I-62500J0D01*
G01*
X58683700Y-110834400D01*
G75*
G02*
X58621200Y-110771900I0J62500D01*
G01*
X58621200Y-110021900D01*
G75*
G02*
X58683700Y-109959400I62500J0D01*
G01*
X58808700Y-109959400D01*
G75*
G02*
X58871200Y-110021900I0J-62500D01*
G01*
G37*
G36*
G01*
X58371200Y-110021900D02*
X58371200Y-110771900D01*
G75*
G02*
X58308700Y-110834400I-62500J0D01*
G01*
X58183700Y-110834400D01*
G75*
G02*
X58121200Y-110771900I0J62500D01*
G01*
X58121200Y-110021900D01*
G75*
G02*
X58183700Y-109959400I62500J0D01*
G01*
X58308700Y-109959400D01*
G75*
G02*
X58371200Y-110021900I0J-62500D01*
G01*
G37*
G36*
G01*
X57871200Y-110021900D02*
X57871200Y-110771900D01*
G75*
G02*
X57808700Y-110834400I-62500J0D01*
G01*
X57683700Y-110834400D01*
G75*
G02*
X57621200Y-110771900I0J62500D01*
G01*
X57621200Y-110021900D01*
G75*
G02*
X57683700Y-109959400I62500J0D01*
G01*
X57808700Y-109959400D01*
G75*
G02*
X57871200Y-110021900I0J-62500D01*
G01*
G37*
G36*
G01*
X57371200Y-110021900D02*
X57371200Y-110771900D01*
G75*
G02*
X57308700Y-110834400I-62500J0D01*
G01*
X57183700Y-110834400D01*
G75*
G02*
X57121200Y-110771900I0J62500D01*
G01*
X57121200Y-110021900D01*
G75*
G02*
X57183700Y-109959400I62500J0D01*
G01*
X57308700Y-109959400D01*
G75*
G02*
X57371200Y-110021900I0J-62500D01*
G01*
G37*
G36*
G01*
X56871200Y-110021900D02*
X56871200Y-110771900D01*
G75*
G02*
X56808700Y-110834400I-62500J0D01*
G01*
X56683700Y-110834400D01*
G75*
G02*
X56621200Y-110771900I0J62500D01*
G01*
X56621200Y-110021900D01*
G75*
G02*
X56683700Y-109959400I62500J0D01*
G01*
X56808700Y-109959400D01*
G75*
G02*
X56871200Y-110021900I0J-62500D01*
G01*
G37*
G36*
G01*
X56371200Y-110021900D02*
X56371200Y-110771900D01*
G75*
G02*
X56308700Y-110834400I-62500J0D01*
G01*
X56183700Y-110834400D01*
G75*
G02*
X56121200Y-110771900I0J62500D01*
G01*
X56121200Y-110021900D01*
G75*
G02*
X56183700Y-109959400I62500J0D01*
G01*
X56308700Y-109959400D01*
G75*
G02*
X56371200Y-110021900I0J-62500D01*
G01*
G37*
G36*
G01*
X55871200Y-110021900D02*
X55871200Y-110771900D01*
G75*
G02*
X55808700Y-110834400I-62500J0D01*
G01*
X55683700Y-110834400D01*
G75*
G02*
X55621200Y-110771900I0J62500D01*
G01*
X55621200Y-110021900D01*
G75*
G02*
X55683700Y-109959400I62500J0D01*
G01*
X55808700Y-109959400D01*
G75*
G02*
X55871200Y-110021900I0J-62500D01*
G01*
G37*
G36*
G01*
X55496200Y-109646900D02*
X55496200Y-109771900D01*
G75*
G02*
X55433700Y-109834400I-62500J0D01*
G01*
X54683700Y-109834400D01*
G75*
G02*
X54621200Y-109771900I0J62500D01*
G01*
X54621200Y-109646900D01*
G75*
G02*
X54683700Y-109584400I62500J0D01*
G01*
X55433700Y-109584400D01*
G75*
G02*
X55496200Y-109646900I0J-62500D01*
G01*
G37*
G36*
G01*
X55496200Y-109146900D02*
X55496200Y-109271900D01*
G75*
G02*
X55433700Y-109334400I-62500J0D01*
G01*
X54683700Y-109334400D01*
G75*
G02*
X54621200Y-109271900I0J62500D01*
G01*
X54621200Y-109146900D01*
G75*
G02*
X54683700Y-109084400I62500J0D01*
G01*
X55433700Y-109084400D01*
G75*
G02*
X55496200Y-109146900I0J-62500D01*
G01*
G37*
G36*
G01*
X55496200Y-108646900D02*
X55496200Y-108771900D01*
G75*
G02*
X55433700Y-108834400I-62500J0D01*
G01*
X54683700Y-108834400D01*
G75*
G02*
X54621200Y-108771900I0J62500D01*
G01*
X54621200Y-108646900D01*
G75*
G02*
X54683700Y-108584400I62500J0D01*
G01*
X55433700Y-108584400D01*
G75*
G02*
X55496200Y-108646900I0J-62500D01*
G01*
G37*
G36*
G01*
X55496200Y-108146900D02*
X55496200Y-108271900D01*
G75*
G02*
X55433700Y-108334400I-62500J0D01*
G01*
X54683700Y-108334400D01*
G75*
G02*
X54621200Y-108271900I0J62500D01*
G01*
X54621200Y-108146900D01*
G75*
G02*
X54683700Y-108084400I62500J0D01*
G01*
X55433700Y-108084400D01*
G75*
G02*
X55496200Y-108146900I0J-62500D01*
G01*
G37*
G36*
G01*
X55496200Y-107646900D02*
X55496200Y-107771900D01*
G75*
G02*
X55433700Y-107834400I-62500J0D01*
G01*
X54683700Y-107834400D01*
G75*
G02*
X54621200Y-107771900I0J62500D01*
G01*
X54621200Y-107646900D01*
G75*
G02*
X54683700Y-107584400I62500J0D01*
G01*
X55433700Y-107584400D01*
G75*
G02*
X55496200Y-107646900I0J-62500D01*
G01*
G37*
G36*
G01*
X55496200Y-107146900D02*
X55496200Y-107271900D01*
G75*
G02*
X55433700Y-107334400I-62500J0D01*
G01*
X54683700Y-107334400D01*
G75*
G02*
X54621200Y-107271900I0J62500D01*
G01*
X54621200Y-107146900D01*
G75*
G02*
X54683700Y-107084400I62500J0D01*
G01*
X55433700Y-107084400D01*
G75*
G02*
X55496200Y-107146900I0J-62500D01*
G01*
G37*
G36*
G01*
X55496200Y-106646900D02*
X55496200Y-106771900D01*
G75*
G02*
X55433700Y-106834400I-62500J0D01*
G01*
X54683700Y-106834400D01*
G75*
G02*
X54621200Y-106771900I0J62500D01*
G01*
X54621200Y-106646900D01*
G75*
G02*
X54683700Y-106584400I62500J0D01*
G01*
X55433700Y-106584400D01*
G75*
G02*
X55496200Y-106646900I0J-62500D01*
G01*
G37*
G36*
G01*
X55496200Y-106146900D02*
X55496200Y-106271900D01*
G75*
G02*
X55433700Y-106334400I-62500J0D01*
G01*
X54683700Y-106334400D01*
G75*
G02*
X54621200Y-106271900I0J62500D01*
G01*
X54621200Y-106146900D01*
G75*
G02*
X54683700Y-106084400I62500J0D01*
G01*
X55433700Y-106084400D01*
G75*
G02*
X55496200Y-106146900I0J-62500D01*
G01*
G37*
G36*
G01*
X55496200Y-105646900D02*
X55496200Y-105771900D01*
G75*
G02*
X55433700Y-105834400I-62500J0D01*
G01*
X54683700Y-105834400D01*
G75*
G02*
X54621200Y-105771900I0J62500D01*
G01*
X54621200Y-105646900D01*
G75*
G02*
X54683700Y-105584400I62500J0D01*
G01*
X55433700Y-105584400D01*
G75*
G02*
X55496200Y-105646900I0J-62500D01*
G01*
G37*
G36*
G01*
X55496200Y-105146900D02*
X55496200Y-105271900D01*
G75*
G02*
X55433700Y-105334400I-62500J0D01*
G01*
X54683700Y-105334400D01*
G75*
G02*
X54621200Y-105271900I0J62500D01*
G01*
X54621200Y-105146900D01*
G75*
G02*
X54683700Y-105084400I62500J0D01*
G01*
X55433700Y-105084400D01*
G75*
G02*
X55496200Y-105146900I0J-62500D01*
G01*
G37*
G36*
G01*
X55496200Y-104646900D02*
X55496200Y-104771900D01*
G75*
G02*
X55433700Y-104834400I-62500J0D01*
G01*
X54683700Y-104834400D01*
G75*
G02*
X54621200Y-104771900I0J62500D01*
G01*
X54621200Y-104646900D01*
G75*
G02*
X54683700Y-104584400I62500J0D01*
G01*
X55433700Y-104584400D01*
G75*
G02*
X55496200Y-104646900I0J-62500D01*
G01*
G37*
G36*
G01*
X55496200Y-104146900D02*
X55496200Y-104271900D01*
G75*
G02*
X55433700Y-104334400I-62500J0D01*
G01*
X54683700Y-104334400D01*
G75*
G02*
X54621200Y-104271900I0J62500D01*
G01*
X54621200Y-104146900D01*
G75*
G02*
X54683700Y-104084400I62500J0D01*
G01*
X55433700Y-104084400D01*
G75*
G02*
X55496200Y-104146900I0J-62500D01*
G01*
G37*
G36*
G01*
X55871200Y-103146900D02*
X55871200Y-103896900D01*
G75*
G02*
X55808700Y-103959400I-62500J0D01*
G01*
X55683700Y-103959400D01*
G75*
G02*
X55621200Y-103896900I0J62500D01*
G01*
X55621200Y-103146900D01*
G75*
G02*
X55683700Y-103084400I62500J0D01*
G01*
X55808700Y-103084400D01*
G75*
G02*
X55871200Y-103146900I0J-62500D01*
G01*
G37*
G36*
G01*
X56371200Y-103146900D02*
X56371200Y-103896900D01*
G75*
G02*
X56308700Y-103959400I-62500J0D01*
G01*
X56183700Y-103959400D01*
G75*
G02*
X56121200Y-103896900I0J62500D01*
G01*
X56121200Y-103146900D01*
G75*
G02*
X56183700Y-103084400I62500J0D01*
G01*
X56308700Y-103084400D01*
G75*
G02*
X56371200Y-103146900I0J-62500D01*
G01*
G37*
G36*
G01*
X56871200Y-103146900D02*
X56871200Y-103896900D01*
G75*
G02*
X56808700Y-103959400I-62500J0D01*
G01*
X56683700Y-103959400D01*
G75*
G02*
X56621200Y-103896900I0J62500D01*
G01*
X56621200Y-103146900D01*
G75*
G02*
X56683700Y-103084400I62500J0D01*
G01*
X56808700Y-103084400D01*
G75*
G02*
X56871200Y-103146900I0J-62500D01*
G01*
G37*
G36*
G01*
X57371200Y-103146900D02*
X57371200Y-103896900D01*
G75*
G02*
X57308700Y-103959400I-62500J0D01*
G01*
X57183700Y-103959400D01*
G75*
G02*
X57121200Y-103896900I0J62500D01*
G01*
X57121200Y-103146900D01*
G75*
G02*
X57183700Y-103084400I62500J0D01*
G01*
X57308700Y-103084400D01*
G75*
G02*
X57371200Y-103146900I0J-62500D01*
G01*
G37*
G36*
G01*
X57871200Y-103146900D02*
X57871200Y-103896900D01*
G75*
G02*
X57808700Y-103959400I-62500J0D01*
G01*
X57683700Y-103959400D01*
G75*
G02*
X57621200Y-103896900I0J62500D01*
G01*
X57621200Y-103146900D01*
G75*
G02*
X57683700Y-103084400I62500J0D01*
G01*
X57808700Y-103084400D01*
G75*
G02*
X57871200Y-103146900I0J-62500D01*
G01*
G37*
G36*
G01*
X58371200Y-103146900D02*
X58371200Y-103896900D01*
G75*
G02*
X58308700Y-103959400I-62500J0D01*
G01*
X58183700Y-103959400D01*
G75*
G02*
X58121200Y-103896900I0J62500D01*
G01*
X58121200Y-103146900D01*
G75*
G02*
X58183700Y-103084400I62500J0D01*
G01*
X58308700Y-103084400D01*
G75*
G02*
X58371200Y-103146900I0J-62500D01*
G01*
G37*
G36*
G01*
X58871200Y-103146900D02*
X58871200Y-103896900D01*
G75*
G02*
X58808700Y-103959400I-62500J0D01*
G01*
X58683700Y-103959400D01*
G75*
G02*
X58621200Y-103896900I0J62500D01*
G01*
X58621200Y-103146900D01*
G75*
G02*
X58683700Y-103084400I62500J0D01*
G01*
X58808700Y-103084400D01*
G75*
G02*
X58871200Y-103146900I0J-62500D01*
G01*
G37*
G36*
G01*
X59371200Y-103146900D02*
X59371200Y-103896900D01*
G75*
G02*
X59308700Y-103959400I-62500J0D01*
G01*
X59183700Y-103959400D01*
G75*
G02*
X59121200Y-103896900I0J62500D01*
G01*
X59121200Y-103146900D01*
G75*
G02*
X59183700Y-103084400I62500J0D01*
G01*
X59308700Y-103084400D01*
G75*
G02*
X59371200Y-103146900I0J-62500D01*
G01*
G37*
G36*
G01*
X59871200Y-103146900D02*
X59871200Y-103896900D01*
G75*
G02*
X59808700Y-103959400I-62500J0D01*
G01*
X59683700Y-103959400D01*
G75*
G02*
X59621200Y-103896900I0J62500D01*
G01*
X59621200Y-103146900D01*
G75*
G02*
X59683700Y-103084400I62500J0D01*
G01*
X59808700Y-103084400D01*
G75*
G02*
X59871200Y-103146900I0J-62500D01*
G01*
G37*
G36*
G01*
X60371200Y-103146900D02*
X60371200Y-103896900D01*
G75*
G02*
X60308700Y-103959400I-62500J0D01*
G01*
X60183700Y-103959400D01*
G75*
G02*
X60121200Y-103896900I0J62500D01*
G01*
X60121200Y-103146900D01*
G75*
G02*
X60183700Y-103084400I62500J0D01*
G01*
X60308700Y-103084400D01*
G75*
G02*
X60371200Y-103146900I0J-62500D01*
G01*
G37*
G36*
G01*
X60871200Y-103146900D02*
X60871200Y-103896900D01*
G75*
G02*
X60808700Y-103959400I-62500J0D01*
G01*
X60683700Y-103959400D01*
G75*
G02*
X60621200Y-103896900I0J62500D01*
G01*
X60621200Y-103146900D01*
G75*
G02*
X60683700Y-103084400I62500J0D01*
G01*
X60808700Y-103084400D01*
G75*
G02*
X60871200Y-103146900I0J-62500D01*
G01*
G37*
G36*
G01*
X61371200Y-103146900D02*
X61371200Y-103896900D01*
G75*
G02*
X61308700Y-103959400I-62500J0D01*
G01*
X61183700Y-103959400D01*
G75*
G02*
X61121200Y-103896900I0J62500D01*
G01*
X61121200Y-103146900D01*
G75*
G02*
X61183700Y-103084400I62500J0D01*
G01*
X61308700Y-103084400D01*
G75*
G02*
X61371200Y-103146900I0J-62500D01*
G01*
G37*
G36*
G01*
X62371200Y-104146900D02*
X62371200Y-104271900D01*
G75*
G02*
X62308700Y-104334400I-62500J0D01*
G01*
X61558700Y-104334400D01*
G75*
G02*
X61496200Y-104271900I0J62500D01*
G01*
X61496200Y-104146900D01*
G75*
G02*
X61558700Y-104084400I62500J0D01*
G01*
X62308700Y-104084400D01*
G75*
G02*
X62371200Y-104146900I0J-62500D01*
G01*
G37*
G36*
G01*
X62371200Y-104646900D02*
X62371200Y-104771900D01*
G75*
G02*
X62308700Y-104834400I-62500J0D01*
G01*
X61558700Y-104834400D01*
G75*
G02*
X61496200Y-104771900I0J62500D01*
G01*
X61496200Y-104646900D01*
G75*
G02*
X61558700Y-104584400I62500J0D01*
G01*
X62308700Y-104584400D01*
G75*
G02*
X62371200Y-104646900I0J-62500D01*
G01*
G37*
G36*
G01*
X62371200Y-105146900D02*
X62371200Y-105271900D01*
G75*
G02*
X62308700Y-105334400I-62500J0D01*
G01*
X61558700Y-105334400D01*
G75*
G02*
X61496200Y-105271900I0J62500D01*
G01*
X61496200Y-105146900D01*
G75*
G02*
X61558700Y-105084400I62500J0D01*
G01*
X62308700Y-105084400D01*
G75*
G02*
X62371200Y-105146900I0J-62500D01*
G01*
G37*
G36*
G01*
X62371200Y-105646900D02*
X62371200Y-105771900D01*
G75*
G02*
X62308700Y-105834400I-62500J0D01*
G01*
X61558700Y-105834400D01*
G75*
G02*
X61496200Y-105771900I0J62500D01*
G01*
X61496200Y-105646900D01*
G75*
G02*
X61558700Y-105584400I62500J0D01*
G01*
X62308700Y-105584400D01*
G75*
G02*
X62371200Y-105646900I0J-62500D01*
G01*
G37*
G36*
G01*
X62371200Y-106146900D02*
X62371200Y-106271900D01*
G75*
G02*
X62308700Y-106334400I-62500J0D01*
G01*
X61558700Y-106334400D01*
G75*
G02*
X61496200Y-106271900I0J62500D01*
G01*
X61496200Y-106146900D01*
G75*
G02*
X61558700Y-106084400I62500J0D01*
G01*
X62308700Y-106084400D01*
G75*
G02*
X62371200Y-106146900I0J-62500D01*
G01*
G37*
G36*
G01*
X62371200Y-106646900D02*
X62371200Y-106771900D01*
G75*
G02*
X62308700Y-106834400I-62500J0D01*
G01*
X61558700Y-106834400D01*
G75*
G02*
X61496200Y-106771900I0J62500D01*
G01*
X61496200Y-106646900D01*
G75*
G02*
X61558700Y-106584400I62500J0D01*
G01*
X62308700Y-106584400D01*
G75*
G02*
X62371200Y-106646900I0J-62500D01*
G01*
G37*
G36*
G01*
X62371200Y-107146900D02*
X62371200Y-107271900D01*
G75*
G02*
X62308700Y-107334400I-62500J0D01*
G01*
X61558700Y-107334400D01*
G75*
G02*
X61496200Y-107271900I0J62500D01*
G01*
X61496200Y-107146900D01*
G75*
G02*
X61558700Y-107084400I62500J0D01*
G01*
X62308700Y-107084400D01*
G75*
G02*
X62371200Y-107146900I0J-62500D01*
G01*
G37*
G36*
G01*
X62371200Y-107646900D02*
X62371200Y-107771900D01*
G75*
G02*
X62308700Y-107834400I-62500J0D01*
G01*
X61558700Y-107834400D01*
G75*
G02*
X61496200Y-107771900I0J62500D01*
G01*
X61496200Y-107646900D01*
G75*
G02*
X61558700Y-107584400I62500J0D01*
G01*
X62308700Y-107584400D01*
G75*
G02*
X62371200Y-107646900I0J-62500D01*
G01*
G37*
G36*
G01*
X62371200Y-108146900D02*
X62371200Y-108271900D01*
G75*
G02*
X62308700Y-108334400I-62500J0D01*
G01*
X61558700Y-108334400D01*
G75*
G02*
X61496200Y-108271900I0J62500D01*
G01*
X61496200Y-108146900D01*
G75*
G02*
X61558700Y-108084400I62500J0D01*
G01*
X62308700Y-108084400D01*
G75*
G02*
X62371200Y-108146900I0J-62500D01*
G01*
G37*
G36*
G01*
X62371200Y-108646900D02*
X62371200Y-108771900D01*
G75*
G02*
X62308700Y-108834400I-62500J0D01*
G01*
X61558700Y-108834400D01*
G75*
G02*
X61496200Y-108771900I0J62500D01*
G01*
X61496200Y-108646900D01*
G75*
G02*
X61558700Y-108584400I62500J0D01*
G01*
X62308700Y-108584400D01*
G75*
G02*
X62371200Y-108646900I0J-62500D01*
G01*
G37*
G36*
G01*
X62371200Y-109146900D02*
X62371200Y-109271900D01*
G75*
G02*
X62308700Y-109334400I-62500J0D01*
G01*
X61558700Y-109334400D01*
G75*
G02*
X61496200Y-109271900I0J62500D01*
G01*
X61496200Y-109146900D01*
G75*
G02*
X61558700Y-109084400I62500J0D01*
G01*
X62308700Y-109084400D01*
G75*
G02*
X62371200Y-109146900I0J-62500D01*
G01*
G37*
G36*
G01*
X62371200Y-109646900D02*
X62371200Y-109771900D01*
G75*
G02*
X62308700Y-109834400I-62500J0D01*
G01*
X61558700Y-109834400D01*
G75*
G02*
X61496200Y-109771900I0J62500D01*
G01*
X61496200Y-109646900D01*
G75*
G02*
X61558700Y-109584400I62500J0D01*
G01*
X62308700Y-109584400D01*
G75*
G02*
X62371200Y-109646900I0J-62500D01*
G01*
G37*
G36*
G01*
X33656400Y-97647900D02*
X33656400Y-97347900D01*
G75*
G02*
X33806400Y-97197900I150000J0D01*
G01*
X35456400Y-97197900D01*
G75*
G02*
X35606400Y-97347900I0J-150000D01*
G01*
X35606400Y-97647900D01*
G75*
G02*
X35456400Y-97797900I-150000J0D01*
G01*
X33806400Y-97797900D01*
G75*
G02*
X33656400Y-97647900I0J150000D01*
G01*
G37*
G36*
G01*
X33656400Y-98917900D02*
X33656400Y-98617900D01*
G75*
G02*
X33806400Y-98467900I150000J0D01*
G01*
X35456400Y-98467900D01*
G75*
G02*
X35606400Y-98617900I0J-150000D01*
G01*
X35606400Y-98917900D01*
G75*
G02*
X35456400Y-99067900I-150000J0D01*
G01*
X33806400Y-99067900D01*
G75*
G02*
X33656400Y-98917900I0J150000D01*
G01*
G37*
G36*
G01*
X33656400Y-100187900D02*
X33656400Y-99887900D01*
G75*
G02*
X33806400Y-99737900I150000J0D01*
G01*
X35456400Y-99737900D01*
G75*
G02*
X35606400Y-99887900I0J-150000D01*
G01*
X35606400Y-100187900D01*
G75*
G02*
X35456400Y-100337900I-150000J0D01*
G01*
X33806400Y-100337900D01*
G75*
G02*
X33656400Y-100187900I0J150000D01*
G01*
G37*
G36*
G01*
X33656400Y-101457900D02*
X33656400Y-101157900D01*
G75*
G02*
X33806400Y-101007900I150000J0D01*
G01*
X35456400Y-101007900D01*
G75*
G02*
X35606400Y-101157900I0J-150000D01*
G01*
X35606400Y-101457900D01*
G75*
G02*
X35456400Y-101607900I-150000J0D01*
G01*
X33806400Y-101607900D01*
G75*
G02*
X33656400Y-101457900I0J150000D01*
G01*
G37*
G36*
G01*
X33656400Y-102727900D02*
X33656400Y-102427900D01*
G75*
G02*
X33806400Y-102277900I150000J0D01*
G01*
X35456400Y-102277900D01*
G75*
G02*
X35606400Y-102427900I0J-150000D01*
G01*
X35606400Y-102727900D01*
G75*
G02*
X35456400Y-102877900I-150000J0D01*
G01*
X33806400Y-102877900D01*
G75*
G02*
X33656400Y-102727900I0J150000D01*
G01*
G37*
G36*
G01*
X33656400Y-103997900D02*
X33656400Y-103697900D01*
G75*
G02*
X33806400Y-103547900I150000J0D01*
G01*
X35456400Y-103547900D01*
G75*
G02*
X35606400Y-103697900I0J-150000D01*
G01*
X35606400Y-103997900D01*
G75*
G02*
X35456400Y-104147900I-150000J0D01*
G01*
X33806400Y-104147900D01*
G75*
G02*
X33656400Y-103997900I0J150000D01*
G01*
G37*
G36*
G01*
X33656400Y-105267900D02*
X33656400Y-104967900D01*
G75*
G02*
X33806400Y-104817900I150000J0D01*
G01*
X35456400Y-104817900D01*
G75*
G02*
X35606400Y-104967900I0J-150000D01*
G01*
X35606400Y-105267900D01*
G75*
G02*
X35456400Y-105417900I-150000J0D01*
G01*
X33806400Y-105417900D01*
G75*
G02*
X33656400Y-105267900I0J150000D01*
G01*
G37*
G36*
G01*
X33656400Y-106537900D02*
X33656400Y-106237900D01*
G75*
G02*
X33806400Y-106087900I150000J0D01*
G01*
X35456400Y-106087900D01*
G75*
G02*
X35606400Y-106237900I0J-150000D01*
G01*
X35606400Y-106537900D01*
G75*
G02*
X35456400Y-106687900I-150000J0D01*
G01*
X33806400Y-106687900D01*
G75*
G02*
X33656400Y-106537900I0J150000D01*
G01*
G37*
G36*
G01*
X28706400Y-106537900D02*
X28706400Y-106237900D01*
G75*
G02*
X28856400Y-106087900I150000J0D01*
G01*
X30506400Y-106087900D01*
G75*
G02*
X30656400Y-106237900I0J-150000D01*
G01*
X30656400Y-106537900D01*
G75*
G02*
X30506400Y-106687900I-150000J0D01*
G01*
X28856400Y-106687900D01*
G75*
G02*
X28706400Y-106537900I0J150000D01*
G01*
G37*
G36*
G01*
X28706400Y-105267900D02*
X28706400Y-104967900D01*
G75*
G02*
X28856400Y-104817900I150000J0D01*
G01*
X30506400Y-104817900D01*
G75*
G02*
X30656400Y-104967900I0J-150000D01*
G01*
X30656400Y-105267900D01*
G75*
G02*
X30506400Y-105417900I-150000J0D01*
G01*
X28856400Y-105417900D01*
G75*
G02*
X28706400Y-105267900I0J150000D01*
G01*
G37*
G36*
G01*
X28706400Y-103997900D02*
X28706400Y-103697900D01*
G75*
G02*
X28856400Y-103547900I150000J0D01*
G01*
X30506400Y-103547900D01*
G75*
G02*
X30656400Y-103697900I0J-150000D01*
G01*
X30656400Y-103997900D01*
G75*
G02*
X30506400Y-104147900I-150000J0D01*
G01*
X28856400Y-104147900D01*
G75*
G02*
X28706400Y-103997900I0J150000D01*
G01*
G37*
G36*
G01*
X28706400Y-102727900D02*
X28706400Y-102427900D01*
G75*
G02*
X28856400Y-102277900I150000J0D01*
G01*
X30506400Y-102277900D01*
G75*
G02*
X30656400Y-102427900I0J-150000D01*
G01*
X30656400Y-102727900D01*
G75*
G02*
X30506400Y-102877900I-150000J0D01*
G01*
X28856400Y-102877900D01*
G75*
G02*
X28706400Y-102727900I0J150000D01*
G01*
G37*
G36*
G01*
X28706400Y-101457900D02*
X28706400Y-101157900D01*
G75*
G02*
X28856400Y-101007900I150000J0D01*
G01*
X30506400Y-101007900D01*
G75*
G02*
X30656400Y-101157900I0J-150000D01*
G01*
X30656400Y-101457900D01*
G75*
G02*
X30506400Y-101607900I-150000J0D01*
G01*
X28856400Y-101607900D01*
G75*
G02*
X28706400Y-101457900I0J150000D01*
G01*
G37*
G36*
G01*
X28706400Y-100187900D02*
X28706400Y-99887900D01*
G75*
G02*
X28856400Y-99737900I150000J0D01*
G01*
X30506400Y-99737900D01*
G75*
G02*
X30656400Y-99887900I0J-150000D01*
G01*
X30656400Y-100187900D01*
G75*
G02*
X30506400Y-100337900I-150000J0D01*
G01*
X28856400Y-100337900D01*
G75*
G02*
X28706400Y-100187900I0J150000D01*
G01*
G37*
G36*
G01*
X28706400Y-98917900D02*
X28706400Y-98617900D01*
G75*
G02*
X28856400Y-98467900I150000J0D01*
G01*
X30506400Y-98467900D01*
G75*
G02*
X30656400Y-98617900I0J-150000D01*
G01*
X30656400Y-98917900D01*
G75*
G02*
X30506400Y-99067900I-150000J0D01*
G01*
X28856400Y-99067900D01*
G75*
G02*
X28706400Y-98917900I0J150000D01*
G01*
G37*
G36*
G01*
X28706400Y-97647900D02*
X28706400Y-97347900D01*
G75*
G02*
X28856400Y-97197900I150000J0D01*
G01*
X30506400Y-97197900D01*
G75*
G02*
X30656400Y-97347900I0J-150000D01*
G01*
X30656400Y-97647900D01*
G75*
G02*
X30506400Y-97797900I-150000J0D01*
G01*
X28856400Y-97797900D01*
G75*
G02*
X28706400Y-97647900I0J150000D01*
G01*
G37*
G36*
G01*
X33656400Y-83081000D02*
X33656400Y-82781000D01*
G75*
G02*
X33806400Y-82631000I150000J0D01*
G01*
X35456400Y-82631000D01*
G75*
G02*
X35606400Y-82781000I0J-150000D01*
G01*
X35606400Y-83081000D01*
G75*
G02*
X35456400Y-83231000I-150000J0D01*
G01*
X33806400Y-83231000D01*
G75*
G02*
X33656400Y-83081000I0J150000D01*
G01*
G37*
G36*
G01*
X33656400Y-84351000D02*
X33656400Y-84051000D01*
G75*
G02*
X33806400Y-83901000I150000J0D01*
G01*
X35456400Y-83901000D01*
G75*
G02*
X35606400Y-84051000I0J-150000D01*
G01*
X35606400Y-84351000D01*
G75*
G02*
X35456400Y-84501000I-150000J0D01*
G01*
X33806400Y-84501000D01*
G75*
G02*
X33656400Y-84351000I0J150000D01*
G01*
G37*
G36*
G01*
X33656400Y-85621000D02*
X33656400Y-85321000D01*
G75*
G02*
X33806400Y-85171000I150000J0D01*
G01*
X35456400Y-85171000D01*
G75*
G02*
X35606400Y-85321000I0J-150000D01*
G01*
X35606400Y-85621000D01*
G75*
G02*
X35456400Y-85771000I-150000J0D01*
G01*
X33806400Y-85771000D01*
G75*
G02*
X33656400Y-85621000I0J150000D01*
G01*
G37*
G36*
G01*
X33656400Y-86891000D02*
X33656400Y-86591000D01*
G75*
G02*
X33806400Y-86441000I150000J0D01*
G01*
X35456400Y-86441000D01*
G75*
G02*
X35606400Y-86591000I0J-150000D01*
G01*
X35606400Y-86891000D01*
G75*
G02*
X35456400Y-87041000I-150000J0D01*
G01*
X33806400Y-87041000D01*
G75*
G02*
X33656400Y-86891000I0J150000D01*
G01*
G37*
G36*
G01*
X33656400Y-88161000D02*
X33656400Y-87861000D01*
G75*
G02*
X33806400Y-87711000I150000J0D01*
G01*
X35456400Y-87711000D01*
G75*
G02*
X35606400Y-87861000I0J-150000D01*
G01*
X35606400Y-88161000D01*
G75*
G02*
X35456400Y-88311000I-150000J0D01*
G01*
X33806400Y-88311000D01*
G75*
G02*
X33656400Y-88161000I0J150000D01*
G01*
G37*
G36*
G01*
X33656400Y-89431000D02*
X33656400Y-89131000D01*
G75*
G02*
X33806400Y-88981000I150000J0D01*
G01*
X35456400Y-88981000D01*
G75*
G02*
X35606400Y-89131000I0J-150000D01*
G01*
X35606400Y-89431000D01*
G75*
G02*
X35456400Y-89581000I-150000J0D01*
G01*
X33806400Y-89581000D01*
G75*
G02*
X33656400Y-89431000I0J150000D01*
G01*
G37*
G36*
G01*
X33656400Y-90701000D02*
X33656400Y-90401000D01*
G75*
G02*
X33806400Y-90251000I150000J0D01*
G01*
X35456400Y-90251000D01*
G75*
G02*
X35606400Y-90401000I0J-150000D01*
G01*
X35606400Y-90701000D01*
G75*
G02*
X35456400Y-90851000I-150000J0D01*
G01*
X33806400Y-90851000D01*
G75*
G02*
X33656400Y-90701000I0J150000D01*
G01*
G37*
G36*
G01*
X33656400Y-91971000D02*
X33656400Y-91671000D01*
G75*
G02*
X33806400Y-91521000I150000J0D01*
G01*
X35456400Y-91521000D01*
G75*
G02*
X35606400Y-91671000I0J-150000D01*
G01*
X35606400Y-91971000D01*
G75*
G02*
X35456400Y-92121000I-150000J0D01*
G01*
X33806400Y-92121000D01*
G75*
G02*
X33656400Y-91971000I0J150000D01*
G01*
G37*
G36*
G01*
X28706400Y-91971000D02*
X28706400Y-91671000D01*
G75*
G02*
X28856400Y-91521000I150000J0D01*
G01*
X30506400Y-91521000D01*
G75*
G02*
X30656400Y-91671000I0J-150000D01*
G01*
X30656400Y-91971000D01*
G75*
G02*
X30506400Y-92121000I-150000J0D01*
G01*
X28856400Y-92121000D01*
G75*
G02*
X28706400Y-91971000I0J150000D01*
G01*
G37*
G36*
G01*
X28706400Y-90701000D02*
X28706400Y-90401000D01*
G75*
G02*
X28856400Y-90251000I150000J0D01*
G01*
X30506400Y-90251000D01*
G75*
G02*
X30656400Y-90401000I0J-150000D01*
G01*
X30656400Y-90701000D01*
G75*
G02*
X30506400Y-90851000I-150000J0D01*
G01*
X28856400Y-90851000D01*
G75*
G02*
X28706400Y-90701000I0J150000D01*
G01*
G37*
G36*
G01*
X28706400Y-89431000D02*
X28706400Y-89131000D01*
G75*
G02*
X28856400Y-88981000I150000J0D01*
G01*
X30506400Y-88981000D01*
G75*
G02*
X30656400Y-89131000I0J-150000D01*
G01*
X30656400Y-89431000D01*
G75*
G02*
X30506400Y-89581000I-150000J0D01*
G01*
X28856400Y-89581000D01*
G75*
G02*
X28706400Y-89431000I0J150000D01*
G01*
G37*
G36*
G01*
X28706400Y-88161000D02*
X28706400Y-87861000D01*
G75*
G02*
X28856400Y-87711000I150000J0D01*
G01*
X30506400Y-87711000D01*
G75*
G02*
X30656400Y-87861000I0J-150000D01*
G01*
X30656400Y-88161000D01*
G75*
G02*
X30506400Y-88311000I-150000J0D01*
G01*
X28856400Y-88311000D01*
G75*
G02*
X28706400Y-88161000I0J150000D01*
G01*
G37*
G36*
G01*
X28706400Y-86891000D02*
X28706400Y-86591000D01*
G75*
G02*
X28856400Y-86441000I150000J0D01*
G01*
X30506400Y-86441000D01*
G75*
G02*
X30656400Y-86591000I0J-150000D01*
G01*
X30656400Y-86891000D01*
G75*
G02*
X30506400Y-87041000I-150000J0D01*
G01*
X28856400Y-87041000D01*
G75*
G02*
X28706400Y-86891000I0J150000D01*
G01*
G37*
G36*
G01*
X28706400Y-85621000D02*
X28706400Y-85321000D01*
G75*
G02*
X28856400Y-85171000I150000J0D01*
G01*
X30506400Y-85171000D01*
G75*
G02*
X30656400Y-85321000I0J-150000D01*
G01*
X30656400Y-85621000D01*
G75*
G02*
X30506400Y-85771000I-150000J0D01*
G01*
X28856400Y-85771000D01*
G75*
G02*
X28706400Y-85621000I0J150000D01*
G01*
G37*
G36*
G01*
X28706400Y-84351000D02*
X28706400Y-84051000D01*
G75*
G02*
X28856400Y-83901000I150000J0D01*
G01*
X30506400Y-83901000D01*
G75*
G02*
X30656400Y-84051000I0J-150000D01*
G01*
X30656400Y-84351000D01*
G75*
G02*
X30506400Y-84501000I-150000J0D01*
G01*
X28856400Y-84501000D01*
G75*
G02*
X28706400Y-84351000I0J150000D01*
G01*
G37*
G36*
G01*
X28706400Y-83081000D02*
X28706400Y-82781000D01*
G75*
G02*
X28856400Y-82631000I150000J0D01*
G01*
X30506400Y-82631000D01*
G75*
G02*
X30656400Y-82781000I0J-150000D01*
G01*
X30656400Y-83081000D01*
G75*
G02*
X30506400Y-83231000I-150000J0D01*
G01*
X28856400Y-83231000D01*
G75*
G02*
X28706400Y-83081000I0J150000D01*
G01*
G37*
D19*
X14939000Y-88011000D03*
X14939000Y-90551000D03*
X26369000Y-90551000D03*
X26369000Y-88011000D03*
X14939000Y-93091000D03*
X26369000Y-93091000D03*
M02*
