G04 #@! TF.GenerationSoftware,KiCad,Pcbnew,5.1.7*
G04 #@! TF.CreationDate,2020-11-02T19:08:24-06:00*
G04 #@! TF.ProjectId,pcb,7063622e-6b69-4636-9164-5f7063625858,rev?*
G04 #@! TF.SameCoordinates,Original*
G04 #@! TF.FileFunction,Legend,Bot*
G04 #@! TF.FilePolarity,Positive*
%FSLAX46Y46*%
G04 Gerber Fmt 4.6, Leading zero omitted, Abs format (unit mm)*
G04 Created by KiCad (PCBNEW 5.1.7) date 2020-11-02 19:08:24*
%MOMM*%
%LPD*%
G01*
G04 APERTURE LIST*
%ADD10C,0.100000*%
%ADD11C,0.150000*%
%ADD12C,0.120000*%
G04 APERTURE END LIST*
D10*
G36*
X39750000Y-91000000D02*
G01*
X24250000Y-91000000D01*
X24250000Y-86250000D01*
X39750000Y-86250000D01*
X39750000Y-91000000D01*
G37*
X39750000Y-91000000D02*
X24250000Y-91000000D01*
X24250000Y-86250000D01*
X39750000Y-86250000D01*
X39750000Y-91000000D01*
D11*
X39681070Y-80302380D02*
X39681070Y-79302380D01*
X38871546Y-79778571D02*
X38728689Y-79826190D01*
X38681070Y-79873809D01*
X38633451Y-79969047D01*
X38633451Y-80111904D01*
X38681070Y-80207142D01*
X38728689Y-80254761D01*
X38823927Y-80302380D01*
X39204880Y-80302380D01*
X39204880Y-79302380D01*
X38871546Y-79302380D01*
X38776308Y-79350000D01*
X38728689Y-79397619D01*
X38681070Y-79492857D01*
X38681070Y-79588095D01*
X38728689Y-79683333D01*
X38776308Y-79730952D01*
X38871546Y-79778571D01*
X39204880Y-79778571D01*
X38204880Y-80302380D02*
X38204880Y-79302380D01*
X37871546Y-80016666D01*
X37538213Y-79302380D01*
X37538213Y-80302380D01*
X36395356Y-79302380D02*
X35776308Y-79302380D01*
X36109642Y-79683333D01*
X35966785Y-79683333D01*
X35871546Y-79730952D01*
X35823927Y-79778571D01*
X35776308Y-79873809D01*
X35776308Y-80111904D01*
X35823927Y-80207142D01*
X35871546Y-80254761D01*
X35966785Y-80302380D01*
X36252499Y-80302380D01*
X36347737Y-80254761D01*
X36395356Y-80207142D01*
X35395356Y-79397619D02*
X35347737Y-79350000D01*
X35252499Y-79302380D01*
X35014404Y-79302380D01*
X34919166Y-79350000D01*
X34871546Y-79397619D01*
X34823927Y-79492857D01*
X34823927Y-79588095D01*
X34871546Y-79730952D01*
X35442975Y-80302380D01*
X34823927Y-80302380D01*
X34490594Y-79302380D02*
X33823927Y-79302380D01*
X34252499Y-80302380D01*
X33252499Y-79302380D02*
X33157261Y-79302380D01*
X33062023Y-79350000D01*
X33014404Y-79397619D01*
X32966785Y-79492857D01*
X32919166Y-79683333D01*
X32919166Y-79921428D01*
X32966785Y-80111904D01*
X33014404Y-80207142D01*
X33062023Y-80254761D01*
X33157261Y-80302380D01*
X33252499Y-80302380D01*
X33347737Y-80254761D01*
X33395356Y-80207142D01*
X33442975Y-80111904D01*
X33490594Y-79921428D01*
X33490594Y-79683333D01*
X33442975Y-79492857D01*
X33395356Y-79397619D01*
X33347737Y-79350000D01*
X33252499Y-79302380D01*
X31728689Y-80302380D02*
X31728689Y-79302380D01*
X31252499Y-79635714D02*
X31252499Y-80302380D01*
X31252499Y-79730952D02*
X31204880Y-79683333D01*
X31109642Y-79635714D01*
X30966785Y-79635714D01*
X30871546Y-79683333D01*
X30823927Y-79778571D01*
X30823927Y-80302380D01*
X30490594Y-79635714D02*
X30109642Y-79635714D01*
X30347737Y-79302380D02*
X30347737Y-80159523D01*
X30300118Y-80254761D01*
X30204880Y-80302380D01*
X30109642Y-80302380D01*
X29395356Y-80254761D02*
X29490594Y-80302380D01*
X29681070Y-80302380D01*
X29776308Y-80254761D01*
X29823927Y-80159523D01*
X29823927Y-79778571D01*
X29776308Y-79683333D01*
X29681070Y-79635714D01*
X29490594Y-79635714D01*
X29395356Y-79683333D01*
X29347737Y-79778571D01*
X29347737Y-79873809D01*
X29823927Y-79969047D01*
X28919166Y-80302380D02*
X28919166Y-79635714D01*
X28919166Y-79826190D02*
X28871546Y-79730952D01*
X28823927Y-79683333D01*
X28728689Y-79635714D01*
X28633451Y-79635714D01*
X28442975Y-79635714D02*
X28062023Y-79635714D01*
X28300118Y-80302380D02*
X28300118Y-79445238D01*
X28252499Y-79350000D01*
X28157261Y-79302380D01*
X28062023Y-79302380D01*
X27300118Y-80302380D02*
X27300118Y-79778571D01*
X27347737Y-79683333D01*
X27442975Y-79635714D01*
X27633451Y-79635714D01*
X27728689Y-79683333D01*
X27300118Y-80254761D02*
X27395356Y-80302380D01*
X27633451Y-80302380D01*
X27728689Y-80254761D01*
X27776308Y-80159523D01*
X27776308Y-80064285D01*
X27728689Y-79969047D01*
X27633451Y-79921428D01*
X27395356Y-79921428D01*
X27300118Y-79873809D01*
X26395356Y-80254761D02*
X26490594Y-80302380D01*
X26681070Y-80302380D01*
X26776308Y-80254761D01*
X26823927Y-80207142D01*
X26871546Y-80111904D01*
X26871546Y-79826190D01*
X26823927Y-79730952D01*
X26776308Y-79683333D01*
X26681070Y-79635714D01*
X26490594Y-79635714D01*
X26395356Y-79683333D01*
X25585832Y-80254761D02*
X25681070Y-80302380D01*
X25871546Y-80302380D01*
X25966785Y-80254761D01*
X26014404Y-80159523D01*
X26014404Y-79778571D01*
X25966785Y-79683333D01*
X25871546Y-79635714D01*
X25681070Y-79635714D01*
X25585832Y-79683333D01*
X25538213Y-79778571D01*
X25538213Y-79873809D01*
X26014404Y-79969047D01*
X39681070Y-81952380D02*
X39681070Y-80952380D01*
X39252499Y-81952380D02*
X39252499Y-81428571D01*
X39300118Y-81333333D01*
X39395356Y-81285714D01*
X39538213Y-81285714D01*
X39633451Y-81333333D01*
X39681070Y-81380952D01*
X38919166Y-81285714D02*
X38538213Y-81285714D01*
X38776308Y-80952380D02*
X38776308Y-81809523D01*
X38728689Y-81904761D01*
X38633451Y-81952380D01*
X38538213Y-81952380D01*
X38347737Y-81285714D02*
X37966785Y-81285714D01*
X38204880Y-80952380D02*
X38204880Y-81809523D01*
X38157261Y-81904761D01*
X38062023Y-81952380D01*
X37966785Y-81952380D01*
X37633451Y-81285714D02*
X37633451Y-82285714D01*
X37633451Y-81333333D02*
X37538213Y-81285714D01*
X37347737Y-81285714D01*
X37252499Y-81333333D01*
X37204880Y-81380952D01*
X37157261Y-81476190D01*
X37157261Y-81761904D01*
X37204880Y-81857142D01*
X37252499Y-81904761D01*
X37347737Y-81952380D01*
X37538213Y-81952380D01*
X37633451Y-81904761D01*
X36776308Y-81904761D02*
X36681070Y-81952380D01*
X36490594Y-81952380D01*
X36395356Y-81904761D01*
X36347737Y-81809523D01*
X36347737Y-81761904D01*
X36395356Y-81666666D01*
X36490594Y-81619047D01*
X36633451Y-81619047D01*
X36728689Y-81571428D01*
X36776308Y-81476190D01*
X36776308Y-81428571D01*
X36728689Y-81333333D01*
X36633451Y-81285714D01*
X36490594Y-81285714D01*
X36395356Y-81333333D01*
X35919166Y-81857142D02*
X35871546Y-81904761D01*
X35919166Y-81952380D01*
X35966785Y-81904761D01*
X35919166Y-81857142D01*
X35919166Y-81952380D01*
X35919166Y-81333333D02*
X35871546Y-81380952D01*
X35919166Y-81428571D01*
X35966785Y-81380952D01*
X35919166Y-81333333D01*
X35919166Y-81428571D01*
X34728689Y-80904761D02*
X35585832Y-82190476D01*
X33681070Y-80904761D02*
X34538213Y-82190476D01*
X32919166Y-81952380D02*
X32919166Y-81428571D01*
X32966785Y-81333333D01*
X33062023Y-81285714D01*
X33252499Y-81285714D01*
X33347737Y-81333333D01*
X32919166Y-81904761D02*
X33014404Y-81952380D01*
X33252499Y-81952380D01*
X33347737Y-81904761D01*
X33395356Y-81809523D01*
X33395356Y-81714285D01*
X33347737Y-81619047D01*
X33252499Y-81571428D01*
X33014404Y-81571428D01*
X32919166Y-81523809D01*
X32442975Y-81285714D02*
X32442975Y-82142857D01*
X32490594Y-82238095D01*
X32585832Y-82285714D01*
X32633451Y-82285714D01*
X32442975Y-80952380D02*
X32490594Y-81000000D01*
X32442975Y-81047619D01*
X32395356Y-81000000D01*
X32442975Y-80952380D01*
X32442975Y-81047619D01*
X31966785Y-81952380D02*
X31966785Y-80952380D01*
X31871546Y-81571428D02*
X31585832Y-81952380D01*
X31585832Y-81285714D02*
X31966785Y-81666666D01*
X31157261Y-81857142D02*
X31109642Y-81904761D01*
X31157261Y-81952380D01*
X31204880Y-81904761D01*
X31157261Y-81857142D01*
X31157261Y-81952380D01*
X30681070Y-81952380D02*
X30681070Y-81285714D01*
X30681070Y-81380952D02*
X30633451Y-81333333D01*
X30538213Y-81285714D01*
X30395356Y-81285714D01*
X30300118Y-81333333D01*
X30252499Y-81428571D01*
X30252499Y-81952380D01*
X30252499Y-81428571D02*
X30204880Y-81333333D01*
X30109642Y-81285714D01*
X29966785Y-81285714D01*
X29871546Y-81333333D01*
X29823927Y-81428571D01*
X29823927Y-81952380D01*
X28966785Y-81904761D02*
X29062023Y-81952380D01*
X29252499Y-81952380D01*
X29347737Y-81904761D01*
X29395356Y-81809523D01*
X29395356Y-81428571D01*
X29347737Y-81333333D01*
X29252499Y-81285714D01*
X29062023Y-81285714D01*
X28966785Y-81333333D01*
X28919166Y-81428571D01*
X28919166Y-81523809D01*
X29395356Y-81619047D01*
X27776308Y-80904761D02*
X28633451Y-82190476D01*
X27538213Y-81285714D02*
X27300118Y-81952380D01*
X27062023Y-81285714D01*
X26728689Y-81047619D02*
X26681070Y-81000000D01*
X26585832Y-80952380D01*
X26347737Y-80952380D01*
X26252499Y-81000000D01*
X26204880Y-81047619D01*
X26157261Y-81142857D01*
X26157261Y-81238095D01*
X26204880Y-81380952D01*
X26776308Y-81952380D01*
X26157261Y-81952380D01*
X25823927Y-81952380D02*
X25300118Y-81285714D01*
X25823927Y-81285714D02*
X25300118Y-81952380D01*
X24919166Y-81285714D02*
X24919166Y-82285714D01*
X24919166Y-81333333D02*
X24823927Y-81285714D01*
X24633451Y-81285714D01*
X24538213Y-81333333D01*
X24490594Y-81380952D01*
X24442975Y-81476190D01*
X24442975Y-81761904D01*
X24490594Y-81857142D01*
X24538213Y-81904761D01*
X24633451Y-81952380D01*
X24823927Y-81952380D01*
X24919166Y-81904761D01*
X39681070Y-83602380D02*
X39681070Y-82935714D01*
X39681070Y-82602380D02*
X39728689Y-82650000D01*
X39681070Y-82697619D01*
X39633451Y-82650000D01*
X39681070Y-82602380D01*
X39681070Y-82697619D01*
X39204880Y-82935714D02*
X39204880Y-83602380D01*
X39204880Y-83030952D02*
X39157261Y-82983333D01*
X39062023Y-82935714D01*
X38919166Y-82935714D01*
X38823927Y-82983333D01*
X38776308Y-83078571D01*
X38776308Y-83602380D01*
X38442975Y-82935714D02*
X38062023Y-82935714D01*
X38300118Y-82602380D02*
X38300118Y-83459523D01*
X38252499Y-83554761D01*
X38157261Y-83602380D01*
X38062023Y-83602380D01*
X37347737Y-83554761D02*
X37442975Y-83602380D01*
X37633451Y-83602380D01*
X37728689Y-83554761D01*
X37776308Y-83459523D01*
X37776308Y-83078571D01*
X37728689Y-82983333D01*
X37633451Y-82935714D01*
X37442975Y-82935714D01*
X37347737Y-82983333D01*
X37300118Y-83078571D01*
X37300118Y-83173809D01*
X37776308Y-83269047D01*
X36871546Y-83602380D02*
X36871546Y-82935714D01*
X36871546Y-83126190D02*
X36823927Y-83030952D01*
X36776308Y-82983333D01*
X36681070Y-82935714D01*
X36585832Y-82935714D01*
X36395356Y-82935714D02*
X36014404Y-82935714D01*
X36252499Y-83602380D02*
X36252499Y-82745238D01*
X36204880Y-82650000D01*
X36109642Y-82602380D01*
X36014404Y-82602380D01*
X35252499Y-83602380D02*
X35252499Y-83078571D01*
X35300118Y-82983333D01*
X35395356Y-82935714D01*
X35585832Y-82935714D01*
X35681070Y-82983333D01*
X35252499Y-83554761D02*
X35347737Y-83602380D01*
X35585832Y-83602380D01*
X35681070Y-83554761D01*
X35728689Y-83459523D01*
X35728689Y-83364285D01*
X35681070Y-83269047D01*
X35585832Y-83221428D01*
X35347737Y-83221428D01*
X35252499Y-83173809D01*
X34347737Y-83554761D02*
X34442975Y-83602380D01*
X34633451Y-83602380D01*
X34728689Y-83554761D01*
X34776308Y-83507142D01*
X34823927Y-83411904D01*
X34823927Y-83126190D01*
X34776308Y-83030952D01*
X34728689Y-82983333D01*
X34633451Y-82935714D01*
X34442975Y-82935714D01*
X34347737Y-82983333D01*
X33538213Y-83554761D02*
X33633451Y-83602380D01*
X33823927Y-83602380D01*
X33919166Y-83554761D01*
X33966785Y-83459523D01*
X33966785Y-83078571D01*
X33919166Y-82983333D01*
X33823927Y-82935714D01*
X33633451Y-82935714D01*
X33538213Y-82983333D01*
X33490594Y-83078571D01*
X33490594Y-83173809D01*
X33966785Y-83269047D01*
X33109642Y-82697619D02*
X33062023Y-82650000D01*
X32966785Y-82602380D01*
X32728689Y-82602380D01*
X32633451Y-82650000D01*
X32585832Y-82697619D01*
X32538213Y-82792857D01*
X32538213Y-82888095D01*
X32585832Y-83030952D01*
X33157261Y-83602380D01*
X32538213Y-83602380D01*
X31347737Y-83221428D02*
X30585832Y-83221428D01*
X28776308Y-83602380D02*
X29109642Y-83126190D01*
X29347737Y-83602380D02*
X29347737Y-82602380D01*
X28966785Y-82602380D01*
X28871546Y-82650000D01*
X28823927Y-82697619D01*
X28776308Y-82792857D01*
X28776308Y-82935714D01*
X28823927Y-83030952D01*
X28871546Y-83078571D01*
X28966785Y-83126190D01*
X29347737Y-83126190D01*
X27966785Y-83554761D02*
X28062023Y-83602380D01*
X28252499Y-83602380D01*
X28347737Y-83554761D01*
X28395356Y-83459523D01*
X28395356Y-83078571D01*
X28347737Y-82983333D01*
X28252499Y-82935714D01*
X28062023Y-82935714D01*
X27966785Y-82983333D01*
X27919166Y-83078571D01*
X27919166Y-83173809D01*
X28395356Y-83269047D01*
X27585832Y-82935714D02*
X27347737Y-83602380D01*
X27109642Y-82935714D01*
X26062023Y-82602380D02*
X25395356Y-83602380D01*
X25395356Y-82602380D02*
X26062023Y-83602380D01*
X24490594Y-83602380D02*
X25062023Y-83602380D01*
X24776308Y-83602380D02*
X24776308Y-82602380D01*
X24871546Y-82745238D01*
X24966785Y-82840476D01*
X25062023Y-82888095D01*
D12*
X70225000Y-71275000D02*
G75*
G03*
X70225000Y-71275000I-700000J0D01*
G01*
X42700000Y-73500000D02*
G75*
G03*
X42700000Y-73500000I-700000J0D01*
G01*
X46200000Y-71250000D02*
G75*
G03*
X46200000Y-71250000I-700000J0D01*
G01*
X65450000Y-67000000D02*
G75*
G03*
X65450000Y-67000000I-700000J0D01*
G01*
M02*
