G04 #@! TF.GenerationSoftware,KiCad,Pcbnew,5.1.6*
G04 #@! TF.CreationDate,2020-09-03T22:14:07-05:00*
G04 #@! TF.ProjectId,pcb,7063622e-6b69-4636-9164-5f7063625858,rev?*
G04 #@! TF.SameCoordinates,Original*
G04 #@! TF.FileFunction,Soldermask,Bot*
G04 #@! TF.FilePolarity,Negative*
%FSLAX46Y46*%
G04 Gerber Fmt 4.6, Leading zero omitted, Abs format (unit mm)*
G04 Created by KiCad (PCBNEW 5.1.6) date 2020-09-03 22:14:07*
%MOMM*%
%LPD*%
G01*
G04 APERTURE LIST*
%ADD10C,0.100000*%
G04 APERTURE END LIST*
D10*
G36*
X71134979Y-112924912D02*
G01*
X71635593Y-113132272D01*
X72086134Y-113433315D01*
X72469285Y-113816466D01*
X72770328Y-114267007D01*
X72977688Y-114767621D01*
X73083400Y-115299070D01*
X73083400Y-115840930D01*
X72977688Y-116372379D01*
X72770328Y-116872993D01*
X72469285Y-117323534D01*
X72086134Y-117706685D01*
X71635593Y-118007728D01*
X71134979Y-118215088D01*
X70603530Y-118320800D01*
X70061670Y-118320800D01*
X69530221Y-118215088D01*
X69029607Y-118007728D01*
X68579066Y-117706685D01*
X68195915Y-117323534D01*
X67894872Y-116872993D01*
X67687512Y-116372379D01*
X67581800Y-115840930D01*
X67581800Y-115299070D01*
X67687512Y-114767621D01*
X67894872Y-114267007D01*
X68195915Y-113816466D01*
X68579066Y-113433315D01*
X69029607Y-113132272D01*
X69530221Y-112924912D01*
X70061670Y-112819200D01*
X70603530Y-112819200D01*
X71134979Y-112924912D01*
G37*
G36*
X16042379Y-112924912D02*
G01*
X16542993Y-113132272D01*
X16993534Y-113433315D01*
X17376685Y-113816466D01*
X17677728Y-114267007D01*
X17885088Y-114767621D01*
X17990800Y-115299070D01*
X17990800Y-115840930D01*
X17885088Y-116372379D01*
X17677728Y-116872993D01*
X17376685Y-117323534D01*
X16993534Y-117706685D01*
X16542993Y-118007728D01*
X16042379Y-118215088D01*
X15510930Y-118320800D01*
X14969070Y-118320800D01*
X14437621Y-118215088D01*
X13937007Y-118007728D01*
X13486466Y-117706685D01*
X13103315Y-117323534D01*
X12802272Y-116872993D01*
X12594912Y-116372379D01*
X12489200Y-115840930D01*
X12489200Y-115299070D01*
X12594912Y-114767621D01*
X12802272Y-114267007D01*
X13103315Y-113816466D01*
X13486466Y-113433315D01*
X13937007Y-113132272D01*
X14437621Y-112924912D01*
X14969070Y-112819200D01*
X15510930Y-112819200D01*
X16042379Y-112924912D01*
G37*
G36*
X44077754Y-109750817D02*
G01*
X44241689Y-109818721D01*
X44389227Y-109917303D01*
X44514697Y-110042773D01*
X44613279Y-110190311D01*
X44681183Y-110354246D01*
X44715800Y-110528279D01*
X44715800Y-110705721D01*
X44681183Y-110879754D01*
X44613279Y-111043689D01*
X44514697Y-111191227D01*
X44389227Y-111316697D01*
X44241689Y-111415279D01*
X44077754Y-111483183D01*
X43903721Y-111517800D01*
X43726279Y-111517800D01*
X43552246Y-111483183D01*
X43388311Y-111415279D01*
X43240773Y-111316697D01*
X43115303Y-111191227D01*
X43016721Y-111043689D01*
X42948817Y-110879754D01*
X42914200Y-110705721D01*
X42914200Y-110528279D01*
X42948817Y-110354246D01*
X43016721Y-110190311D01*
X43115303Y-110042773D01*
X43240773Y-109917303D01*
X43388311Y-109818721D01*
X43552246Y-109750817D01*
X43726279Y-109716200D01*
X43903721Y-109716200D01*
X44077754Y-109750817D01*
G37*
G36*
X41537754Y-109750817D02*
G01*
X41701689Y-109818721D01*
X41849227Y-109917303D01*
X41974697Y-110042773D01*
X42073279Y-110190311D01*
X42141183Y-110354246D01*
X42175800Y-110528279D01*
X42175800Y-110705721D01*
X42141183Y-110879754D01*
X42073279Y-111043689D01*
X41974697Y-111191227D01*
X41849227Y-111316697D01*
X41701689Y-111415279D01*
X41537754Y-111483183D01*
X41363721Y-111517800D01*
X41186279Y-111517800D01*
X41012246Y-111483183D01*
X40848311Y-111415279D01*
X40700773Y-111316697D01*
X40575303Y-111191227D01*
X40476721Y-111043689D01*
X40408817Y-110879754D01*
X40374200Y-110705721D01*
X40374200Y-110528279D01*
X40408817Y-110354246D01*
X40476721Y-110190311D01*
X40575303Y-110042773D01*
X40700773Y-109917303D01*
X40848311Y-109818721D01*
X41012246Y-109750817D01*
X41186279Y-109716200D01*
X41363721Y-109716200D01*
X41537754Y-109750817D01*
G37*
G36*
X70595354Y-109750817D02*
G01*
X70759289Y-109818721D01*
X70906827Y-109917303D01*
X71032297Y-110042773D01*
X71130879Y-110190311D01*
X71198783Y-110354246D01*
X71233400Y-110528279D01*
X71233400Y-110705721D01*
X71198783Y-110879754D01*
X71130879Y-111043689D01*
X71032297Y-111191227D01*
X70906827Y-111316697D01*
X70759289Y-111415279D01*
X70595354Y-111483183D01*
X70421321Y-111517800D01*
X70243879Y-111517800D01*
X70069846Y-111483183D01*
X69905911Y-111415279D01*
X69758373Y-111316697D01*
X69632903Y-111191227D01*
X69534321Y-111043689D01*
X69466417Y-110879754D01*
X69431800Y-110705721D01*
X69431800Y-110528279D01*
X69466417Y-110354246D01*
X69534321Y-110190311D01*
X69632903Y-110042773D01*
X69758373Y-109917303D01*
X69905911Y-109818721D01*
X70069846Y-109750817D01*
X70243879Y-109716200D01*
X70421321Y-109716200D01*
X70595354Y-109750817D01*
G37*
G36*
X70595354Y-107210817D02*
G01*
X70759289Y-107278721D01*
X70906827Y-107377303D01*
X71032297Y-107502773D01*
X71130879Y-107650311D01*
X71198783Y-107814246D01*
X71233400Y-107988279D01*
X71233400Y-108165721D01*
X71198783Y-108339754D01*
X71130879Y-108503689D01*
X71032297Y-108651227D01*
X70906827Y-108776697D01*
X70759289Y-108875279D01*
X70595354Y-108943183D01*
X70421321Y-108977800D01*
X70243879Y-108977800D01*
X70069846Y-108943183D01*
X69905911Y-108875279D01*
X69758373Y-108776697D01*
X69632903Y-108651227D01*
X69534321Y-108503689D01*
X69466417Y-108339754D01*
X69431800Y-108165721D01*
X69431800Y-107988279D01*
X69466417Y-107814246D01*
X69534321Y-107650311D01*
X69632903Y-107502773D01*
X69758373Y-107377303D01*
X69905911Y-107278721D01*
X70069846Y-107210817D01*
X70243879Y-107176200D01*
X70421321Y-107176200D01*
X70595354Y-107210817D01*
G37*
G36*
X44077754Y-107210817D02*
G01*
X44241689Y-107278721D01*
X44389227Y-107377303D01*
X44514697Y-107502773D01*
X44613279Y-107650311D01*
X44681183Y-107814246D01*
X44715800Y-107988279D01*
X44715800Y-108165721D01*
X44681183Y-108339754D01*
X44613279Y-108503689D01*
X44514697Y-108651227D01*
X44389227Y-108776697D01*
X44241689Y-108875279D01*
X44077754Y-108943183D01*
X43903721Y-108977800D01*
X43726279Y-108977800D01*
X43552246Y-108943183D01*
X43388311Y-108875279D01*
X43240773Y-108776697D01*
X43115303Y-108651227D01*
X43016721Y-108503689D01*
X42948817Y-108339754D01*
X42914200Y-108165721D01*
X42914200Y-107988279D01*
X42948817Y-107814246D01*
X43016721Y-107650311D01*
X43115303Y-107502773D01*
X43240773Y-107377303D01*
X43388311Y-107278721D01*
X43552246Y-107210817D01*
X43726279Y-107176200D01*
X43903721Y-107176200D01*
X44077754Y-107210817D01*
G37*
G36*
X41537754Y-107210817D02*
G01*
X41701689Y-107278721D01*
X41849227Y-107377303D01*
X41974697Y-107502773D01*
X42073279Y-107650311D01*
X42141183Y-107814246D01*
X42175800Y-107988279D01*
X42175800Y-108165721D01*
X42141183Y-108339754D01*
X42073279Y-108503689D01*
X41974697Y-108651227D01*
X41849227Y-108776697D01*
X41701689Y-108875279D01*
X41537754Y-108943183D01*
X41363721Y-108977800D01*
X41186279Y-108977800D01*
X41012246Y-108943183D01*
X40848311Y-108875279D01*
X40700773Y-108776697D01*
X40575303Y-108651227D01*
X40476721Y-108503689D01*
X40408817Y-108339754D01*
X40374200Y-108165721D01*
X40374200Y-107988279D01*
X40408817Y-107814246D01*
X40476721Y-107650311D01*
X40575303Y-107502773D01*
X40700773Y-107377303D01*
X40848311Y-107278721D01*
X41012246Y-107210817D01*
X41186279Y-107176200D01*
X41363721Y-107176200D01*
X41537754Y-107210817D01*
G37*
G36*
X70595354Y-104670817D02*
G01*
X70759289Y-104738721D01*
X70906827Y-104837303D01*
X71032297Y-104962773D01*
X71130879Y-105110311D01*
X71198783Y-105274246D01*
X71233400Y-105448279D01*
X71233400Y-105625721D01*
X71198783Y-105799754D01*
X71130879Y-105963689D01*
X71032297Y-106111227D01*
X70906827Y-106236697D01*
X70759289Y-106335279D01*
X70595354Y-106403183D01*
X70421321Y-106437800D01*
X70243879Y-106437800D01*
X70069846Y-106403183D01*
X69905911Y-106335279D01*
X69758373Y-106236697D01*
X69632903Y-106111227D01*
X69534321Y-105963689D01*
X69466417Y-105799754D01*
X69431800Y-105625721D01*
X69431800Y-105448279D01*
X69466417Y-105274246D01*
X69534321Y-105110311D01*
X69632903Y-104962773D01*
X69758373Y-104837303D01*
X69905911Y-104738721D01*
X70069846Y-104670817D01*
X70243879Y-104636200D01*
X70421321Y-104636200D01*
X70595354Y-104670817D01*
G37*
G36*
X44077754Y-104670817D02*
G01*
X44241689Y-104738721D01*
X44389227Y-104837303D01*
X44514697Y-104962773D01*
X44613279Y-105110311D01*
X44681183Y-105274246D01*
X44715800Y-105448279D01*
X44715800Y-105625721D01*
X44681183Y-105799754D01*
X44613279Y-105963689D01*
X44514697Y-106111227D01*
X44389227Y-106236697D01*
X44241689Y-106335279D01*
X44077754Y-106403183D01*
X43903721Y-106437800D01*
X43726279Y-106437800D01*
X43552246Y-106403183D01*
X43388311Y-106335279D01*
X43240773Y-106236697D01*
X43115303Y-106111227D01*
X43016721Y-105963689D01*
X42948817Y-105799754D01*
X42914200Y-105625721D01*
X42914200Y-105448279D01*
X42948817Y-105274246D01*
X43016721Y-105110311D01*
X43115303Y-104962773D01*
X43240773Y-104837303D01*
X43388311Y-104738721D01*
X43552246Y-104670817D01*
X43726279Y-104636200D01*
X43903721Y-104636200D01*
X44077754Y-104670817D01*
G37*
G36*
X41537754Y-104670817D02*
G01*
X41701689Y-104738721D01*
X41849227Y-104837303D01*
X41974697Y-104962773D01*
X42073279Y-105110311D01*
X42141183Y-105274246D01*
X42175800Y-105448279D01*
X42175800Y-105625721D01*
X42141183Y-105799754D01*
X42073279Y-105963689D01*
X41974697Y-106111227D01*
X41849227Y-106236697D01*
X41701689Y-106335279D01*
X41537754Y-106403183D01*
X41363721Y-106437800D01*
X41186279Y-106437800D01*
X41012246Y-106403183D01*
X40848311Y-106335279D01*
X40700773Y-106236697D01*
X40575303Y-106111227D01*
X40476721Y-105963689D01*
X40408817Y-105799754D01*
X40374200Y-105625721D01*
X40374200Y-105448279D01*
X40408817Y-105274246D01*
X40476721Y-105110311D01*
X40575303Y-104962773D01*
X40700773Y-104837303D01*
X40848311Y-104738721D01*
X41012246Y-104670817D01*
X41186279Y-104636200D01*
X41363721Y-104636200D01*
X41537754Y-104670817D01*
G37*
G36*
X44077754Y-102130817D02*
G01*
X44241689Y-102198721D01*
X44389227Y-102297303D01*
X44514697Y-102422773D01*
X44613279Y-102570311D01*
X44681183Y-102734246D01*
X44715800Y-102908279D01*
X44715800Y-103085721D01*
X44681183Y-103259754D01*
X44613279Y-103423689D01*
X44514697Y-103571227D01*
X44389227Y-103696697D01*
X44241689Y-103795279D01*
X44077754Y-103863183D01*
X43903721Y-103897800D01*
X43726279Y-103897800D01*
X43552246Y-103863183D01*
X43388311Y-103795279D01*
X43240773Y-103696697D01*
X43115303Y-103571227D01*
X43016721Y-103423689D01*
X42948817Y-103259754D01*
X42914200Y-103085721D01*
X42914200Y-102908279D01*
X42948817Y-102734246D01*
X43016721Y-102570311D01*
X43115303Y-102422773D01*
X43240773Y-102297303D01*
X43388311Y-102198721D01*
X43552246Y-102130817D01*
X43726279Y-102096200D01*
X43903721Y-102096200D01*
X44077754Y-102130817D01*
G37*
G36*
X42175800Y-103897800D02*
G01*
X40374200Y-103897800D01*
X40374200Y-102096200D01*
X42175800Y-102096200D01*
X42175800Y-103897800D01*
G37*
G36*
X71233400Y-103897800D02*
G01*
X69431800Y-103897800D01*
X69431800Y-102096200D01*
X71233400Y-102096200D01*
X71233400Y-103897800D01*
G37*
G36*
X63895954Y-94510817D02*
G01*
X64059889Y-94578721D01*
X64207427Y-94677303D01*
X64332897Y-94802773D01*
X64431479Y-94950311D01*
X64499383Y-95114246D01*
X64534000Y-95288279D01*
X64534000Y-95465721D01*
X64499383Y-95639754D01*
X64431479Y-95803689D01*
X64332897Y-95951227D01*
X64207427Y-96076697D01*
X64059889Y-96175279D01*
X63895954Y-96243183D01*
X63721921Y-96277800D01*
X63544479Y-96277800D01*
X63370446Y-96243183D01*
X63206511Y-96175279D01*
X63058973Y-96076697D01*
X62933503Y-95951227D01*
X62834921Y-95803689D01*
X62767017Y-95639754D01*
X62732400Y-95465721D01*
X62732400Y-95288279D01*
X62767017Y-95114246D01*
X62834921Y-94950311D01*
X62933503Y-94802773D01*
X63058973Y-94677303D01*
X63206511Y-94578721D01*
X63370446Y-94510817D01*
X63544479Y-94476200D01*
X63721921Y-94476200D01*
X63895954Y-94510817D01*
G37*
G36*
X66435954Y-94510817D02*
G01*
X66599889Y-94578721D01*
X66747427Y-94677303D01*
X66872897Y-94802773D01*
X66971479Y-94950311D01*
X67039383Y-95114246D01*
X67074000Y-95288279D01*
X67074000Y-95465721D01*
X67039383Y-95639754D01*
X66971479Y-95803689D01*
X66872897Y-95951227D01*
X66747427Y-96076697D01*
X66599889Y-96175279D01*
X66435954Y-96243183D01*
X66261921Y-96277800D01*
X66084479Y-96277800D01*
X65910446Y-96243183D01*
X65746511Y-96175279D01*
X65598973Y-96076697D01*
X65473503Y-95951227D01*
X65374921Y-95803689D01*
X65307017Y-95639754D01*
X65272400Y-95465721D01*
X65272400Y-95288279D01*
X65307017Y-95114246D01*
X65374921Y-94950311D01*
X65473503Y-94802773D01*
X65598973Y-94677303D01*
X65746511Y-94578721D01*
X65910446Y-94510817D01*
X66084479Y-94476200D01*
X66261921Y-94476200D01*
X66435954Y-94510817D01*
G37*
G36*
X61355954Y-94510817D02*
G01*
X61519889Y-94578721D01*
X61667427Y-94677303D01*
X61792897Y-94802773D01*
X61891479Y-94950311D01*
X61959383Y-95114246D01*
X61994000Y-95288279D01*
X61994000Y-95465721D01*
X61959383Y-95639754D01*
X61891479Y-95803689D01*
X61792897Y-95951227D01*
X61667427Y-96076697D01*
X61519889Y-96175279D01*
X61355954Y-96243183D01*
X61181921Y-96277800D01*
X61004479Y-96277800D01*
X60830446Y-96243183D01*
X60666511Y-96175279D01*
X60518973Y-96076697D01*
X60393503Y-95951227D01*
X60294921Y-95803689D01*
X60227017Y-95639754D01*
X60192400Y-95465721D01*
X60192400Y-95288279D01*
X60227017Y-95114246D01*
X60294921Y-94950311D01*
X60393503Y-94802773D01*
X60518973Y-94677303D01*
X60666511Y-94578721D01*
X60830446Y-94510817D01*
X61004479Y-94476200D01*
X61181921Y-94476200D01*
X61355954Y-94510817D01*
G37*
G36*
X58815954Y-94510817D02*
G01*
X58979889Y-94578721D01*
X59127427Y-94677303D01*
X59252897Y-94802773D01*
X59351479Y-94950311D01*
X59419383Y-95114246D01*
X59454000Y-95288279D01*
X59454000Y-95465721D01*
X59419383Y-95639754D01*
X59351479Y-95803689D01*
X59252897Y-95951227D01*
X59127427Y-96076697D01*
X58979889Y-96175279D01*
X58815954Y-96243183D01*
X58641921Y-96277800D01*
X58464479Y-96277800D01*
X58290446Y-96243183D01*
X58126511Y-96175279D01*
X57978973Y-96076697D01*
X57853503Y-95951227D01*
X57754921Y-95803689D01*
X57687017Y-95639754D01*
X57652400Y-95465721D01*
X57652400Y-95288279D01*
X57687017Y-95114246D01*
X57754921Y-94950311D01*
X57853503Y-94802773D01*
X57978973Y-94677303D01*
X58126511Y-94578721D01*
X58290446Y-94510817D01*
X58464479Y-94476200D01*
X58641921Y-94476200D01*
X58815954Y-94510817D01*
G37*
G36*
X56275954Y-94510817D02*
G01*
X56439889Y-94578721D01*
X56587427Y-94677303D01*
X56712897Y-94802773D01*
X56811479Y-94950311D01*
X56879383Y-95114246D01*
X56914000Y-95288279D01*
X56914000Y-95465721D01*
X56879383Y-95639754D01*
X56811479Y-95803689D01*
X56712897Y-95951227D01*
X56587427Y-96076697D01*
X56439889Y-96175279D01*
X56275954Y-96243183D01*
X56101921Y-96277800D01*
X55924479Y-96277800D01*
X55750446Y-96243183D01*
X55586511Y-96175279D01*
X55438973Y-96076697D01*
X55313503Y-95951227D01*
X55214921Y-95803689D01*
X55147017Y-95639754D01*
X55112400Y-95465721D01*
X55112400Y-95288279D01*
X55147017Y-95114246D01*
X55214921Y-94950311D01*
X55313503Y-94802773D01*
X55438973Y-94677303D01*
X55586511Y-94578721D01*
X55750446Y-94510817D01*
X55924479Y-94476200D01*
X56101921Y-94476200D01*
X56275954Y-94510817D01*
G37*
G36*
X53735954Y-94510817D02*
G01*
X53899889Y-94578721D01*
X54047427Y-94677303D01*
X54172897Y-94802773D01*
X54271479Y-94950311D01*
X54339383Y-95114246D01*
X54374000Y-95288279D01*
X54374000Y-95465721D01*
X54339383Y-95639754D01*
X54271479Y-95803689D01*
X54172897Y-95951227D01*
X54047427Y-96076697D01*
X53899889Y-96175279D01*
X53735954Y-96243183D01*
X53561921Y-96277800D01*
X53384479Y-96277800D01*
X53210446Y-96243183D01*
X53046511Y-96175279D01*
X52898973Y-96076697D01*
X52773503Y-95951227D01*
X52674921Y-95803689D01*
X52607017Y-95639754D01*
X52572400Y-95465721D01*
X52572400Y-95288279D01*
X52607017Y-95114246D01*
X52674921Y-94950311D01*
X52773503Y-94802773D01*
X52898973Y-94677303D01*
X53046511Y-94578721D01*
X53210446Y-94510817D01*
X53384479Y-94476200D01*
X53561921Y-94476200D01*
X53735954Y-94510817D01*
G37*
G36*
X51834000Y-96277800D02*
G01*
X50032400Y-96277800D01*
X50032400Y-94476200D01*
X51834000Y-94476200D01*
X51834000Y-96277800D01*
G37*
G36*
X44077754Y-94510817D02*
G01*
X44241689Y-94578721D01*
X44389227Y-94677303D01*
X44514697Y-94802773D01*
X44613279Y-94950311D01*
X44681183Y-95114246D01*
X44715800Y-95288279D01*
X44715800Y-95465721D01*
X44681183Y-95639754D01*
X44613279Y-95803689D01*
X44514697Y-95951227D01*
X44389227Y-96076697D01*
X44241689Y-96175279D01*
X44077754Y-96243183D01*
X43903721Y-96277800D01*
X43726279Y-96277800D01*
X43552246Y-96243183D01*
X43388311Y-96175279D01*
X43240773Y-96076697D01*
X43115303Y-95951227D01*
X43016721Y-95803689D01*
X42948817Y-95639754D01*
X42914200Y-95465721D01*
X42914200Y-95288279D01*
X42948817Y-95114246D01*
X43016721Y-94950311D01*
X43115303Y-94802773D01*
X43240773Y-94677303D01*
X43388311Y-94578721D01*
X43552246Y-94510817D01*
X43726279Y-94476200D01*
X43903721Y-94476200D01*
X44077754Y-94510817D01*
G37*
G36*
X41537754Y-94510817D02*
G01*
X41701689Y-94578721D01*
X41849227Y-94677303D01*
X41974697Y-94802773D01*
X42073279Y-94950311D01*
X42141183Y-95114246D01*
X42175800Y-95288279D01*
X42175800Y-95465721D01*
X42141183Y-95639754D01*
X42073279Y-95803689D01*
X41974697Y-95951227D01*
X41849227Y-96076697D01*
X41701689Y-96175279D01*
X41537754Y-96243183D01*
X41363721Y-96277800D01*
X41186279Y-96277800D01*
X41012246Y-96243183D01*
X40848311Y-96175279D01*
X40700773Y-96076697D01*
X40575303Y-95951227D01*
X40476721Y-95803689D01*
X40408817Y-95639754D01*
X40374200Y-95465721D01*
X40374200Y-95288279D01*
X40408817Y-95114246D01*
X40476721Y-94950311D01*
X40575303Y-94802773D01*
X40700773Y-94677303D01*
X40848311Y-94578721D01*
X41012246Y-94510817D01*
X41186279Y-94476200D01*
X41363721Y-94476200D01*
X41537754Y-94510817D01*
G37*
G36*
X53735954Y-91970817D02*
G01*
X53899889Y-92038721D01*
X54047427Y-92137303D01*
X54172897Y-92262773D01*
X54271479Y-92410311D01*
X54339383Y-92574246D01*
X54374000Y-92748279D01*
X54374000Y-92925721D01*
X54339383Y-93099754D01*
X54271479Y-93263689D01*
X54172897Y-93411227D01*
X54047427Y-93536697D01*
X53899889Y-93635279D01*
X53735954Y-93703183D01*
X53561921Y-93737800D01*
X53384479Y-93737800D01*
X53210446Y-93703183D01*
X53046511Y-93635279D01*
X52898973Y-93536697D01*
X52773503Y-93411227D01*
X52674921Y-93263689D01*
X52607017Y-93099754D01*
X52572400Y-92925721D01*
X52572400Y-92748279D01*
X52607017Y-92574246D01*
X52674921Y-92410311D01*
X52773503Y-92262773D01*
X52898973Y-92137303D01*
X53046511Y-92038721D01*
X53210446Y-91970817D01*
X53384479Y-91936200D01*
X53561921Y-91936200D01*
X53735954Y-91970817D01*
G37*
G36*
X56275954Y-91970817D02*
G01*
X56439889Y-92038721D01*
X56587427Y-92137303D01*
X56712897Y-92262773D01*
X56811479Y-92410311D01*
X56879383Y-92574246D01*
X56914000Y-92748279D01*
X56914000Y-92925721D01*
X56879383Y-93099754D01*
X56811479Y-93263689D01*
X56712897Y-93411227D01*
X56587427Y-93536697D01*
X56439889Y-93635279D01*
X56275954Y-93703183D01*
X56101921Y-93737800D01*
X55924479Y-93737800D01*
X55750446Y-93703183D01*
X55586511Y-93635279D01*
X55438973Y-93536697D01*
X55313503Y-93411227D01*
X55214921Y-93263689D01*
X55147017Y-93099754D01*
X55112400Y-92925721D01*
X55112400Y-92748279D01*
X55147017Y-92574246D01*
X55214921Y-92410311D01*
X55313503Y-92262773D01*
X55438973Y-92137303D01*
X55586511Y-92038721D01*
X55750446Y-91970817D01*
X55924479Y-91936200D01*
X56101921Y-91936200D01*
X56275954Y-91970817D01*
G37*
G36*
X58815954Y-91970817D02*
G01*
X58979889Y-92038721D01*
X59127427Y-92137303D01*
X59252897Y-92262773D01*
X59351479Y-92410311D01*
X59419383Y-92574246D01*
X59454000Y-92748279D01*
X59454000Y-92925721D01*
X59419383Y-93099754D01*
X59351479Y-93263689D01*
X59252897Y-93411227D01*
X59127427Y-93536697D01*
X58979889Y-93635279D01*
X58815954Y-93703183D01*
X58641921Y-93737800D01*
X58464479Y-93737800D01*
X58290446Y-93703183D01*
X58126511Y-93635279D01*
X57978973Y-93536697D01*
X57853503Y-93411227D01*
X57754921Y-93263689D01*
X57687017Y-93099754D01*
X57652400Y-92925721D01*
X57652400Y-92748279D01*
X57687017Y-92574246D01*
X57754921Y-92410311D01*
X57853503Y-92262773D01*
X57978973Y-92137303D01*
X58126511Y-92038721D01*
X58290446Y-91970817D01*
X58464479Y-91936200D01*
X58641921Y-91936200D01*
X58815954Y-91970817D01*
G37*
G36*
X61355954Y-91970817D02*
G01*
X61519889Y-92038721D01*
X61667427Y-92137303D01*
X61792897Y-92262773D01*
X61891479Y-92410311D01*
X61959383Y-92574246D01*
X61994000Y-92748279D01*
X61994000Y-92925721D01*
X61959383Y-93099754D01*
X61891479Y-93263689D01*
X61792897Y-93411227D01*
X61667427Y-93536697D01*
X61519889Y-93635279D01*
X61355954Y-93703183D01*
X61181921Y-93737800D01*
X61004479Y-93737800D01*
X60830446Y-93703183D01*
X60666511Y-93635279D01*
X60518973Y-93536697D01*
X60393503Y-93411227D01*
X60294921Y-93263689D01*
X60227017Y-93099754D01*
X60192400Y-92925721D01*
X60192400Y-92748279D01*
X60227017Y-92574246D01*
X60294921Y-92410311D01*
X60393503Y-92262773D01*
X60518973Y-92137303D01*
X60666511Y-92038721D01*
X60830446Y-91970817D01*
X61004479Y-91936200D01*
X61181921Y-91936200D01*
X61355954Y-91970817D01*
G37*
G36*
X66435954Y-91970817D02*
G01*
X66599889Y-92038721D01*
X66747427Y-92137303D01*
X66872897Y-92262773D01*
X66971479Y-92410311D01*
X67039383Y-92574246D01*
X67074000Y-92748279D01*
X67074000Y-92925721D01*
X67039383Y-93099754D01*
X66971479Y-93263689D01*
X66872897Y-93411227D01*
X66747427Y-93536697D01*
X66599889Y-93635279D01*
X66435954Y-93703183D01*
X66261921Y-93737800D01*
X66084479Y-93737800D01*
X65910446Y-93703183D01*
X65746511Y-93635279D01*
X65598973Y-93536697D01*
X65473503Y-93411227D01*
X65374921Y-93263689D01*
X65307017Y-93099754D01*
X65272400Y-92925721D01*
X65272400Y-92748279D01*
X65307017Y-92574246D01*
X65374921Y-92410311D01*
X65473503Y-92262773D01*
X65598973Y-92137303D01*
X65746511Y-92038721D01*
X65910446Y-91970817D01*
X66084479Y-91936200D01*
X66261921Y-91936200D01*
X66435954Y-91970817D01*
G37*
G36*
X63895954Y-91970817D02*
G01*
X64059889Y-92038721D01*
X64207427Y-92137303D01*
X64332897Y-92262773D01*
X64431479Y-92410311D01*
X64499383Y-92574246D01*
X64534000Y-92748279D01*
X64534000Y-92925721D01*
X64499383Y-93099754D01*
X64431479Y-93263689D01*
X64332897Y-93411227D01*
X64207427Y-93536697D01*
X64059889Y-93635279D01*
X63895954Y-93703183D01*
X63721921Y-93737800D01*
X63544479Y-93737800D01*
X63370446Y-93703183D01*
X63206511Y-93635279D01*
X63058973Y-93536697D01*
X62933503Y-93411227D01*
X62834921Y-93263689D01*
X62767017Y-93099754D01*
X62732400Y-92925721D01*
X62732400Y-92748279D01*
X62767017Y-92574246D01*
X62834921Y-92410311D01*
X62933503Y-92262773D01*
X63058973Y-92137303D01*
X63206511Y-92038721D01*
X63370446Y-91970817D01*
X63544479Y-91936200D01*
X63721921Y-91936200D01*
X63895954Y-91970817D01*
G37*
G36*
X51195954Y-91970817D02*
G01*
X51359889Y-92038721D01*
X51507427Y-92137303D01*
X51632897Y-92262773D01*
X51731479Y-92410311D01*
X51799383Y-92574246D01*
X51834000Y-92748279D01*
X51834000Y-92925721D01*
X51799383Y-93099754D01*
X51731479Y-93263689D01*
X51632897Y-93411227D01*
X51507427Y-93536697D01*
X51359889Y-93635279D01*
X51195954Y-93703183D01*
X51021921Y-93737800D01*
X50844479Y-93737800D01*
X50670446Y-93703183D01*
X50506511Y-93635279D01*
X50358973Y-93536697D01*
X50233503Y-93411227D01*
X50134921Y-93263689D01*
X50067017Y-93099754D01*
X50032400Y-92925721D01*
X50032400Y-92748279D01*
X50067017Y-92574246D01*
X50134921Y-92410311D01*
X50233503Y-92262773D01*
X50358973Y-92137303D01*
X50506511Y-92038721D01*
X50670446Y-91970817D01*
X50844479Y-91936200D01*
X51021921Y-91936200D01*
X51195954Y-91970817D01*
G37*
G36*
X42175800Y-93737800D02*
G01*
X40374200Y-93737800D01*
X40374200Y-91936200D01*
X42175800Y-91936200D01*
X42175800Y-93737800D01*
G37*
G36*
X44077754Y-91970817D02*
G01*
X44241689Y-92038721D01*
X44389227Y-92137303D01*
X44514697Y-92262773D01*
X44613279Y-92410311D01*
X44681183Y-92574246D01*
X44715800Y-92748279D01*
X44715800Y-92925721D01*
X44681183Y-93099754D01*
X44613279Y-93263689D01*
X44514697Y-93411227D01*
X44389227Y-93536697D01*
X44241689Y-93635279D01*
X44077754Y-93703183D01*
X43903721Y-93737800D01*
X43726279Y-93737800D01*
X43552246Y-93703183D01*
X43388311Y-93635279D01*
X43240773Y-93536697D01*
X43115303Y-93411227D01*
X43016721Y-93263689D01*
X42948817Y-93099754D01*
X42914200Y-92925721D01*
X42914200Y-92748279D01*
X42948817Y-92574246D01*
X43016721Y-92410311D01*
X43115303Y-92262773D01*
X43240773Y-92137303D01*
X43388311Y-92038721D01*
X43552246Y-91970817D01*
X43726279Y-91936200D01*
X43903721Y-91936200D01*
X44077754Y-91970817D01*
G37*
G36*
X70595354Y-86001817D02*
G01*
X70759289Y-86069721D01*
X70906827Y-86168303D01*
X71032297Y-86293773D01*
X71130879Y-86441311D01*
X71198783Y-86605246D01*
X71233400Y-86779279D01*
X71233400Y-86956721D01*
X71198783Y-87130754D01*
X71130879Y-87294689D01*
X71032297Y-87442227D01*
X70906827Y-87567697D01*
X70759289Y-87666279D01*
X70595354Y-87734183D01*
X70421321Y-87768800D01*
X70243879Y-87768800D01*
X70069846Y-87734183D01*
X69905911Y-87666279D01*
X69758373Y-87567697D01*
X69632903Y-87442227D01*
X69534321Y-87294689D01*
X69466417Y-87130754D01*
X69431800Y-86956721D01*
X69431800Y-86779279D01*
X69466417Y-86605246D01*
X69534321Y-86441311D01*
X69632903Y-86293773D01*
X69758373Y-86168303D01*
X69905911Y-86069721D01*
X70069846Y-86001817D01*
X70243879Y-85967200D01*
X70421321Y-85967200D01*
X70595354Y-86001817D01*
G37*
G36*
X44077754Y-84985817D02*
G01*
X44241689Y-85053721D01*
X44389227Y-85152303D01*
X44514697Y-85277773D01*
X44613279Y-85425311D01*
X44681183Y-85589246D01*
X44715800Y-85763279D01*
X44715800Y-85940721D01*
X44681183Y-86114754D01*
X44613279Y-86278689D01*
X44514697Y-86426227D01*
X44389227Y-86551697D01*
X44241689Y-86650279D01*
X44077754Y-86718183D01*
X43903721Y-86752800D01*
X43726279Y-86752800D01*
X43552246Y-86718183D01*
X43388311Y-86650279D01*
X43240773Y-86551697D01*
X43115303Y-86426227D01*
X43016721Y-86278689D01*
X42948817Y-86114754D01*
X42914200Y-85940721D01*
X42914200Y-85763279D01*
X42948817Y-85589246D01*
X43016721Y-85425311D01*
X43115303Y-85277773D01*
X43240773Y-85152303D01*
X43388311Y-85053721D01*
X43552246Y-84985817D01*
X43726279Y-84951200D01*
X43903721Y-84951200D01*
X44077754Y-84985817D01*
G37*
G36*
X42175800Y-86752800D02*
G01*
X40374200Y-86752800D01*
X40374200Y-84951200D01*
X42175800Y-84951200D01*
X42175800Y-86752800D01*
G37*
G36*
X70595354Y-83461817D02*
G01*
X70759289Y-83529721D01*
X70906827Y-83628303D01*
X71032297Y-83753773D01*
X71130879Y-83901311D01*
X71198783Y-84065246D01*
X71233400Y-84239279D01*
X71233400Y-84416721D01*
X71198783Y-84590754D01*
X71130879Y-84754689D01*
X71032297Y-84902227D01*
X70906827Y-85027697D01*
X70759289Y-85126279D01*
X70595354Y-85194183D01*
X70421321Y-85228800D01*
X70243879Y-85228800D01*
X70069846Y-85194183D01*
X69905911Y-85126279D01*
X69758373Y-85027697D01*
X69632903Y-84902227D01*
X69534321Y-84754689D01*
X69466417Y-84590754D01*
X69431800Y-84416721D01*
X69431800Y-84239279D01*
X69466417Y-84065246D01*
X69534321Y-83901311D01*
X69632903Y-83753773D01*
X69758373Y-83628303D01*
X69905911Y-83529721D01*
X70069846Y-83461817D01*
X70243879Y-83427200D01*
X70421321Y-83427200D01*
X70595354Y-83461817D01*
G37*
G36*
X50274863Y-83582467D02*
G01*
X50375102Y-83623987D01*
X50465316Y-83684266D01*
X50542034Y-83760984D01*
X50602313Y-83851198D01*
X50643833Y-83951437D01*
X50665000Y-84057851D01*
X50665000Y-84166349D01*
X50643833Y-84272763D01*
X50602313Y-84373002D01*
X50542034Y-84463216D01*
X50465316Y-84539934D01*
X50375102Y-84600213D01*
X50274863Y-84641733D01*
X50168449Y-84662900D01*
X50059951Y-84662900D01*
X49953537Y-84641733D01*
X49853298Y-84600213D01*
X49763084Y-84539934D01*
X49686366Y-84463216D01*
X49626087Y-84373002D01*
X49584567Y-84272763D01*
X49563400Y-84166349D01*
X49563400Y-84057851D01*
X49584567Y-83951437D01*
X49626087Y-83851198D01*
X49686366Y-83760984D01*
X49763084Y-83684266D01*
X49853298Y-83623987D01*
X49953537Y-83582467D01*
X50059951Y-83561300D01*
X50168449Y-83561300D01*
X50274863Y-83582467D01*
G37*
G36*
X49004863Y-83582467D02*
G01*
X49105102Y-83623987D01*
X49195316Y-83684266D01*
X49272034Y-83760984D01*
X49332313Y-83851198D01*
X49373833Y-83951437D01*
X49395000Y-84057851D01*
X49395000Y-84166349D01*
X49373833Y-84272763D01*
X49332313Y-84373002D01*
X49272034Y-84463216D01*
X49195316Y-84539934D01*
X49105102Y-84600213D01*
X49004863Y-84641733D01*
X48898449Y-84662900D01*
X48789951Y-84662900D01*
X48683537Y-84641733D01*
X48583298Y-84600213D01*
X48493084Y-84539934D01*
X48416366Y-84463216D01*
X48356087Y-84373002D01*
X48314567Y-84272763D01*
X48293400Y-84166349D01*
X48293400Y-84057851D01*
X48314567Y-83951437D01*
X48356087Y-83851198D01*
X48416366Y-83760984D01*
X48493084Y-83684266D01*
X48583298Y-83623987D01*
X48683537Y-83582467D01*
X48789951Y-83561300D01*
X48898449Y-83561300D01*
X49004863Y-83582467D01*
G37*
G36*
X50274863Y-82312467D02*
G01*
X50375102Y-82353987D01*
X50465316Y-82414266D01*
X50542034Y-82490984D01*
X50602313Y-82581198D01*
X50643833Y-82681437D01*
X50665000Y-82787851D01*
X50665000Y-82896349D01*
X50643833Y-83002763D01*
X50602313Y-83103002D01*
X50542034Y-83193216D01*
X50465316Y-83269934D01*
X50375102Y-83330213D01*
X50274863Y-83371733D01*
X50168449Y-83392900D01*
X50059951Y-83392900D01*
X49953537Y-83371733D01*
X49853298Y-83330213D01*
X49763084Y-83269934D01*
X49686366Y-83193216D01*
X49626087Y-83103002D01*
X49584567Y-83002763D01*
X49563400Y-82896349D01*
X49563400Y-82787851D01*
X49584567Y-82681437D01*
X49626087Y-82581198D01*
X49686366Y-82490984D01*
X49763084Y-82414266D01*
X49853298Y-82353987D01*
X49953537Y-82312467D01*
X50059951Y-82291300D01*
X50168449Y-82291300D01*
X50274863Y-82312467D01*
G37*
G36*
X49004863Y-82312467D02*
G01*
X49105102Y-82353987D01*
X49195316Y-82414266D01*
X49272034Y-82490984D01*
X49332313Y-82581198D01*
X49373833Y-82681437D01*
X49395000Y-82787851D01*
X49395000Y-82896349D01*
X49373833Y-83002763D01*
X49332313Y-83103002D01*
X49272034Y-83193216D01*
X49195316Y-83269934D01*
X49105102Y-83330213D01*
X49004863Y-83371733D01*
X48898449Y-83392900D01*
X48789951Y-83392900D01*
X48683537Y-83371733D01*
X48583298Y-83330213D01*
X48493084Y-83269934D01*
X48416366Y-83193216D01*
X48356087Y-83103002D01*
X48314567Y-83002763D01*
X48293400Y-82896349D01*
X48293400Y-82787851D01*
X48314567Y-82681437D01*
X48356087Y-82581198D01*
X48416366Y-82490984D01*
X48493084Y-82414266D01*
X48583298Y-82353987D01*
X48683537Y-82312467D01*
X48789951Y-82291300D01*
X48898449Y-82291300D01*
X49004863Y-82312467D01*
G37*
G36*
X70595354Y-80921817D02*
G01*
X70759289Y-80989721D01*
X70906827Y-81088303D01*
X71032297Y-81213773D01*
X71130879Y-81361311D01*
X71198783Y-81525246D01*
X71233400Y-81699279D01*
X71233400Y-81876721D01*
X71198783Y-82050754D01*
X71130879Y-82214689D01*
X71032297Y-82362227D01*
X70906827Y-82487697D01*
X70759289Y-82586279D01*
X70595354Y-82654183D01*
X70421321Y-82688800D01*
X70243879Y-82688800D01*
X70069846Y-82654183D01*
X69905911Y-82586279D01*
X69758373Y-82487697D01*
X69632903Y-82362227D01*
X69534321Y-82214689D01*
X69466417Y-82050754D01*
X69431800Y-81876721D01*
X69431800Y-81699279D01*
X69466417Y-81525246D01*
X69534321Y-81361311D01*
X69632903Y-81213773D01*
X69758373Y-81088303D01*
X69905911Y-80989721D01*
X70069846Y-80921817D01*
X70243879Y-80887200D01*
X70421321Y-80887200D01*
X70595354Y-80921817D01*
G37*
G36*
X49004863Y-81042467D02*
G01*
X49105102Y-81083987D01*
X49195316Y-81144266D01*
X49272034Y-81220984D01*
X49332313Y-81311198D01*
X49373833Y-81411437D01*
X49395000Y-81517851D01*
X49395000Y-81626349D01*
X49373833Y-81732763D01*
X49332313Y-81833002D01*
X49272034Y-81923216D01*
X49195316Y-81999934D01*
X49105102Y-82060213D01*
X49004863Y-82101733D01*
X48898449Y-82122900D01*
X48789951Y-82122900D01*
X48683537Y-82101733D01*
X48583298Y-82060213D01*
X48493084Y-81999934D01*
X48416366Y-81923216D01*
X48356087Y-81833002D01*
X48314567Y-81732763D01*
X48293400Y-81626349D01*
X48293400Y-81517851D01*
X48314567Y-81411437D01*
X48356087Y-81311198D01*
X48416366Y-81220984D01*
X48493084Y-81144266D01*
X48583298Y-81083987D01*
X48683537Y-81042467D01*
X48789951Y-81021300D01*
X48898449Y-81021300D01*
X49004863Y-81042467D01*
G37*
G36*
X50274863Y-81042467D02*
G01*
X50375102Y-81083987D01*
X50465316Y-81144266D01*
X50542034Y-81220984D01*
X50602313Y-81311198D01*
X50643833Y-81411437D01*
X50665000Y-81517851D01*
X50665000Y-81626349D01*
X50643833Y-81732763D01*
X50602313Y-81833002D01*
X50542034Y-81923216D01*
X50465316Y-81999934D01*
X50375102Y-82060213D01*
X50274863Y-82101733D01*
X50168449Y-82122900D01*
X50059951Y-82122900D01*
X49953537Y-82101733D01*
X49853298Y-82060213D01*
X49763084Y-81999934D01*
X49686366Y-81923216D01*
X49626087Y-81833002D01*
X49584567Y-81732763D01*
X49563400Y-81626349D01*
X49563400Y-81517851D01*
X49584567Y-81411437D01*
X49626087Y-81311198D01*
X49686366Y-81220984D01*
X49763084Y-81144266D01*
X49853298Y-81083987D01*
X49953537Y-81042467D01*
X50059951Y-81021300D01*
X50168449Y-81021300D01*
X50274863Y-81042467D01*
G37*
G36*
X49004863Y-79772467D02*
G01*
X49105102Y-79813987D01*
X49195316Y-79874266D01*
X49272034Y-79950984D01*
X49332313Y-80041198D01*
X49373833Y-80141437D01*
X49395000Y-80247851D01*
X49395000Y-80356349D01*
X49373833Y-80462763D01*
X49332313Y-80563002D01*
X49272034Y-80653216D01*
X49195316Y-80729934D01*
X49105102Y-80790213D01*
X49004863Y-80831733D01*
X48898449Y-80852900D01*
X48789951Y-80852900D01*
X48683537Y-80831733D01*
X48583298Y-80790213D01*
X48493084Y-80729934D01*
X48416366Y-80653216D01*
X48356087Y-80563002D01*
X48314567Y-80462763D01*
X48293400Y-80356349D01*
X48293400Y-80247851D01*
X48314567Y-80141437D01*
X48356087Y-80041198D01*
X48416366Y-79950984D01*
X48493084Y-79874266D01*
X48583298Y-79813987D01*
X48683537Y-79772467D01*
X48789951Y-79751300D01*
X48898449Y-79751300D01*
X49004863Y-79772467D01*
G37*
G36*
X50274863Y-79772467D02*
G01*
X50375102Y-79813987D01*
X50465316Y-79874266D01*
X50542034Y-79950984D01*
X50602313Y-80041198D01*
X50643833Y-80141437D01*
X50665000Y-80247851D01*
X50665000Y-80356349D01*
X50643833Y-80462763D01*
X50602313Y-80563002D01*
X50542034Y-80653216D01*
X50465316Y-80729934D01*
X50375102Y-80790213D01*
X50274863Y-80831733D01*
X50168449Y-80852900D01*
X50059951Y-80852900D01*
X49953537Y-80831733D01*
X49853298Y-80790213D01*
X49763084Y-80729934D01*
X49686366Y-80653216D01*
X49626087Y-80563002D01*
X49584567Y-80462763D01*
X49563400Y-80356349D01*
X49563400Y-80247851D01*
X49584567Y-80141437D01*
X49626087Y-80041198D01*
X49686366Y-79950984D01*
X49763084Y-79874266D01*
X49853298Y-79813987D01*
X49953537Y-79772467D01*
X50059951Y-79751300D01*
X50168449Y-79751300D01*
X50274863Y-79772467D01*
G37*
G36*
X42175800Y-80529800D02*
G01*
X40374200Y-80529800D01*
X40374200Y-78728200D01*
X42175800Y-78728200D01*
X42175800Y-80529800D01*
G37*
G36*
X44077754Y-78762817D02*
G01*
X44241689Y-78830721D01*
X44389227Y-78929303D01*
X44514697Y-79054773D01*
X44613279Y-79202311D01*
X44681183Y-79366246D01*
X44715800Y-79540279D01*
X44715800Y-79717721D01*
X44681183Y-79891754D01*
X44613279Y-80055689D01*
X44514697Y-80203227D01*
X44389227Y-80328697D01*
X44241689Y-80427279D01*
X44077754Y-80495183D01*
X43903721Y-80529800D01*
X43726279Y-80529800D01*
X43552246Y-80495183D01*
X43388311Y-80427279D01*
X43240773Y-80328697D01*
X43115303Y-80203227D01*
X43016721Y-80055689D01*
X42948817Y-79891754D01*
X42914200Y-79717721D01*
X42914200Y-79540279D01*
X42948817Y-79366246D01*
X43016721Y-79202311D01*
X43115303Y-79054773D01*
X43240773Y-78929303D01*
X43388311Y-78830721D01*
X43552246Y-78762817D01*
X43726279Y-78728200D01*
X43903721Y-78728200D01*
X44077754Y-78762817D01*
G37*
G36*
X71233400Y-80148800D02*
G01*
X69431800Y-80148800D01*
X69431800Y-78347200D01*
X71233400Y-78347200D01*
X71233400Y-80148800D01*
G37*
G36*
X49395000Y-79582900D02*
G01*
X48293400Y-79582900D01*
X48293400Y-78481300D01*
X49395000Y-78481300D01*
X49395000Y-79582900D01*
G37*
G36*
X50274863Y-78502467D02*
G01*
X50375102Y-78543987D01*
X50465316Y-78604266D01*
X50542034Y-78680984D01*
X50602313Y-78771198D01*
X50643833Y-78871437D01*
X50665000Y-78977851D01*
X50665000Y-79086349D01*
X50643833Y-79192763D01*
X50602313Y-79293002D01*
X50542034Y-79383216D01*
X50465316Y-79459934D01*
X50375102Y-79520213D01*
X50274863Y-79561733D01*
X50168449Y-79582900D01*
X50059951Y-79582900D01*
X49953537Y-79561733D01*
X49853298Y-79520213D01*
X49763084Y-79459934D01*
X49686366Y-79383216D01*
X49626087Y-79293002D01*
X49584567Y-79192763D01*
X49563400Y-79086349D01*
X49563400Y-78977851D01*
X49584567Y-78871437D01*
X49626087Y-78771198D01*
X49686366Y-78680984D01*
X49763084Y-78604266D01*
X49853298Y-78543987D01*
X49953537Y-78502467D01*
X50059951Y-78481300D01*
X50168449Y-78481300D01*
X50274863Y-78502467D01*
G37*
G36*
X26281781Y-72031510D02*
G01*
X26281784Y-72031511D01*
X26281785Y-72031511D01*
X26348013Y-72051601D01*
X26442162Y-72080161D01*
X26589967Y-72159164D01*
X26719515Y-72265481D01*
X26719517Y-72265483D01*
X26825837Y-72395034D01*
X26865338Y-72468936D01*
X26904839Y-72542837D01*
X26953490Y-72703218D01*
X26965800Y-72828204D01*
X26965800Y-73811796D01*
X26953490Y-73936782D01*
X26904839Y-74097163D01*
X26865338Y-74171064D01*
X26825837Y-74244966D01*
X26719517Y-74374517D01*
X26589966Y-74480837D01*
X26516064Y-74520338D01*
X26442163Y-74559839D01*
X26348014Y-74588399D01*
X26281786Y-74608489D01*
X26281785Y-74608489D01*
X26281782Y-74608490D01*
X26115000Y-74624917D01*
X25948219Y-74608490D01*
X25948216Y-74608489D01*
X25948215Y-74608489D01*
X25881987Y-74588399D01*
X25787838Y-74559839D01*
X25713937Y-74520338D01*
X25640035Y-74480837D01*
X25510484Y-74374517D01*
X25404164Y-74244966D01*
X25364663Y-74171064D01*
X25325162Y-74097163D01*
X25276511Y-73936782D01*
X25264200Y-73811795D01*
X25264200Y-72828205D01*
X25276510Y-72703219D01*
X25276512Y-72703214D01*
X25325161Y-72542839D01*
X25325161Y-72542838D01*
X25404164Y-72395033D01*
X25510481Y-72265485D01*
X25510483Y-72265483D01*
X25640034Y-72159163D01*
X25713936Y-72119662D01*
X25787837Y-72080161D01*
X25881986Y-72051601D01*
X25948214Y-72031511D01*
X25948215Y-72031511D01*
X25948218Y-72031510D01*
X26115000Y-72015083D01*
X26281781Y-72031510D01*
G37*
G36*
X23741781Y-72031510D02*
G01*
X23741784Y-72031511D01*
X23741785Y-72031511D01*
X23808013Y-72051601D01*
X23902162Y-72080161D01*
X24049967Y-72159164D01*
X24179515Y-72265481D01*
X24179517Y-72265483D01*
X24285837Y-72395034D01*
X24325338Y-72468936D01*
X24364839Y-72542837D01*
X24413490Y-72703218D01*
X24425800Y-72828204D01*
X24425800Y-73811796D01*
X24413490Y-73936782D01*
X24364839Y-74097163D01*
X24325338Y-74171064D01*
X24285837Y-74244966D01*
X24179517Y-74374517D01*
X24049966Y-74480837D01*
X23976064Y-74520338D01*
X23902163Y-74559839D01*
X23808014Y-74588399D01*
X23741786Y-74608489D01*
X23741785Y-74608489D01*
X23741782Y-74608490D01*
X23575000Y-74624917D01*
X23408219Y-74608490D01*
X23408216Y-74608489D01*
X23408215Y-74608489D01*
X23341987Y-74588399D01*
X23247838Y-74559839D01*
X23173937Y-74520338D01*
X23100035Y-74480837D01*
X22970484Y-74374517D01*
X22864164Y-74244966D01*
X22824663Y-74171064D01*
X22785162Y-74097163D01*
X22736511Y-73936782D01*
X22724200Y-73811795D01*
X22724200Y-72828205D01*
X22736510Y-72703219D01*
X22736512Y-72703214D01*
X22785161Y-72542839D01*
X22785161Y-72542838D01*
X22864164Y-72395033D01*
X22970481Y-72265485D01*
X22970483Y-72265483D01*
X23100034Y-72159163D01*
X23173936Y-72119662D01*
X23247837Y-72080161D01*
X23341986Y-72051601D01*
X23408214Y-72031511D01*
X23408215Y-72031511D01*
X23408218Y-72031510D01*
X23575000Y-72015083D01*
X23741781Y-72031510D01*
G37*
G36*
X21388014Y-64715255D02*
G01*
X21388017Y-64715256D01*
X21727470Y-64818228D01*
X21999915Y-64963853D01*
X22040313Y-64985446D01*
X22314517Y-65210479D01*
X22314519Y-65210481D01*
X22539555Y-65484688D01*
X22706772Y-65797529D01*
X22749301Y-65937728D01*
X22809745Y-66136985D01*
X22835800Y-66401528D01*
X22835800Y-70078472D01*
X22809745Y-70343015D01*
X22809744Y-70343018D01*
X22706772Y-70682471D01*
X22539555Y-70995312D01*
X22314519Y-71269519D01*
X22040312Y-71494555D01*
X21727471Y-71661772D01*
X21426836Y-71752969D01*
X21388015Y-71764745D01*
X21035000Y-71799514D01*
X20681986Y-71764745D01*
X20643165Y-71752969D01*
X20342530Y-71661772D01*
X20029689Y-71494555D01*
X19755482Y-71269519D01*
X19530446Y-70995312D01*
X19363229Y-70682471D01*
X19260257Y-70343018D01*
X19260256Y-70343015D01*
X19234201Y-70078472D01*
X19234200Y-66401529D01*
X19260255Y-66136986D01*
X19287020Y-66048754D01*
X19363228Y-65797530D01*
X19530445Y-65484689D01*
X19530446Y-65484687D01*
X19755479Y-65210483D01*
X19755481Y-65210481D01*
X20029688Y-64985445D01*
X20342529Y-64818228D01*
X20681982Y-64715256D01*
X20681985Y-64715255D01*
X21035000Y-64680486D01*
X21388014Y-64715255D01*
G37*
G36*
X31548014Y-64715255D02*
G01*
X31548017Y-64715256D01*
X31887470Y-64818228D01*
X32159915Y-64963853D01*
X32200313Y-64985446D01*
X32474517Y-65210479D01*
X32474519Y-65210481D01*
X32699555Y-65484688D01*
X32866772Y-65797529D01*
X32909301Y-65937728D01*
X32969745Y-66136985D01*
X32995800Y-66401528D01*
X32995800Y-70078472D01*
X32969745Y-70343015D01*
X32969744Y-70343018D01*
X32866772Y-70682471D01*
X32699555Y-70995312D01*
X32474519Y-71269519D01*
X32200312Y-71494555D01*
X31887471Y-71661772D01*
X31586836Y-71752969D01*
X31548015Y-71764745D01*
X31195000Y-71799514D01*
X30841986Y-71764745D01*
X30803165Y-71752969D01*
X30502530Y-71661772D01*
X30189689Y-71494555D01*
X29915482Y-71269519D01*
X29690446Y-70995312D01*
X29523229Y-70682471D01*
X29420257Y-70343018D01*
X29420256Y-70343015D01*
X29394201Y-70078472D01*
X29394200Y-66401529D01*
X29420255Y-66136986D01*
X29447020Y-66048754D01*
X29523228Y-65797530D01*
X29690445Y-65484689D01*
X29690446Y-65484687D01*
X29915479Y-65210483D01*
X29915481Y-65210481D01*
X30189688Y-64985445D01*
X30502529Y-64818228D01*
X30841982Y-64715256D01*
X30841985Y-64715255D01*
X31195000Y-64680486D01*
X31548014Y-64715255D01*
G37*
G36*
X52332754Y-64919817D02*
G01*
X52496689Y-64987721D01*
X52644227Y-65086303D01*
X52769697Y-65211773D01*
X52868279Y-65359311D01*
X52936183Y-65523246D01*
X52970800Y-65697279D01*
X52970800Y-65874721D01*
X52936183Y-66048754D01*
X52868279Y-66212689D01*
X52769697Y-66360227D01*
X52644227Y-66485697D01*
X52496689Y-66584279D01*
X52332754Y-66652183D01*
X52158721Y-66686800D01*
X51981279Y-66686800D01*
X51807246Y-66652183D01*
X51643311Y-66584279D01*
X51495773Y-66485697D01*
X51370303Y-66360227D01*
X51271721Y-66212689D01*
X51203817Y-66048754D01*
X51169200Y-65874721D01*
X51169200Y-65697279D01*
X51203817Y-65523246D01*
X51271721Y-65359311D01*
X51370303Y-65211773D01*
X51495773Y-65086303D01*
X51643311Y-64987721D01*
X51807246Y-64919817D01*
X51981279Y-64885200D01*
X52158721Y-64885200D01*
X52332754Y-64919817D01*
G37*
G36*
X71134979Y-60854912D02*
G01*
X71635593Y-61062272D01*
X72086134Y-61363315D01*
X72469285Y-61746466D01*
X72770328Y-62197007D01*
X72977688Y-62697621D01*
X73083400Y-63229070D01*
X73083400Y-63770930D01*
X72977688Y-64302379D01*
X72770328Y-64802993D01*
X72469285Y-65253534D01*
X72086134Y-65636685D01*
X71635593Y-65937728D01*
X71154549Y-66136982D01*
X71134979Y-66145088D01*
X70603530Y-66250800D01*
X70061670Y-66250800D01*
X69530221Y-66145088D01*
X69510651Y-66136982D01*
X69029607Y-65937728D01*
X68579066Y-65636685D01*
X68195915Y-65253534D01*
X67894872Y-64802993D01*
X67687512Y-64302379D01*
X67581800Y-63770930D01*
X67581800Y-63229070D01*
X67687512Y-62697621D01*
X67894872Y-62197007D01*
X68195915Y-61746466D01*
X68579066Y-61363315D01*
X69029607Y-61062272D01*
X69530221Y-60854912D01*
X70061670Y-60749200D01*
X70603530Y-60749200D01*
X71134979Y-60854912D01*
G37*
G36*
X16016979Y-60854912D02*
G01*
X16517593Y-61062272D01*
X16968134Y-61363315D01*
X17351285Y-61746466D01*
X17652328Y-62197007D01*
X17859688Y-62697621D01*
X17965400Y-63229070D01*
X17965400Y-63770930D01*
X17859688Y-64302379D01*
X17652328Y-64802993D01*
X17351285Y-65253534D01*
X16968134Y-65636685D01*
X16517593Y-65937728D01*
X16036549Y-66136982D01*
X16016979Y-66145088D01*
X15485530Y-66250800D01*
X14943670Y-66250800D01*
X14412221Y-66145088D01*
X14392651Y-66136982D01*
X13911607Y-65937728D01*
X13461066Y-65636685D01*
X13077915Y-65253534D01*
X12776872Y-64802993D01*
X12569512Y-64302379D01*
X12463800Y-63770930D01*
X12463800Y-63229070D01*
X12569512Y-62697621D01*
X12776872Y-62197007D01*
X13077915Y-61746466D01*
X13461066Y-61363315D01*
X13911607Y-61062272D01*
X14412221Y-60854912D01*
X14943670Y-60749200D01*
X15485530Y-60749200D01*
X16016979Y-60854912D01*
G37*
G36*
X62506777Y-64338893D02*
G01*
X62620029Y-64373247D01*
X62724402Y-64429036D01*
X62815885Y-64504115D01*
X62890964Y-64595598D01*
X62946753Y-64699971D01*
X62981107Y-64813224D01*
X62989800Y-64901486D01*
X62989800Y-65360515D01*
X62981107Y-65448777D01*
X62946753Y-65562029D01*
X62890964Y-65666402D01*
X62815885Y-65757885D01*
X62724401Y-65832964D01*
X62620028Y-65888753D01*
X62506776Y-65923107D01*
X62389000Y-65934707D01*
X62271223Y-65923107D01*
X62157971Y-65888753D01*
X62053598Y-65832964D01*
X61962115Y-65757885D01*
X61887036Y-65666401D01*
X61831247Y-65562028D01*
X61796893Y-65448776D01*
X61788200Y-65360514D01*
X61788200Y-64901485D01*
X61796893Y-64813223D01*
X61831247Y-64699971D01*
X61887037Y-64595598D01*
X61962116Y-64504115D01*
X62053599Y-64429036D01*
X62157972Y-64373247D01*
X62271224Y-64338893D01*
X62389000Y-64327293D01*
X62506777Y-64338893D01*
G37*
G36*
X57666777Y-64338893D02*
G01*
X57780029Y-64373247D01*
X57884402Y-64429036D01*
X57975885Y-64504115D01*
X58050964Y-64595598D01*
X58106753Y-64699971D01*
X58141107Y-64813224D01*
X58149800Y-64901486D01*
X58149800Y-65360515D01*
X58141107Y-65448777D01*
X58106753Y-65562029D01*
X58050964Y-65666402D01*
X57975885Y-65757885D01*
X57884401Y-65832964D01*
X57780028Y-65888753D01*
X57666776Y-65923107D01*
X57549000Y-65934707D01*
X57431223Y-65923107D01*
X57317971Y-65888753D01*
X57213598Y-65832964D01*
X57122115Y-65757885D01*
X57047036Y-65666401D01*
X56991247Y-65562028D01*
X56956893Y-65448776D01*
X56948200Y-65360514D01*
X56948200Y-64901485D01*
X56956893Y-64813223D01*
X56991247Y-64699971D01*
X57047037Y-64595598D01*
X57122116Y-64504115D01*
X57213599Y-64429036D01*
X57317972Y-64373247D01*
X57431224Y-64338893D01*
X57549000Y-64327293D01*
X57666777Y-64338893D01*
G37*
G36*
X52970800Y-64146800D02*
G01*
X51169200Y-64146800D01*
X51169200Y-62345200D01*
X52970800Y-62345200D01*
X52970800Y-64146800D01*
G37*
G36*
X62841278Y-61240701D02*
G01*
X62913837Y-61262712D01*
X62978095Y-61282204D01*
X63104183Y-61349600D01*
X63214701Y-61440299D01*
X63305400Y-61550817D01*
X63372796Y-61676905D01*
X63392288Y-61741163D01*
X63414299Y-61813723D01*
X63424800Y-61920346D01*
X63424800Y-62341655D01*
X63414299Y-62448278D01*
X63392288Y-62520837D01*
X63372796Y-62585095D01*
X63372795Y-62585096D01*
X63305400Y-62711183D01*
X63214699Y-62821703D01*
X63104185Y-62912399D01*
X63032998Y-62950449D01*
X62978094Y-62979796D01*
X62913836Y-62999288D01*
X62841277Y-63021299D01*
X62699000Y-63035312D01*
X62556722Y-63021299D01*
X62484163Y-62999288D01*
X62419905Y-62979796D01*
X62293817Y-62912400D01*
X62293816Y-62912399D01*
X62183297Y-62821699D01*
X62092601Y-62711185D01*
X62054551Y-62639998D01*
X62025204Y-62585094D01*
X61983703Y-62448282D01*
X61983701Y-62448277D01*
X61973200Y-62341654D01*
X61973200Y-61920345D01*
X61983701Y-61813722D01*
X62005712Y-61741163D01*
X62025204Y-61676905D01*
X62092600Y-61550817D01*
X62183301Y-61440297D01*
X62293815Y-61349601D01*
X62365002Y-61311551D01*
X62419906Y-61282204D01*
X62484164Y-61262712D01*
X62556723Y-61240701D01*
X62699000Y-61226688D01*
X62841278Y-61240701D01*
G37*
G36*
X57381278Y-61240701D02*
G01*
X57453837Y-61262712D01*
X57518095Y-61282204D01*
X57644183Y-61349600D01*
X57754701Y-61440299D01*
X57845400Y-61550817D01*
X57912796Y-61676905D01*
X57932288Y-61741163D01*
X57954299Y-61813723D01*
X57964800Y-61920346D01*
X57964800Y-62341655D01*
X57954299Y-62448278D01*
X57932288Y-62520837D01*
X57912796Y-62585095D01*
X57912795Y-62585096D01*
X57845400Y-62711183D01*
X57754699Y-62821703D01*
X57644185Y-62912399D01*
X57572998Y-62950449D01*
X57518094Y-62979796D01*
X57453836Y-62999288D01*
X57381277Y-63021299D01*
X57239000Y-63035312D01*
X57096722Y-63021299D01*
X57024163Y-62999288D01*
X56959905Y-62979796D01*
X56833817Y-62912400D01*
X56833816Y-62912399D01*
X56723297Y-62821699D01*
X56632601Y-62711185D01*
X56594551Y-62639998D01*
X56565204Y-62585094D01*
X56523703Y-62448282D01*
X56523701Y-62448277D01*
X56513200Y-62341654D01*
X56513200Y-61920345D01*
X56523701Y-61813722D01*
X56545712Y-61741163D01*
X56565204Y-61676905D01*
X56632600Y-61550817D01*
X56723301Y-61440297D01*
X56833815Y-61349601D01*
X56905002Y-61311551D01*
X56959906Y-61282204D01*
X57024164Y-61262712D01*
X57096723Y-61240701D01*
X57239000Y-61226688D01*
X57381278Y-61240701D01*
G37*
M02*
