G04 #@! TF.GenerationSoftware,KiCad,Pcbnew,5.1.7*
G04 #@! TF.CreationDate,2020-11-02T19:08:24-06:00*
G04 #@! TF.ProjectId,pcb,7063622e-6b69-4636-9164-5f7063625858,rev?*
G04 #@! TF.SameCoordinates,Original*
G04 #@! TF.FileFunction,Copper,L2,Inr*
G04 #@! TF.FilePolarity,Positive*
%FSLAX46Y46*%
G04 Gerber Fmt 4.6, Leading zero omitted, Abs format (unit mm)*
G04 Created by KiCad (PCBNEW 5.1.7) date 2020-11-02 19:08:24*
%MOMM*%
%LPD*%
G01*
G04 APERTURE LIST*
G04 #@! TA.AperFunction,ComponentPad*
%ADD10C,4.500000*%
G04 #@! TD*
G04 #@! TA.AperFunction,ComponentPad*
%ADD11O,1.350000X1.700000*%
G04 #@! TD*
G04 #@! TA.AperFunction,ComponentPad*
%ADD12O,1.100000X1.500000*%
G04 #@! TD*
G04 #@! TA.AperFunction,ComponentPad*
%ADD13O,1.600000X2.500000*%
G04 #@! TD*
G04 #@! TA.AperFunction,ComponentPad*
%ADD14O,3.500000X7.000000*%
G04 #@! TD*
G04 #@! TA.AperFunction,ViaPad*
%ADD15C,0.900000*%
G04 #@! TD*
G04 #@! TA.AperFunction,ViaPad*
%ADD16C,0.700000*%
G04 #@! TD*
G04 #@! TA.AperFunction,Conductor*
%ADD17C,0.254000*%
G04 #@! TD*
G04 #@! TA.AperFunction,Conductor*
%ADD18C,0.100000*%
G04 #@! TD*
G04 APERTURE END LIST*
D10*
X26750000Y-95250000D03*
X68250000Y-106750000D03*
X68250000Y-63750000D03*
D11*
X57295000Y-62131000D03*
X62755000Y-62131000D03*
D12*
X57605000Y-65131000D03*
X62445000Y-65131000D03*
D13*
X29210000Y-73000000D03*
X31750000Y-73000000D03*
D14*
X36830000Y-67920000D03*
X26670000Y-67920000D03*
D15*
X53750000Y-99500000D03*
X55750000Y-99500000D03*
X57750000Y-99500000D03*
X57750000Y-95500000D03*
X55750000Y-95500000D03*
X53750000Y-95500000D03*
X53750000Y-79250000D03*
X55750000Y-79250000D03*
X57750000Y-79250000D03*
X57750000Y-81250000D03*
X53750000Y-81250000D03*
X55750000Y-81250000D03*
X55750000Y-77250000D03*
X57750000Y-77250000D03*
X53750000Y-77250000D03*
D16*
X46500000Y-93750000D03*
X46250000Y-99750000D03*
X46500000Y-102500000D03*
X56500000Y-102600000D03*
X51500000Y-89750000D03*
X50500000Y-90750000D03*
X63500000Y-99000000D03*
X63250000Y-102500000D03*
X64500000Y-100750000D03*
X46750000Y-87000000D03*
X48500000Y-87000000D03*
X48500000Y-73750000D03*
X46750000Y-73750000D03*
X46750000Y-78500000D03*
X45905000Y-79095000D03*
X45865000Y-81635000D03*
X45925000Y-84175000D03*
X45945000Y-85445000D03*
X38055000Y-85445000D03*
X38055000Y-76555000D03*
X38075000Y-77825000D03*
X45945000Y-98695000D03*
X38055000Y-98695000D03*
X52250000Y-88000000D03*
X50500000Y-83750000D03*
X50550000Y-79950000D03*
X50250000Y-72250000D03*
X50250000Y-74000000D03*
X60000000Y-73500000D03*
X61000000Y-76750000D03*
X62250000Y-84500000D03*
X58125000Y-83875000D03*
X46826200Y-63423800D03*
X50211900Y-66461900D03*
X50250000Y-69500000D03*
X41500000Y-63750000D03*
X45134800Y-69134800D03*
X45192400Y-66442400D03*
X54250000Y-74750000D03*
X60700000Y-72000000D03*
X51750000Y-102250000D03*
X47750000Y-97750000D03*
X46500000Y-92000000D03*
X45925000Y-91075000D03*
X45865000Y-94885000D03*
X49000000Y-79750000D03*
X31500000Y-99750000D03*
X32500000Y-99750000D03*
X56575000Y-72425000D03*
X58725000Y-66775000D03*
X57750000Y-67250000D03*
X56750000Y-66750000D03*
X56750000Y-67750000D03*
X54750000Y-67750000D03*
X54750000Y-66750000D03*
X54750000Y-65750000D03*
X54750000Y-64750000D03*
X55750000Y-66750000D03*
X55750000Y-67750000D03*
X48750000Y-98750000D03*
X48000000Y-102500000D03*
X51750000Y-105750000D03*
X54250000Y-92250000D03*
X51500000Y-93250000D03*
X60750000Y-93000000D03*
X63750000Y-93000000D03*
X59750000Y-102500000D03*
X47250000Y-85000000D03*
X46750000Y-90500000D03*
X48500000Y-90500000D03*
X46750000Y-77250000D03*
X48500000Y-77250000D03*
X47250000Y-71000000D03*
X49500000Y-81250000D03*
X50550000Y-76450000D03*
X53750000Y-72250000D03*
X53750000Y-74000000D03*
X62000000Y-75500000D03*
X58750000Y-84500000D03*
X45000000Y-63750000D03*
X48250000Y-71000000D03*
X48250000Y-72000000D03*
X47250000Y-72000000D03*
X44250000Y-62750000D03*
X30500000Y-99750000D03*
X29500000Y-99750000D03*
X31250000Y-91750000D03*
X31250000Y-93500000D03*
X31287500Y-76537500D03*
X61000000Y-100750000D03*
X61000000Y-100000000D03*
X47750000Y-95500000D03*
X42000000Y-71000000D03*
X42000000Y-72000000D03*
X43000000Y-71000000D03*
X43000000Y-72000000D03*
X50250000Y-98250000D03*
X55000000Y-91000000D03*
X57000000Y-89000000D03*
X56500000Y-91500000D03*
X56500000Y-90500000D03*
X55500000Y-88500000D03*
X61500000Y-91500000D03*
X62500000Y-91500000D03*
X57250000Y-73500000D03*
X67000000Y-69250000D03*
X58000000Y-74000000D03*
X58875000Y-74625000D03*
X62000000Y-77000000D03*
X57000000Y-88000000D03*
X50537500Y-77537500D03*
X59500000Y-105500000D03*
X59000000Y-104000000D03*
X60000000Y-104000000D03*
X63500000Y-97750000D03*
X63750000Y-79750000D03*
X64450000Y-78950000D03*
X54950000Y-92800000D03*
X62750000Y-68500000D03*
X28500000Y-99750000D03*
X27500000Y-99750000D03*
D17*
X56364209Y-61025208D02*
X56200505Y-61224682D01*
X56078862Y-61452259D01*
X56003955Y-61699195D01*
X55985000Y-61891649D01*
X55985000Y-62370350D01*
X56003955Y-62562804D01*
X56078862Y-62809740D01*
X56200505Y-63037317D01*
X56364208Y-63236792D01*
X56563682Y-63400495D01*
X56791259Y-63522138D01*
X57038195Y-63597045D01*
X57295000Y-63622338D01*
X57551804Y-63597045D01*
X57798740Y-63522138D01*
X58026317Y-63400495D01*
X58225792Y-63236792D01*
X58389495Y-63037318D01*
X58511138Y-62809741D01*
X58586045Y-62562805D01*
X58605000Y-62370351D01*
X58605000Y-61891650D01*
X58586045Y-61699196D01*
X58511138Y-61452260D01*
X58389495Y-61224682D01*
X58225792Y-61025208D01*
X58115873Y-60935000D01*
X61934128Y-60935000D01*
X61824209Y-61025208D01*
X61660505Y-61224682D01*
X61538862Y-61452259D01*
X61463955Y-61699195D01*
X61445000Y-61891649D01*
X61445000Y-62370350D01*
X61463955Y-62562804D01*
X61538862Y-62809740D01*
X61660505Y-63037317D01*
X61824208Y-63236792D01*
X62023682Y-63400495D01*
X62251259Y-63522138D01*
X62498195Y-63597045D01*
X62755000Y-63622338D01*
X63011804Y-63597045D01*
X63258740Y-63522138D01*
X63486317Y-63400495D01*
X63685792Y-63236792D01*
X63849495Y-63037318D01*
X63971138Y-62809741D01*
X64046045Y-62562805D01*
X64065000Y-62370351D01*
X64065000Y-61891650D01*
X64046045Y-61699196D01*
X63971138Y-61452260D01*
X63849495Y-61224682D01*
X63685792Y-61025208D01*
X63575873Y-60935000D01*
X67588304Y-60935000D01*
X67128434Y-61076790D01*
X66650416Y-61332296D01*
X66404265Y-61724660D01*
X68250000Y-63570395D01*
X70095735Y-61724660D01*
X69849584Y-61332296D01*
X69347178Y-61066688D01*
X68905834Y-60935000D01*
X71065000Y-60935000D01*
X71065000Y-63088305D01*
X70923210Y-62628434D01*
X70667704Y-62150416D01*
X70275340Y-61904265D01*
X68429605Y-63750000D01*
X70275340Y-65595735D01*
X70667704Y-65349584D01*
X70933312Y-64847178D01*
X71065000Y-64405834D01*
X71065001Y-106088307D01*
X70923210Y-105628434D01*
X70667704Y-105150416D01*
X70275340Y-104904265D01*
X68429605Y-106750000D01*
X70275340Y-108595735D01*
X70667704Y-108349584D01*
X70933312Y-107847178D01*
X71065001Y-107405831D01*
X71065001Y-109565000D01*
X68911696Y-109565000D01*
X69371566Y-109423210D01*
X69849584Y-109167704D01*
X70095735Y-108775340D01*
X68250000Y-106929605D01*
X66404265Y-108775340D01*
X66650416Y-109167704D01*
X67152822Y-109433312D01*
X67594166Y-109565000D01*
X22435000Y-109565000D01*
X22435000Y-106763199D01*
X65351072Y-106763199D01*
X65409348Y-107328498D01*
X65576790Y-107871566D01*
X65832296Y-108349584D01*
X66224660Y-108595735D01*
X68070395Y-106750000D01*
X66224660Y-104904265D01*
X65832296Y-105150416D01*
X65566688Y-105652822D01*
X65404199Y-106197393D01*
X65351072Y-106763199D01*
X22435000Y-106763199D01*
X22435000Y-105652986D01*
X50765000Y-105652986D01*
X50765000Y-105847014D01*
X50802853Y-106037314D01*
X50877104Y-106216572D01*
X50984901Y-106377901D01*
X51122099Y-106515099D01*
X51283428Y-106622896D01*
X51462686Y-106697147D01*
X51652986Y-106735000D01*
X51847014Y-106735000D01*
X52037314Y-106697147D01*
X52216572Y-106622896D01*
X52377901Y-106515099D01*
X52515099Y-106377901D01*
X52622896Y-106216572D01*
X52697147Y-106037314D01*
X52735000Y-105847014D01*
X52735000Y-105652986D01*
X52697147Y-105462686D01*
X52622896Y-105283428D01*
X52515099Y-105122099D01*
X52377901Y-104984901D01*
X52216572Y-104877104D01*
X52037314Y-104802853D01*
X51847014Y-104765000D01*
X51652986Y-104765000D01*
X51462686Y-104802853D01*
X51283428Y-104877104D01*
X51122099Y-104984901D01*
X50984901Y-105122099D01*
X50877104Y-105283428D01*
X50802853Y-105462686D01*
X50765000Y-105652986D01*
X22435000Y-105652986D01*
X22435000Y-103902986D01*
X58015000Y-103902986D01*
X58015000Y-104097014D01*
X58052853Y-104287314D01*
X58127104Y-104466572D01*
X58234901Y-104627901D01*
X58372099Y-104765099D01*
X58533428Y-104872896D01*
X58690810Y-104938086D01*
X58627104Y-105033428D01*
X58552853Y-105212686D01*
X58515000Y-105402986D01*
X58515000Y-105597014D01*
X58552853Y-105787314D01*
X58627104Y-105966572D01*
X58734901Y-106127901D01*
X58872099Y-106265099D01*
X59033428Y-106372896D01*
X59212686Y-106447147D01*
X59402986Y-106485000D01*
X59597014Y-106485000D01*
X59787314Y-106447147D01*
X59966572Y-106372896D01*
X60127901Y-106265099D01*
X60265099Y-106127901D01*
X60372896Y-105966572D01*
X60447147Y-105787314D01*
X60485000Y-105597014D01*
X60485000Y-105402986D01*
X60447147Y-105212686D01*
X60372896Y-105033428D01*
X60309190Y-104938086D01*
X60466572Y-104872896D01*
X60627901Y-104765099D01*
X60668340Y-104724660D01*
X66404265Y-104724660D01*
X68250000Y-106570395D01*
X70095735Y-104724660D01*
X69849584Y-104332296D01*
X69347178Y-104066688D01*
X68802607Y-103904199D01*
X68236801Y-103851072D01*
X67671502Y-103909348D01*
X67128434Y-104076790D01*
X66650416Y-104332296D01*
X66404265Y-104724660D01*
X60668340Y-104724660D01*
X60765099Y-104627901D01*
X60872896Y-104466572D01*
X60947147Y-104287314D01*
X60985000Y-104097014D01*
X60985000Y-103902986D01*
X60947147Y-103712686D01*
X60872896Y-103533428D01*
X60765099Y-103372099D01*
X60627901Y-103234901D01*
X60496140Y-103146860D01*
X60515099Y-103127901D01*
X60622896Y-102966572D01*
X60697147Y-102787314D01*
X60735000Y-102597014D01*
X60735000Y-102402986D01*
X60697147Y-102212686D01*
X60622896Y-102033428D01*
X60515099Y-101872099D01*
X60377901Y-101734901D01*
X60216572Y-101627104D01*
X60037314Y-101552853D01*
X59847014Y-101515000D01*
X59652986Y-101515000D01*
X59462686Y-101552853D01*
X59283428Y-101627104D01*
X59122099Y-101734901D01*
X58984901Y-101872099D01*
X58877104Y-102033428D01*
X58802853Y-102212686D01*
X58765000Y-102402986D01*
X58765000Y-102597014D01*
X58802853Y-102787314D01*
X58877104Y-102966572D01*
X58909463Y-103015000D01*
X58902986Y-103015000D01*
X58712686Y-103052853D01*
X58533428Y-103127104D01*
X58372099Y-103234901D01*
X58234901Y-103372099D01*
X58127104Y-103533428D01*
X58052853Y-103712686D01*
X58015000Y-103902986D01*
X22435000Y-103902986D01*
X22435000Y-102402986D01*
X47015000Y-102402986D01*
X47015000Y-102597014D01*
X47052853Y-102787314D01*
X47127104Y-102966572D01*
X47234901Y-103127901D01*
X47372099Y-103265099D01*
X47533428Y-103372896D01*
X47712686Y-103447147D01*
X47902986Y-103485000D01*
X48097014Y-103485000D01*
X48287314Y-103447147D01*
X48466572Y-103372896D01*
X48627901Y-103265099D01*
X48765099Y-103127901D01*
X48872896Y-102966572D01*
X48947147Y-102787314D01*
X48985000Y-102597014D01*
X48985000Y-102402986D01*
X48947147Y-102212686D01*
X48872896Y-102033428D01*
X48765099Y-101872099D01*
X48627901Y-101734901D01*
X48466572Y-101627104D01*
X48287314Y-101552853D01*
X48097014Y-101515000D01*
X47902986Y-101515000D01*
X47712686Y-101552853D01*
X47533428Y-101627104D01*
X47372099Y-101734901D01*
X47234901Y-101872099D01*
X47127104Y-102033428D01*
X47052853Y-102212686D01*
X47015000Y-102402986D01*
X22435000Y-102402986D01*
X22435000Y-99652986D01*
X26515000Y-99652986D01*
X26515000Y-99847014D01*
X26552853Y-100037314D01*
X26627104Y-100216572D01*
X26734901Y-100377901D01*
X26872099Y-100515099D01*
X27033428Y-100622896D01*
X27212686Y-100697147D01*
X27402986Y-100735000D01*
X27597014Y-100735000D01*
X27787314Y-100697147D01*
X27966572Y-100622896D01*
X28000000Y-100600560D01*
X28033428Y-100622896D01*
X28212686Y-100697147D01*
X28402986Y-100735000D01*
X28597014Y-100735000D01*
X28787314Y-100697147D01*
X28966572Y-100622896D01*
X29000000Y-100600560D01*
X29033428Y-100622896D01*
X29212686Y-100697147D01*
X29402986Y-100735000D01*
X29597014Y-100735000D01*
X29787314Y-100697147D01*
X29966572Y-100622896D01*
X30000000Y-100600560D01*
X30033428Y-100622896D01*
X30212686Y-100697147D01*
X30402986Y-100735000D01*
X30597014Y-100735000D01*
X30787314Y-100697147D01*
X30966572Y-100622896D01*
X31127901Y-100515099D01*
X31265099Y-100377901D01*
X31372896Y-100216572D01*
X31447147Y-100037314D01*
X31473866Y-99902986D01*
X60015000Y-99902986D01*
X60015000Y-100097014D01*
X60052853Y-100287314D01*
X60089174Y-100375000D01*
X60052853Y-100462686D01*
X60015000Y-100652986D01*
X60015000Y-100847014D01*
X60052853Y-101037314D01*
X60127104Y-101216572D01*
X60234901Y-101377901D01*
X60372099Y-101515099D01*
X60533428Y-101622896D01*
X60712686Y-101697147D01*
X60902986Y-101735000D01*
X61097014Y-101735000D01*
X61287314Y-101697147D01*
X61466572Y-101622896D01*
X61627901Y-101515099D01*
X61765099Y-101377901D01*
X61872896Y-101216572D01*
X61947147Y-101037314D01*
X61985000Y-100847014D01*
X61985000Y-100652986D01*
X61947147Y-100462686D01*
X61910826Y-100375000D01*
X61947147Y-100287314D01*
X61985000Y-100097014D01*
X61985000Y-99902986D01*
X61947147Y-99712686D01*
X61872896Y-99533428D01*
X61765099Y-99372099D01*
X61627901Y-99234901D01*
X61466572Y-99127104D01*
X61287314Y-99052853D01*
X61097014Y-99015000D01*
X60902986Y-99015000D01*
X60712686Y-99052853D01*
X60533428Y-99127104D01*
X60372099Y-99234901D01*
X60234901Y-99372099D01*
X60127104Y-99533428D01*
X60052853Y-99712686D01*
X60015000Y-99902986D01*
X31473866Y-99902986D01*
X31485000Y-99847014D01*
X31485000Y-99652986D01*
X31447147Y-99462686D01*
X31372896Y-99283428D01*
X31265099Y-99122099D01*
X31127901Y-98984901D01*
X30966572Y-98877104D01*
X30787314Y-98802853D01*
X30597014Y-98765000D01*
X30402986Y-98765000D01*
X30212686Y-98802853D01*
X30033428Y-98877104D01*
X30000000Y-98899440D01*
X29966572Y-98877104D01*
X29787314Y-98802853D01*
X29597014Y-98765000D01*
X29402986Y-98765000D01*
X29212686Y-98802853D01*
X29033428Y-98877104D01*
X29000000Y-98899440D01*
X28966572Y-98877104D01*
X28787314Y-98802853D01*
X28597014Y-98765000D01*
X28402986Y-98765000D01*
X28212686Y-98802853D01*
X28033428Y-98877104D01*
X28000000Y-98899440D01*
X27966572Y-98877104D01*
X27787314Y-98802853D01*
X27597014Y-98765000D01*
X27402986Y-98765000D01*
X27212686Y-98802853D01*
X27033428Y-98877104D01*
X26872099Y-98984901D01*
X26734901Y-99122099D01*
X26627104Y-99283428D01*
X26552853Y-99462686D01*
X26515000Y-99652986D01*
X22435000Y-99652986D01*
X22435000Y-98652986D01*
X47765000Y-98652986D01*
X47765000Y-98847014D01*
X47802853Y-99037314D01*
X47877104Y-99216572D01*
X47984901Y-99377901D01*
X48122099Y-99515099D01*
X48283428Y-99622896D01*
X48462686Y-99697147D01*
X48652986Y-99735000D01*
X48847014Y-99735000D01*
X49037314Y-99697147D01*
X49216572Y-99622896D01*
X49377901Y-99515099D01*
X49515099Y-99377901D01*
X49622896Y-99216572D01*
X49688086Y-99059190D01*
X49783428Y-99122896D01*
X49962686Y-99197147D01*
X50152986Y-99235000D01*
X50347014Y-99235000D01*
X50537314Y-99197147D01*
X50716572Y-99122896D01*
X50877901Y-99015099D01*
X51015099Y-98877901D01*
X51122896Y-98716572D01*
X51197147Y-98537314D01*
X51235000Y-98347014D01*
X51235000Y-98152986D01*
X51197147Y-97962686D01*
X51122896Y-97783428D01*
X51035738Y-97652986D01*
X62515000Y-97652986D01*
X62515000Y-97847014D01*
X62552853Y-98037314D01*
X62627104Y-98216572D01*
X62734901Y-98377901D01*
X62872099Y-98515099D01*
X63033428Y-98622896D01*
X63212686Y-98697147D01*
X63402986Y-98735000D01*
X63597014Y-98735000D01*
X63787314Y-98697147D01*
X63966572Y-98622896D01*
X64127901Y-98515099D01*
X64265099Y-98377901D01*
X64372896Y-98216572D01*
X64447147Y-98037314D01*
X64485000Y-97847014D01*
X64485000Y-97652986D01*
X64447147Y-97462686D01*
X64372896Y-97283428D01*
X64265099Y-97122099D01*
X64127901Y-96984901D01*
X63966572Y-96877104D01*
X63787314Y-96802853D01*
X63597014Y-96765000D01*
X63402986Y-96765000D01*
X63212686Y-96802853D01*
X63033428Y-96877104D01*
X62872099Y-96984901D01*
X62734901Y-97122099D01*
X62627104Y-97283428D01*
X62552853Y-97462686D01*
X62515000Y-97652986D01*
X51035738Y-97652986D01*
X51015099Y-97622099D01*
X50877901Y-97484901D01*
X50716572Y-97377104D01*
X50537314Y-97302853D01*
X50347014Y-97265000D01*
X50152986Y-97265000D01*
X49962686Y-97302853D01*
X49783428Y-97377104D01*
X49622099Y-97484901D01*
X49484901Y-97622099D01*
X49377104Y-97783428D01*
X49311914Y-97940810D01*
X49216572Y-97877104D01*
X49037314Y-97802853D01*
X48847014Y-97765000D01*
X48652986Y-97765000D01*
X48462686Y-97802853D01*
X48283428Y-97877104D01*
X48122099Y-97984901D01*
X47984901Y-98122099D01*
X47877104Y-98283428D01*
X47802853Y-98462686D01*
X47765000Y-98652986D01*
X22435000Y-98652986D01*
X22435000Y-97275340D01*
X24904265Y-97275340D01*
X25150416Y-97667704D01*
X25652822Y-97933312D01*
X26197393Y-98095801D01*
X26763199Y-98148928D01*
X27328498Y-98090652D01*
X27871566Y-97923210D01*
X28349584Y-97667704D01*
X28595735Y-97275340D01*
X26750000Y-95429605D01*
X24904265Y-97275340D01*
X22435000Y-97275340D01*
X22435000Y-95263199D01*
X23851072Y-95263199D01*
X23909348Y-95828498D01*
X24076790Y-96371566D01*
X24332296Y-96849584D01*
X24724660Y-97095735D01*
X26570395Y-95250000D01*
X26929605Y-95250000D01*
X28775340Y-97095735D01*
X29167704Y-96849584D01*
X29433312Y-96347178D01*
X29595801Y-95802607D01*
X29633323Y-95402986D01*
X46765000Y-95402986D01*
X46765000Y-95597014D01*
X46802853Y-95787314D01*
X46877104Y-95966572D01*
X46984901Y-96127901D01*
X47122099Y-96265099D01*
X47283428Y-96372896D01*
X47462686Y-96447147D01*
X47652986Y-96485000D01*
X47847014Y-96485000D01*
X48037314Y-96447147D01*
X48216572Y-96372896D01*
X48377901Y-96265099D01*
X48515099Y-96127901D01*
X48622896Y-95966572D01*
X48697147Y-95787314D01*
X48735000Y-95597014D01*
X48735000Y-95402986D01*
X48697147Y-95212686D01*
X48622896Y-95033428D01*
X48515099Y-94872099D01*
X48377901Y-94734901D01*
X48216572Y-94627104D01*
X48037314Y-94552853D01*
X47847014Y-94515000D01*
X47652986Y-94515000D01*
X47462686Y-94552853D01*
X47283428Y-94627104D01*
X47122099Y-94734901D01*
X46984901Y-94872099D01*
X46877104Y-95033428D01*
X46802853Y-95212686D01*
X46765000Y-95402986D01*
X29633323Y-95402986D01*
X29648928Y-95236801D01*
X29590652Y-94671502D01*
X29423210Y-94128434D01*
X29167704Y-93650416D01*
X28775340Y-93404265D01*
X26929605Y-95250000D01*
X26570395Y-95250000D01*
X24724660Y-93404265D01*
X24332296Y-93650416D01*
X24066688Y-94152822D01*
X23904199Y-94697393D01*
X23851072Y-95263199D01*
X22435000Y-95263199D01*
X22435000Y-93224660D01*
X24904265Y-93224660D01*
X26750000Y-95070395D01*
X28595735Y-93224660D01*
X28349584Y-92832296D01*
X27847178Y-92566688D01*
X27302607Y-92404199D01*
X26736801Y-92351072D01*
X26171502Y-92409348D01*
X25628434Y-92576790D01*
X25150416Y-92832296D01*
X24904265Y-93224660D01*
X22435000Y-93224660D01*
X22435000Y-91652986D01*
X30265000Y-91652986D01*
X30265000Y-91847014D01*
X30302853Y-92037314D01*
X30377104Y-92216572D01*
X30484901Y-92377901D01*
X30622099Y-92515099D01*
X30783428Y-92622896D01*
X30788508Y-92625000D01*
X30783428Y-92627104D01*
X30622099Y-92734901D01*
X30484901Y-92872099D01*
X30377104Y-93033428D01*
X30302853Y-93212686D01*
X30265000Y-93402986D01*
X30265000Y-93597014D01*
X30302853Y-93787314D01*
X30377104Y-93966572D01*
X30484901Y-94127901D01*
X30622099Y-94265099D01*
X30783428Y-94372896D01*
X30962686Y-94447147D01*
X31152986Y-94485000D01*
X31347014Y-94485000D01*
X31537314Y-94447147D01*
X31716572Y-94372896D01*
X31877901Y-94265099D01*
X32015099Y-94127901D01*
X32122896Y-93966572D01*
X32197147Y-93787314D01*
X32235000Y-93597014D01*
X32235000Y-93402986D01*
X32197147Y-93212686D01*
X32172419Y-93152986D01*
X50515000Y-93152986D01*
X50515000Y-93347014D01*
X50552853Y-93537314D01*
X50627104Y-93716572D01*
X50734901Y-93877901D01*
X50872099Y-94015099D01*
X51033428Y-94122896D01*
X51212686Y-94197147D01*
X51402986Y-94235000D01*
X51597014Y-94235000D01*
X51787314Y-94197147D01*
X51966572Y-94122896D01*
X52127901Y-94015099D01*
X52265099Y-93877901D01*
X52372896Y-93716572D01*
X52447147Y-93537314D01*
X52485000Y-93347014D01*
X52485000Y-93152986D01*
X52447147Y-92962686D01*
X52372896Y-92783428D01*
X52265099Y-92622099D01*
X52127901Y-92484901D01*
X51966572Y-92377104D01*
X51787314Y-92302853D01*
X51597014Y-92265000D01*
X51402986Y-92265000D01*
X51212686Y-92302853D01*
X51033428Y-92377104D01*
X50872099Y-92484901D01*
X50734901Y-92622099D01*
X50627104Y-92783428D01*
X50552853Y-92962686D01*
X50515000Y-93152986D01*
X32172419Y-93152986D01*
X32122896Y-93033428D01*
X32015099Y-92872099D01*
X31877901Y-92734901D01*
X31716572Y-92627104D01*
X31711492Y-92625000D01*
X31716572Y-92622896D01*
X31877901Y-92515099D01*
X32015099Y-92377901D01*
X32122896Y-92216572D01*
X32149234Y-92152986D01*
X53265000Y-92152986D01*
X53265000Y-92347014D01*
X53302853Y-92537314D01*
X53377104Y-92716572D01*
X53484901Y-92877901D01*
X53622099Y-93015099D01*
X53783428Y-93122896D01*
X53962686Y-93197147D01*
X54056039Y-93215716D01*
X54077104Y-93266572D01*
X54184901Y-93427901D01*
X54322099Y-93565099D01*
X54483428Y-93672896D01*
X54662686Y-93747147D01*
X54852986Y-93785000D01*
X55047014Y-93785000D01*
X55237314Y-93747147D01*
X55416572Y-93672896D01*
X55577901Y-93565099D01*
X55715099Y-93427901D01*
X55822896Y-93266572D01*
X55897147Y-93087314D01*
X55933812Y-92902986D01*
X59765000Y-92902986D01*
X59765000Y-93097014D01*
X59802853Y-93287314D01*
X59877104Y-93466572D01*
X59984901Y-93627901D01*
X60122099Y-93765099D01*
X60283428Y-93872896D01*
X60462686Y-93947147D01*
X60652986Y-93985000D01*
X60847014Y-93985000D01*
X61037314Y-93947147D01*
X61216572Y-93872896D01*
X61377901Y-93765099D01*
X61515099Y-93627901D01*
X61622896Y-93466572D01*
X61697147Y-93287314D01*
X61735000Y-93097014D01*
X61735000Y-92902986D01*
X61697147Y-92712686D01*
X61622896Y-92533428D01*
X61590537Y-92485000D01*
X61597014Y-92485000D01*
X61787314Y-92447147D01*
X61966572Y-92372896D01*
X62000000Y-92350560D01*
X62033428Y-92372896D01*
X62212686Y-92447147D01*
X62402986Y-92485000D01*
X62597014Y-92485000D01*
X62787314Y-92447147D01*
X62966572Y-92372896D01*
X63019408Y-92337592D01*
X62984901Y-92372099D01*
X62877104Y-92533428D01*
X62802853Y-92712686D01*
X62765000Y-92902986D01*
X62765000Y-93097014D01*
X62802853Y-93287314D01*
X62877104Y-93466572D01*
X62984901Y-93627901D01*
X63122099Y-93765099D01*
X63283428Y-93872896D01*
X63462686Y-93947147D01*
X63652986Y-93985000D01*
X63847014Y-93985000D01*
X64037314Y-93947147D01*
X64216572Y-93872896D01*
X64377901Y-93765099D01*
X64515099Y-93627901D01*
X64622896Y-93466572D01*
X64697147Y-93287314D01*
X64735000Y-93097014D01*
X64735000Y-92902986D01*
X64697147Y-92712686D01*
X64622896Y-92533428D01*
X64515099Y-92372099D01*
X64377901Y-92234901D01*
X64216572Y-92127104D01*
X64037314Y-92052853D01*
X63847014Y-92015000D01*
X63652986Y-92015000D01*
X63462686Y-92052853D01*
X63283428Y-92127104D01*
X63230592Y-92162408D01*
X63265099Y-92127901D01*
X63372896Y-91966572D01*
X63447147Y-91787314D01*
X63485000Y-91597014D01*
X63485000Y-91402986D01*
X63447147Y-91212686D01*
X63372896Y-91033428D01*
X63265099Y-90872099D01*
X63127901Y-90734901D01*
X62966572Y-90627104D01*
X62787314Y-90552853D01*
X62597014Y-90515000D01*
X62402986Y-90515000D01*
X62212686Y-90552853D01*
X62033428Y-90627104D01*
X62000000Y-90649440D01*
X61966572Y-90627104D01*
X61787314Y-90552853D01*
X61597014Y-90515000D01*
X61402986Y-90515000D01*
X61212686Y-90552853D01*
X61033428Y-90627104D01*
X60872099Y-90734901D01*
X60734901Y-90872099D01*
X60627104Y-91033428D01*
X60552853Y-91212686D01*
X60515000Y-91402986D01*
X60515000Y-91597014D01*
X60552853Y-91787314D01*
X60627104Y-91966572D01*
X60659463Y-92015000D01*
X60652986Y-92015000D01*
X60462686Y-92052853D01*
X60283428Y-92127104D01*
X60122099Y-92234901D01*
X59984901Y-92372099D01*
X59877104Y-92533428D01*
X59802853Y-92712686D01*
X59765000Y-92902986D01*
X55933812Y-92902986D01*
X55935000Y-92897014D01*
X55935000Y-92702986D01*
X55897147Y-92512686D01*
X55822896Y-92333428D01*
X55715099Y-92172099D01*
X55577901Y-92034901D01*
X55416572Y-91927104D01*
X55376137Y-91910355D01*
X55466572Y-91872896D01*
X55561914Y-91809190D01*
X55627104Y-91966572D01*
X55734901Y-92127901D01*
X55872099Y-92265099D01*
X56033428Y-92372896D01*
X56212686Y-92447147D01*
X56402986Y-92485000D01*
X56597014Y-92485000D01*
X56787314Y-92447147D01*
X56966572Y-92372896D01*
X57127901Y-92265099D01*
X57265099Y-92127901D01*
X57372896Y-91966572D01*
X57447147Y-91787314D01*
X57485000Y-91597014D01*
X57485000Y-91402986D01*
X57447147Y-91212686D01*
X57372896Y-91033428D01*
X57350560Y-91000000D01*
X57372896Y-90966572D01*
X57447147Y-90787314D01*
X57485000Y-90597014D01*
X57485000Y-90402986D01*
X57447147Y-90212686D01*
X57372896Y-90033428D01*
X57309190Y-89938086D01*
X57466572Y-89872896D01*
X57627901Y-89765099D01*
X57765099Y-89627901D01*
X57872896Y-89466572D01*
X57947147Y-89287314D01*
X57985000Y-89097014D01*
X57985000Y-88902986D01*
X57947147Y-88712686D01*
X57872896Y-88533428D01*
X57850560Y-88500000D01*
X57872896Y-88466572D01*
X57947147Y-88287314D01*
X57985000Y-88097014D01*
X57985000Y-87902986D01*
X57947147Y-87712686D01*
X57872896Y-87533428D01*
X57765099Y-87372099D01*
X57627901Y-87234901D01*
X57466572Y-87127104D01*
X57287314Y-87052853D01*
X57097014Y-87015000D01*
X56902986Y-87015000D01*
X56712686Y-87052853D01*
X56533428Y-87127104D01*
X56372099Y-87234901D01*
X56234901Y-87372099D01*
X56127104Y-87533428D01*
X56061914Y-87690810D01*
X55966572Y-87627104D01*
X55787314Y-87552853D01*
X55597014Y-87515000D01*
X55402986Y-87515000D01*
X55212686Y-87552853D01*
X55033428Y-87627104D01*
X54872099Y-87734901D01*
X54734901Y-87872099D01*
X54627104Y-88033428D01*
X54552853Y-88212686D01*
X54515000Y-88402986D01*
X54515000Y-88597014D01*
X54552853Y-88787314D01*
X54627104Y-88966572D01*
X54734901Y-89127901D01*
X54872099Y-89265099D01*
X55033428Y-89372896D01*
X55212686Y-89447147D01*
X55402986Y-89485000D01*
X55597014Y-89485000D01*
X55787314Y-89447147D01*
X55966572Y-89372896D01*
X56061914Y-89309190D01*
X56127104Y-89466572D01*
X56190810Y-89561914D01*
X56033428Y-89627104D01*
X55872099Y-89734901D01*
X55734901Y-89872099D01*
X55627104Y-90033428D01*
X55561914Y-90190810D01*
X55466572Y-90127104D01*
X55287314Y-90052853D01*
X55097014Y-90015000D01*
X54902986Y-90015000D01*
X54712686Y-90052853D01*
X54533428Y-90127104D01*
X54372099Y-90234901D01*
X54234901Y-90372099D01*
X54127104Y-90533428D01*
X54052853Y-90712686D01*
X54015000Y-90902986D01*
X54015000Y-91097014D01*
X54052394Y-91285009D01*
X53962686Y-91302853D01*
X53783428Y-91377104D01*
X53622099Y-91484901D01*
X53484901Y-91622099D01*
X53377104Y-91783428D01*
X53302853Y-91962686D01*
X53265000Y-92152986D01*
X32149234Y-92152986D01*
X32197147Y-92037314D01*
X32235000Y-91847014D01*
X32235000Y-91652986D01*
X32197147Y-91462686D01*
X32122896Y-91283428D01*
X32015099Y-91122099D01*
X31877901Y-90984901D01*
X31716572Y-90877104D01*
X31537314Y-90802853D01*
X31347014Y-90765000D01*
X31152986Y-90765000D01*
X30962686Y-90802853D01*
X30783428Y-90877104D01*
X30622099Y-90984901D01*
X30484901Y-91122099D01*
X30377104Y-91283428D01*
X30302853Y-91462686D01*
X30265000Y-91652986D01*
X22435000Y-91652986D01*
X22435000Y-90402986D01*
X45765000Y-90402986D01*
X45765000Y-90597014D01*
X45802853Y-90787314D01*
X45877104Y-90966572D01*
X45984901Y-91127901D01*
X46122099Y-91265099D01*
X46283428Y-91372896D01*
X46462686Y-91447147D01*
X46652986Y-91485000D01*
X46847014Y-91485000D01*
X47037314Y-91447147D01*
X47216572Y-91372896D01*
X47377901Y-91265099D01*
X47515099Y-91127901D01*
X47622896Y-90966572D01*
X47625000Y-90961492D01*
X47627104Y-90966572D01*
X47734901Y-91127901D01*
X47872099Y-91265099D01*
X48033428Y-91372896D01*
X48212686Y-91447147D01*
X48402986Y-91485000D01*
X48597014Y-91485000D01*
X48787314Y-91447147D01*
X48966572Y-91372896D01*
X49127901Y-91265099D01*
X49265099Y-91127901D01*
X49372896Y-90966572D01*
X49447147Y-90787314D01*
X49485000Y-90597014D01*
X49485000Y-90402986D01*
X49447147Y-90212686D01*
X49372896Y-90033428D01*
X49265099Y-89872099D01*
X49127901Y-89734901D01*
X48966572Y-89627104D01*
X48787314Y-89552853D01*
X48597014Y-89515000D01*
X48402986Y-89515000D01*
X48212686Y-89552853D01*
X48033428Y-89627104D01*
X47872099Y-89734901D01*
X47734901Y-89872099D01*
X47627104Y-90033428D01*
X47625000Y-90038508D01*
X47622896Y-90033428D01*
X47515099Y-89872099D01*
X47377901Y-89734901D01*
X47216572Y-89627104D01*
X47037314Y-89552853D01*
X46847014Y-89515000D01*
X46652986Y-89515000D01*
X46462686Y-89552853D01*
X46283428Y-89627104D01*
X46122099Y-89734901D01*
X45984901Y-89872099D01*
X45877104Y-90033428D01*
X45802853Y-90212686D01*
X45765000Y-90402986D01*
X22435000Y-90402986D01*
X22435000Y-84902986D01*
X46265000Y-84902986D01*
X46265000Y-85097014D01*
X46302853Y-85287314D01*
X46377104Y-85466572D01*
X46484901Y-85627901D01*
X46622099Y-85765099D01*
X46783428Y-85872896D01*
X46962686Y-85947147D01*
X47152986Y-85985000D01*
X47347014Y-85985000D01*
X47537314Y-85947147D01*
X47716572Y-85872896D01*
X47877901Y-85765099D01*
X48015099Y-85627901D01*
X48122896Y-85466572D01*
X48197147Y-85287314D01*
X48235000Y-85097014D01*
X48235000Y-84902986D01*
X48197147Y-84712686D01*
X48122896Y-84533428D01*
X48035738Y-84402986D01*
X57765000Y-84402986D01*
X57765000Y-84597014D01*
X57802853Y-84787314D01*
X57877104Y-84966572D01*
X57984901Y-85127901D01*
X58122099Y-85265099D01*
X58283428Y-85372896D01*
X58462686Y-85447147D01*
X58652986Y-85485000D01*
X58847014Y-85485000D01*
X59037314Y-85447147D01*
X59216572Y-85372896D01*
X59377901Y-85265099D01*
X59515099Y-85127901D01*
X59622896Y-84966572D01*
X59697147Y-84787314D01*
X59735000Y-84597014D01*
X59735000Y-84402986D01*
X59697147Y-84212686D01*
X59622896Y-84033428D01*
X59515099Y-83872099D01*
X59377901Y-83734901D01*
X59216572Y-83627104D01*
X59037314Y-83552853D01*
X58847014Y-83515000D01*
X58652986Y-83515000D01*
X58462686Y-83552853D01*
X58283428Y-83627104D01*
X58122099Y-83734901D01*
X57984901Y-83872099D01*
X57877104Y-84033428D01*
X57802853Y-84212686D01*
X57765000Y-84402986D01*
X48035738Y-84402986D01*
X48015099Y-84372099D01*
X47877901Y-84234901D01*
X47716572Y-84127104D01*
X47537314Y-84052853D01*
X47347014Y-84015000D01*
X47152986Y-84015000D01*
X46962686Y-84052853D01*
X46783428Y-84127104D01*
X46622099Y-84234901D01*
X46484901Y-84372099D01*
X46377104Y-84533428D01*
X46302853Y-84712686D01*
X46265000Y-84902986D01*
X22435000Y-84902986D01*
X22435000Y-81152986D01*
X48515000Y-81152986D01*
X48515000Y-81347014D01*
X48552853Y-81537314D01*
X48627104Y-81716572D01*
X48734901Y-81877901D01*
X48872099Y-82015099D01*
X49033428Y-82122896D01*
X49212686Y-82197147D01*
X49402986Y-82235000D01*
X49597014Y-82235000D01*
X49787314Y-82197147D01*
X49966572Y-82122896D01*
X50127901Y-82015099D01*
X50265099Y-81877901D01*
X50372896Y-81716572D01*
X50447147Y-81537314D01*
X50485000Y-81347014D01*
X50485000Y-81152986D01*
X50447147Y-80962686D01*
X50372896Y-80783428D01*
X50265099Y-80622099D01*
X50127901Y-80484901D01*
X49966572Y-80377104D01*
X49787314Y-80302853D01*
X49597014Y-80265000D01*
X49402986Y-80265000D01*
X49212686Y-80302853D01*
X49033428Y-80377104D01*
X48872099Y-80484901D01*
X48734901Y-80622099D01*
X48627104Y-80783428D01*
X48552853Y-80962686D01*
X48515000Y-81152986D01*
X22435000Y-81152986D01*
X22435000Y-79652986D01*
X62765000Y-79652986D01*
X62765000Y-79847014D01*
X62802853Y-80037314D01*
X62877104Y-80216572D01*
X62984901Y-80377901D01*
X63122099Y-80515099D01*
X63283428Y-80622896D01*
X63462686Y-80697147D01*
X63652986Y-80735000D01*
X63847014Y-80735000D01*
X64037314Y-80697147D01*
X64216572Y-80622896D01*
X64377901Y-80515099D01*
X64515099Y-80377901D01*
X64622896Y-80216572D01*
X64697147Y-80037314D01*
X64724522Y-79899692D01*
X64737314Y-79897147D01*
X64916572Y-79822896D01*
X65077901Y-79715099D01*
X65215099Y-79577901D01*
X65322896Y-79416572D01*
X65397147Y-79237314D01*
X65435000Y-79047014D01*
X65435000Y-78852986D01*
X65397147Y-78662686D01*
X65322896Y-78483428D01*
X65215099Y-78322099D01*
X65077901Y-78184901D01*
X64916572Y-78077104D01*
X64737314Y-78002853D01*
X64547014Y-77965000D01*
X64352986Y-77965000D01*
X64162686Y-78002853D01*
X63983428Y-78077104D01*
X63822099Y-78184901D01*
X63684901Y-78322099D01*
X63577104Y-78483428D01*
X63502853Y-78662686D01*
X63475478Y-78800308D01*
X63462686Y-78802853D01*
X63283428Y-78877104D01*
X63122099Y-78984901D01*
X62984901Y-79122099D01*
X62877104Y-79283428D01*
X62802853Y-79462686D01*
X62765000Y-79652986D01*
X22435000Y-79652986D01*
X22435000Y-76440486D01*
X30302500Y-76440486D01*
X30302500Y-76634514D01*
X30340353Y-76824814D01*
X30414604Y-77004072D01*
X30522401Y-77165401D01*
X30659599Y-77302599D01*
X30820928Y-77410396D01*
X31000186Y-77484647D01*
X31190486Y-77522500D01*
X31384514Y-77522500D01*
X31574814Y-77484647D01*
X31754072Y-77410396D01*
X31915401Y-77302599D01*
X32052599Y-77165401D01*
X32060894Y-77152986D01*
X45765000Y-77152986D01*
X45765000Y-77347014D01*
X45802853Y-77537314D01*
X45877104Y-77716572D01*
X45984901Y-77877901D01*
X46122099Y-78015099D01*
X46283428Y-78122896D01*
X46462686Y-78197147D01*
X46652986Y-78235000D01*
X46847014Y-78235000D01*
X47037314Y-78197147D01*
X47216572Y-78122896D01*
X47377901Y-78015099D01*
X47515099Y-77877901D01*
X47622896Y-77716572D01*
X47625000Y-77711492D01*
X47627104Y-77716572D01*
X47734901Y-77877901D01*
X47872099Y-78015099D01*
X48033428Y-78122896D01*
X48212686Y-78197147D01*
X48402986Y-78235000D01*
X48597014Y-78235000D01*
X48787314Y-78197147D01*
X48966572Y-78122896D01*
X49127901Y-78015099D01*
X49265099Y-77877901D01*
X49372896Y-77716572D01*
X49447147Y-77537314D01*
X49466407Y-77440486D01*
X49552500Y-77440486D01*
X49552500Y-77634514D01*
X49590353Y-77824814D01*
X49664604Y-78004072D01*
X49772401Y-78165401D01*
X49909599Y-78302599D01*
X50070928Y-78410396D01*
X50250186Y-78484647D01*
X50440486Y-78522500D01*
X50634514Y-78522500D01*
X50824814Y-78484647D01*
X51004072Y-78410396D01*
X51165401Y-78302599D01*
X51302599Y-78165401D01*
X51410396Y-78004072D01*
X51484647Y-77824814D01*
X51522500Y-77634514D01*
X51522500Y-77440486D01*
X51484647Y-77250186D01*
X51410396Y-77070928D01*
X51365077Y-77003104D01*
X51422896Y-76916572D01*
X51497147Y-76737314D01*
X51535000Y-76547014D01*
X51535000Y-76352986D01*
X51497147Y-76162686D01*
X51422896Y-75983428D01*
X51315099Y-75822099D01*
X51177901Y-75684901D01*
X51016572Y-75577104D01*
X50837314Y-75502853D01*
X50647014Y-75465000D01*
X50452986Y-75465000D01*
X50262686Y-75502853D01*
X50083428Y-75577104D01*
X49922099Y-75684901D01*
X49784901Y-75822099D01*
X49677104Y-75983428D01*
X49602853Y-76162686D01*
X49565000Y-76352986D01*
X49565000Y-76547014D01*
X49602853Y-76737314D01*
X49677104Y-76916572D01*
X49722423Y-76984396D01*
X49664604Y-77070928D01*
X49590353Y-77250186D01*
X49552500Y-77440486D01*
X49466407Y-77440486D01*
X49485000Y-77347014D01*
X49485000Y-77152986D01*
X49447147Y-76962686D01*
X49372896Y-76783428D01*
X49265099Y-76622099D01*
X49127901Y-76484901D01*
X48966572Y-76377104D01*
X48787314Y-76302853D01*
X48597014Y-76265000D01*
X48402986Y-76265000D01*
X48212686Y-76302853D01*
X48033428Y-76377104D01*
X47872099Y-76484901D01*
X47734901Y-76622099D01*
X47627104Y-76783428D01*
X47625000Y-76788508D01*
X47622896Y-76783428D01*
X47515099Y-76622099D01*
X47377901Y-76484901D01*
X47216572Y-76377104D01*
X47037314Y-76302853D01*
X46847014Y-76265000D01*
X46652986Y-76265000D01*
X46462686Y-76302853D01*
X46283428Y-76377104D01*
X46122099Y-76484901D01*
X45984901Y-76622099D01*
X45877104Y-76783428D01*
X45802853Y-76962686D01*
X45765000Y-77152986D01*
X32060894Y-77152986D01*
X32160396Y-77004072D01*
X32234647Y-76824814D01*
X32272500Y-76634514D01*
X32272500Y-76440486D01*
X32234647Y-76250186D01*
X32160396Y-76070928D01*
X32052599Y-75909599D01*
X31915401Y-75772401D01*
X31754072Y-75664604D01*
X31574814Y-75590353D01*
X31384514Y-75552500D01*
X31190486Y-75552500D01*
X31000186Y-75590353D01*
X30820928Y-75664604D01*
X30659599Y-75772401D01*
X30522401Y-75909599D01*
X30414604Y-76070928D01*
X30340353Y-76250186D01*
X30302500Y-76440486D01*
X22435000Y-76440486D01*
X22435000Y-72479509D01*
X27775000Y-72479509D01*
X27775000Y-73520492D01*
X27795764Y-73731309D01*
X27877818Y-74001808D01*
X28011068Y-74251101D01*
X28190393Y-74469608D01*
X28408900Y-74648932D01*
X28658193Y-74782182D01*
X28928692Y-74864236D01*
X29210000Y-74891943D01*
X29491309Y-74864236D01*
X29761808Y-74782182D01*
X30011101Y-74648932D01*
X30229608Y-74469608D01*
X30408932Y-74251101D01*
X30480000Y-74118142D01*
X30551068Y-74251101D01*
X30730393Y-74469608D01*
X30948900Y-74648932D01*
X31198193Y-74782182D01*
X31468692Y-74864236D01*
X31750000Y-74891943D01*
X32031309Y-74864236D01*
X32301808Y-74782182D01*
X32551101Y-74648932D01*
X32769608Y-74469608D01*
X32948932Y-74251101D01*
X33082182Y-74001808D01*
X33164236Y-73731309D01*
X33185000Y-73520491D01*
X33185000Y-72479508D01*
X33164236Y-72268691D01*
X33082182Y-71998192D01*
X32948932Y-71748899D01*
X32769607Y-71530392D01*
X32551100Y-71351068D01*
X32301807Y-71217818D01*
X32031308Y-71135764D01*
X31750000Y-71108057D01*
X31468691Y-71135764D01*
X31198192Y-71217818D01*
X30948899Y-71351068D01*
X30730392Y-71530393D01*
X30551068Y-71748900D01*
X30480000Y-71881858D01*
X30408932Y-71748899D01*
X30229607Y-71530392D01*
X30011100Y-71351068D01*
X29761807Y-71217818D01*
X29491308Y-71135764D01*
X29210000Y-71108057D01*
X28928691Y-71135764D01*
X28658192Y-71217818D01*
X28408899Y-71351068D01*
X28190392Y-71530393D01*
X28011068Y-71748900D01*
X27877818Y-71998193D01*
X27795764Y-72268692D01*
X27775000Y-72479509D01*
X22435000Y-72479509D01*
X22435000Y-66052844D01*
X24285000Y-66052844D01*
X24285000Y-69787157D01*
X24319511Y-70137542D01*
X24455888Y-70587116D01*
X24677352Y-71001446D01*
X24975392Y-71364609D01*
X25338555Y-71662649D01*
X25752885Y-71884113D01*
X26202459Y-72020490D01*
X26670000Y-72066539D01*
X27137542Y-72020490D01*
X27587116Y-71884113D01*
X28001446Y-71662649D01*
X28364609Y-71364609D01*
X28662649Y-71001446D01*
X28884113Y-70587116D01*
X29020490Y-70137542D01*
X29055000Y-69787157D01*
X29055000Y-66052844D01*
X34445000Y-66052844D01*
X34445000Y-69787157D01*
X34479511Y-70137542D01*
X34615888Y-70587116D01*
X34837352Y-71001446D01*
X35135392Y-71364609D01*
X35498555Y-71662649D01*
X35912885Y-71884113D01*
X36362459Y-72020490D01*
X36830000Y-72066539D01*
X37297542Y-72020490D01*
X37747116Y-71884113D01*
X38161446Y-71662649D01*
X38524609Y-71364609D01*
X38822649Y-71001446D01*
X38875276Y-70902986D01*
X41015000Y-70902986D01*
X41015000Y-71097014D01*
X41052853Y-71287314D01*
X41127104Y-71466572D01*
X41149440Y-71500000D01*
X41127104Y-71533428D01*
X41052853Y-71712686D01*
X41015000Y-71902986D01*
X41015000Y-72097014D01*
X41052853Y-72287314D01*
X41127104Y-72466572D01*
X41234901Y-72627901D01*
X41372099Y-72765099D01*
X41533428Y-72872896D01*
X41712686Y-72947147D01*
X41902986Y-72985000D01*
X42097014Y-72985000D01*
X42287314Y-72947147D01*
X42466572Y-72872896D01*
X42500000Y-72850560D01*
X42533428Y-72872896D01*
X42712686Y-72947147D01*
X42902986Y-72985000D01*
X43097014Y-72985000D01*
X43287314Y-72947147D01*
X43466572Y-72872896D01*
X43627901Y-72765099D01*
X43765099Y-72627901D01*
X43872896Y-72466572D01*
X43947147Y-72287314D01*
X43985000Y-72097014D01*
X43985000Y-71902986D01*
X43947147Y-71712686D01*
X43872896Y-71533428D01*
X43850560Y-71500000D01*
X43872896Y-71466572D01*
X43947147Y-71287314D01*
X43985000Y-71097014D01*
X43985000Y-70902986D01*
X46265000Y-70902986D01*
X46265000Y-71097014D01*
X46302853Y-71287314D01*
X46377104Y-71466572D01*
X46399440Y-71500000D01*
X46377104Y-71533428D01*
X46302853Y-71712686D01*
X46265000Y-71902986D01*
X46265000Y-72097014D01*
X46302853Y-72287314D01*
X46377104Y-72466572D01*
X46484901Y-72627901D01*
X46622099Y-72765099D01*
X46783428Y-72872896D01*
X46962686Y-72947147D01*
X47152986Y-72985000D01*
X47347014Y-72985000D01*
X47537314Y-72947147D01*
X47716572Y-72872896D01*
X47750000Y-72850560D01*
X47783428Y-72872896D01*
X47962686Y-72947147D01*
X48152986Y-72985000D01*
X48347014Y-72985000D01*
X48537314Y-72947147D01*
X48716572Y-72872896D01*
X48877901Y-72765099D01*
X49015099Y-72627901D01*
X49122896Y-72466572D01*
X49197147Y-72287314D01*
X49223866Y-72152986D01*
X52765000Y-72152986D01*
X52765000Y-72347014D01*
X52802853Y-72537314D01*
X52877104Y-72716572D01*
X52984901Y-72877901D01*
X53122099Y-73015099D01*
X53283428Y-73122896D01*
X53288508Y-73125000D01*
X53283428Y-73127104D01*
X53122099Y-73234901D01*
X52984901Y-73372099D01*
X52877104Y-73533428D01*
X52802853Y-73712686D01*
X52765000Y-73902986D01*
X52765000Y-74097014D01*
X52802853Y-74287314D01*
X52877104Y-74466572D01*
X52984901Y-74627901D01*
X53122099Y-74765099D01*
X53283428Y-74872896D01*
X53462686Y-74947147D01*
X53652986Y-74985000D01*
X53847014Y-74985000D01*
X54037314Y-74947147D01*
X54216572Y-74872896D01*
X54377901Y-74765099D01*
X54515099Y-74627901D01*
X54622896Y-74466572D01*
X54697147Y-74287314D01*
X54735000Y-74097014D01*
X54735000Y-73902986D01*
X54697147Y-73712686D01*
X54622896Y-73533428D01*
X54535738Y-73402986D01*
X56265000Y-73402986D01*
X56265000Y-73597014D01*
X56302853Y-73787314D01*
X56377104Y-73966572D01*
X56484901Y-74127901D01*
X56622099Y-74265099D01*
X56783428Y-74372896D01*
X56962686Y-74447147D01*
X57137337Y-74481887D01*
X57234901Y-74627901D01*
X57372099Y-74765099D01*
X57533428Y-74872896D01*
X57712686Y-74947147D01*
X57902986Y-74985000D01*
X57957960Y-74985000D01*
X58002104Y-75091572D01*
X58109901Y-75252901D01*
X58247099Y-75390099D01*
X58408428Y-75497896D01*
X58587686Y-75572147D01*
X58777986Y-75610000D01*
X58972014Y-75610000D01*
X59162314Y-75572147D01*
X59341572Y-75497896D01*
X59483614Y-75402986D01*
X61015000Y-75402986D01*
X61015000Y-75597014D01*
X61052853Y-75787314D01*
X61127104Y-75966572D01*
X61234901Y-76127901D01*
X61357000Y-76250000D01*
X61234901Y-76372099D01*
X61127104Y-76533428D01*
X61052853Y-76712686D01*
X61015000Y-76902986D01*
X61015000Y-77097014D01*
X61052853Y-77287314D01*
X61127104Y-77466572D01*
X61234901Y-77627901D01*
X61372099Y-77765099D01*
X61533428Y-77872896D01*
X61712686Y-77947147D01*
X61902986Y-77985000D01*
X62097014Y-77985000D01*
X62287314Y-77947147D01*
X62466572Y-77872896D01*
X62627901Y-77765099D01*
X62765099Y-77627901D01*
X62872896Y-77466572D01*
X62947147Y-77287314D01*
X62985000Y-77097014D01*
X62985000Y-76902986D01*
X62947147Y-76712686D01*
X62872896Y-76533428D01*
X62765099Y-76372099D01*
X62643000Y-76250000D01*
X62765099Y-76127901D01*
X62872896Y-75966572D01*
X62947147Y-75787314D01*
X62985000Y-75597014D01*
X62985000Y-75402986D01*
X62947147Y-75212686D01*
X62872896Y-75033428D01*
X62765099Y-74872099D01*
X62627901Y-74734901D01*
X62466572Y-74627104D01*
X62287314Y-74552853D01*
X62097014Y-74515000D01*
X61902986Y-74515000D01*
X61712686Y-74552853D01*
X61533428Y-74627104D01*
X61372099Y-74734901D01*
X61234901Y-74872099D01*
X61127104Y-75033428D01*
X61052853Y-75212686D01*
X61015000Y-75402986D01*
X59483614Y-75402986D01*
X59502901Y-75390099D01*
X59640099Y-75252901D01*
X59747896Y-75091572D01*
X59822147Y-74912314D01*
X59860000Y-74722014D01*
X59860000Y-74527986D01*
X59822147Y-74337686D01*
X59747896Y-74158428D01*
X59640099Y-73997099D01*
X59502901Y-73859901D01*
X59341572Y-73752104D01*
X59162314Y-73677853D01*
X58972014Y-73640000D01*
X58917040Y-73640000D01*
X58872896Y-73533428D01*
X58765099Y-73372099D01*
X58627901Y-73234901D01*
X58466572Y-73127104D01*
X58287314Y-73052853D01*
X58112663Y-73018113D01*
X58015099Y-72872099D01*
X57877901Y-72734901D01*
X57716572Y-72627104D01*
X57537314Y-72552853D01*
X57347014Y-72515000D01*
X57152986Y-72515000D01*
X56962686Y-72552853D01*
X56783428Y-72627104D01*
X56622099Y-72734901D01*
X56484901Y-72872099D01*
X56377104Y-73033428D01*
X56302853Y-73212686D01*
X56265000Y-73402986D01*
X54535738Y-73402986D01*
X54515099Y-73372099D01*
X54377901Y-73234901D01*
X54216572Y-73127104D01*
X54211492Y-73125000D01*
X54216572Y-73122896D01*
X54377901Y-73015099D01*
X54515099Y-72877901D01*
X54622896Y-72716572D01*
X54697147Y-72537314D01*
X54735000Y-72347014D01*
X54735000Y-72152986D01*
X54697147Y-71962686D01*
X54622896Y-71783428D01*
X54515099Y-71622099D01*
X54377901Y-71484901D01*
X54216572Y-71377104D01*
X54037314Y-71302853D01*
X53847014Y-71265000D01*
X53652986Y-71265000D01*
X53462686Y-71302853D01*
X53283428Y-71377104D01*
X53122099Y-71484901D01*
X52984901Y-71622099D01*
X52877104Y-71783428D01*
X52802853Y-71962686D01*
X52765000Y-72152986D01*
X49223866Y-72152986D01*
X49235000Y-72097014D01*
X49235000Y-71902986D01*
X49197147Y-71712686D01*
X49122896Y-71533428D01*
X49100560Y-71500000D01*
X49122896Y-71466572D01*
X49197147Y-71287314D01*
X49235000Y-71097014D01*
X49235000Y-70902986D01*
X49197147Y-70712686D01*
X49122896Y-70533428D01*
X49015099Y-70372099D01*
X48877901Y-70234901D01*
X48716572Y-70127104D01*
X48537314Y-70052853D01*
X48347014Y-70015000D01*
X48152986Y-70015000D01*
X47962686Y-70052853D01*
X47783428Y-70127104D01*
X47750000Y-70149440D01*
X47716572Y-70127104D01*
X47537314Y-70052853D01*
X47347014Y-70015000D01*
X47152986Y-70015000D01*
X46962686Y-70052853D01*
X46783428Y-70127104D01*
X46622099Y-70234901D01*
X46484901Y-70372099D01*
X46377104Y-70533428D01*
X46302853Y-70712686D01*
X46265000Y-70902986D01*
X43985000Y-70902986D01*
X43947147Y-70712686D01*
X43872896Y-70533428D01*
X43765099Y-70372099D01*
X43627901Y-70234901D01*
X43466572Y-70127104D01*
X43287314Y-70052853D01*
X43097014Y-70015000D01*
X42902986Y-70015000D01*
X42712686Y-70052853D01*
X42533428Y-70127104D01*
X42500000Y-70149440D01*
X42466572Y-70127104D01*
X42287314Y-70052853D01*
X42097014Y-70015000D01*
X41902986Y-70015000D01*
X41712686Y-70052853D01*
X41533428Y-70127104D01*
X41372099Y-70234901D01*
X41234901Y-70372099D01*
X41127104Y-70533428D01*
X41052853Y-70712686D01*
X41015000Y-70902986D01*
X38875276Y-70902986D01*
X39044113Y-70587116D01*
X39180490Y-70137542D01*
X39215000Y-69787157D01*
X39215000Y-68402986D01*
X61765000Y-68402986D01*
X61765000Y-68597014D01*
X61802853Y-68787314D01*
X61877104Y-68966572D01*
X61984901Y-69127901D01*
X62122099Y-69265099D01*
X62283428Y-69372896D01*
X62462686Y-69447147D01*
X62652986Y-69485000D01*
X62847014Y-69485000D01*
X63037314Y-69447147D01*
X63216572Y-69372896D01*
X63377901Y-69265099D01*
X63490014Y-69152986D01*
X66015000Y-69152986D01*
X66015000Y-69347014D01*
X66052853Y-69537314D01*
X66127104Y-69716572D01*
X66234901Y-69877901D01*
X66372099Y-70015099D01*
X66533428Y-70122896D01*
X66712686Y-70197147D01*
X66902986Y-70235000D01*
X67097014Y-70235000D01*
X67287314Y-70197147D01*
X67466572Y-70122896D01*
X67627901Y-70015099D01*
X67765099Y-69877901D01*
X67872896Y-69716572D01*
X67947147Y-69537314D01*
X67985000Y-69347014D01*
X67985000Y-69152986D01*
X67947147Y-68962686D01*
X67872896Y-68783428D01*
X67765099Y-68622099D01*
X67627901Y-68484901D01*
X67466572Y-68377104D01*
X67287314Y-68302853D01*
X67097014Y-68265000D01*
X66902986Y-68265000D01*
X66712686Y-68302853D01*
X66533428Y-68377104D01*
X66372099Y-68484901D01*
X66234901Y-68622099D01*
X66127104Y-68783428D01*
X66052853Y-68962686D01*
X66015000Y-69152986D01*
X63490014Y-69152986D01*
X63515099Y-69127901D01*
X63622896Y-68966572D01*
X63697147Y-68787314D01*
X63735000Y-68597014D01*
X63735000Y-68402986D01*
X63697147Y-68212686D01*
X63622896Y-68033428D01*
X63515099Y-67872099D01*
X63377901Y-67734901D01*
X63216572Y-67627104D01*
X63037314Y-67552853D01*
X62847014Y-67515000D01*
X62652986Y-67515000D01*
X62462686Y-67552853D01*
X62283428Y-67627104D01*
X62122099Y-67734901D01*
X61984901Y-67872099D01*
X61877104Y-68033428D01*
X61802853Y-68212686D01*
X61765000Y-68402986D01*
X39215000Y-68402986D01*
X39215000Y-66052843D01*
X39180490Y-65702458D01*
X39044113Y-65252884D01*
X38840951Y-64872793D01*
X56420000Y-64872793D01*
X56420000Y-65389206D01*
X56437147Y-65563299D01*
X56504906Y-65786673D01*
X56614942Y-65992535D01*
X56763025Y-66172975D01*
X56943464Y-66321058D01*
X57149326Y-66431094D01*
X57372700Y-66498853D01*
X57605000Y-66521733D01*
X57837299Y-66498853D01*
X58060673Y-66431094D01*
X58266535Y-66321058D01*
X58446975Y-66172975D01*
X58595058Y-65992536D01*
X58705094Y-65786674D01*
X58772853Y-65563300D01*
X58790000Y-65389207D01*
X58790000Y-64872794D01*
X58790000Y-64872793D01*
X61260000Y-64872793D01*
X61260000Y-65389206D01*
X61277147Y-65563299D01*
X61344906Y-65786673D01*
X61454942Y-65992535D01*
X61603025Y-66172975D01*
X61783464Y-66321058D01*
X61989326Y-66431094D01*
X62212700Y-66498853D01*
X62445000Y-66521733D01*
X62677299Y-66498853D01*
X62900673Y-66431094D01*
X63106535Y-66321058D01*
X63286975Y-66172975D01*
X63435058Y-65992536D01*
X63545094Y-65786674D01*
X63548532Y-65775340D01*
X66404265Y-65775340D01*
X66650416Y-66167704D01*
X67152822Y-66433312D01*
X67697393Y-66595801D01*
X68263199Y-66648928D01*
X68828498Y-66590652D01*
X69371566Y-66423210D01*
X69849584Y-66167704D01*
X70095735Y-65775340D01*
X68250000Y-63929605D01*
X66404265Y-65775340D01*
X63548532Y-65775340D01*
X63612853Y-65563300D01*
X63630000Y-65389207D01*
X63630000Y-64872794D01*
X63612853Y-64698701D01*
X63545094Y-64475327D01*
X63435058Y-64269464D01*
X63286975Y-64089025D01*
X63106536Y-63940942D01*
X62900674Y-63830906D01*
X62677472Y-63763199D01*
X65351072Y-63763199D01*
X65409348Y-64328498D01*
X65576790Y-64871566D01*
X65832296Y-65349584D01*
X66224660Y-65595735D01*
X68070395Y-63750000D01*
X66224660Y-61904265D01*
X65832296Y-62150416D01*
X65566688Y-62652822D01*
X65404199Y-63197393D01*
X65351072Y-63763199D01*
X62677472Y-63763199D01*
X62677300Y-63763147D01*
X62445000Y-63740267D01*
X62212701Y-63763147D01*
X61989327Y-63830906D01*
X61783465Y-63940942D01*
X61603026Y-64089025D01*
X61454943Y-64269464D01*
X61344906Y-64475326D01*
X61277147Y-64698700D01*
X61260000Y-64872793D01*
X58790000Y-64872793D01*
X58772853Y-64698701D01*
X58705094Y-64475327D01*
X58595058Y-64269464D01*
X58446975Y-64089025D01*
X58266536Y-63940942D01*
X58060674Y-63830906D01*
X57837300Y-63763147D01*
X57605000Y-63740267D01*
X57372701Y-63763147D01*
X57149327Y-63830906D01*
X56943465Y-63940942D01*
X56763026Y-64089025D01*
X56614943Y-64269464D01*
X56504906Y-64475326D01*
X56437147Y-64698700D01*
X56420000Y-64872793D01*
X38840951Y-64872793D01*
X38822649Y-64838554D01*
X38524609Y-64475391D01*
X38161445Y-64177351D01*
X37747115Y-63955887D01*
X37297541Y-63819510D01*
X36830000Y-63773461D01*
X36362458Y-63819510D01*
X35912884Y-63955887D01*
X35498554Y-64177351D01*
X35135391Y-64475391D01*
X34837351Y-64838555D01*
X34615887Y-65252885D01*
X34479510Y-65702459D01*
X34445000Y-66052844D01*
X29055000Y-66052844D01*
X29055000Y-66052843D01*
X29020490Y-65702458D01*
X28884113Y-65252884D01*
X28662649Y-64838554D01*
X28364609Y-64475391D01*
X28001445Y-64177351D01*
X27587115Y-63955887D01*
X27137541Y-63819510D01*
X26670000Y-63773461D01*
X26202458Y-63819510D01*
X25752884Y-63955887D01*
X25338554Y-64177351D01*
X24975391Y-64475391D01*
X24677351Y-64838555D01*
X24455887Y-65252885D01*
X24319510Y-65702459D01*
X24285000Y-66052844D01*
X22435000Y-66052844D01*
X22435000Y-62652986D01*
X43265000Y-62652986D01*
X43265000Y-62847014D01*
X43302853Y-63037314D01*
X43377104Y-63216572D01*
X43484901Y-63377901D01*
X43622099Y-63515099D01*
X43783428Y-63622896D01*
X43962686Y-63697147D01*
X44015000Y-63707553D01*
X44015000Y-63847014D01*
X44052853Y-64037314D01*
X44127104Y-64216572D01*
X44234901Y-64377901D01*
X44372099Y-64515099D01*
X44533428Y-64622896D01*
X44712686Y-64697147D01*
X44902986Y-64735000D01*
X45097014Y-64735000D01*
X45287314Y-64697147D01*
X45466572Y-64622896D01*
X45627901Y-64515099D01*
X45765099Y-64377901D01*
X45872896Y-64216572D01*
X45947147Y-64037314D01*
X45985000Y-63847014D01*
X45985000Y-63652986D01*
X45947147Y-63462686D01*
X45872896Y-63283428D01*
X45765099Y-63122099D01*
X45627901Y-62984901D01*
X45466572Y-62877104D01*
X45287314Y-62802853D01*
X45235000Y-62792447D01*
X45235000Y-62652986D01*
X45197147Y-62462686D01*
X45122896Y-62283428D01*
X45015099Y-62122099D01*
X44877901Y-61984901D01*
X44716572Y-61877104D01*
X44537314Y-61802853D01*
X44347014Y-61765000D01*
X44152986Y-61765000D01*
X43962686Y-61802853D01*
X43783428Y-61877104D01*
X43622099Y-61984901D01*
X43484901Y-62122099D01*
X43377104Y-62283428D01*
X43302853Y-62462686D01*
X43265000Y-62652986D01*
X22435000Y-62652986D01*
X22435000Y-60935000D01*
X56474128Y-60935000D01*
X56364209Y-61025208D01*
G04 #@! TA.AperFunction,Conductor*
D18*
G36*
X56364209Y-61025208D02*
G01*
X56200505Y-61224682D01*
X56078862Y-61452259D01*
X56003955Y-61699195D01*
X55985000Y-61891649D01*
X55985000Y-62370350D01*
X56003955Y-62562804D01*
X56078862Y-62809740D01*
X56200505Y-63037317D01*
X56364208Y-63236792D01*
X56563682Y-63400495D01*
X56791259Y-63522138D01*
X57038195Y-63597045D01*
X57295000Y-63622338D01*
X57551804Y-63597045D01*
X57798740Y-63522138D01*
X58026317Y-63400495D01*
X58225792Y-63236792D01*
X58389495Y-63037318D01*
X58511138Y-62809741D01*
X58586045Y-62562805D01*
X58605000Y-62370351D01*
X58605000Y-61891650D01*
X58586045Y-61699196D01*
X58511138Y-61452260D01*
X58389495Y-61224682D01*
X58225792Y-61025208D01*
X58115873Y-60935000D01*
X61934128Y-60935000D01*
X61824209Y-61025208D01*
X61660505Y-61224682D01*
X61538862Y-61452259D01*
X61463955Y-61699195D01*
X61445000Y-61891649D01*
X61445000Y-62370350D01*
X61463955Y-62562804D01*
X61538862Y-62809740D01*
X61660505Y-63037317D01*
X61824208Y-63236792D01*
X62023682Y-63400495D01*
X62251259Y-63522138D01*
X62498195Y-63597045D01*
X62755000Y-63622338D01*
X63011804Y-63597045D01*
X63258740Y-63522138D01*
X63486317Y-63400495D01*
X63685792Y-63236792D01*
X63849495Y-63037318D01*
X63971138Y-62809741D01*
X64046045Y-62562805D01*
X64065000Y-62370351D01*
X64065000Y-61891650D01*
X64046045Y-61699196D01*
X63971138Y-61452260D01*
X63849495Y-61224682D01*
X63685792Y-61025208D01*
X63575873Y-60935000D01*
X67588304Y-60935000D01*
X67128434Y-61076790D01*
X66650416Y-61332296D01*
X66404265Y-61724660D01*
X68250000Y-63570395D01*
X70095735Y-61724660D01*
X69849584Y-61332296D01*
X69347178Y-61066688D01*
X68905834Y-60935000D01*
X71065000Y-60935000D01*
X71065000Y-63088305D01*
X70923210Y-62628434D01*
X70667704Y-62150416D01*
X70275340Y-61904265D01*
X68429605Y-63750000D01*
X70275340Y-65595735D01*
X70667704Y-65349584D01*
X70933312Y-64847178D01*
X71065000Y-64405834D01*
X71065001Y-106088307D01*
X70923210Y-105628434D01*
X70667704Y-105150416D01*
X70275340Y-104904265D01*
X68429605Y-106750000D01*
X70275340Y-108595735D01*
X70667704Y-108349584D01*
X70933312Y-107847178D01*
X71065001Y-107405831D01*
X71065001Y-109565000D01*
X68911696Y-109565000D01*
X69371566Y-109423210D01*
X69849584Y-109167704D01*
X70095735Y-108775340D01*
X68250000Y-106929605D01*
X66404265Y-108775340D01*
X66650416Y-109167704D01*
X67152822Y-109433312D01*
X67594166Y-109565000D01*
X22435000Y-109565000D01*
X22435000Y-106763199D01*
X65351072Y-106763199D01*
X65409348Y-107328498D01*
X65576790Y-107871566D01*
X65832296Y-108349584D01*
X66224660Y-108595735D01*
X68070395Y-106750000D01*
X66224660Y-104904265D01*
X65832296Y-105150416D01*
X65566688Y-105652822D01*
X65404199Y-106197393D01*
X65351072Y-106763199D01*
X22435000Y-106763199D01*
X22435000Y-105652986D01*
X50765000Y-105652986D01*
X50765000Y-105847014D01*
X50802853Y-106037314D01*
X50877104Y-106216572D01*
X50984901Y-106377901D01*
X51122099Y-106515099D01*
X51283428Y-106622896D01*
X51462686Y-106697147D01*
X51652986Y-106735000D01*
X51847014Y-106735000D01*
X52037314Y-106697147D01*
X52216572Y-106622896D01*
X52377901Y-106515099D01*
X52515099Y-106377901D01*
X52622896Y-106216572D01*
X52697147Y-106037314D01*
X52735000Y-105847014D01*
X52735000Y-105652986D01*
X52697147Y-105462686D01*
X52622896Y-105283428D01*
X52515099Y-105122099D01*
X52377901Y-104984901D01*
X52216572Y-104877104D01*
X52037314Y-104802853D01*
X51847014Y-104765000D01*
X51652986Y-104765000D01*
X51462686Y-104802853D01*
X51283428Y-104877104D01*
X51122099Y-104984901D01*
X50984901Y-105122099D01*
X50877104Y-105283428D01*
X50802853Y-105462686D01*
X50765000Y-105652986D01*
X22435000Y-105652986D01*
X22435000Y-103902986D01*
X58015000Y-103902986D01*
X58015000Y-104097014D01*
X58052853Y-104287314D01*
X58127104Y-104466572D01*
X58234901Y-104627901D01*
X58372099Y-104765099D01*
X58533428Y-104872896D01*
X58690810Y-104938086D01*
X58627104Y-105033428D01*
X58552853Y-105212686D01*
X58515000Y-105402986D01*
X58515000Y-105597014D01*
X58552853Y-105787314D01*
X58627104Y-105966572D01*
X58734901Y-106127901D01*
X58872099Y-106265099D01*
X59033428Y-106372896D01*
X59212686Y-106447147D01*
X59402986Y-106485000D01*
X59597014Y-106485000D01*
X59787314Y-106447147D01*
X59966572Y-106372896D01*
X60127901Y-106265099D01*
X60265099Y-106127901D01*
X60372896Y-105966572D01*
X60447147Y-105787314D01*
X60485000Y-105597014D01*
X60485000Y-105402986D01*
X60447147Y-105212686D01*
X60372896Y-105033428D01*
X60309190Y-104938086D01*
X60466572Y-104872896D01*
X60627901Y-104765099D01*
X60668340Y-104724660D01*
X66404265Y-104724660D01*
X68250000Y-106570395D01*
X70095735Y-104724660D01*
X69849584Y-104332296D01*
X69347178Y-104066688D01*
X68802607Y-103904199D01*
X68236801Y-103851072D01*
X67671502Y-103909348D01*
X67128434Y-104076790D01*
X66650416Y-104332296D01*
X66404265Y-104724660D01*
X60668340Y-104724660D01*
X60765099Y-104627901D01*
X60872896Y-104466572D01*
X60947147Y-104287314D01*
X60985000Y-104097014D01*
X60985000Y-103902986D01*
X60947147Y-103712686D01*
X60872896Y-103533428D01*
X60765099Y-103372099D01*
X60627901Y-103234901D01*
X60496140Y-103146860D01*
X60515099Y-103127901D01*
X60622896Y-102966572D01*
X60697147Y-102787314D01*
X60735000Y-102597014D01*
X60735000Y-102402986D01*
X60697147Y-102212686D01*
X60622896Y-102033428D01*
X60515099Y-101872099D01*
X60377901Y-101734901D01*
X60216572Y-101627104D01*
X60037314Y-101552853D01*
X59847014Y-101515000D01*
X59652986Y-101515000D01*
X59462686Y-101552853D01*
X59283428Y-101627104D01*
X59122099Y-101734901D01*
X58984901Y-101872099D01*
X58877104Y-102033428D01*
X58802853Y-102212686D01*
X58765000Y-102402986D01*
X58765000Y-102597014D01*
X58802853Y-102787314D01*
X58877104Y-102966572D01*
X58909463Y-103015000D01*
X58902986Y-103015000D01*
X58712686Y-103052853D01*
X58533428Y-103127104D01*
X58372099Y-103234901D01*
X58234901Y-103372099D01*
X58127104Y-103533428D01*
X58052853Y-103712686D01*
X58015000Y-103902986D01*
X22435000Y-103902986D01*
X22435000Y-102402986D01*
X47015000Y-102402986D01*
X47015000Y-102597014D01*
X47052853Y-102787314D01*
X47127104Y-102966572D01*
X47234901Y-103127901D01*
X47372099Y-103265099D01*
X47533428Y-103372896D01*
X47712686Y-103447147D01*
X47902986Y-103485000D01*
X48097014Y-103485000D01*
X48287314Y-103447147D01*
X48466572Y-103372896D01*
X48627901Y-103265099D01*
X48765099Y-103127901D01*
X48872896Y-102966572D01*
X48947147Y-102787314D01*
X48985000Y-102597014D01*
X48985000Y-102402986D01*
X48947147Y-102212686D01*
X48872896Y-102033428D01*
X48765099Y-101872099D01*
X48627901Y-101734901D01*
X48466572Y-101627104D01*
X48287314Y-101552853D01*
X48097014Y-101515000D01*
X47902986Y-101515000D01*
X47712686Y-101552853D01*
X47533428Y-101627104D01*
X47372099Y-101734901D01*
X47234901Y-101872099D01*
X47127104Y-102033428D01*
X47052853Y-102212686D01*
X47015000Y-102402986D01*
X22435000Y-102402986D01*
X22435000Y-99652986D01*
X26515000Y-99652986D01*
X26515000Y-99847014D01*
X26552853Y-100037314D01*
X26627104Y-100216572D01*
X26734901Y-100377901D01*
X26872099Y-100515099D01*
X27033428Y-100622896D01*
X27212686Y-100697147D01*
X27402986Y-100735000D01*
X27597014Y-100735000D01*
X27787314Y-100697147D01*
X27966572Y-100622896D01*
X28000000Y-100600560D01*
X28033428Y-100622896D01*
X28212686Y-100697147D01*
X28402986Y-100735000D01*
X28597014Y-100735000D01*
X28787314Y-100697147D01*
X28966572Y-100622896D01*
X29000000Y-100600560D01*
X29033428Y-100622896D01*
X29212686Y-100697147D01*
X29402986Y-100735000D01*
X29597014Y-100735000D01*
X29787314Y-100697147D01*
X29966572Y-100622896D01*
X30000000Y-100600560D01*
X30033428Y-100622896D01*
X30212686Y-100697147D01*
X30402986Y-100735000D01*
X30597014Y-100735000D01*
X30787314Y-100697147D01*
X30966572Y-100622896D01*
X31127901Y-100515099D01*
X31265099Y-100377901D01*
X31372896Y-100216572D01*
X31447147Y-100037314D01*
X31473866Y-99902986D01*
X60015000Y-99902986D01*
X60015000Y-100097014D01*
X60052853Y-100287314D01*
X60089174Y-100375000D01*
X60052853Y-100462686D01*
X60015000Y-100652986D01*
X60015000Y-100847014D01*
X60052853Y-101037314D01*
X60127104Y-101216572D01*
X60234901Y-101377901D01*
X60372099Y-101515099D01*
X60533428Y-101622896D01*
X60712686Y-101697147D01*
X60902986Y-101735000D01*
X61097014Y-101735000D01*
X61287314Y-101697147D01*
X61466572Y-101622896D01*
X61627901Y-101515099D01*
X61765099Y-101377901D01*
X61872896Y-101216572D01*
X61947147Y-101037314D01*
X61985000Y-100847014D01*
X61985000Y-100652986D01*
X61947147Y-100462686D01*
X61910826Y-100375000D01*
X61947147Y-100287314D01*
X61985000Y-100097014D01*
X61985000Y-99902986D01*
X61947147Y-99712686D01*
X61872896Y-99533428D01*
X61765099Y-99372099D01*
X61627901Y-99234901D01*
X61466572Y-99127104D01*
X61287314Y-99052853D01*
X61097014Y-99015000D01*
X60902986Y-99015000D01*
X60712686Y-99052853D01*
X60533428Y-99127104D01*
X60372099Y-99234901D01*
X60234901Y-99372099D01*
X60127104Y-99533428D01*
X60052853Y-99712686D01*
X60015000Y-99902986D01*
X31473866Y-99902986D01*
X31485000Y-99847014D01*
X31485000Y-99652986D01*
X31447147Y-99462686D01*
X31372896Y-99283428D01*
X31265099Y-99122099D01*
X31127901Y-98984901D01*
X30966572Y-98877104D01*
X30787314Y-98802853D01*
X30597014Y-98765000D01*
X30402986Y-98765000D01*
X30212686Y-98802853D01*
X30033428Y-98877104D01*
X30000000Y-98899440D01*
X29966572Y-98877104D01*
X29787314Y-98802853D01*
X29597014Y-98765000D01*
X29402986Y-98765000D01*
X29212686Y-98802853D01*
X29033428Y-98877104D01*
X29000000Y-98899440D01*
X28966572Y-98877104D01*
X28787314Y-98802853D01*
X28597014Y-98765000D01*
X28402986Y-98765000D01*
X28212686Y-98802853D01*
X28033428Y-98877104D01*
X28000000Y-98899440D01*
X27966572Y-98877104D01*
X27787314Y-98802853D01*
X27597014Y-98765000D01*
X27402986Y-98765000D01*
X27212686Y-98802853D01*
X27033428Y-98877104D01*
X26872099Y-98984901D01*
X26734901Y-99122099D01*
X26627104Y-99283428D01*
X26552853Y-99462686D01*
X26515000Y-99652986D01*
X22435000Y-99652986D01*
X22435000Y-98652986D01*
X47765000Y-98652986D01*
X47765000Y-98847014D01*
X47802853Y-99037314D01*
X47877104Y-99216572D01*
X47984901Y-99377901D01*
X48122099Y-99515099D01*
X48283428Y-99622896D01*
X48462686Y-99697147D01*
X48652986Y-99735000D01*
X48847014Y-99735000D01*
X49037314Y-99697147D01*
X49216572Y-99622896D01*
X49377901Y-99515099D01*
X49515099Y-99377901D01*
X49622896Y-99216572D01*
X49688086Y-99059190D01*
X49783428Y-99122896D01*
X49962686Y-99197147D01*
X50152986Y-99235000D01*
X50347014Y-99235000D01*
X50537314Y-99197147D01*
X50716572Y-99122896D01*
X50877901Y-99015099D01*
X51015099Y-98877901D01*
X51122896Y-98716572D01*
X51197147Y-98537314D01*
X51235000Y-98347014D01*
X51235000Y-98152986D01*
X51197147Y-97962686D01*
X51122896Y-97783428D01*
X51035738Y-97652986D01*
X62515000Y-97652986D01*
X62515000Y-97847014D01*
X62552853Y-98037314D01*
X62627104Y-98216572D01*
X62734901Y-98377901D01*
X62872099Y-98515099D01*
X63033428Y-98622896D01*
X63212686Y-98697147D01*
X63402986Y-98735000D01*
X63597014Y-98735000D01*
X63787314Y-98697147D01*
X63966572Y-98622896D01*
X64127901Y-98515099D01*
X64265099Y-98377901D01*
X64372896Y-98216572D01*
X64447147Y-98037314D01*
X64485000Y-97847014D01*
X64485000Y-97652986D01*
X64447147Y-97462686D01*
X64372896Y-97283428D01*
X64265099Y-97122099D01*
X64127901Y-96984901D01*
X63966572Y-96877104D01*
X63787314Y-96802853D01*
X63597014Y-96765000D01*
X63402986Y-96765000D01*
X63212686Y-96802853D01*
X63033428Y-96877104D01*
X62872099Y-96984901D01*
X62734901Y-97122099D01*
X62627104Y-97283428D01*
X62552853Y-97462686D01*
X62515000Y-97652986D01*
X51035738Y-97652986D01*
X51015099Y-97622099D01*
X50877901Y-97484901D01*
X50716572Y-97377104D01*
X50537314Y-97302853D01*
X50347014Y-97265000D01*
X50152986Y-97265000D01*
X49962686Y-97302853D01*
X49783428Y-97377104D01*
X49622099Y-97484901D01*
X49484901Y-97622099D01*
X49377104Y-97783428D01*
X49311914Y-97940810D01*
X49216572Y-97877104D01*
X49037314Y-97802853D01*
X48847014Y-97765000D01*
X48652986Y-97765000D01*
X48462686Y-97802853D01*
X48283428Y-97877104D01*
X48122099Y-97984901D01*
X47984901Y-98122099D01*
X47877104Y-98283428D01*
X47802853Y-98462686D01*
X47765000Y-98652986D01*
X22435000Y-98652986D01*
X22435000Y-97275340D01*
X24904265Y-97275340D01*
X25150416Y-97667704D01*
X25652822Y-97933312D01*
X26197393Y-98095801D01*
X26763199Y-98148928D01*
X27328498Y-98090652D01*
X27871566Y-97923210D01*
X28349584Y-97667704D01*
X28595735Y-97275340D01*
X26750000Y-95429605D01*
X24904265Y-97275340D01*
X22435000Y-97275340D01*
X22435000Y-95263199D01*
X23851072Y-95263199D01*
X23909348Y-95828498D01*
X24076790Y-96371566D01*
X24332296Y-96849584D01*
X24724660Y-97095735D01*
X26570395Y-95250000D01*
X26929605Y-95250000D01*
X28775340Y-97095735D01*
X29167704Y-96849584D01*
X29433312Y-96347178D01*
X29595801Y-95802607D01*
X29633323Y-95402986D01*
X46765000Y-95402986D01*
X46765000Y-95597014D01*
X46802853Y-95787314D01*
X46877104Y-95966572D01*
X46984901Y-96127901D01*
X47122099Y-96265099D01*
X47283428Y-96372896D01*
X47462686Y-96447147D01*
X47652986Y-96485000D01*
X47847014Y-96485000D01*
X48037314Y-96447147D01*
X48216572Y-96372896D01*
X48377901Y-96265099D01*
X48515099Y-96127901D01*
X48622896Y-95966572D01*
X48697147Y-95787314D01*
X48735000Y-95597014D01*
X48735000Y-95402986D01*
X48697147Y-95212686D01*
X48622896Y-95033428D01*
X48515099Y-94872099D01*
X48377901Y-94734901D01*
X48216572Y-94627104D01*
X48037314Y-94552853D01*
X47847014Y-94515000D01*
X47652986Y-94515000D01*
X47462686Y-94552853D01*
X47283428Y-94627104D01*
X47122099Y-94734901D01*
X46984901Y-94872099D01*
X46877104Y-95033428D01*
X46802853Y-95212686D01*
X46765000Y-95402986D01*
X29633323Y-95402986D01*
X29648928Y-95236801D01*
X29590652Y-94671502D01*
X29423210Y-94128434D01*
X29167704Y-93650416D01*
X28775340Y-93404265D01*
X26929605Y-95250000D01*
X26570395Y-95250000D01*
X24724660Y-93404265D01*
X24332296Y-93650416D01*
X24066688Y-94152822D01*
X23904199Y-94697393D01*
X23851072Y-95263199D01*
X22435000Y-95263199D01*
X22435000Y-93224660D01*
X24904265Y-93224660D01*
X26750000Y-95070395D01*
X28595735Y-93224660D01*
X28349584Y-92832296D01*
X27847178Y-92566688D01*
X27302607Y-92404199D01*
X26736801Y-92351072D01*
X26171502Y-92409348D01*
X25628434Y-92576790D01*
X25150416Y-92832296D01*
X24904265Y-93224660D01*
X22435000Y-93224660D01*
X22435000Y-91652986D01*
X30265000Y-91652986D01*
X30265000Y-91847014D01*
X30302853Y-92037314D01*
X30377104Y-92216572D01*
X30484901Y-92377901D01*
X30622099Y-92515099D01*
X30783428Y-92622896D01*
X30788508Y-92625000D01*
X30783428Y-92627104D01*
X30622099Y-92734901D01*
X30484901Y-92872099D01*
X30377104Y-93033428D01*
X30302853Y-93212686D01*
X30265000Y-93402986D01*
X30265000Y-93597014D01*
X30302853Y-93787314D01*
X30377104Y-93966572D01*
X30484901Y-94127901D01*
X30622099Y-94265099D01*
X30783428Y-94372896D01*
X30962686Y-94447147D01*
X31152986Y-94485000D01*
X31347014Y-94485000D01*
X31537314Y-94447147D01*
X31716572Y-94372896D01*
X31877901Y-94265099D01*
X32015099Y-94127901D01*
X32122896Y-93966572D01*
X32197147Y-93787314D01*
X32235000Y-93597014D01*
X32235000Y-93402986D01*
X32197147Y-93212686D01*
X32172419Y-93152986D01*
X50515000Y-93152986D01*
X50515000Y-93347014D01*
X50552853Y-93537314D01*
X50627104Y-93716572D01*
X50734901Y-93877901D01*
X50872099Y-94015099D01*
X51033428Y-94122896D01*
X51212686Y-94197147D01*
X51402986Y-94235000D01*
X51597014Y-94235000D01*
X51787314Y-94197147D01*
X51966572Y-94122896D01*
X52127901Y-94015099D01*
X52265099Y-93877901D01*
X52372896Y-93716572D01*
X52447147Y-93537314D01*
X52485000Y-93347014D01*
X52485000Y-93152986D01*
X52447147Y-92962686D01*
X52372896Y-92783428D01*
X52265099Y-92622099D01*
X52127901Y-92484901D01*
X51966572Y-92377104D01*
X51787314Y-92302853D01*
X51597014Y-92265000D01*
X51402986Y-92265000D01*
X51212686Y-92302853D01*
X51033428Y-92377104D01*
X50872099Y-92484901D01*
X50734901Y-92622099D01*
X50627104Y-92783428D01*
X50552853Y-92962686D01*
X50515000Y-93152986D01*
X32172419Y-93152986D01*
X32122896Y-93033428D01*
X32015099Y-92872099D01*
X31877901Y-92734901D01*
X31716572Y-92627104D01*
X31711492Y-92625000D01*
X31716572Y-92622896D01*
X31877901Y-92515099D01*
X32015099Y-92377901D01*
X32122896Y-92216572D01*
X32149234Y-92152986D01*
X53265000Y-92152986D01*
X53265000Y-92347014D01*
X53302853Y-92537314D01*
X53377104Y-92716572D01*
X53484901Y-92877901D01*
X53622099Y-93015099D01*
X53783428Y-93122896D01*
X53962686Y-93197147D01*
X54056039Y-93215716D01*
X54077104Y-93266572D01*
X54184901Y-93427901D01*
X54322099Y-93565099D01*
X54483428Y-93672896D01*
X54662686Y-93747147D01*
X54852986Y-93785000D01*
X55047014Y-93785000D01*
X55237314Y-93747147D01*
X55416572Y-93672896D01*
X55577901Y-93565099D01*
X55715099Y-93427901D01*
X55822896Y-93266572D01*
X55897147Y-93087314D01*
X55933812Y-92902986D01*
X59765000Y-92902986D01*
X59765000Y-93097014D01*
X59802853Y-93287314D01*
X59877104Y-93466572D01*
X59984901Y-93627901D01*
X60122099Y-93765099D01*
X60283428Y-93872896D01*
X60462686Y-93947147D01*
X60652986Y-93985000D01*
X60847014Y-93985000D01*
X61037314Y-93947147D01*
X61216572Y-93872896D01*
X61377901Y-93765099D01*
X61515099Y-93627901D01*
X61622896Y-93466572D01*
X61697147Y-93287314D01*
X61735000Y-93097014D01*
X61735000Y-92902986D01*
X61697147Y-92712686D01*
X61622896Y-92533428D01*
X61590537Y-92485000D01*
X61597014Y-92485000D01*
X61787314Y-92447147D01*
X61966572Y-92372896D01*
X62000000Y-92350560D01*
X62033428Y-92372896D01*
X62212686Y-92447147D01*
X62402986Y-92485000D01*
X62597014Y-92485000D01*
X62787314Y-92447147D01*
X62966572Y-92372896D01*
X63019408Y-92337592D01*
X62984901Y-92372099D01*
X62877104Y-92533428D01*
X62802853Y-92712686D01*
X62765000Y-92902986D01*
X62765000Y-93097014D01*
X62802853Y-93287314D01*
X62877104Y-93466572D01*
X62984901Y-93627901D01*
X63122099Y-93765099D01*
X63283428Y-93872896D01*
X63462686Y-93947147D01*
X63652986Y-93985000D01*
X63847014Y-93985000D01*
X64037314Y-93947147D01*
X64216572Y-93872896D01*
X64377901Y-93765099D01*
X64515099Y-93627901D01*
X64622896Y-93466572D01*
X64697147Y-93287314D01*
X64735000Y-93097014D01*
X64735000Y-92902986D01*
X64697147Y-92712686D01*
X64622896Y-92533428D01*
X64515099Y-92372099D01*
X64377901Y-92234901D01*
X64216572Y-92127104D01*
X64037314Y-92052853D01*
X63847014Y-92015000D01*
X63652986Y-92015000D01*
X63462686Y-92052853D01*
X63283428Y-92127104D01*
X63230592Y-92162408D01*
X63265099Y-92127901D01*
X63372896Y-91966572D01*
X63447147Y-91787314D01*
X63485000Y-91597014D01*
X63485000Y-91402986D01*
X63447147Y-91212686D01*
X63372896Y-91033428D01*
X63265099Y-90872099D01*
X63127901Y-90734901D01*
X62966572Y-90627104D01*
X62787314Y-90552853D01*
X62597014Y-90515000D01*
X62402986Y-90515000D01*
X62212686Y-90552853D01*
X62033428Y-90627104D01*
X62000000Y-90649440D01*
X61966572Y-90627104D01*
X61787314Y-90552853D01*
X61597014Y-90515000D01*
X61402986Y-90515000D01*
X61212686Y-90552853D01*
X61033428Y-90627104D01*
X60872099Y-90734901D01*
X60734901Y-90872099D01*
X60627104Y-91033428D01*
X60552853Y-91212686D01*
X60515000Y-91402986D01*
X60515000Y-91597014D01*
X60552853Y-91787314D01*
X60627104Y-91966572D01*
X60659463Y-92015000D01*
X60652986Y-92015000D01*
X60462686Y-92052853D01*
X60283428Y-92127104D01*
X60122099Y-92234901D01*
X59984901Y-92372099D01*
X59877104Y-92533428D01*
X59802853Y-92712686D01*
X59765000Y-92902986D01*
X55933812Y-92902986D01*
X55935000Y-92897014D01*
X55935000Y-92702986D01*
X55897147Y-92512686D01*
X55822896Y-92333428D01*
X55715099Y-92172099D01*
X55577901Y-92034901D01*
X55416572Y-91927104D01*
X55376137Y-91910355D01*
X55466572Y-91872896D01*
X55561914Y-91809190D01*
X55627104Y-91966572D01*
X55734901Y-92127901D01*
X55872099Y-92265099D01*
X56033428Y-92372896D01*
X56212686Y-92447147D01*
X56402986Y-92485000D01*
X56597014Y-92485000D01*
X56787314Y-92447147D01*
X56966572Y-92372896D01*
X57127901Y-92265099D01*
X57265099Y-92127901D01*
X57372896Y-91966572D01*
X57447147Y-91787314D01*
X57485000Y-91597014D01*
X57485000Y-91402986D01*
X57447147Y-91212686D01*
X57372896Y-91033428D01*
X57350560Y-91000000D01*
X57372896Y-90966572D01*
X57447147Y-90787314D01*
X57485000Y-90597014D01*
X57485000Y-90402986D01*
X57447147Y-90212686D01*
X57372896Y-90033428D01*
X57309190Y-89938086D01*
X57466572Y-89872896D01*
X57627901Y-89765099D01*
X57765099Y-89627901D01*
X57872896Y-89466572D01*
X57947147Y-89287314D01*
X57985000Y-89097014D01*
X57985000Y-88902986D01*
X57947147Y-88712686D01*
X57872896Y-88533428D01*
X57850560Y-88500000D01*
X57872896Y-88466572D01*
X57947147Y-88287314D01*
X57985000Y-88097014D01*
X57985000Y-87902986D01*
X57947147Y-87712686D01*
X57872896Y-87533428D01*
X57765099Y-87372099D01*
X57627901Y-87234901D01*
X57466572Y-87127104D01*
X57287314Y-87052853D01*
X57097014Y-87015000D01*
X56902986Y-87015000D01*
X56712686Y-87052853D01*
X56533428Y-87127104D01*
X56372099Y-87234901D01*
X56234901Y-87372099D01*
X56127104Y-87533428D01*
X56061914Y-87690810D01*
X55966572Y-87627104D01*
X55787314Y-87552853D01*
X55597014Y-87515000D01*
X55402986Y-87515000D01*
X55212686Y-87552853D01*
X55033428Y-87627104D01*
X54872099Y-87734901D01*
X54734901Y-87872099D01*
X54627104Y-88033428D01*
X54552853Y-88212686D01*
X54515000Y-88402986D01*
X54515000Y-88597014D01*
X54552853Y-88787314D01*
X54627104Y-88966572D01*
X54734901Y-89127901D01*
X54872099Y-89265099D01*
X55033428Y-89372896D01*
X55212686Y-89447147D01*
X55402986Y-89485000D01*
X55597014Y-89485000D01*
X55787314Y-89447147D01*
X55966572Y-89372896D01*
X56061914Y-89309190D01*
X56127104Y-89466572D01*
X56190810Y-89561914D01*
X56033428Y-89627104D01*
X55872099Y-89734901D01*
X55734901Y-89872099D01*
X55627104Y-90033428D01*
X55561914Y-90190810D01*
X55466572Y-90127104D01*
X55287314Y-90052853D01*
X55097014Y-90015000D01*
X54902986Y-90015000D01*
X54712686Y-90052853D01*
X54533428Y-90127104D01*
X54372099Y-90234901D01*
X54234901Y-90372099D01*
X54127104Y-90533428D01*
X54052853Y-90712686D01*
X54015000Y-90902986D01*
X54015000Y-91097014D01*
X54052394Y-91285009D01*
X53962686Y-91302853D01*
X53783428Y-91377104D01*
X53622099Y-91484901D01*
X53484901Y-91622099D01*
X53377104Y-91783428D01*
X53302853Y-91962686D01*
X53265000Y-92152986D01*
X32149234Y-92152986D01*
X32197147Y-92037314D01*
X32235000Y-91847014D01*
X32235000Y-91652986D01*
X32197147Y-91462686D01*
X32122896Y-91283428D01*
X32015099Y-91122099D01*
X31877901Y-90984901D01*
X31716572Y-90877104D01*
X31537314Y-90802853D01*
X31347014Y-90765000D01*
X31152986Y-90765000D01*
X30962686Y-90802853D01*
X30783428Y-90877104D01*
X30622099Y-90984901D01*
X30484901Y-91122099D01*
X30377104Y-91283428D01*
X30302853Y-91462686D01*
X30265000Y-91652986D01*
X22435000Y-91652986D01*
X22435000Y-90402986D01*
X45765000Y-90402986D01*
X45765000Y-90597014D01*
X45802853Y-90787314D01*
X45877104Y-90966572D01*
X45984901Y-91127901D01*
X46122099Y-91265099D01*
X46283428Y-91372896D01*
X46462686Y-91447147D01*
X46652986Y-91485000D01*
X46847014Y-91485000D01*
X47037314Y-91447147D01*
X47216572Y-91372896D01*
X47377901Y-91265099D01*
X47515099Y-91127901D01*
X47622896Y-90966572D01*
X47625000Y-90961492D01*
X47627104Y-90966572D01*
X47734901Y-91127901D01*
X47872099Y-91265099D01*
X48033428Y-91372896D01*
X48212686Y-91447147D01*
X48402986Y-91485000D01*
X48597014Y-91485000D01*
X48787314Y-91447147D01*
X48966572Y-91372896D01*
X49127901Y-91265099D01*
X49265099Y-91127901D01*
X49372896Y-90966572D01*
X49447147Y-90787314D01*
X49485000Y-90597014D01*
X49485000Y-90402986D01*
X49447147Y-90212686D01*
X49372896Y-90033428D01*
X49265099Y-89872099D01*
X49127901Y-89734901D01*
X48966572Y-89627104D01*
X48787314Y-89552853D01*
X48597014Y-89515000D01*
X48402986Y-89515000D01*
X48212686Y-89552853D01*
X48033428Y-89627104D01*
X47872099Y-89734901D01*
X47734901Y-89872099D01*
X47627104Y-90033428D01*
X47625000Y-90038508D01*
X47622896Y-90033428D01*
X47515099Y-89872099D01*
X47377901Y-89734901D01*
X47216572Y-89627104D01*
X47037314Y-89552853D01*
X46847014Y-89515000D01*
X46652986Y-89515000D01*
X46462686Y-89552853D01*
X46283428Y-89627104D01*
X46122099Y-89734901D01*
X45984901Y-89872099D01*
X45877104Y-90033428D01*
X45802853Y-90212686D01*
X45765000Y-90402986D01*
X22435000Y-90402986D01*
X22435000Y-84902986D01*
X46265000Y-84902986D01*
X46265000Y-85097014D01*
X46302853Y-85287314D01*
X46377104Y-85466572D01*
X46484901Y-85627901D01*
X46622099Y-85765099D01*
X46783428Y-85872896D01*
X46962686Y-85947147D01*
X47152986Y-85985000D01*
X47347014Y-85985000D01*
X47537314Y-85947147D01*
X47716572Y-85872896D01*
X47877901Y-85765099D01*
X48015099Y-85627901D01*
X48122896Y-85466572D01*
X48197147Y-85287314D01*
X48235000Y-85097014D01*
X48235000Y-84902986D01*
X48197147Y-84712686D01*
X48122896Y-84533428D01*
X48035738Y-84402986D01*
X57765000Y-84402986D01*
X57765000Y-84597014D01*
X57802853Y-84787314D01*
X57877104Y-84966572D01*
X57984901Y-85127901D01*
X58122099Y-85265099D01*
X58283428Y-85372896D01*
X58462686Y-85447147D01*
X58652986Y-85485000D01*
X58847014Y-85485000D01*
X59037314Y-85447147D01*
X59216572Y-85372896D01*
X59377901Y-85265099D01*
X59515099Y-85127901D01*
X59622896Y-84966572D01*
X59697147Y-84787314D01*
X59735000Y-84597014D01*
X59735000Y-84402986D01*
X59697147Y-84212686D01*
X59622896Y-84033428D01*
X59515099Y-83872099D01*
X59377901Y-83734901D01*
X59216572Y-83627104D01*
X59037314Y-83552853D01*
X58847014Y-83515000D01*
X58652986Y-83515000D01*
X58462686Y-83552853D01*
X58283428Y-83627104D01*
X58122099Y-83734901D01*
X57984901Y-83872099D01*
X57877104Y-84033428D01*
X57802853Y-84212686D01*
X57765000Y-84402986D01*
X48035738Y-84402986D01*
X48015099Y-84372099D01*
X47877901Y-84234901D01*
X47716572Y-84127104D01*
X47537314Y-84052853D01*
X47347014Y-84015000D01*
X47152986Y-84015000D01*
X46962686Y-84052853D01*
X46783428Y-84127104D01*
X46622099Y-84234901D01*
X46484901Y-84372099D01*
X46377104Y-84533428D01*
X46302853Y-84712686D01*
X46265000Y-84902986D01*
X22435000Y-84902986D01*
X22435000Y-81152986D01*
X48515000Y-81152986D01*
X48515000Y-81347014D01*
X48552853Y-81537314D01*
X48627104Y-81716572D01*
X48734901Y-81877901D01*
X48872099Y-82015099D01*
X49033428Y-82122896D01*
X49212686Y-82197147D01*
X49402986Y-82235000D01*
X49597014Y-82235000D01*
X49787314Y-82197147D01*
X49966572Y-82122896D01*
X50127901Y-82015099D01*
X50265099Y-81877901D01*
X50372896Y-81716572D01*
X50447147Y-81537314D01*
X50485000Y-81347014D01*
X50485000Y-81152986D01*
X50447147Y-80962686D01*
X50372896Y-80783428D01*
X50265099Y-80622099D01*
X50127901Y-80484901D01*
X49966572Y-80377104D01*
X49787314Y-80302853D01*
X49597014Y-80265000D01*
X49402986Y-80265000D01*
X49212686Y-80302853D01*
X49033428Y-80377104D01*
X48872099Y-80484901D01*
X48734901Y-80622099D01*
X48627104Y-80783428D01*
X48552853Y-80962686D01*
X48515000Y-81152986D01*
X22435000Y-81152986D01*
X22435000Y-79652986D01*
X62765000Y-79652986D01*
X62765000Y-79847014D01*
X62802853Y-80037314D01*
X62877104Y-80216572D01*
X62984901Y-80377901D01*
X63122099Y-80515099D01*
X63283428Y-80622896D01*
X63462686Y-80697147D01*
X63652986Y-80735000D01*
X63847014Y-80735000D01*
X64037314Y-80697147D01*
X64216572Y-80622896D01*
X64377901Y-80515099D01*
X64515099Y-80377901D01*
X64622896Y-80216572D01*
X64697147Y-80037314D01*
X64724522Y-79899692D01*
X64737314Y-79897147D01*
X64916572Y-79822896D01*
X65077901Y-79715099D01*
X65215099Y-79577901D01*
X65322896Y-79416572D01*
X65397147Y-79237314D01*
X65435000Y-79047014D01*
X65435000Y-78852986D01*
X65397147Y-78662686D01*
X65322896Y-78483428D01*
X65215099Y-78322099D01*
X65077901Y-78184901D01*
X64916572Y-78077104D01*
X64737314Y-78002853D01*
X64547014Y-77965000D01*
X64352986Y-77965000D01*
X64162686Y-78002853D01*
X63983428Y-78077104D01*
X63822099Y-78184901D01*
X63684901Y-78322099D01*
X63577104Y-78483428D01*
X63502853Y-78662686D01*
X63475478Y-78800308D01*
X63462686Y-78802853D01*
X63283428Y-78877104D01*
X63122099Y-78984901D01*
X62984901Y-79122099D01*
X62877104Y-79283428D01*
X62802853Y-79462686D01*
X62765000Y-79652986D01*
X22435000Y-79652986D01*
X22435000Y-76440486D01*
X30302500Y-76440486D01*
X30302500Y-76634514D01*
X30340353Y-76824814D01*
X30414604Y-77004072D01*
X30522401Y-77165401D01*
X30659599Y-77302599D01*
X30820928Y-77410396D01*
X31000186Y-77484647D01*
X31190486Y-77522500D01*
X31384514Y-77522500D01*
X31574814Y-77484647D01*
X31754072Y-77410396D01*
X31915401Y-77302599D01*
X32052599Y-77165401D01*
X32060894Y-77152986D01*
X45765000Y-77152986D01*
X45765000Y-77347014D01*
X45802853Y-77537314D01*
X45877104Y-77716572D01*
X45984901Y-77877901D01*
X46122099Y-78015099D01*
X46283428Y-78122896D01*
X46462686Y-78197147D01*
X46652986Y-78235000D01*
X46847014Y-78235000D01*
X47037314Y-78197147D01*
X47216572Y-78122896D01*
X47377901Y-78015099D01*
X47515099Y-77877901D01*
X47622896Y-77716572D01*
X47625000Y-77711492D01*
X47627104Y-77716572D01*
X47734901Y-77877901D01*
X47872099Y-78015099D01*
X48033428Y-78122896D01*
X48212686Y-78197147D01*
X48402986Y-78235000D01*
X48597014Y-78235000D01*
X48787314Y-78197147D01*
X48966572Y-78122896D01*
X49127901Y-78015099D01*
X49265099Y-77877901D01*
X49372896Y-77716572D01*
X49447147Y-77537314D01*
X49466407Y-77440486D01*
X49552500Y-77440486D01*
X49552500Y-77634514D01*
X49590353Y-77824814D01*
X49664604Y-78004072D01*
X49772401Y-78165401D01*
X49909599Y-78302599D01*
X50070928Y-78410396D01*
X50250186Y-78484647D01*
X50440486Y-78522500D01*
X50634514Y-78522500D01*
X50824814Y-78484647D01*
X51004072Y-78410396D01*
X51165401Y-78302599D01*
X51302599Y-78165401D01*
X51410396Y-78004072D01*
X51484647Y-77824814D01*
X51522500Y-77634514D01*
X51522500Y-77440486D01*
X51484647Y-77250186D01*
X51410396Y-77070928D01*
X51365077Y-77003104D01*
X51422896Y-76916572D01*
X51497147Y-76737314D01*
X51535000Y-76547014D01*
X51535000Y-76352986D01*
X51497147Y-76162686D01*
X51422896Y-75983428D01*
X51315099Y-75822099D01*
X51177901Y-75684901D01*
X51016572Y-75577104D01*
X50837314Y-75502853D01*
X50647014Y-75465000D01*
X50452986Y-75465000D01*
X50262686Y-75502853D01*
X50083428Y-75577104D01*
X49922099Y-75684901D01*
X49784901Y-75822099D01*
X49677104Y-75983428D01*
X49602853Y-76162686D01*
X49565000Y-76352986D01*
X49565000Y-76547014D01*
X49602853Y-76737314D01*
X49677104Y-76916572D01*
X49722423Y-76984396D01*
X49664604Y-77070928D01*
X49590353Y-77250186D01*
X49552500Y-77440486D01*
X49466407Y-77440486D01*
X49485000Y-77347014D01*
X49485000Y-77152986D01*
X49447147Y-76962686D01*
X49372896Y-76783428D01*
X49265099Y-76622099D01*
X49127901Y-76484901D01*
X48966572Y-76377104D01*
X48787314Y-76302853D01*
X48597014Y-76265000D01*
X48402986Y-76265000D01*
X48212686Y-76302853D01*
X48033428Y-76377104D01*
X47872099Y-76484901D01*
X47734901Y-76622099D01*
X47627104Y-76783428D01*
X47625000Y-76788508D01*
X47622896Y-76783428D01*
X47515099Y-76622099D01*
X47377901Y-76484901D01*
X47216572Y-76377104D01*
X47037314Y-76302853D01*
X46847014Y-76265000D01*
X46652986Y-76265000D01*
X46462686Y-76302853D01*
X46283428Y-76377104D01*
X46122099Y-76484901D01*
X45984901Y-76622099D01*
X45877104Y-76783428D01*
X45802853Y-76962686D01*
X45765000Y-77152986D01*
X32060894Y-77152986D01*
X32160396Y-77004072D01*
X32234647Y-76824814D01*
X32272500Y-76634514D01*
X32272500Y-76440486D01*
X32234647Y-76250186D01*
X32160396Y-76070928D01*
X32052599Y-75909599D01*
X31915401Y-75772401D01*
X31754072Y-75664604D01*
X31574814Y-75590353D01*
X31384514Y-75552500D01*
X31190486Y-75552500D01*
X31000186Y-75590353D01*
X30820928Y-75664604D01*
X30659599Y-75772401D01*
X30522401Y-75909599D01*
X30414604Y-76070928D01*
X30340353Y-76250186D01*
X30302500Y-76440486D01*
X22435000Y-76440486D01*
X22435000Y-72479509D01*
X27775000Y-72479509D01*
X27775000Y-73520492D01*
X27795764Y-73731309D01*
X27877818Y-74001808D01*
X28011068Y-74251101D01*
X28190393Y-74469608D01*
X28408900Y-74648932D01*
X28658193Y-74782182D01*
X28928692Y-74864236D01*
X29210000Y-74891943D01*
X29491309Y-74864236D01*
X29761808Y-74782182D01*
X30011101Y-74648932D01*
X30229608Y-74469608D01*
X30408932Y-74251101D01*
X30480000Y-74118142D01*
X30551068Y-74251101D01*
X30730393Y-74469608D01*
X30948900Y-74648932D01*
X31198193Y-74782182D01*
X31468692Y-74864236D01*
X31750000Y-74891943D01*
X32031309Y-74864236D01*
X32301808Y-74782182D01*
X32551101Y-74648932D01*
X32769608Y-74469608D01*
X32948932Y-74251101D01*
X33082182Y-74001808D01*
X33164236Y-73731309D01*
X33185000Y-73520491D01*
X33185000Y-72479508D01*
X33164236Y-72268691D01*
X33082182Y-71998192D01*
X32948932Y-71748899D01*
X32769607Y-71530392D01*
X32551100Y-71351068D01*
X32301807Y-71217818D01*
X32031308Y-71135764D01*
X31750000Y-71108057D01*
X31468691Y-71135764D01*
X31198192Y-71217818D01*
X30948899Y-71351068D01*
X30730392Y-71530393D01*
X30551068Y-71748900D01*
X30480000Y-71881858D01*
X30408932Y-71748899D01*
X30229607Y-71530392D01*
X30011100Y-71351068D01*
X29761807Y-71217818D01*
X29491308Y-71135764D01*
X29210000Y-71108057D01*
X28928691Y-71135764D01*
X28658192Y-71217818D01*
X28408899Y-71351068D01*
X28190392Y-71530393D01*
X28011068Y-71748900D01*
X27877818Y-71998193D01*
X27795764Y-72268692D01*
X27775000Y-72479509D01*
X22435000Y-72479509D01*
X22435000Y-66052844D01*
X24285000Y-66052844D01*
X24285000Y-69787157D01*
X24319511Y-70137542D01*
X24455888Y-70587116D01*
X24677352Y-71001446D01*
X24975392Y-71364609D01*
X25338555Y-71662649D01*
X25752885Y-71884113D01*
X26202459Y-72020490D01*
X26670000Y-72066539D01*
X27137542Y-72020490D01*
X27587116Y-71884113D01*
X28001446Y-71662649D01*
X28364609Y-71364609D01*
X28662649Y-71001446D01*
X28884113Y-70587116D01*
X29020490Y-70137542D01*
X29055000Y-69787157D01*
X29055000Y-66052844D01*
X34445000Y-66052844D01*
X34445000Y-69787157D01*
X34479511Y-70137542D01*
X34615888Y-70587116D01*
X34837352Y-71001446D01*
X35135392Y-71364609D01*
X35498555Y-71662649D01*
X35912885Y-71884113D01*
X36362459Y-72020490D01*
X36830000Y-72066539D01*
X37297542Y-72020490D01*
X37747116Y-71884113D01*
X38161446Y-71662649D01*
X38524609Y-71364609D01*
X38822649Y-71001446D01*
X38875276Y-70902986D01*
X41015000Y-70902986D01*
X41015000Y-71097014D01*
X41052853Y-71287314D01*
X41127104Y-71466572D01*
X41149440Y-71500000D01*
X41127104Y-71533428D01*
X41052853Y-71712686D01*
X41015000Y-71902986D01*
X41015000Y-72097014D01*
X41052853Y-72287314D01*
X41127104Y-72466572D01*
X41234901Y-72627901D01*
X41372099Y-72765099D01*
X41533428Y-72872896D01*
X41712686Y-72947147D01*
X41902986Y-72985000D01*
X42097014Y-72985000D01*
X42287314Y-72947147D01*
X42466572Y-72872896D01*
X42500000Y-72850560D01*
X42533428Y-72872896D01*
X42712686Y-72947147D01*
X42902986Y-72985000D01*
X43097014Y-72985000D01*
X43287314Y-72947147D01*
X43466572Y-72872896D01*
X43627901Y-72765099D01*
X43765099Y-72627901D01*
X43872896Y-72466572D01*
X43947147Y-72287314D01*
X43985000Y-72097014D01*
X43985000Y-71902986D01*
X43947147Y-71712686D01*
X43872896Y-71533428D01*
X43850560Y-71500000D01*
X43872896Y-71466572D01*
X43947147Y-71287314D01*
X43985000Y-71097014D01*
X43985000Y-70902986D01*
X46265000Y-70902986D01*
X46265000Y-71097014D01*
X46302853Y-71287314D01*
X46377104Y-71466572D01*
X46399440Y-71500000D01*
X46377104Y-71533428D01*
X46302853Y-71712686D01*
X46265000Y-71902986D01*
X46265000Y-72097014D01*
X46302853Y-72287314D01*
X46377104Y-72466572D01*
X46484901Y-72627901D01*
X46622099Y-72765099D01*
X46783428Y-72872896D01*
X46962686Y-72947147D01*
X47152986Y-72985000D01*
X47347014Y-72985000D01*
X47537314Y-72947147D01*
X47716572Y-72872896D01*
X47750000Y-72850560D01*
X47783428Y-72872896D01*
X47962686Y-72947147D01*
X48152986Y-72985000D01*
X48347014Y-72985000D01*
X48537314Y-72947147D01*
X48716572Y-72872896D01*
X48877901Y-72765099D01*
X49015099Y-72627901D01*
X49122896Y-72466572D01*
X49197147Y-72287314D01*
X49223866Y-72152986D01*
X52765000Y-72152986D01*
X52765000Y-72347014D01*
X52802853Y-72537314D01*
X52877104Y-72716572D01*
X52984901Y-72877901D01*
X53122099Y-73015099D01*
X53283428Y-73122896D01*
X53288508Y-73125000D01*
X53283428Y-73127104D01*
X53122099Y-73234901D01*
X52984901Y-73372099D01*
X52877104Y-73533428D01*
X52802853Y-73712686D01*
X52765000Y-73902986D01*
X52765000Y-74097014D01*
X52802853Y-74287314D01*
X52877104Y-74466572D01*
X52984901Y-74627901D01*
X53122099Y-74765099D01*
X53283428Y-74872896D01*
X53462686Y-74947147D01*
X53652986Y-74985000D01*
X53847014Y-74985000D01*
X54037314Y-74947147D01*
X54216572Y-74872896D01*
X54377901Y-74765099D01*
X54515099Y-74627901D01*
X54622896Y-74466572D01*
X54697147Y-74287314D01*
X54735000Y-74097014D01*
X54735000Y-73902986D01*
X54697147Y-73712686D01*
X54622896Y-73533428D01*
X54535738Y-73402986D01*
X56265000Y-73402986D01*
X56265000Y-73597014D01*
X56302853Y-73787314D01*
X56377104Y-73966572D01*
X56484901Y-74127901D01*
X56622099Y-74265099D01*
X56783428Y-74372896D01*
X56962686Y-74447147D01*
X57137337Y-74481887D01*
X57234901Y-74627901D01*
X57372099Y-74765099D01*
X57533428Y-74872896D01*
X57712686Y-74947147D01*
X57902986Y-74985000D01*
X57957960Y-74985000D01*
X58002104Y-75091572D01*
X58109901Y-75252901D01*
X58247099Y-75390099D01*
X58408428Y-75497896D01*
X58587686Y-75572147D01*
X58777986Y-75610000D01*
X58972014Y-75610000D01*
X59162314Y-75572147D01*
X59341572Y-75497896D01*
X59483614Y-75402986D01*
X61015000Y-75402986D01*
X61015000Y-75597014D01*
X61052853Y-75787314D01*
X61127104Y-75966572D01*
X61234901Y-76127901D01*
X61357000Y-76250000D01*
X61234901Y-76372099D01*
X61127104Y-76533428D01*
X61052853Y-76712686D01*
X61015000Y-76902986D01*
X61015000Y-77097014D01*
X61052853Y-77287314D01*
X61127104Y-77466572D01*
X61234901Y-77627901D01*
X61372099Y-77765099D01*
X61533428Y-77872896D01*
X61712686Y-77947147D01*
X61902986Y-77985000D01*
X62097014Y-77985000D01*
X62287314Y-77947147D01*
X62466572Y-77872896D01*
X62627901Y-77765099D01*
X62765099Y-77627901D01*
X62872896Y-77466572D01*
X62947147Y-77287314D01*
X62985000Y-77097014D01*
X62985000Y-76902986D01*
X62947147Y-76712686D01*
X62872896Y-76533428D01*
X62765099Y-76372099D01*
X62643000Y-76250000D01*
X62765099Y-76127901D01*
X62872896Y-75966572D01*
X62947147Y-75787314D01*
X62985000Y-75597014D01*
X62985000Y-75402986D01*
X62947147Y-75212686D01*
X62872896Y-75033428D01*
X62765099Y-74872099D01*
X62627901Y-74734901D01*
X62466572Y-74627104D01*
X62287314Y-74552853D01*
X62097014Y-74515000D01*
X61902986Y-74515000D01*
X61712686Y-74552853D01*
X61533428Y-74627104D01*
X61372099Y-74734901D01*
X61234901Y-74872099D01*
X61127104Y-75033428D01*
X61052853Y-75212686D01*
X61015000Y-75402986D01*
X59483614Y-75402986D01*
X59502901Y-75390099D01*
X59640099Y-75252901D01*
X59747896Y-75091572D01*
X59822147Y-74912314D01*
X59860000Y-74722014D01*
X59860000Y-74527986D01*
X59822147Y-74337686D01*
X59747896Y-74158428D01*
X59640099Y-73997099D01*
X59502901Y-73859901D01*
X59341572Y-73752104D01*
X59162314Y-73677853D01*
X58972014Y-73640000D01*
X58917040Y-73640000D01*
X58872896Y-73533428D01*
X58765099Y-73372099D01*
X58627901Y-73234901D01*
X58466572Y-73127104D01*
X58287314Y-73052853D01*
X58112663Y-73018113D01*
X58015099Y-72872099D01*
X57877901Y-72734901D01*
X57716572Y-72627104D01*
X57537314Y-72552853D01*
X57347014Y-72515000D01*
X57152986Y-72515000D01*
X56962686Y-72552853D01*
X56783428Y-72627104D01*
X56622099Y-72734901D01*
X56484901Y-72872099D01*
X56377104Y-73033428D01*
X56302853Y-73212686D01*
X56265000Y-73402986D01*
X54535738Y-73402986D01*
X54515099Y-73372099D01*
X54377901Y-73234901D01*
X54216572Y-73127104D01*
X54211492Y-73125000D01*
X54216572Y-73122896D01*
X54377901Y-73015099D01*
X54515099Y-72877901D01*
X54622896Y-72716572D01*
X54697147Y-72537314D01*
X54735000Y-72347014D01*
X54735000Y-72152986D01*
X54697147Y-71962686D01*
X54622896Y-71783428D01*
X54515099Y-71622099D01*
X54377901Y-71484901D01*
X54216572Y-71377104D01*
X54037314Y-71302853D01*
X53847014Y-71265000D01*
X53652986Y-71265000D01*
X53462686Y-71302853D01*
X53283428Y-71377104D01*
X53122099Y-71484901D01*
X52984901Y-71622099D01*
X52877104Y-71783428D01*
X52802853Y-71962686D01*
X52765000Y-72152986D01*
X49223866Y-72152986D01*
X49235000Y-72097014D01*
X49235000Y-71902986D01*
X49197147Y-71712686D01*
X49122896Y-71533428D01*
X49100560Y-71500000D01*
X49122896Y-71466572D01*
X49197147Y-71287314D01*
X49235000Y-71097014D01*
X49235000Y-70902986D01*
X49197147Y-70712686D01*
X49122896Y-70533428D01*
X49015099Y-70372099D01*
X48877901Y-70234901D01*
X48716572Y-70127104D01*
X48537314Y-70052853D01*
X48347014Y-70015000D01*
X48152986Y-70015000D01*
X47962686Y-70052853D01*
X47783428Y-70127104D01*
X47750000Y-70149440D01*
X47716572Y-70127104D01*
X47537314Y-70052853D01*
X47347014Y-70015000D01*
X47152986Y-70015000D01*
X46962686Y-70052853D01*
X46783428Y-70127104D01*
X46622099Y-70234901D01*
X46484901Y-70372099D01*
X46377104Y-70533428D01*
X46302853Y-70712686D01*
X46265000Y-70902986D01*
X43985000Y-70902986D01*
X43947147Y-70712686D01*
X43872896Y-70533428D01*
X43765099Y-70372099D01*
X43627901Y-70234901D01*
X43466572Y-70127104D01*
X43287314Y-70052853D01*
X43097014Y-70015000D01*
X42902986Y-70015000D01*
X42712686Y-70052853D01*
X42533428Y-70127104D01*
X42500000Y-70149440D01*
X42466572Y-70127104D01*
X42287314Y-70052853D01*
X42097014Y-70015000D01*
X41902986Y-70015000D01*
X41712686Y-70052853D01*
X41533428Y-70127104D01*
X41372099Y-70234901D01*
X41234901Y-70372099D01*
X41127104Y-70533428D01*
X41052853Y-70712686D01*
X41015000Y-70902986D01*
X38875276Y-70902986D01*
X39044113Y-70587116D01*
X39180490Y-70137542D01*
X39215000Y-69787157D01*
X39215000Y-68402986D01*
X61765000Y-68402986D01*
X61765000Y-68597014D01*
X61802853Y-68787314D01*
X61877104Y-68966572D01*
X61984901Y-69127901D01*
X62122099Y-69265099D01*
X62283428Y-69372896D01*
X62462686Y-69447147D01*
X62652986Y-69485000D01*
X62847014Y-69485000D01*
X63037314Y-69447147D01*
X63216572Y-69372896D01*
X63377901Y-69265099D01*
X63490014Y-69152986D01*
X66015000Y-69152986D01*
X66015000Y-69347014D01*
X66052853Y-69537314D01*
X66127104Y-69716572D01*
X66234901Y-69877901D01*
X66372099Y-70015099D01*
X66533428Y-70122896D01*
X66712686Y-70197147D01*
X66902986Y-70235000D01*
X67097014Y-70235000D01*
X67287314Y-70197147D01*
X67466572Y-70122896D01*
X67627901Y-70015099D01*
X67765099Y-69877901D01*
X67872896Y-69716572D01*
X67947147Y-69537314D01*
X67985000Y-69347014D01*
X67985000Y-69152986D01*
X67947147Y-68962686D01*
X67872896Y-68783428D01*
X67765099Y-68622099D01*
X67627901Y-68484901D01*
X67466572Y-68377104D01*
X67287314Y-68302853D01*
X67097014Y-68265000D01*
X66902986Y-68265000D01*
X66712686Y-68302853D01*
X66533428Y-68377104D01*
X66372099Y-68484901D01*
X66234901Y-68622099D01*
X66127104Y-68783428D01*
X66052853Y-68962686D01*
X66015000Y-69152986D01*
X63490014Y-69152986D01*
X63515099Y-69127901D01*
X63622896Y-68966572D01*
X63697147Y-68787314D01*
X63735000Y-68597014D01*
X63735000Y-68402986D01*
X63697147Y-68212686D01*
X63622896Y-68033428D01*
X63515099Y-67872099D01*
X63377901Y-67734901D01*
X63216572Y-67627104D01*
X63037314Y-67552853D01*
X62847014Y-67515000D01*
X62652986Y-67515000D01*
X62462686Y-67552853D01*
X62283428Y-67627104D01*
X62122099Y-67734901D01*
X61984901Y-67872099D01*
X61877104Y-68033428D01*
X61802853Y-68212686D01*
X61765000Y-68402986D01*
X39215000Y-68402986D01*
X39215000Y-66052843D01*
X39180490Y-65702458D01*
X39044113Y-65252884D01*
X38840951Y-64872793D01*
X56420000Y-64872793D01*
X56420000Y-65389206D01*
X56437147Y-65563299D01*
X56504906Y-65786673D01*
X56614942Y-65992535D01*
X56763025Y-66172975D01*
X56943464Y-66321058D01*
X57149326Y-66431094D01*
X57372700Y-66498853D01*
X57605000Y-66521733D01*
X57837299Y-66498853D01*
X58060673Y-66431094D01*
X58266535Y-66321058D01*
X58446975Y-66172975D01*
X58595058Y-65992536D01*
X58705094Y-65786674D01*
X58772853Y-65563300D01*
X58790000Y-65389207D01*
X58790000Y-64872794D01*
X58790000Y-64872793D01*
X61260000Y-64872793D01*
X61260000Y-65389206D01*
X61277147Y-65563299D01*
X61344906Y-65786673D01*
X61454942Y-65992535D01*
X61603025Y-66172975D01*
X61783464Y-66321058D01*
X61989326Y-66431094D01*
X62212700Y-66498853D01*
X62445000Y-66521733D01*
X62677299Y-66498853D01*
X62900673Y-66431094D01*
X63106535Y-66321058D01*
X63286975Y-66172975D01*
X63435058Y-65992536D01*
X63545094Y-65786674D01*
X63548532Y-65775340D01*
X66404265Y-65775340D01*
X66650416Y-66167704D01*
X67152822Y-66433312D01*
X67697393Y-66595801D01*
X68263199Y-66648928D01*
X68828498Y-66590652D01*
X69371566Y-66423210D01*
X69849584Y-66167704D01*
X70095735Y-65775340D01*
X68250000Y-63929605D01*
X66404265Y-65775340D01*
X63548532Y-65775340D01*
X63612853Y-65563300D01*
X63630000Y-65389207D01*
X63630000Y-64872794D01*
X63612853Y-64698701D01*
X63545094Y-64475327D01*
X63435058Y-64269464D01*
X63286975Y-64089025D01*
X63106536Y-63940942D01*
X62900674Y-63830906D01*
X62677472Y-63763199D01*
X65351072Y-63763199D01*
X65409348Y-64328498D01*
X65576790Y-64871566D01*
X65832296Y-65349584D01*
X66224660Y-65595735D01*
X68070395Y-63750000D01*
X66224660Y-61904265D01*
X65832296Y-62150416D01*
X65566688Y-62652822D01*
X65404199Y-63197393D01*
X65351072Y-63763199D01*
X62677472Y-63763199D01*
X62677300Y-63763147D01*
X62445000Y-63740267D01*
X62212701Y-63763147D01*
X61989327Y-63830906D01*
X61783465Y-63940942D01*
X61603026Y-64089025D01*
X61454943Y-64269464D01*
X61344906Y-64475326D01*
X61277147Y-64698700D01*
X61260000Y-64872793D01*
X58790000Y-64872793D01*
X58772853Y-64698701D01*
X58705094Y-64475327D01*
X58595058Y-64269464D01*
X58446975Y-64089025D01*
X58266536Y-63940942D01*
X58060674Y-63830906D01*
X57837300Y-63763147D01*
X57605000Y-63740267D01*
X57372701Y-63763147D01*
X57149327Y-63830906D01*
X56943465Y-63940942D01*
X56763026Y-64089025D01*
X56614943Y-64269464D01*
X56504906Y-64475326D01*
X56437147Y-64698700D01*
X56420000Y-64872793D01*
X38840951Y-64872793D01*
X38822649Y-64838554D01*
X38524609Y-64475391D01*
X38161445Y-64177351D01*
X37747115Y-63955887D01*
X37297541Y-63819510D01*
X36830000Y-63773461D01*
X36362458Y-63819510D01*
X35912884Y-63955887D01*
X35498554Y-64177351D01*
X35135391Y-64475391D01*
X34837351Y-64838555D01*
X34615887Y-65252885D01*
X34479510Y-65702459D01*
X34445000Y-66052844D01*
X29055000Y-66052844D01*
X29055000Y-66052843D01*
X29020490Y-65702458D01*
X28884113Y-65252884D01*
X28662649Y-64838554D01*
X28364609Y-64475391D01*
X28001445Y-64177351D01*
X27587115Y-63955887D01*
X27137541Y-63819510D01*
X26670000Y-63773461D01*
X26202458Y-63819510D01*
X25752884Y-63955887D01*
X25338554Y-64177351D01*
X24975391Y-64475391D01*
X24677351Y-64838555D01*
X24455887Y-65252885D01*
X24319510Y-65702459D01*
X24285000Y-66052844D01*
X22435000Y-66052844D01*
X22435000Y-62652986D01*
X43265000Y-62652986D01*
X43265000Y-62847014D01*
X43302853Y-63037314D01*
X43377104Y-63216572D01*
X43484901Y-63377901D01*
X43622099Y-63515099D01*
X43783428Y-63622896D01*
X43962686Y-63697147D01*
X44015000Y-63707553D01*
X44015000Y-63847014D01*
X44052853Y-64037314D01*
X44127104Y-64216572D01*
X44234901Y-64377901D01*
X44372099Y-64515099D01*
X44533428Y-64622896D01*
X44712686Y-64697147D01*
X44902986Y-64735000D01*
X45097014Y-64735000D01*
X45287314Y-64697147D01*
X45466572Y-64622896D01*
X45627901Y-64515099D01*
X45765099Y-64377901D01*
X45872896Y-64216572D01*
X45947147Y-64037314D01*
X45985000Y-63847014D01*
X45985000Y-63652986D01*
X45947147Y-63462686D01*
X45872896Y-63283428D01*
X45765099Y-63122099D01*
X45627901Y-62984901D01*
X45466572Y-62877104D01*
X45287314Y-62802853D01*
X45235000Y-62792447D01*
X45235000Y-62652986D01*
X45197147Y-62462686D01*
X45122896Y-62283428D01*
X45015099Y-62122099D01*
X44877901Y-61984901D01*
X44716572Y-61877104D01*
X44537314Y-61802853D01*
X44347014Y-61765000D01*
X44152986Y-61765000D01*
X43962686Y-61802853D01*
X43783428Y-61877104D01*
X43622099Y-61984901D01*
X43484901Y-62122099D01*
X43377104Y-62283428D01*
X43302853Y-62462686D01*
X43265000Y-62652986D01*
X22435000Y-62652986D01*
X22435000Y-60935000D01*
X56474128Y-60935000D01*
X56364209Y-61025208D01*
G37*
G04 #@! TD.AperFunction*
M02*
