G04 #@! TF.GenerationSoftware,KiCad,Pcbnew,5.1.6*
G04 #@! TF.CreationDate,2020-09-03T22:14:07-05:00*
G04 #@! TF.ProjectId,pcb,7063622e-6b69-4636-9164-5f7063625858,rev?*
G04 #@! TF.SameCoordinates,Original*
G04 #@! TF.FileFunction,Legend,Top*
G04 #@! TF.FilePolarity,Positive*
%FSLAX46Y46*%
G04 Gerber Fmt 4.6, Leading zero omitted, Abs format (unit mm)*
G04 Created by KiCad (PCBNEW 5.1.6) date 2020-09-03 22:14:07*
%MOMM*%
%LPD*%
G01*
G04 APERTURE LIST*
%ADD10C,0.120000*%
%ADD11C,0.150000*%
G04 APERTURE END LIST*
D10*
X46814490Y-67310000D02*
G75*
G03*
X46814490Y-67310000I-141990J0D01*
G01*
X41861490Y-67183000D02*
G75*
G03*
X41861490Y-67183000I-141990J0D01*
G01*
X59006490Y-72580500D02*
G75*
G03*
X59006490Y-72580500I-141990J0D01*
G01*
X55259990Y-79248000D02*
G75*
G03*
X55259990Y-79248000I-141990J0D01*
G01*
X62435490Y-110236000D02*
G75*
G03*
X62435490Y-110236000I-141990J0D01*
G01*
X53100990Y-115379500D02*
G75*
G03*
X53100990Y-115379500I-141990J0D01*
G01*
X28780490Y-96266000D02*
G75*
G03*
X28780490Y-96266000I-141990J0D01*
G01*
X16524990Y-88011000D02*
G75*
G03*
X16524990Y-88011000I-141990J0D01*
G01*
X28907490Y-81661000D02*
G75*
G03*
X28907490Y-81661000I-141990J0D01*
G01*
D11*
X22106571Y-113927380D02*
X22106571Y-112927380D01*
X22535142Y-113022619D02*
X22582761Y-112975000D01*
X22678000Y-112927380D01*
X22916095Y-112927380D01*
X23011333Y-112975000D01*
X23058952Y-113022619D01*
X23106571Y-113117857D01*
X23106571Y-113213095D01*
X23058952Y-113355952D01*
X22487523Y-113927380D01*
X23106571Y-113927380D01*
X24297047Y-113927380D02*
X24297047Y-112927380D01*
X24535142Y-112927380D01*
X24678000Y-112975000D01*
X24773238Y-113070238D01*
X24820857Y-113165476D01*
X24868476Y-113355952D01*
X24868476Y-113498809D01*
X24820857Y-113689285D01*
X24773238Y-113784523D01*
X24678000Y-113879761D01*
X24535142Y-113927380D01*
X24297047Y-113927380D01*
X25297047Y-113403571D02*
X25630380Y-113403571D01*
X25773238Y-113927380D02*
X25297047Y-113927380D01*
X25297047Y-112927380D01*
X25773238Y-112927380D01*
X26058952Y-112927380D02*
X26392285Y-113927380D01*
X26725619Y-112927380D01*
X28154190Y-113403571D02*
X28297047Y-113451190D01*
X28344666Y-113498809D01*
X28392285Y-113594047D01*
X28392285Y-113736904D01*
X28344666Y-113832142D01*
X28297047Y-113879761D01*
X28201809Y-113927380D01*
X27820857Y-113927380D01*
X27820857Y-112927380D01*
X28154190Y-112927380D01*
X28249428Y-112975000D01*
X28297047Y-113022619D01*
X28344666Y-113117857D01*
X28344666Y-113213095D01*
X28297047Y-113308333D01*
X28249428Y-113355952D01*
X28154190Y-113403571D01*
X27820857Y-113403571D01*
X29011333Y-112927380D02*
X29201809Y-112927380D01*
X29297047Y-112975000D01*
X29392285Y-113070238D01*
X29439904Y-113260714D01*
X29439904Y-113594047D01*
X29392285Y-113784523D01*
X29297047Y-113879761D01*
X29201809Y-113927380D01*
X29011333Y-113927380D01*
X28916095Y-113879761D01*
X28820857Y-113784523D01*
X28773238Y-113594047D01*
X28773238Y-113260714D01*
X28820857Y-113070238D01*
X28916095Y-112975000D01*
X29011333Y-112927380D01*
X29820857Y-113641666D02*
X30297047Y-113641666D01*
X29725619Y-113927380D02*
X30058952Y-112927380D01*
X30392285Y-113927380D01*
X31297047Y-113927380D02*
X30963714Y-113451190D01*
X30725619Y-113927380D02*
X30725619Y-112927380D01*
X31106571Y-112927380D01*
X31201809Y-112975000D01*
X31249428Y-113022619D01*
X31297047Y-113117857D01*
X31297047Y-113260714D01*
X31249428Y-113355952D01*
X31201809Y-113403571D01*
X31106571Y-113451190D01*
X30725619Y-113451190D01*
X31725619Y-113927380D02*
X31725619Y-112927380D01*
X31963714Y-112927380D01*
X32106571Y-112975000D01*
X32201809Y-113070238D01*
X32249428Y-113165476D01*
X32297047Y-113355952D01*
X32297047Y-113498809D01*
X32249428Y-113689285D01*
X32201809Y-113784523D01*
X32106571Y-113879761D01*
X31963714Y-113927380D01*
X31725619Y-113927380D01*
X26130380Y-115577380D02*
X25797047Y-115101190D01*
X25558952Y-115577380D02*
X25558952Y-114577380D01*
X25939904Y-114577380D01*
X26035142Y-114625000D01*
X26082761Y-114672619D01*
X26130380Y-114767857D01*
X26130380Y-114910714D01*
X26082761Y-115005952D01*
X26035142Y-115053571D01*
X25939904Y-115101190D01*
X25558952Y-115101190D01*
X26558952Y-115053571D02*
X26892285Y-115053571D01*
X27035142Y-115577380D02*
X26558952Y-115577380D01*
X26558952Y-114577380D01*
X27035142Y-114577380D01*
X27320857Y-114577380D02*
X27654190Y-115577380D01*
X27987523Y-114577380D01*
X28273238Y-114672619D02*
X28320857Y-114625000D01*
X28416095Y-114577380D01*
X28654190Y-114577380D01*
X28749428Y-114625000D01*
X28797047Y-114672619D01*
X28844666Y-114767857D01*
X28844666Y-114863095D01*
X28797047Y-115005952D01*
X28225619Y-115577380D01*
X28844666Y-115577380D01*
D10*
X19304000Y-88265000D02*
G75*
G03*
X19304000Y-88265000I-635000J0D01*
G01*
X50836100Y-112956121D02*
X50836100Y-113281679D01*
X51856100Y-112956121D02*
X51856100Y-113281679D01*
X61269000Y-66111000D02*
X61669000Y-66561000D01*
X61669000Y-66561000D02*
X60869000Y-66561000D01*
X60869000Y-66561000D02*
X61269000Y-66111000D01*
X56119000Y-60511000D02*
X56119000Y-63311000D01*
X56119000Y-63311000D02*
X55819000Y-63311000D01*
X55819000Y-63311000D02*
X55819000Y-64861000D01*
X63819000Y-60511000D02*
X63819000Y-63311000D01*
X64119000Y-63311000D02*
X63819000Y-63311000D01*
X64119000Y-63311000D02*
X64119000Y-64861000D01*
X69002600Y-111947000D02*
X71662600Y-111947000D01*
X69002600Y-104267000D02*
X69002600Y-111947000D01*
X71662600Y-104267000D02*
X71662600Y-111947000D01*
X69002600Y-104267000D02*
X71662600Y-104267000D01*
X69002600Y-102997000D02*
X69002600Y-101667000D01*
X69002600Y-101667000D02*
X70332600Y-101667000D01*
X69002600Y-88198000D02*
X71662600Y-88198000D01*
X69002600Y-80518000D02*
X69002600Y-88198000D01*
X71662600Y-80518000D02*
X71662600Y-88198000D01*
X69002600Y-80518000D02*
X71662600Y-80518000D01*
X69002600Y-79248000D02*
X69002600Y-77918000D01*
X69002600Y-77918000D02*
X70332600Y-77918000D01*
X50740000Y-61916000D02*
X50740000Y-67116000D01*
X50800000Y-61916000D02*
X50740000Y-61916000D01*
X53400000Y-67116000D02*
X50740000Y-67116000D01*
X50800000Y-61916000D02*
X50800000Y-64516000D01*
X50800000Y-64516000D02*
X53400000Y-64516000D01*
X53400000Y-64516000D02*
X53400000Y-67116000D01*
X52070000Y-61916000D02*
X53400000Y-61916000D01*
X53400000Y-61916000D02*
X53400000Y-63246000D01*
X39945000Y-111947000D02*
X45145000Y-111947000D01*
X39945000Y-104267000D02*
X39945000Y-111947000D01*
X45145000Y-101667000D02*
X45145000Y-111947000D01*
X39945000Y-104267000D02*
X42545000Y-104267000D01*
X42545000Y-104267000D02*
X42545000Y-101667000D01*
X42545000Y-101667000D02*
X45145000Y-101667000D01*
X39945000Y-102997000D02*
X39945000Y-101667000D01*
X39945000Y-101667000D02*
X41275000Y-101667000D01*
X67503200Y-96707000D02*
X67503200Y-91507000D01*
X52203200Y-96707000D02*
X67503200Y-96707000D01*
X49603200Y-91507000D02*
X67503200Y-91507000D01*
X52203200Y-96707000D02*
X52203200Y-94107000D01*
X52203200Y-94107000D02*
X49603200Y-94107000D01*
X49603200Y-94107000D02*
X49603200Y-91507000D01*
X50933200Y-96707000D02*
X49603200Y-96707000D01*
X49603200Y-96707000D02*
X49603200Y-95377000D01*
X39945000Y-96707000D02*
X45145000Y-96707000D01*
X39945000Y-94107000D02*
X39945000Y-96707000D01*
X45145000Y-91507000D02*
X45145000Y-96707000D01*
X39945000Y-94107000D02*
X42545000Y-94107000D01*
X42545000Y-94107000D02*
X42545000Y-91507000D01*
X42545000Y-91507000D02*
X45145000Y-91507000D01*
X39945000Y-92837000D02*
X39945000Y-91507000D01*
X39945000Y-91507000D02*
X41275000Y-91507000D01*
X39945000Y-80959000D02*
X45145000Y-80959000D01*
X39945000Y-80899000D02*
X39945000Y-80959000D01*
X45145000Y-78299000D02*
X45145000Y-80959000D01*
X39945000Y-80899000D02*
X42545000Y-80899000D01*
X42545000Y-80899000D02*
X42545000Y-78299000D01*
X42545000Y-78299000D02*
X45145000Y-78299000D01*
X39945000Y-79629000D02*
X39945000Y-78299000D01*
X39945000Y-78299000D02*
X41275000Y-78299000D01*
X39945000Y-87182000D02*
X45145000Y-87182000D01*
X39945000Y-87122000D02*
X39945000Y-87182000D01*
X45145000Y-84522000D02*
X45145000Y-87182000D01*
X39945000Y-87122000D02*
X42545000Y-87122000D01*
X42545000Y-87122000D02*
X42545000Y-84522000D01*
X42545000Y-84522000D02*
X45145000Y-84522000D01*
X39945000Y-85852000D02*
X39945000Y-84522000D01*
X39945000Y-84522000D02*
X41275000Y-84522000D01*
X51546979Y-110746000D02*
X51221421Y-110746000D01*
X51546979Y-109726000D02*
X51221421Y-109726000D01*
X41721000Y-71475600D02*
G75*
G03*
X41721000Y-71475600I-700000J0D01*
G01*
X46699400Y-71475600D02*
G75*
G03*
X46699400Y-71475600I-700000J0D01*
G01*
X53303400Y-71475600D02*
G75*
G03*
X53303400Y-71475600I-700000J0D01*
G01*
X49239400Y-74472800D02*
G75*
G03*
X49239400Y-74472800I-700000J0D01*
G01*
X52816979Y-106373200D02*
X52491421Y-106373200D01*
X52816979Y-107393200D02*
X52491421Y-107393200D01*
X47714200Y-78272100D02*
X48844200Y-78272100D01*
X47714200Y-79032100D02*
X47714200Y-78272100D01*
X50421730Y-78337100D02*
X51244200Y-78337100D01*
X49604200Y-78337100D02*
X49806670Y-78337100D01*
X49604200Y-78468629D02*
X49604200Y-78337100D01*
X49604200Y-79738629D02*
X49604200Y-79595571D01*
X49407671Y-79792100D02*
X49550729Y-79792100D01*
X47714200Y-79792100D02*
X48280729Y-79792100D01*
X51244200Y-78337100D02*
X51244200Y-84807100D01*
X47714200Y-79792100D02*
X47714200Y-84807100D01*
X49151730Y-84807100D02*
X49806670Y-84807100D01*
X50421730Y-84807100D02*
X51244200Y-84807100D01*
X47714200Y-84807100D02*
X48536670Y-84807100D01*
X49291021Y-77370400D02*
X49616579Y-77370400D01*
X49291021Y-76350400D02*
X49616579Y-76350400D01*
X52491421Y-105716800D02*
X52816979Y-105716800D01*
X52491421Y-104696800D02*
X52816979Y-104696800D01*
X65949100Y-102529421D02*
X65949100Y-102854979D01*
X66969100Y-102529421D02*
X66969100Y-102854979D01*
X54594979Y-87120000D02*
X54269421Y-87120000D01*
X54594979Y-88140000D02*
X54269421Y-88140000D01*
X63091600Y-102529421D02*
X63091600Y-102854979D01*
X64111600Y-102529421D02*
X64111600Y-102854979D01*
X20491221Y-84965000D02*
X20816779Y-84965000D01*
X20491221Y-83945000D02*
X20816779Y-83945000D01*
X20816779Y-96137000D02*
X20491221Y-96137000D01*
X20816779Y-97157000D02*
X20491221Y-97157000D01*
X24729221Y-104650000D02*
X25054779Y-104650000D01*
X24729221Y-103630000D02*
X25054779Y-103630000D01*
X24729221Y-102745000D02*
X25054779Y-102745000D01*
X24729221Y-101725000D02*
X25054779Y-101725000D01*
X25054779Y-98042000D02*
X24729221Y-98042000D01*
X25054779Y-99062000D02*
X24729221Y-99062000D01*
X24729221Y-100840000D02*
X25054779Y-100840000D01*
X24729221Y-99820000D02*
X25054779Y-99820000D01*
X57291700Y-101280179D02*
X57291700Y-100954621D01*
X56271700Y-101280179D02*
X56271700Y-100954621D01*
X51546979Y-108049600D02*
X51221421Y-108049600D01*
X51546979Y-109069600D02*
X51221421Y-109069600D01*
X55640700Y-101280179D02*
X55640700Y-100954621D01*
X54620700Y-101280179D02*
X54620700Y-100954621D01*
X61262479Y-111592900D02*
X60936921Y-111592900D01*
X61262479Y-112612900D02*
X60936921Y-112612900D01*
X64175421Y-108358400D02*
X64500979Y-108358400D01*
X64175421Y-107338400D02*
X64500979Y-107338400D01*
X64175421Y-110009400D02*
X64500979Y-110009400D01*
X64175421Y-108989400D02*
X64500979Y-108989400D01*
X49616579Y-85799200D02*
X49291021Y-85799200D01*
X49616579Y-86819200D02*
X49291021Y-86819200D01*
X51750179Y-101394800D02*
X51424621Y-101394800D01*
X51750179Y-102414800D02*
X51424621Y-102414800D01*
X52816979Y-103045800D02*
X52491421Y-103045800D01*
X52816979Y-104065800D02*
X52491421Y-104065800D01*
X54848979Y-76858400D02*
X54523421Y-76858400D01*
X54848979Y-77878400D02*
X54523421Y-77878400D01*
X64213200Y-78293179D02*
X64213200Y-77967621D01*
X63193200Y-78293179D02*
X63193200Y-77967621D01*
X62600621Y-88165400D02*
X62926179Y-88165400D01*
X62600621Y-87145400D02*
X62926179Y-87145400D01*
X52906200Y-85028821D02*
X52906200Y-85354379D01*
X53926200Y-85028821D02*
X53926200Y-85354379D01*
X54848979Y-75207400D02*
X54523421Y-75207400D01*
X54848979Y-76227400D02*
X54523421Y-76227400D01*
X39740621Y-69394800D02*
X40066179Y-69394800D01*
X39740621Y-68374800D02*
X40066179Y-68374800D01*
X40066179Y-63294800D02*
X39740621Y-63294800D01*
X40066179Y-64314800D02*
X39740621Y-64314800D01*
X44693621Y-69775800D02*
X45019179Y-69775800D01*
X44693621Y-68755800D02*
X45019179Y-68755800D01*
X45019179Y-62913800D02*
X44693621Y-62913800D01*
X45019179Y-63933800D02*
X44693621Y-63933800D01*
X34541679Y-93558900D02*
X34216121Y-93558900D01*
X34541679Y-94578900D02*
X34216121Y-94578900D01*
X34541679Y-78928500D02*
X34216121Y-78928500D01*
X34541679Y-79948500D02*
X34216121Y-79948500D01*
X34541679Y-95273400D02*
X34216121Y-95273400D01*
X34541679Y-96293400D02*
X34216121Y-96293400D01*
X34541679Y-80643000D02*
X34216121Y-80643000D01*
X34541679Y-81663000D02*
X34216121Y-81663000D01*
X55423200Y-78906400D02*
X54948200Y-78906400D01*
X62168200Y-86126400D02*
X62168200Y-85651400D01*
X61693200Y-86126400D02*
X62168200Y-86126400D01*
X54948200Y-86126400D02*
X54948200Y-85651400D01*
X55423200Y-86126400D02*
X54948200Y-86126400D01*
X62168200Y-78906400D02*
X62168200Y-79381400D01*
X61693200Y-78906400D02*
X62168200Y-78906400D01*
X61935000Y-71258000D02*
X61935000Y-69458000D01*
X58715000Y-69458000D02*
X58715000Y-71908000D01*
X39076400Y-67504800D02*
X40976400Y-67504800D01*
X40476400Y-65184800D02*
X39076400Y-65184800D01*
X45375400Y-64734800D02*
X43575400Y-64734800D01*
X43575400Y-67954800D02*
X46025400Y-67954800D01*
X49703400Y-64345736D02*
X49703400Y-65549864D01*
X47883400Y-64345736D02*
X47883400Y-65549864D01*
X50604336Y-68101800D02*
X51808464Y-68101800D01*
X50604336Y-69921800D02*
X51808464Y-69921800D01*
X55361200Y-110569400D02*
X54886200Y-110569400D01*
X54886200Y-110569400D02*
X54886200Y-110094400D01*
X61631200Y-103349400D02*
X62106200Y-103349400D01*
X62106200Y-103349400D02*
X62106200Y-103824400D01*
X55361200Y-103349400D02*
X54886200Y-103349400D01*
X54886200Y-103349400D02*
X54886200Y-103824400D01*
X61631200Y-110569400D02*
X62106200Y-110569400D01*
X32156400Y-96882900D02*
X28706400Y-96882900D01*
X32156400Y-96882900D02*
X34106400Y-96882900D01*
X32156400Y-107002900D02*
X30206400Y-107002900D01*
X32156400Y-107002900D02*
X34106400Y-107002900D01*
X32156400Y-82316000D02*
X28706400Y-82316000D01*
X32156400Y-82316000D02*
X34106400Y-82316000D01*
X32156400Y-92436000D02*
X30206400Y-92436000D01*
X32156400Y-92436000D02*
X34106400Y-92436000D01*
X26115000Y-60820000D02*
X27115000Y-61820000D01*
X26115000Y-60820000D02*
X25115000Y-61820000D01*
X18615000Y-75620000D02*
X18615000Y-60620000D01*
X33615000Y-75620000D02*
X18615000Y-75620000D01*
X33615000Y-60620000D02*
X33615000Y-75620000D01*
X18615000Y-60620000D02*
X33615000Y-60620000D01*
X23964000Y-94216000D02*
X23964000Y-86886000D01*
X17344000Y-86886000D02*
X23964000Y-86886000D01*
X17344000Y-94216000D02*
X23964000Y-94216000D01*
X17344000Y-86886000D02*
X17344000Y-94216000D01*
D11*
X42211666Y-100119380D02*
X42211666Y-100833666D01*
X42164047Y-100976523D01*
X42068809Y-101071761D01*
X41925952Y-101119380D01*
X41830714Y-101119380D01*
X42830714Y-100547952D02*
X42735476Y-100500333D01*
X42687857Y-100452714D01*
X42640238Y-100357476D01*
X42640238Y-100309857D01*
X42687857Y-100214619D01*
X42735476Y-100167000D01*
X42830714Y-100119380D01*
X43021190Y-100119380D01*
X43116428Y-100167000D01*
X43164047Y-100214619D01*
X43211666Y-100309857D01*
X43211666Y-100357476D01*
X43164047Y-100452714D01*
X43116428Y-100500333D01*
X43021190Y-100547952D01*
X42830714Y-100547952D01*
X42735476Y-100595571D01*
X42687857Y-100643190D01*
X42640238Y-100738428D01*
X42640238Y-100928904D01*
X42687857Y-101024142D01*
X42735476Y-101071761D01*
X42830714Y-101119380D01*
X43021190Y-101119380D01*
X43116428Y-101071761D01*
X43164047Y-101024142D01*
X43211666Y-100928904D01*
X43211666Y-100738428D01*
X43164047Y-100643190D01*
X43116428Y-100595571D01*
X43021190Y-100547952D01*
X42211666Y-89959380D02*
X42211666Y-90673666D01*
X42164047Y-90816523D01*
X42068809Y-90911761D01*
X41925952Y-90959380D01*
X41830714Y-90959380D01*
X43116428Y-89959380D02*
X42925952Y-89959380D01*
X42830714Y-90007000D01*
X42783095Y-90054619D01*
X42687857Y-90197476D01*
X42640238Y-90387952D01*
X42640238Y-90768904D01*
X42687857Y-90864142D01*
X42735476Y-90911761D01*
X42830714Y-90959380D01*
X43021190Y-90959380D01*
X43116428Y-90911761D01*
X43164047Y-90864142D01*
X43211666Y-90768904D01*
X43211666Y-90530809D01*
X43164047Y-90435571D01*
X43116428Y-90387952D01*
X43021190Y-90340333D01*
X42830714Y-90340333D01*
X42735476Y-90387952D01*
X42687857Y-90435571D01*
X42640238Y-90530809D01*
X42211666Y-76751380D02*
X42211666Y-77465666D01*
X42164047Y-77608523D01*
X42068809Y-77703761D01*
X41925952Y-77751380D01*
X41830714Y-77751380D01*
X43164047Y-76751380D02*
X42687857Y-76751380D01*
X42640238Y-77227571D01*
X42687857Y-77179952D01*
X42783095Y-77132333D01*
X43021190Y-77132333D01*
X43116428Y-77179952D01*
X43164047Y-77227571D01*
X43211666Y-77322809D01*
X43211666Y-77560904D01*
X43164047Y-77656142D01*
X43116428Y-77703761D01*
X43021190Y-77751380D01*
X42783095Y-77751380D01*
X42687857Y-77703761D01*
X42640238Y-77656142D01*
X42211666Y-82974380D02*
X42211666Y-83688666D01*
X42164047Y-83831523D01*
X42068809Y-83926761D01*
X41925952Y-83974380D01*
X41830714Y-83974380D01*
X43116428Y-83307714D02*
X43116428Y-83974380D01*
X42878333Y-82926761D02*
X42640238Y-83641047D01*
X43259285Y-83641047D01*
M02*
