M48
INCH
T1C0.0130
T2C0.0256
T3C0.0276
T4C0.0350
T5C0.0394
T6C0.0791
T7C0.1063
%
G90
G05
T1
X0.87Y-3.88
X0.87Y-4.1
X1.085Y-3.265
X1.085Y-3.315
X1.0915Y-4.1885
X1.19Y-3.13
X1.22Y-3.1
X1.25Y-3.07
X1.25Y-3.64
X1.2785Y-3.1275
X1.2785Y-3.7035
X1.2785Y-3.771
X1.279Y-3.195
X1.4375Y-3.1275
X1.438Y-3.172
X1.4385Y-4.1885
X1.4405Y-3.8885
X1.441Y-3.315
X1.4415Y-4.0385
X1.443Y-3.365
X1.445Y-3.465
X1.445Y-3.565
X1.446Y-3.7035
X1.446Y-3.7435
X1.447Y-3.615
X1.501Y-2.782
X1.501Y-2.818
X1.54Y-2.463
X1.54Y-2.782
X1.54Y-2.816
X1.602Y-2.4635
X1.648Y-2.612
X1.651Y-2.712
X1.695Y-2.782
X1.695Y-2.816
X1.735Y-2.4505
X1.735Y-2.7805
X1.735Y-2.8155
X1.846Y-2.727
X1.848Y-2.612
X1.873Y-3.262
X1.88Y-3.5
X1.916Y-3.445
X1.92Y-3.5
X1.92Y-3.92
X1.94Y-4.34
X1.941Y-4.274
X1.951Y-4.012
X1.96Y-3.5
X1.96Y-3.92
X1.9675Y-4.4225
X1.968Y-4.4845
X1.993Y-4.077
X1.993Y-4.142
X1.996Y-4.208
X2.0Y-3.5
X2.0Y-3.92
X2.04Y-3.92
X2.05Y-3.385
X2.05Y-3.323
X2.051Y-3.45
X2.087Y-3.098
X2.1025Y-4.34
X2.104Y-4.255
X2.1188Y-3.2782
X2.1194Y-3.1404
X2.12Y-4.37
X2.122Y-3.099
X2.123Y-3.946
X2.123Y-3.986
X2.1255Y-3.8985
X2.1705Y-3.8985
X2.2208Y-4.4992
X2.23Y-3.17
X2.23Y-3.32
X2.23Y-4.14
X2.23Y-4.29
X2.239Y-2.66
X2.239Y-2.7
X2.239Y-2.74
X2.239Y-2.981
X2.24Y-3.02
X2.24Y-3.07
X2.273Y-2.66
X2.273Y-2.7
X2.273Y-2.74
X2.2759Y-3.0471
X2.305Y-3.245
X2.305Y-4.215
X2.3125Y-2.8875
X2.313Y-4.011
X2.36Y-3.87
X2.3745Y-4.4595
X2.375Y-2.864
X2.375Y-2.9
X2.38Y-3.17
X2.38Y-3.32
X2.38Y-4.14
X2.38Y-4.29
X2.395Y-3.434
X2.4365Y-4.46
X2.44Y-3.5018
X2.4575Y-4.012
X2.46Y-3.045
X2.493Y-3.154
X2.502Y-3.403
X2.523Y-4.382
X2.531Y-3.154
X2.557Y-4.382
X2.608Y-4.246
X2.608Y-4.311
X2.6165Y-3.9655
T2
X1.923Y-3.1115
X1.923Y-3.1615
X1.923Y-3.2115
X1.923Y-3.2615
X1.923Y-3.3115
X1.973Y-3.1115
X1.973Y-3.1615
X1.973Y-3.2115
X1.973Y-3.2615
X1.973Y-3.3115
T4
X0.9281Y-2.8866
X1.0281Y-2.8866
T5
X2.769Y-4.055
X2.769Y-4.155
X2.769Y-4.255
X2.769Y-4.355
X1.625Y-3.135
X1.725Y-3.135
X2.0052Y-3.655
X2.0052Y-3.755
X2.1052Y-3.655
X2.1052Y-3.755
X2.2052Y-3.655
X2.2052Y-3.755
X2.3052Y-3.655
X2.3052Y-3.755
X2.4052Y-3.655
X2.4052Y-3.755
X2.5052Y-3.655
X2.5052Y-3.755
X2.6052Y-3.655
X2.6052Y-3.755
X1.625Y-3.38
X1.725Y-3.38
X1.625Y-4.055
X1.625Y-4.155
X1.625Y-4.255
X1.625Y-4.355
X1.725Y-4.055
X1.725Y-4.155
X1.725Y-4.255
X1.725Y-4.355
X2.05Y-2.49
X2.05Y-2.59
X2.769Y-3.12
X2.769Y-3.22
X2.769Y-3.32
X2.769Y-3.42
X1.625Y-3.655
X1.625Y-3.755
X1.725Y-3.655
X1.725Y-3.755
T6
X0.8281Y-2.6866
X1.2281Y-2.6866
T7
X0.6Y-4.55
X2.769Y-4.55
X2.769Y-2.5
X0.599Y-2.5
T2
G00X2.2657Y-2.5563
M15
G01X2.2657Y-2.5721
M16
G05
G00X2.4563Y-2.5563
M15
G01X2.4563Y-2.5721
M16
G05
T3
G00X2.2535Y-2.4363
M15
G01X2.2535Y-2.4559
M16
G05
G00X2.4685Y-2.4363
M15
G01X2.4685Y-2.4559
M16
G05
T0
M30
