G04 #@! TF.GenerationSoftware,KiCad,Pcbnew,5.1.6*
G04 #@! TF.CreationDate,2020-09-03T22:14:07-05:00*
G04 #@! TF.ProjectId,pcb,7063622e-6b69-4636-9164-5f7063625858,rev?*
G04 #@! TF.SameCoordinates,Original*
G04 #@! TF.FileFunction,Copper,L4,Bot*
G04 #@! TF.FilePolarity,Positive*
%FSLAX46Y46*%
G04 Gerber Fmt 4.6, Leading zero omitted, Abs format (unit mm)*
G04 Created by KiCad (PCBNEW 5.1.6) date 2020-09-03 22:14:07*
%MOMM*%
%LPD*%
G01*
G04 APERTURE LIST*
G04 #@! TA.AperFunction,ComponentPad*
%ADD10O,1.350000X1.700000*%
G04 #@! TD*
G04 #@! TA.AperFunction,ComponentPad*
%ADD11O,1.100000X1.500000*%
G04 #@! TD*
G04 #@! TA.AperFunction,ComponentPad*
%ADD12O,1.700000X1.700000*%
G04 #@! TD*
G04 #@! TA.AperFunction,ComponentPad*
%ADD13R,1.700000X1.700000*%
G04 #@! TD*
G04 #@! TA.AperFunction,ComponentPad*
%ADD14O,1.000000X1.000000*%
G04 #@! TD*
G04 #@! TA.AperFunction,ComponentPad*
%ADD15R,1.000000X1.000000*%
G04 #@! TD*
G04 #@! TA.AperFunction,ComponentPad*
%ADD16C,5.400000*%
G04 #@! TD*
G04 #@! TA.AperFunction,ComponentPad*
%ADD17O,1.600000X2.500000*%
G04 #@! TD*
G04 #@! TA.AperFunction,ComponentPad*
%ADD18O,3.500000X7.000000*%
G04 #@! TD*
G04 #@! TA.AperFunction,ViaPad*
%ADD19C,0.685800*%
G04 #@! TD*
G04 #@! TA.AperFunction,Conductor*
%ADD20C,0.398780*%
G04 #@! TD*
G04 #@! TA.AperFunction,Conductor*
%ADD21C,1.270000*%
G04 #@! TD*
G04 #@! TA.AperFunction,Conductor*
%ADD22C,0.248920*%
G04 #@! TD*
G04 APERTURE END LIST*
D10*
X57239000Y-62131000D03*
X62699000Y-62131000D03*
D11*
X57549000Y-65131000D03*
X62389000Y-65131000D03*
D12*
X70332600Y-110617000D03*
X70332600Y-108077000D03*
X70332600Y-105537000D03*
D13*
X70332600Y-102997000D03*
D12*
X70332600Y-86868000D03*
X70332600Y-84328000D03*
X70332600Y-81788000D03*
D13*
X70332600Y-79248000D03*
D12*
X52070000Y-65786000D03*
D13*
X52070000Y-63246000D03*
D12*
X43815000Y-110617000D03*
X41275000Y-110617000D03*
X43815000Y-108077000D03*
X41275000Y-108077000D03*
X43815000Y-105537000D03*
X41275000Y-105537000D03*
X43815000Y-102997000D03*
D13*
X41275000Y-102997000D03*
D12*
X66173200Y-92837000D03*
X66173200Y-95377000D03*
X63633200Y-92837000D03*
X63633200Y-95377000D03*
X61093200Y-92837000D03*
X61093200Y-95377000D03*
X58553200Y-92837000D03*
X58553200Y-95377000D03*
X56013200Y-92837000D03*
X56013200Y-95377000D03*
X53473200Y-92837000D03*
X53473200Y-95377000D03*
X50933200Y-92837000D03*
D13*
X50933200Y-95377000D03*
D12*
X43815000Y-95377000D03*
X41275000Y-95377000D03*
X43815000Y-92837000D03*
D13*
X41275000Y-92837000D03*
D12*
X43815000Y-79629000D03*
D13*
X41275000Y-79629000D03*
D12*
X43815000Y-85852000D03*
D13*
X41275000Y-85852000D03*
D14*
X50114200Y-84112100D03*
X48844200Y-84112100D03*
X50114200Y-82842100D03*
X48844200Y-82842100D03*
X50114200Y-81572100D03*
X48844200Y-81572100D03*
X50114200Y-80302100D03*
X48844200Y-80302100D03*
X50114200Y-79032100D03*
D15*
X48844200Y-79032100D03*
D16*
X15240000Y-115570000D03*
X70332600Y-115570000D03*
X70332600Y-63500000D03*
X15214600Y-63500000D03*
D17*
X23575000Y-73320000D03*
X26115000Y-73320000D03*
D18*
X31195000Y-68240000D03*
X21035000Y-68240000D03*
D19*
X58547000Y-107061000D03*
X56642000Y-108966000D03*
X60452000Y-108966000D03*
X60452000Y-105156000D03*
X56642000Y-105156000D03*
X58547000Y-82423000D03*
X60452000Y-80518000D03*
X60452000Y-84328000D03*
X56642000Y-84328000D03*
X56642000Y-80518000D03*
X57734200Y-67564000D03*
X57734200Y-68580000D03*
X57734200Y-69596000D03*
X46888400Y-69265800D03*
X39115900Y-62560300D03*
X44068900Y-62242800D03*
X49555400Y-101904800D03*
X50622200Y-103555800D03*
X60312200Y-113271400D03*
X66243200Y-107848400D03*
X66243200Y-109499400D03*
X32473900Y-95783400D03*
X32473900Y-94068900D03*
X55130700Y-99021900D03*
X53987700Y-99021900D03*
X50698400Y-106883200D03*
X49301400Y-108559600D03*
X60833000Y-87223600D03*
X63322200Y-80111600D03*
X56870600Y-67564000D03*
X56870600Y-68580000D03*
X56870600Y-69596000D03*
X63550900Y-86436100D03*
X62484100Y-77342900D03*
X53009800Y-78689200D03*
X53898700Y-78714500D03*
X36588700Y-98767900D03*
X36614100Y-102577900D03*
X36537900Y-106387900D03*
X36601400Y-84201000D03*
X36652200Y-85471000D03*
X36703000Y-88011000D03*
X36703000Y-90551000D03*
X36753800Y-91821000D03*
X47574200Y-82854800D03*
X48666300Y-87503100D03*
X60325000Y-72745600D03*
X60325000Y-73660000D03*
X52095400Y-87630000D03*
X52069900Y-85979100D03*
X53817400Y-83266400D03*
X41935400Y-68884800D03*
X32486600Y-81153000D03*
X32473900Y-79438500D03*
X49276000Y-110236000D03*
X49987100Y-113906400D03*
X27724100Y-106387900D03*
X27559000Y-82931000D03*
X27559000Y-84201000D03*
X31750000Y-92456000D03*
X56896000Y-77978000D03*
X46939200Y-66344800D03*
X41859200Y-66344800D03*
X56408246Y-114279754D03*
X44068900Y-70624800D03*
X44068900Y-71513800D03*
X40690900Y-62572800D03*
X66459100Y-100723700D03*
X62420600Y-101904700D03*
X61887200Y-113283900D03*
X53924200Y-100228400D03*
X53924200Y-101244400D03*
X61975900Y-88946431D03*
X53833000Y-79766400D03*
X43053000Y-71526400D03*
X43053000Y-70662800D03*
X64287400Y-80111600D03*
X36728400Y-94068900D03*
X36728400Y-95084900D03*
X52070100Y-84404100D03*
X36512500Y-79438500D03*
X36525200Y-80568800D03*
X30226000Y-79502000D03*
X30988000Y-78740000D03*
X31750000Y-77978000D03*
X50800000Y-88900000D03*
X49784000Y-88900000D03*
X48768000Y-88900000D03*
X47752000Y-88900000D03*
X51816000Y-99568000D03*
X50800000Y-99568000D03*
X49784000Y-99568000D03*
X48768000Y-99568000D03*
X53403500Y-110236000D03*
X49974600Y-112331400D03*
X53848000Y-110998000D03*
X56870600Y-75717400D03*
X56896000Y-76708000D03*
X22098000Y-98552000D03*
X22098000Y-104140000D03*
X50622200Y-105206800D03*
X53441700Y-108076900D03*
X39115900Y-71526400D03*
X39115900Y-70662800D03*
X38125400Y-71577200D03*
X38125400Y-70662800D03*
X64084200Y-111302800D03*
X64947800Y-111302800D03*
X58750200Y-101879400D03*
X59944000Y-98298000D03*
X57808200Y-77396000D03*
X58737500Y-73342500D03*
D20*
X22098000Y-98552000D02*
X21336000Y-99314000D01*
X21336000Y-99314000D02*
X21336000Y-103378000D01*
X21336000Y-103378000D02*
X21717000Y-103759000D01*
X22098000Y-104140000D02*
X21717000Y-103759000D01*
D21*
X39065100Y-71577200D02*
X39115900Y-71526400D01*
X51600101Y-106184701D02*
X50622200Y-105206800D01*
X64084200Y-111302800D02*
X64084200Y-111302800D01*
X53441700Y-108026300D02*
X51600101Y-106184701D01*
X53441700Y-108076900D02*
X53441700Y-108026300D01*
X56667600Y-111302800D02*
X53441700Y-108076900D01*
X64084200Y-111302800D02*
X56667600Y-111302800D01*
X64947800Y-111302800D02*
X64084200Y-111302800D01*
X48895000Y-103479600D02*
X50622200Y-105206800D01*
X48895000Y-103479600D02*
X48869600Y-103479600D01*
X43815000Y-98425000D02*
X43815000Y-95377000D01*
X48869600Y-103479600D02*
X43815000Y-98425000D01*
X39065100Y-71577200D02*
X38125400Y-71577200D01*
X38125400Y-70662800D02*
X39115900Y-70662800D01*
X38608000Y-72059800D02*
X38125400Y-71577200D01*
X38608000Y-93218000D02*
X38608000Y-72059800D01*
X40767000Y-95377000D02*
X38608000Y-93218000D01*
X41275000Y-95377000D02*
X40767000Y-95377000D01*
D22*
X58750200Y-99491800D02*
X59944000Y-98298000D01*
X58750200Y-101879400D02*
X58750200Y-99491800D01*
X57785000Y-77372800D02*
X57808200Y-77396000D01*
X58737500Y-76466700D02*
X57808200Y-77396000D01*
X58737500Y-73342500D02*
X58737500Y-76466700D01*
M02*
